<?xml version="1.0" encoding="UTF-8" standalone="no"?>
<svg
   viewBox="0 0 36 36"
   version="1.1"
   id="svg36730"
   sodipodi:docname="brève.svg"
   inkscape:version="1.2.2 (b0a8486541, 2022-12-01)"
   xmlns:inkscape="http://www.inkscape.org/namespaces/inkscape"
   xmlns:sodipodi="http://sodipodi.sourceforge.net/DTD/sodipodi-0.dtd"
   xmlns="http://www.w3.org/2000/svg"
   xmlns:svg="http://www.w3.org/2000/svg">
  <defs
     id="defs36734" />
  <sodipodi:namedview
     id="namedview36732"
     pagecolor="#ffffff"
     bordercolor="#000000"
     borderopacity="0.25"
     inkscape:showpageshadow="2"
     inkscape:pageopacity="0.0"
     inkscape:pagecheckerboard="0"
     inkscape:deskcolor="#d1d1d1"
     showgrid="false"
     inkscape:zoom="13.266004"
     inkscape:cx="16.395292"
     inkscape:cy="19.485898"
     inkscape:window-width="1920"
     inkscape:window-height="1055"
     inkscape:window-x="0"
     inkscape:window-y="0"
     inkscape:window-maximized="1"
     inkscape:current-layer="svg36730" />
  <path
     fill="#ffac33"
     d="M 26.773176,17.259983 22.936165,15.839699 21.503376,11.14379 c -0.05519,-0.181093 -0.222916,-0.305271 -0.412201,-0.305271 -0.189285,0 -0.357011,0.124178 -0.412202,0.305271 l -1.432357,4.695909 -3.837443,1.420284 c -0.169451,0.06295 -0.281556,0.223779 -0.281556,0.404441 0,0.180231 0.112105,0.34192 0.281556,0.40444 l 3.835286,1.419854 1.433221,4.839058 c 0.05433,0.182817 0.222485,0.308288 0.413495,0.308288 0.190579,0 0.359167,-0.125471 0.413495,-0.30872 l 1.43322,-4.839057 3.835717,-1.419854 c 0.168589,-0.06209 0.281125,-0.223347 0.281125,-0.404009 0,-0.18023 -0.112536,-0.341489 -0.281556,-0.404441 z"
     id="path36726"
     style="stroke-width:0.431174" />
  <path
     fill="#ffcc4d"
     d="m 18.14971,22.003321 -0.997735,-0.369084 -0.388056,-1.422873 c -0.05088,-0.187991 -0.221191,-0.318206 -0.41565,-0.318206 -0.19446,0 -0.364773,0.130215 -0.416082,0.317775 l -0.388057,1.422872 -0.997304,0.369084 c -0.16945,0.06252 -0.281556,0.224211 -0.281556,0.404441 0,0.180231 0.112106,0.341921 0.281556,0.404441 l 0.99213,0.367791 0.391075,1.561709 c 0.04829,0.191441 0.220329,0.325967 0.418238,0.325967 0.197908,0 0.369946,-0.134526 0.418237,-0.326398 l 0.391075,-1.56171 0.992129,-0.367791 c 0.169451,-0.06209 0.281556,-0.223778 0.281556,-0.404009 0,-0.18023 -0.112105,-0.341921 -0.281556,-0.404009 z M 16.279281,12.662814 15.259987,12.285537 14.88228,11.265812 c -0.06252,-0.169451 -0.22378,-0.281556 -0.404441,-0.281556 -0.180231,0 -0.341489,0.112105 -0.40444,0.281556 l -0.377277,1.019725 -1.019725,0.377277 c -0.169451,0.06295 -0.281556,0.22421 -0.281556,0.40444 0,0.180231 0.112105,0.341921 0.281556,0.404441 l 1.019725,0.377276 0.377277,1.019726 c 0.06295,0.16945 0.224209,0.281556 0.40444,0.281556 0.18023,0 0.341489,-0.112106 0.404441,-0.281556 l 0.377276,-1.019726 1.019725,-0.377276 c 0.169451,-0.06295 0.281556,-0.22421 0.281556,-0.404441 0,-0.18023 -0.112105,-0.341489 -0.281556,-0.40444 z"
     id="path36728"
     style="stroke-width:0.431174" />
</svg>
