<?xml version="1.0" encoding="UTF-8" standalone="no"?>
<svg
   width="300"
   height="297"
   viewBox="0 0 300 297"
   version="1.1"
   id="svg6207"
   sodipodi:docname="cee.svg"
   inkscape:version="1.2.2 (b0a8486541, 2022-12-01)"
   xmlns:inkscape="http://www.inkscape.org/namespaces/inkscape"
   xmlns:sodipodi="http://sodipodi.sourceforge.net/DTD/sodipodi-0.dtd"
   xmlns="http://www.w3.org/2000/svg"
   xmlns:svg="http://www.w3.org/2000/svg">
  <defs
     id="defs6211" />
  <sodipodi:namedview
     id="namedview6209"
     pagecolor="#ffffff"
     bordercolor="#000000"
     borderopacity="0.25"
     inkscape:showpageshadow="2"
     inkscape:pageopacity="0.0"
     inkscape:pagecheckerboard="0"
     inkscape:deskcolor="#d1d1d1"
     showgrid="false"
     inkscape:zoom="2.1688266"
     inkscape:cx="101.66788"
     inkscape:cy="133.48232"
     inkscape:window-width="1920"
     inkscape:window-height="1055"
     inkscape:window-x="0"
     inkscape:window-y="0"
     inkscape:window-maximized="1"
     inkscape:current-layer="svg6207" />
  <path
     d="m 211.601,79.105 c -3.245,0.473 -6.133,1.093 -6.417,1.378 -0.833,0.833 4.682,0.463 13.816,-0.927 7.176,-1.092 7.721,-1.295 3.5,-1.303 -2.75,-0.005 -7.655,0.378 -10.899,0.852 M 227.115,83 c -0.046,1.925 0.352,4.175 0.885,5 0.762,1.179 0.951,0.966 0.885,-1 -0.046,-1.375 -0.445,-3.625 -0.885,-5 -0.734,-2.291 -0.808,-2.207 -0.885,1 m -38.287,-1.097 c -3.12,0.334 -6.009,0.944 -6.419,1.355 -0.835,0.834 10.166,-0.066 15.591,-1.276 l 3.5,-0.781 -3.5,0.046 c -1.925,0.026 -6.053,0.321 -9.172,0.656 m -10.813,4.347 c 0.009,1.237 0.446,2.925 0.973,3.75 0.697,1.093 0.92,0.482 0.822,-2.25 -0.141,-3.957 -1.821,-5.36 -1.795,-1.5 M 154,86.522 l -6.5,1.278 8.25,-0.544 8.25,-0.544 0.188,4.144 c 0.474,10.496 1.097,9.487 -6.688,10.83 l -7,1.207 6.918,-0.492 c 3.806,-0.27 7.324,-0.742 7.819,-1.048 1.127,-0.696 -0.119,-13.402 -1.481,-15.103 -1.146,-1.432 -1.08,-1.434 -9.756,0.272 m -17.083,1.868 c -0.229,0.215 -3.114,0.7 -6.411,1.078 -3.296,0.377 -6.221,0.927 -6.5,1.221 -0.692,0.732 13.531,-0.716 16.834,-1.714 l 2.66,-0.803 -3.083,-0.086 c -1.696,-0.047 -3.271,0.09 -3.5,0.304 m -21.25,3.277 c -0.943,0.942 -0.7,6.454 0.389,8.833 0.676,1.475 0.854,0.704 0.68,-2.941 -0.215,-4.505 -0.016,-5.003 2.264,-5.65 l 2.5,-0.71 -2.583,-0.099 c -1.421,-0.055 -2.884,0.2 -3.25,0.567 M 216,94.349 c -4.661,0.784 -5.651,1.182 -3.5,1.405 1.65,0.171 5.925,-0.333 9.5,-1.121 7.606,-1.676 3.442,-1.873 -6,-0.284 M 72.5,96 c -0.782,1.266 0.542,1.266 2.5,0 1.293,-0.835 1.266,-0.971 -0.191,-0.985 C 73.879,95.007 72.84,95.45 72.5,96 m 8.583,-0.639 c 0.23,0.198 2.442,0.655 4.917,1.014 3.145,0.457 4.048,0.353 3,-0.345 -1.349,-0.899 -8.92,-1.538 -7.917,-0.669 M 203,96 c -3.418,0.719 -3.429,0.738 -0.5,0.798 1.65,0.034 3.9,-0.325 5,-0.798 2.405,-1.033 0.409,-1.033 -4.5,0 M 65,99.252 c -3.765,2.387 -6.913,5.65 -6.967,7.221 -0.018,0.534 0.686,-0.055 1.565,-1.31 0.879,-1.255 3.692,-3.596 6.25,-5.203 2.559,-1.607 4.202,-2.923 3.652,-2.924 -0.55,-0.001 -2.575,0.996 -4.5,2.216 M 91,97.35 c 0,0.231 1.18,1.193 2.623,2.139 1.443,0.945 2.318,1.224 1.944,0.62 C 94.854,98.955 91,96.626 91,97.35 m 89.726,7.65 c 0.311,4.675 0.952,9.4 1.423,10.5 1.034,2.412 0.087,-10.403 -1.146,-15.512 -0.551,-2.279 -0.647,-0.543 -0.277,5.012 m 15.904,-7.21 c -0.519,0.84 1.109,16.02 1.899,17.71 0.257,0.55 0.189,-2.6 -0.152,-7 -0.341,-4.4 -0.593,-8.787 -0.56,-9.75 0.063,-1.872 -0.395,-2.242 -1.187,-0.96 m -97.062,6.71 c 2.835,3.717 4.18,4.664 2.484,1.75 -1.624,-2.792 -3.714,-5.25 -4.463,-5.25 -0.38,0 0.511,1.575 1.979,3.5 M 138,103.9 c -4.2,0.56 -4.521,0.817 -4.813,3.85 -0.193,1.996 0.138,3.25 0.858,3.25 0.737,0 0.949,-0.889 0.571,-2.396 -0.681,-2.71 0.645,-3.562 5.716,-3.674 1.742,-0.039 4.068,-0.457 5.168,-0.93 1.809,-0.777 1.761,-0.852 -0.5,-0.78 -1.375,0.044 -4.525,0.35 -7,0.68 m -20.284,11.6 c 0.296,4.95 0.935,9.43 1.418,9.956 0.954,1.039 0.148,-9.663 -1.165,-15.456 -0.478,-2.109 -0.579,0.076 -0.253,5.5 m -62.582,-4.75 c -1.931,3.608 -2.18,11.137 -0.781,23.565 0.794,7.048 1.777,13.123 2.184,13.5 0.408,0.377 0.476,-1.115 0.153,-3.315 -2.523,-17.138 -2.904,-25.285 -1.419,-30.347 1.553,-5.3 1.506,-6.473 -0.137,-3.403 m 49.034,1.301 c 0.585,1.678 1.249,2.866 1.476,2.639 0.495,-0.495 -1.392,-5.69 -2.067,-5.69 -0.26,0 0.006,1.373 0.591,3.051 m -28.668,0.11 c -4.292,2.36 -5.458,5.021 -5.407,12.339 0.026,3.85 0.451,7.9 0.945,9 0.563,1.255 0.673,-1.241 0.297,-6.694 -0.601,-8.693 -0.601,-8.694 2.455,-11.75 4.33,-4.33 8.428,-4.165 12.842,0.515 1.852,1.964 3.368,3.136 3.368,2.604 0,-0.532 -1.591,-2.364 -3.535,-4.071 -3.702,-3.251 -7.397,-3.906 -10.965,-1.943 m 58.558,2.922 c 0.031,1.88 0.453,5.217 0.938,7.417 0.676,3.074 0.75,2.38 0.319,-3 -0.597,-7.45 -1.353,-10.106 -1.257,-4.417 m -27.718,6.748 c 0.088,2.287 0.498,4.16 0.91,4.163 1.044,0.008 0.912,-5.189 -0.175,-6.907 -0.599,-0.947 -0.842,-0.04 -0.735,2.744 M 199.232,121 c 0,1.925 0.206,2.713 0.457,1.75 0.252,-0.963 0.252,-2.537 0,-3.5 -0.251,-0.963 -0.457,-0.175 -0.457,1.75 m -15.98,2.5 c 0.011,2.2 0.216,2.982 0.455,1.738 0.239,-1.244 0.23,-3.044 -0.02,-4 -0.25,-0.956 -0.446,0.062 -0.435,2.262 m -92.738,0.427 c 0.279,1.885 0.668,3.589 0.866,3.786 0.197,0.198 3.23,-0.089 6.739,-0.637 l 6.381,-0.997 -6.226,0.443 -6.226,0.442 -1.021,-3.232 -1.02,-3.232 0.507,3.427 m 137.236,4.071 c 0.688,0.771 1.25,2.635 1.25,4.143 0,1.508 0.356,2.961 0.791,3.23 1.556,0.962 -0.035,-6.326 -1.646,-7.538 -1.385,-1.041 -1.448,-1.015 -0.395,0.165 M 200.164,129 c 0.294,0.899 1.86,1.562 3.913,1.655 2.381,0.107 2.662,0.002 0.923,-0.346 -1.375,-0.275 -3.136,-1.02 -3.913,-1.655 -1.114,-0.91 -1.309,-0.837 -0.923,0.346 M 212,129 c -3.462,0.729 -3.452,0.737 1,0.769 2.475,0.017 5.625,-0.329 7,-0.769 2.251,-0.721 2.151,-0.797 -1,-0.769 -1.925,0.018 -5.075,0.364 -7,0.769 m -91.327,9.184 c 0.304,4.776 0.906,10.176 1.337,12 l 0.785,3.316 0.015,-3.5 c 0.008,-1.925 -0.593,-7.325 -1.337,-12 l -1.352,-8.5 0.552,8.684 M 136,132.774 c 0,1.71 0.443,3.382 0.985,3.717 0.615,0.38 0.749,-0.63 0.356,-2.691 C 136.499,129.378 136,128.997 136,132.774 M 184.689,138 c 0.308,4.675 0.966,9.175 1.463,10 0.972,1.615 0.209,-7.541 -1.209,-14.5 -0.535,-2.627 -0.622,-1.083 -0.254,4.5 M 158,135.983 c -1.051,0.667 -0.079,0.887 3.243,0.735 2.609,-0.12 4.746,-0.556 4.75,-0.968 0.01,-1.078 -6.214,-0.897 -7.993,0.233 m -17.5,2.062 c -2.43,0.462 -0.663,0.552 4.5,0.23 4.675,-0.293 8.688,-0.699 8.917,-0.903 0.705,-0.629 -9.181,-0.133 -13.417,0.673 m 89.695,2.455 c 0.02,1.65 0.244,2.204 0.498,1.231 0.254,-0.973 0.237,-2.323 -0.037,-3 -0.274,-0.677 -0.481,0.119 -0.461,1.769 m -158.525,2 c 0.758,4.943 1.335,5.785 1.315,1.917 -0.009,-1.604 -0.446,-3.592 -0.972,-4.417 -0.651,-1.021 -0.761,-0.224 -0.343,2.5 m 94.829,2.609 c 0.634,4.259 0.508,4.657 -1.657,5.237 -1.288,0.344 -4.142,0.678 -6.342,0.74 -2.2,0.062 -5.125,0.488 -6.5,0.946 -1.503,0.501 0.69,0.608 5.5,0.268 4.4,-0.31 8.595,-1.037 9.322,-1.615 1.353,-1.074 1.14,-8.067 -0.289,-9.475 -0.396,-0.391 -0.411,1.364 -0.034,3.899 m 47.596,-0.991 c -4.073,0.472 -7.656,1.109 -7.962,1.416 -0.751,0.75 14.652,-0.625 17.838,-1.594 l 2.529,-0.768 -2.5,0.044 c -1.375,0.024 -5.832,0.43 -9.905,0.902 m -11.636,2.949 c -1.026,1.66 -0.105,1.89 1.33,0.332 0.71,-0.769 0.849,-1.399 0.309,-1.399 -0.539,0 -1.277,0.48 -1.639,1.067 M 73.161,152.5 c -0.005,1.65 0.603,6.825 1.352,11.5 l 1.363,8.5 -0.529,-8.768 c -0.291,-4.822 -0.9,-9.997 -1.352,-11.5 l -0.823,-2.732 -0.011,3 m 129.881,1.583 c 0.024,1.88 0.692,7.242 1.485,11.917 l 1.442,8.5 -0.508,-7 c -0.658,-9.085 -1.5,-15.872 -2.035,-16.407 -0.234,-0.235 -0.407,1.111 -0.384,2.99 m -63.497,-0.156 c -0.742,1.2 1.015,16.983 1.99,17.886 0.74,0.685 0.048,-7.65 -1.122,-13.499 -0.545,-2.722 -0.285,-3.2 2.235,-4.118 l 2.852,-1.038 -2.691,-0.079 c -1.48,-0.043 -2.949,0.338 -3.264,0.848 m 48.15,7.573 c 0.313,4.95 0.95,9.9 1.415,11 0.923,2.184 0.141,-8.031 -1.186,-15.5 -0.521,-2.936 -0.601,-1.372 -0.229,4.5 M 123.232,157 c 0,1.925 0.206,2.713 0.457,1.75 0.252,-0.963 0.252,-2.537 0,-3.5 -0.251,-0.963 -0.457,-0.175 -0.457,1.75 m -65.553,6 c 0.316,4.125 0.959,7.918 1.427,8.429 1.053,1.148 -0.059,-12.349 -1.189,-14.429 -0.447,-0.825 -0.555,1.875 -0.238,6 m 66.993,9.5 c 0.31,4.95 0.967,9.675 1.459,10.5 0.982,1.644 0.172,-8.79 -1.203,-15.5 -0.532,-2.596 -0.622,-0.842 -0.256,5 m -64.386,7 c 0.008,2.75 0.202,3.756 0.432,2.236 0.229,-1.52 0.223,-3.77 -0.014,-5 -0.237,-1.23 -0.425,0.014 -0.418,2.764 m 16.236,1.456 c 0.27,3.551 0.921,6.887 1.448,7.414 1.015,1.015 0.492,-4.028 -1.075,-10.37 -0.656,-2.656 -0.746,-1.943 -0.373,2.956 m 24.941,-4.895 c -0.451,0.729 1.205,0.85 5.31,0.385 l 5.966,-0.675 0.692,4.615 c 0.38,2.538 0.407,6.751 0.059,9.364 -0.463,3.473 -0.349,4.347 0.423,3.25 1.47,-2.088 1.381,-15.306 -0.113,-16.8 -1.482,-1.482 -11.438,-1.595 -12.337,-0.139 M 235,176 c -1.169,0.755 -0.893,0.973 1.25,0.985 2.484,0.014 2.763,0.378 2.886,3.765 0.092,2.518 0.283,2.977 0.583,1.398 0.61,-3.21 -0.489,-7.151 -1.988,-7.133 -0.677,0.009 -1.906,0.452 -2.731,0.985 m -44.728,4 c 0,2.475 0.195,3.488 0.434,2.25 0.238,-1.238 0.238,-3.262 0,-4.5 -0.239,-1.238 -0.434,-0.225 -0.434,2.25 m -93.012,2.954 c 0.091,3.275 0.386,5.733 0.657,5.462 C 98.7,187.633 98.6,177 97.809,177 c -0.393,0 -0.64,2.679 -0.549,5.954 m 44.992,-2.454 c 0.011,2.2 0.216,2.982 0.455,1.738 0.239,-1.244 0.23,-3.044 -0.02,-4 -0.25,-0.956 -0.446,0.062 -0.435,2.262 M 206,177.878 c 0,0.482 0.749,1.495 1.664,2.25 1.508,1.244 1.552,1.162 0.465,-0.878 -1.24,-2.327 -2.129,-2.9 -2.129,-1.372 m 11.332,0.024 c -3.392,0.329 -6.527,0.958 -6.966,1.398 -0.902,0.903 11.79,-0.211 15.634,-1.373 l 2.5,-0.755 -2.5,0.066 c -1.375,0.037 -5.275,0.336 -8.668,0.664 M 160,184.742 c -3.025,0.205 -5.95,0.835 -6.5,1.401 -0.998,1.025 5.155,0.566 15.5,-1.158 l 4.5,-0.75 -4,0.068 c -2.2,0.037 -6.475,0.235 -9.5,0.439 M 61.115,188.5 c -0.046,1.65 0.352,3.675 0.885,4.5 0.799,1.236 0.955,1.148 0.885,-0.5 -0.046,-1.1 -0.445,-3.125 -0.885,-4.5 -0.785,-2.45 -0.802,-2.44 -0.885,0.5 M 143,187.201 c 0,0.439 1.575,0.799 3.5,0.799 1.925,0 3.5,-0.176 3.5,-0.391 0,-0.214 -1.575,-0.574 -3.5,-0.799 -1.925,-0.225 -3.5,-0.049 -3.5,0.391 m 97.068,1.479 c -0.053,2.476 -0.566,3.277 -2.318,3.614 -2.155,0.415 -2.16,0.439 -0.122,0.57 3.129,0.2 4.919,-2.367 3.582,-5.138 -1.012,-2.096 -1.079,-2.04 -1.142,0.954 m -48.58,2.82 c 0.579,5.521 2.426,7.633 5.808,6.644 1.881,-0.55 1.728,-0.69 -1.046,-0.957 -2.903,-0.28 -3.257,-0.654 -3.32,-3.5 -0.039,-1.753 -0.497,-4.087 -1.019,-5.187 -0.677,-1.43 -0.798,-0.575 -0.423,3 M 176.086,190 c -0.031,1.375 0.381,3.175 0.914,4 0.8,1.238 0.96,1.151 0.914,-0.5 -0.03,-1.1 -0.441,-2.9 -0.914,-4 -0.787,-1.832 -0.864,-1.79 -0.914,0.5 m -82.392,2.532 c -3.561,3.132 -8.857,3.305 -11.777,0.385 -1.146,-1.146 -2.295,-1.872 -2.553,-1.614 -1.042,1.042 5.107,4.697 7.903,4.697 3.1,0 9.733,-3.463 9.733,-5.082 0,-1.252 -0.11,-1.198 -3.306,1.614 M 127.687,198 c 0.314,3.575 0.899,6.864 1.301,7.309 0.925,1.025 0.006,-9.132 -1.069,-11.809 -0.449,-1.12 -0.552,0.861 -0.232,4.5 M 218,194.371 c -5.575,0.716 -7.296,1.191 -5,1.381 1.925,0.159 7.55,-0.352 12.5,-1.135 10.502,-1.661 4.937,-1.844 -7.5,-0.246 m -108.193,4.877 c -1.409,2.554 -4.325,5.544 -7.314,7.5 -2.733,1.788 -4.48,3.252 -3.882,3.252 3.2,0 11.979,-8.495 13.695,-13.25 1.109,-3.074 -0.083,-1.883 -2.499,2.498 M 177.158,198 c 0,1.375 0.227,1.938 0.504,1.25 0.278,-0.687 0.278,-1.812 0,-2.5 -0.277,-0.687 -0.504,-0.125 -0.504,1.25 m 26.604,-1.293 c 1.244,0.239 3.044,0.23 4,-0.02 0.956,-0.25 -0.062,-0.446 -2.262,-0.435 -2.2,0.011 -2.982,0.216 -1.738,0.455 M 64,198.787 c 0,1.043 3.833,6.28 5.464,7.467 6.441,4.685 9.764,5.746 18.004,5.746 4.628,0 8.623,-0.338 8.877,-0.75 0.255,-0.412 -3.656,-0.75 -8.69,-0.75 -10.903,0 -15.364,-1.84 -20.405,-8.416 C 65.463,199.752 64,198.269 64,198.787 m 98,2.758 -7.5,1.286 8.487,-0.565 c 9.178,-0.612 16.606,-2.133 10.013,-2.051 -1.925,0.024 -6.875,0.623 -11,1.33 m -21.729,2.414 c -3.976,0.367 -7.54,0.976 -7.918,1.355 -0.842,0.842 14.163,-0.339 17.647,-1.389 l 2.5,-0.753 -2.5,0.061 c -1.375,0.033 -5.753,0.36 -9.729,0.726"
     stroke="none"
     fill="#388db4"
     fill-rule="evenodd"
     id="path6201"
     style="fill:#263d75;fill-opacity:1"
     sodipodi:nodetypes="ccsccccccccccccccccccccccccccccccccccccccccccccccccccccccccccccscscccccccccccsccccscccscccccccsccccccccsscccccscscccccccccccccccsscccccccccccscccccccccccccccccccccccccccccccccccccsscccscccscccccccccccccscccccccccccccccccccccccccccccccccccscccsccsccccccccsccccccccccccssccsscccccccccccccccccccccccsssccccccccccccccccccsssscccccccccccscccccccsscccscsccccccccccccc" />
  <path
     d="M 219.500 79.528 C 218.950 79.731, 214 80.369, 208.500 80.945 C 188.063 83.086, 180.509 84.177, 179.959 85.067 C 179.376 86.010, 180.049 93.312, 181.843 105.500 C 182.409 109.350, 183.154 115.650, 183.498 119.500 C 183.842 123.350, 184.735 131, 185.482 136.500 C 186.230 142, 187.791 154.825, 188.952 165 C 190.113 175.175, 191.498 185.419, 192.031 187.764 C 192.564 190.110, 193 193.147, 193 194.514 C 193 197.839, 191.889 197.894, 235.750 192.409 C 240.486 191.817, 240.497 191.785, 239.352 182.250 L 238.721 177 234.671 177 C 232.443 177, 228.118 177.451, 225.060 178.002 C 212.127 180.333, 207.996 180.700, 207.096 179.599 C 206.313 178.641, 204.062 164.288, 202.642 151.192 C 202.216 147.260, 202.406 146.796, 204.825 145.877 C 206.282 145.322, 212.597 144.367, 218.857 143.754 L 230.239 142.639 229.567 136.069 C 229.198 132.456, 228.475 129.079, 227.961 128.564 C 227.381 127.982, 224.655 128.072, 220.764 128.801 C 217.319 129.446, 211.359 130.092, 207.519 130.237 L 200.538 130.500 198.930 119.500 C 195.770 97.883, 195.773 98.037, 198.485 97.006 C 199.806 96.504, 203.049 95.881, 205.693 95.622 C 208.337 95.363, 214.699 94.582, 219.830 93.885 C 229.129 92.623, 229.158 92.610, 228.492 90.059 C 228.124 88.652, 227.592 85.588, 227.311 83.250 C 226.827 79.236, 226.623 79.004, 223.649 79.079 C 221.917 79.122, 220.050 79.324, 219.500 79.528 M 148.500 88.037 C 129.551 90.348, 117.771 92.024, 116.966 92.521 C 116.044 93.091, 116.265 96.605, 118.032 109.500 C 118.560 113.350, 120.129 126.175, 121.519 138 C 122.910 149.825, 124.512 162.875, 125.079 167 C 125.647 171.125, 126.536 178.775, 127.056 184 C 128.333 196.857, 129.482 204.816, 130.160 205.494 C 130.470 205.803, 131.939 205.593, 133.426 205.028 C 134.913 204.463, 137.563 204.011, 139.315 204.025 C 141.067 204.039, 150.298 203.033, 159.828 201.790 L 177.156 199.528 176.458 192.514 C 176.074 188.656, 175.380 185.258, 174.915 184.963 C 174.450 184.667, 167.293 185.293, 159.009 186.353 C 150.726 187.414, 143.693 188.026, 143.381 187.715 C 143.070 187.403, 142.441 183.627, 141.984 179.324 C 141.527 175.021, 140.662 167.755, 140.062 163.177 C 139.462 158.600, 139.191 154.500, 139.459 154.066 C 139.727 153.633, 142.771 152.983, 146.223 152.621 C 153.279 151.883, 158.908 151.173, 163.835 150.400 L 167.171 149.877 166.459 144.689 C 166.067 141.835, 165.642 138.825, 165.515 138 C 165.243 136.241, 164.332 136.236, 149.173 137.920 C 142.943 138.613, 137.606 138.939, 137.313 138.647 C 137.020 138.354, 136.424 135.051, 135.988 131.307 C 135.551 127.563, 134.668 120.347, 134.026 115.270 C 133.383 110.194, 133.102 105.645, 133.400 105.161 C 133.699 104.678, 136.994 103.984, 140.722 103.621 C 151.402 102.579, 163.428 100.748, 164.255 100.038 C 164.670 99.682, 164.719 96.602, 164.363 93.195 L 163.715 87 159.108 87.152 C 156.573 87.236, 151.800 87.634, 148.500 88.037 M 72.794 96.660 C 67.950 98.306, 62.066 102.097, 59.253 105.383 C 58.017 106.827, 56.270 110.656, 55.370 113.893 C 53.855 119.343, 53.855 120.800, 55.377 133.639 C 56.281 141.262, 57.015 149.166, 57.010 151.203 C 57.004 153.240, 57.413 155.940, 57.917 157.203 C 58.422 158.466, 59.363 164.900, 60.008 171.500 C 62.394 195.886, 65.464 203.704, 74.500 208.404 C 80.579 211.566, 92.540 211.885, 98.413 209.042 C 104.877 205.913, 107.491 203.588, 110.559 198.240 C 112.870 194.213, 113.296 192.272, 113.390 185.333 C 113.450 180.842, 113.182 176.849, 112.794 176.461 C 112.406 176.073, 109.031 176.148, 105.294 176.628 C 98.548 177.494, 98.501 177.521, 98.680 180.500 C 98.779 182.150, 98.383 185.412, 97.800 187.749 C 96.076 194.663, 87.722 198.295, 82.292 194.492 C 78.868 192.093, 77.008 187.213, 76.022 178.036 C 75.517 173.341, 74.366 163.425, 73.462 156 C 69.962 127.232, 69.491 119.319, 71.100 116.313 C 72.661 113.397, 76.863 111, 80.416 111 C 84.229 111, 89.714 116.349, 90.466 120.801 C 91.477 126.780, 91.772 126.956, 99.522 126.180 L 106.500 125.481 106.229 120.991 C 105.710 112.376, 101.132 104.338, 94.090 99.679 C 88.264 95.823, 79.085 94.522, 72.794 96.660"
     stroke="none"
     fill="#00a7d1"
     fill-rule="evenodd"
     id="path6203"
     style="stroke:#263d75;stroke-opacity:1;stroke-width:4;stroke-dasharray:none;fill:#263d75;fill-opacity:1" />
  <path
     d="m 112,2.869 c -0.825,0.449 -3.75,1.887 -6.5,3.195 -2.75,1.308 -8.094,4.866 -11.875,7.907 -13.318,10.711 -20.257,15.193 -33.594,21.7 -7.408,3.615 -15.475,8.103 -17.926,9.975 -8.31,6.345 -12.958,15.689 -17.586,35.354 -1.284,5.457 -3.488,12.002 -5.259,15.618 -2.393,4.886 -4.814,9.56 -9.368,18.085 -2.72,5.09 -5.446,11.401 -6.059,14.026 -2.122,9.08 -0.873,21.387 3.013,29.681 5.307,11.327 9.679,29.174 11.536,47.09 1.677,16.183 8.135,25.389 26.118,37.232 11.086,7.301 20.137,14.696 25.419,20.768 7.092,8.153 15.968,16.266 20.674,18.896 6.53,3.65 15.938,4.713 34.806,3.935 12.222,-0.505 16.599,-0.313 21.705,0.948 14.428,3.564 18.854,4.221 28.437,4.221 9.651,0 10.341,-0.15 17.718,-3.846 4.222,-2.115 9.603,-5.522 11.959,-7.572 10.058,-8.753 18.353,-14.373 28.969,-19.627 6.222,-3.08 12.8,-6.355 14.618,-7.277 5.873,-2.981 12.449,-8.563 15.739,-13.36 3.101,-4.521 8.456,-18.972 8.456,-22.821 0,-1.033 0.45,-2.157 1,-2.497 0.55,-0.34 1,-1.49 1,-2.555 0,-3.416 4.056,-13.799 9.281,-23.76 C 296.438,165.009 295.5,167.783 295.5,155 c 0,-10.539 -0.263,-12.168 -3.15,-19.5 -6.806,-17.288 -9.679,-28.116 -10.878,-41 C 280.078,79.518 276.717,70.013 270.304,62.915 267.049,59.312 252.087,48 250.576,48 c -0.34,0 -3.647,-2.362 -7.347,-5.248 C 236.841,37.77 231.862,32.996 220.5,20.962 214.201,14.29 206.383,9.244 200.251,7.893 192.201,6.119 182.52,5.734 174.184,6.856 166.141,7.938 153.78,6.84 140.5,3.865 134.283,2.472 114.029,1.764 112,2.869 m 14.414,22.12 C 113.231,27.63 96.397,33.705 89.846,38.185 88.386,39.183 86.899,40 86.541,40 84.772,40 72.757,49.166 65.692,55.905 51.919,69.041 41.522,84.615 34.248,103 c -8.342,21.085 -9.684,52.767 -3.242,76.5 9.76,35.956 36.787,67.075 70.303,80.949 12.354,5.114 16.013,6.197 28.656,8.48 14.86,2.684 25.597,2.604 41.035,-0.307 42.828,-8.075 75.586,-34.813 92.058,-75.14 6.703,-16.412 8.248,-25.071 8.293,-46.482 0.039,-18.85 -1.448,-29.191 -5.751,-40 C 256.977,85.342 250.126,74.1 237.567,61 230.633,53.767 225.702,49.554 219,45.133 c -3.025,-1.995 -5.725,-3.907 -6,-4.249 -1.03,-1.279 -19.747,-9.832 -26,-11.88 -18.544,-6.074 -42.414,-7.656 -60.586,-4.015 m 18.336,62.673 c 0.688,0.278 1.813,0.278 2.5,0 0.688,-0.277 0.125,-0.504 -1.25,-0.504 -1.375,0 -1.937,0.227 -1.25,0.504 m -24,3 c 0.688,0.278 1.813,0.278 2.5,0 0.688,-0.277 0.125,-0.504 -1.25,-0.504 -1.375,0 -1.937,0.227 -1.25,0.504 M 116.158,104 c 0,1.375 0.227,1.938 0.504,1.25 0.278,-0.687 0.278,-1.812 0,-2.5 -0.277,-0.687 -0.504,-0.125 -0.504,1.25 m -37.908,8.689 c 0.963,0.252 2.537,0.252 3.5,0 0.963,-0.251 0.175,-0.457 -1.75,-0.457 -1.925,0 -2.713,0.206 -1.75,0.457 M 135.158,118 c 0,1.375 0.227,1.938 0.504,1.25 0.278,-0.687 0.278,-1.812 0,-2.5 -0.277,-0.687 -0.504,-0.125 -0.504,1.25 m 1.037,9.5 c 0.02,1.65 0.244,2.204 0.498,1.231 0.254,-0.973 0.237,-2.323 -0.037,-3 -0.274,-0.677 -0.481,0.119 -0.461,1.769 M 53.158,128 c 0,1.375 0.227,1.938 0.504,1.25 0.278,-0.687 0.278,-1.812 0,-2.5 -0.277,-0.687 -0.504,-0.125 -0.504,1.25 m 66,0 c 0,1.375 0.227,1.938 0.504,1.25 0.278,-0.687 0.278,-1.812 0,-2.5 -0.277,-0.687 -0.504,-0.125 -0.504,1.25 m 104.592,-0.338 c 0.688,0.278 1.813,0.278 2.5,0 0.688,-0.277 0.125,-0.504 -1.25,-0.504 -1.375,0 -1.937,0.227 -1.25,0.504 M 54.158,137 c 0,1.375 0.227,1.938 0.504,1.25 0.278,-0.687 0.278,-1.812 0,-2.5 -0.277,-0.687 -0.504,-0.125 -0.504,1.25 m 112,2 c 0,1.375 0.227,1.938 0.504,1.25 0.278,-0.687 0.278,-1.812 0,-2.5 -0.277,-0.687 -0.504,-0.125 -0.504,1.25 m 37,10 c 0,1.375 0.227,1.938 0.504,1.25 0.278,-0.687 0.278,-1.812 0,-2.5 -0.277,-0.687 -0.504,-0.125 -0.504,1.25 m -57.408,4.662 c 0.688,0.278 1.813,0.278 2.5,0 0.688,-0.277 0.125,-0.504 -1.25,-0.504 -1.375,0 -1.937,0.227 -1.25,0.504 M 76.158,173 c 0,1.375 0.227,1.938 0.504,1.25 0.278,-0.687 0.278,-1.812 0,-2.5 -0.277,-0.687 -0.504,-0.125 -0.504,1.25 m 130.037,1.5 c 0.02,1.65 0.244,2.204 0.498,1.231 0.254,-0.973 0.237,-2.323 -0.037,-3 -0.274,-0.677 -0.481,0.119 -0.461,1.769 m -64.037,0.5 c 0,1.375 0.227,1.938 0.504,1.25 0.278,-0.687 0.278,-1.812 0,-2.5 -0.277,-0.687 -0.504,-0.125 -0.504,1.25 m 47,1 c 0,1.375 0.227,1.938 0.504,1.25 0.278,-0.687 0.278,-1.812 0,-2.5 -0.277,-0.687 -0.504,-0.125 -0.504,1.25 M 209,179 c -0.825,0.533 -1.05,0.969 -0.5,0.969 0.55,0 1.675,-0.436 2.5,-0.969 0.825,-0.533 1.05,-0.969 0.5,-0.969 -0.55,0 -1.675,0.436 -2.5,0.969 m 31.015,4.583 c 0.009,1.054 0.472,2.592 1.031,3.417 0.741,1.095 0.834,0.691 0.344,-1.5 -0.823,-3.677 -1.395,-4.475 -1.375,-1.917 M 143,184.441 c 0,0.793 0.408,1.693 0.907,2.001 0.498,0.309 0.671,-0.34 0.383,-1.441 -0.611,-2.335 -1.29,-2.63 -1.29,-0.56 m 6.75,2.221 c 0.688,0.278 1.813,0.278 2.5,0 0.688,-0.277 0.125,-0.504 -1.25,-0.504 -1.375,0 -1.937,0.227 -1.25,0.504 m 41.366,7.888 c -0.121,2.143 1.577,4.45 3.275,4.45 0.545,0 0.268,-0.562 -0.616,-1.25 -0.883,-0.687 -1.817,-2.15 -2.075,-3.25 -0.458,-1.957 -0.47,-1.956 -0.584,0.05 M 86.269,212.693 c 0.973,0.254 2.323,0.237 3,-0.037 0.677,-0.274 -0.119,-0.481 -1.769,-0.461 -1.65,0.02 -2.204,0.244 -1.231,0.498"
     stroke="none"
     fill="#7fbd29"
     fill-rule="evenodd"
     id="path6205"
     style="fill:#263d75;fill-opacity:1"
     sodipodi:nodetypes="csccccscccccccccscccccssscscccsccccccccscccsccccccccccccscccscccccccsccccccsscccccccccccscccccccccccccccsccccccssccccccccccssscccccccccccsccsccccssc" />
</svg>
