<?xml version="1.0" encoding="UTF-8" standalone="no"?>
<svg
   width="300"
   height="297"
   viewBox="0 0 300 297"
   version="1.1"
   id="svg6207"
   sodipodi:docname="cee.svg"
   inkscape:version="1.2.2 (b0a8486541, 2022-12-01)"
   xmlns:inkscape="http://www.inkscape.org/namespaces/inkscape"
   xmlns:sodipodi="http://sodipodi.sourceforge.net/DTD/sodipodi-0.dtd"
   xmlns="http://www.w3.org/2000/svg"
   xmlns:svg="http://www.w3.org/2000/svg">
  <defs
     id="defs6211" />
  <sodipodi:namedview
     id="namedview6209"
     pagecolor="#ffffff"
     bordercolor="#000000"
     borderopacity="0.25"
     inkscape:showpageshadow="2"
     inkscape:pageopacity="0.0"
     inkscape:pagecheckerboard="0"
     inkscape:deskcolor="#d1d1d1"
     showgrid="false"
     inkscape:zoom="0.66254663"
     inkscape:cx="64.901092"
     inkscape:cy="132.06618"
     inkscape:window-width="949"
     inkscape:window-height="1041"
     inkscape:window-x="962"
     inkscape:window-y="5"
     inkscape:window-maximized="1"
     inkscape:current-layer="svg6207" />
  <path
     d="m 214.73697,91.448741 c -0.48282,0.17821 -4.82815,0.738272 -9.65631,1.243901 -17.94051,1.879469 -24.57176,2.837194 -25.05458,3.618484 -0.51177,0.82781 0.079,7.237834 1.65386,17.936994 0.49686,3.37971 1.15085,8.91015 1.45284,12.28985 0.30198,3.3797 1.08588,10.09522 1.74164,14.92336 0.65663,4.82815 2.02695,16.08653 3.04612,25.01861 1.01918,8.93207 2.235,17.92471 2.70289,19.98326 0.46789,2.05943 0.85063,4.72545 0.85063,5.92547 0,2.91883 -0.97528,2.96711 37.52789,-1.84788 4.15748,-0.51968 4.16713,-0.54777 3.16199,-8.91802 l -0.55391,-4.60869 h -3.55528 c -1.95583,0 -5.75252,0.3959 -8.43696,0.8796 -11.35318,2.04626 -14.97956,2.36844 -15.76962,1.40192 -0.68735,-0.84098 -2.66339,-13.44068 -3.90992,-24.93696 -0.37396,-3.45168 -0.20718,-3.859 1.91634,-4.66573 1.27901,-0.48721 6.82261,-1.32556 12.31791,-1.86368 l 9.99165,-0.9788 -0.58992,-5.76745 c -0.32392,-3.17165 -0.95861,-6.13614 -1.40982,-6.58823 -0.50915,-0.51091 -2.90215,-0.4319 -6.31786,0.20805 -3.02417,0.56621 -8.25613,1.1333 -11.62704,1.26059 l -6.12825,0.23087 -1.41157,-9.65629 c -2.77399,-18.97638 -2.77136,-18.8412 -0.39065,-19.74625 1.15964,-0.44068 4.00648,-0.98758 6.32751,-1.21494 2.32103,-0.22736 7.90587,-0.91297 12.41009,-1.52482 8.16309,-1.10783 8.18856,-1.11924 7.60391,-3.35862 -0.32304,-1.235144 -0.79006,-3.924864 -1.03673,-5.977262 -0.42489,-3.523661 -0.60396,-3.727324 -3.21468,-3.661481 -1.52043,0.03775 -3.15937,0.215066 -3.64217,0.394144 m -62.32703,7.469585 c -16.63428,2.028704 -26.97531,3.499974 -27.68197,3.936264 -0.80937,0.50037 -0.61537,3.58511 0.93579,14.90492 0.4635,3.37971 1.84083,14.63807 3.06104,25.01859 1.22108,10.38053 2.62739,21.83642 3.12513,25.45752 0.49861,3.62112 1.27902,10.33664 1.73551,14.92337 1.121,11.28647 2.12964,18.27323 2.72482,18.86841 0.27213,0.27126 1.56168,0.0869 2.86704,-0.40908 1.30536,-0.49597 3.63165,-0.89276 5.16964,-0.88047 1.53798,0.0123 9.64137,-0.87083 18.00724,-1.96198 l 15.2113,-1.98569 -0.61273,-6.15722 c -0.3371,-3.38671 -0.94632,-6.36964 -1.35452,-6.62859 -0.40819,-0.25985 -6.69093,0.28968 -13.96301,1.22019 -7.27118,0.93141 -13.44508,1.46865 -13.71896,1.19563 -0.27301,-0.27388 -0.82518,-3.58863 -1.22635,-7.366 -0.40118,-3.77737 -1.16051,-10.15579 -1.68722,-14.17456 -0.5267,-4.0179 -0.7646,-7.61707 -0.52934,-7.99805 0.23526,-0.38011 2.90742,-0.95071 5.93775,-1.2685 6.19407,-0.64784 11.13546,-1.27111 15.46061,-1.94968 l 2.92849,-0.45912 -0.62502,-4.55426 c -0.34413,-2.50539 -0.71721,-5.14769 -0.8287,-5.87192 -0.23878,-1.54412 -1.03848,-1.54852 -14.34574,-0.0702 -5.46898,0.60835 -10.15403,0.89452 -10.41125,0.6382 -0.25721,-0.25721 -0.78041,-3.15673 -1.16314,-6.44339 -0.38362,-3.28665 -1.15877,-9.62118 -1.72234,-14.07801 -0.56445,-4.45594 -0.81113,-8.44925 -0.54953,-8.87413 0.26247,-0.424 3.15498,-1.03322 6.42759,-1.35188 9.37538,-0.91471 19.93235,-2.52206 20.65833,-3.14533 0.36431,-0.3125 0.40732,-3.01627 0.0948,-6.00709 l -0.56885,-5.438234 -4.04423,0.13343 c -2.22533,0.0738 -6.41529,0.42312 -9.31218,0.77689 m -66.458138,7.569654 c -4.25229,1.44493 -9.417528,4.77283 -11.886912,7.65744 -1.085012,1.26761 -2.618608,4.62888 -3.408674,7.47046 -1.329932,4.78426 -1.329932,6.06328 0.0057,17.33393 0.793579,6.69182 1.43791,13.63031 1.43352,15.41849 -0.0057,1.78817 0.353776,4.15835 0.796212,5.26707 0.443315,1.10872 1.269359,6.75679 1.835578,12.55057 2.094535,21.40713 4.789522,28.27012 12.721724,32.396 5.336424,2.77575 15.83633,3.05577 20.99191,0.56006 5.67439,-2.74678 7.96907,-4.78777 10.66231,-9.48248 2.0287,-3.53509 2.40266,-5.23899 2.48518,-11.33036 0.0526,-3.9424 -0.18259,-7.44764 -0.5232,-7.78824 -0.34061,-0.3406 -3.30333,-0.27476 -6.58385,0.1466 -5.92193,0.76021 -5.96319,0.78392 -5.80606,3.39902 0.0869,1.44844 -0.26071,4.31197 -0.7725,6.3635 -1.5134,6.06942 -8.846909,9.25776 -13.613613,5.9193 -3.005738,-2.10594 -4.638531,-6.38983 -5.504087,-14.44582 -0.443315,-4.12148 -1.453714,-12.82618 -2.247293,-19.3442 -3.072447,-25.25385 -3.48592,-32.20026 -2.073462,-34.83906 1.370312,-2.55978 5.059016,-4.66398 8.178001,-4.66398 3.347233,0 8.162204,4.69559 8.822344,8.60376 0.88751,5.24863 1.14647,5.40314 7.94976,4.72193 l 6.1256,-0.61361 -0.23789,-3.94153 c -0.4556,-7.56265 -4.47439,-14.61877 -10.65616,-18.70864 -5.114321,-3.38497 -13.172059,-4.52705 -18.694585,-2.65021"
     stroke="none"
     fill="#00a7d1"
     fill-rule="evenodd"
     id="path6203"
     style="fill:#263d75;fill-opacity:1;stroke:#263d75;stroke-width:3.51139;stroke-dasharray:none;stroke-opacity:1" />
  <path
     d="m 112,2.869 c -0.825,0.449 -3.75,1.887 -6.5,3.195 -2.75,1.308 -8.094,4.866 -11.875,7.907 -13.318,10.711 -20.257,15.193 -33.594,21.7 -7.408,3.615 -15.475,8.103 -17.926,9.975 -8.31,6.345 -12.958,15.689 -17.586,35.354 -1.284,5.457 -3.488,12.002 -5.259,15.618 -2.393,4.886 -4.814,9.56 -9.368,18.085 -2.72,5.09 -5.446,11.401 -6.059,14.026 -2.122,9.08 -0.873,21.387 3.013,29.681 5.307,11.327 9.679,29.174 11.536,47.09 1.677,16.183 8.135,25.389 26.118,37.232 11.086,7.301 20.137,14.696 25.419,20.768 7.092,8.153 15.968,16.266 20.674,18.896 6.53,3.65 15.938,4.713 34.806,3.935 12.222,-0.505 16.599,-0.313 21.705,0.948 14.428,3.564 18.854,4.221 28.437,4.221 9.651,0 10.341,-0.15 17.718,-3.846 4.222,-2.115 9.603,-5.522 11.959,-7.572 10.058,-8.753 18.353,-14.373 28.969,-19.627 6.222,-3.08 12.8,-6.355 14.618,-7.277 5.873,-2.981 12.449,-8.563 15.739,-13.36 3.101,-4.521 8.456,-18.972 8.456,-22.821 0,-1.033 0.45,-2.157 1,-2.497 0.55,-0.34 1,-1.49 1,-2.555 0,-3.416 4.056,-13.799 9.281,-23.76 C 296.438,165.009 295.5,167.783 295.5,155 c 0,-10.539 -0.263,-12.168 -3.15,-19.5 -6.806,-17.288 -9.679,-28.116 -10.878,-41 C 280.078,79.518 276.717,70.013 270.304,62.915 267.049,59.312 252.087,48 250.576,48 c -0.34,0 -3.647,-2.362 -7.347,-5.248 C 236.841,37.77 231.862,32.996 220.5,20.962 214.201,14.29 206.383,9.244 200.251,7.893 192.201,6.119 182.52,5.734 174.184,6.856 166.141,7.938 153.78,6.84 140.5,3.865 134.283,2.472 114.029,1.764 112,2.869 m 14.414,22.12 C 113.231,27.63 96.397,33.705 89.846,38.185 88.386,39.183 86.899,40 86.541,40 84.772,40 72.757,49.166 65.692,55.905 51.919,69.041 41.522,84.615 34.248,103 c -8.342,21.085 -9.684,52.767 -3.242,76.5 9.76,35.956 36.787,67.075 70.303,80.949 12.354,5.114 16.013,6.197 28.656,8.48 14.86,2.684 25.597,2.604 41.035,-0.307 42.828,-8.075 75.586,-34.813 92.058,-75.14 6.703,-16.412 8.248,-25.071 8.293,-46.482 0.039,-18.85 -1.448,-29.191 -5.751,-40 C 256.977,85.342 250.126,74.1 237.567,61 230.633,53.767 225.702,49.554 219,45.133 c -3.025,-1.995 -5.725,-3.907 -6,-4.249 -1.03,-1.279 -19.747,-9.832 -26,-11.88 -18.544,-6.074 -42.414,-7.656 -60.586,-4.015"
     stroke="none"
     fill="#7fbd29"
     fill-rule="evenodd"
     id="path6205"
     style="fill:#263d75;fill-opacity:1"
     sodipodi:nodetypes="csccccscccccccccscccccssscscccsccccccccscccscccccccccc" />
</svg>
