<?xml version="1.0" encoding="UTF-8" standalone="no"?>
<!-- Created with Inkscape (http://www.inkscape.org/) -->

<svg
   width="210mm"
   height="210mm"
   viewBox="0 0 210 210"
   version="1.1"
   id="svg366"
   inkscape:version="1.2.2 (b0a8486541, 2022-12-01)"
   sodipodi:docname="chat.svg"
   xmlns:inkscape="http://www.inkscape.org/namespaces/inkscape"
   xmlns:sodipodi="http://sodipodi.sourceforge.net/DTD/sodipodi-0.dtd"
   xmlns="http://www.w3.org/2000/svg"
   xmlns:svg="http://www.w3.org/2000/svg">
  <sodipodi:namedview
     id="namedview368"
     pagecolor="#ffffff"
     bordercolor="#000000"
     borderopacity="0.25"
     inkscape:showpageshadow="2"
     inkscape:pageopacity="0.0"
     inkscape:pagecheckerboard="0"
     inkscape:deskcolor="#d1d1d1"
     inkscape:document-units="mm"
     showgrid="false"
     inkscape:zoom="0.57991797"
     inkscape:cx="440.57955"
     inkscape:cy="481.96472"
     inkscape:window-width="1920"
     inkscape:window-height="1175"
     inkscape:window-x="0"
     inkscape:window-y="0"
     inkscape:window-maximized="1"
     inkscape:current-layer="layer1" />
  <defs
     id="defs363" />
  <g
     inkscape:label="Calque 1"
     inkscape:groupmode="layer"
     id="layer1">
    <ellipse
       style="fill:#e8edff;fill-opacity:1;stroke:none;stroke-width:1.63509;stroke-linecap:round"
       id="path293"
       cx="105.00111"
       cy="118.23441"
       rx="103.37488"
       ry="43.480495" />
    <path
       d="m 92.919453,69.928086 5.925953,0.228372 2.938944,0.348589 5.84181,0.853419 2.8548,0.655135 2.84277,0.691159 1.40037,0.402666 2.77664,0.847442 1.35829,0.474769 2.69852,0.991691 1.31623,0.552929 2.60838,1.135879 1.26812,0.625077 2.5002,1.286147 1.20802,0.691161 2.38601,1.430413 1.14193,0.769276 4.14095,2.96899 1.19,0.93156 0.46878,0.39667 0.84743,0.73926 0.24641,0.25241 1.43041,1.310212 0.42069,0.3065 0.16229,0.0901 0.30049,0.15027 h 0.0901 l 0.45676,-0.15027 0.48681,-0.228367 0.30051,-0.16226 1.35228,-0.793302 0.74524,-0.50487 3.58803,-2.21771 2.49418,-1.35226 1.17798,-0.55896 1.15395,-0.5289 0.53489,-0.22839 1.03975,-0.42067 0.46277,-0.16226 0.87748,-0.288488 0.36661,-0.08425 0.66712,-0.132245 h 0.24643 l 1.02771,0.05417 0.42672,0.150245 0.1142,0.180338 0.17429,0.45073 0.0301,0.40267 0.024,0.91955 -0.007,0.69717 -0.0721,1.38834 -0.10818,1.09382 -0.0841,0.57698 -0.37262,2.374023 -0.22839,0.97359 -0.31253,1.44848 -0.13224,0.83536 -0.0301,0.3546 -0.024,0.68519 0.0301,0.30047 0.0901,0.56494 0.0961,0.246377 0.22238,0.48084 0.16826,0.21634 0.36662,0.42073 0.24041,0.19834 0.51686,0.39067 0.32455,0.19828 0.68516,0.39671 0.40868,0.2043 1.05777,0.64915 0.78132,0.56493 0.39666,0.32452 1.55663,1.370307 0.56493,0.6551 2.03743,2.38001 4.18303,-1.17195 4.03277,-0.81142 1.33424,-0.15021 0.63708,-0.0297 1.23807,-0.042 0.55293,0.0301 1.17196,0.0542 0.63708,0.042 0.25242,0.0301 0.85343,0.13225 0.24041,0.12624 0.37863,0.30648 0.0841,0.26446 0.12624,0.60703 0.0422,0.4568 -0.06,1.10582 -0.22238,0.8174 -0.22237,0.4868 -0.52288,1.03975 -0.38464,0.63707 -0.87147,1.37028 -0.57696,0.8535 -2.6745,3.76828 -0.85944,1.14792 -0.36662,0.48083 -0.68515,0.87748 -0.24641,0.29452 -0.75127,1.04576 -0.46879,0.80534 -0.20432,0.43269 -0.72123,1.75498 -0.15025,0.78132 -0.36661,1.30414 -0.39066,1.01576 -0.24641,0.53494 -1.09984,2.18163 -0.60702,0.88346 -0.96764,1.44243 -0.50483,0.80535 -0.17431,0.34256 -0.30651,0.6431 -0.0781,0.27644 -0.10216,0.52891 0.024,0.24041 0.10819,0.46273 0.13225,0.21639 0.31854,0.43871 0.2404,0.22836 0.5349,0.46284 0.34859,0.25847 0.76327,0.54086 0.46278,0.30649 1.81505,1.43645 0.56495,0.52289 0.24041,0.2524 0.44474,0.48079 0.15625,0.2044 0.57097,0.8654 0.21035,0.48686 0.018,0.25241 -0.018,0.52288 -0.0901,0.33656 -0.22838,0.72718 -0.18632,0.49885 -0.70318,1.37032 -0.57697,0.70922 -0.34859,0.25844 -0.73323,0.4447 -0.42671,0.12021 -0.90152,0.18031 -0.51687,-0.0121 -1.07581,-0.0901 -0.60702,-0.14428 -1.26812,-0.36059 -0.7092,-0.27644 -1.46645,-0.62504 -0.81137,-0.41471 -1.67682,-0.89554 -0.91954,-0.54691 -4.68787,-2.78863 -5.11459,0.75724 -1.6107,0.23439 -0.8895,0.12021 -0.36661,0.0358 -0.69116,0.0721 -0.28248,0.0121 -0.5349,0.012 -0.22237,-0.012 -0.78732,-0.1142 -0.31854,-0.14425 -0.63105,-0.35465 -0.37264,-0.28247 -0.75126,-0.75723 -0.54692,-0.7332 -0.28247,-0.44477 -1.11187,-1.98336 -0.43873,-1.10584 -0.90152,-2.04345 -0.57696,-1.03975 -0.32455,-0.42064 -0.69718,-0.79939 -0.43873,-0.37261 -0.9496,-0.74523 -0.61903,-0.41472 -2.12757,-1.44247 -1.24411,-0.86542 -0.54088,-0.39664 -1.03375,-0.76331 -0.45677,-0.3546 -0.85944,-0.69718 -0.37262,-0.33054 -1.37031,-1.27413 -0.54691,-0.6431 -1.02773,-1.29817 -0.46879,-0.73321 -1.01571,-1.71289 -0.44474,-0.96764 -0.13226,-0.48678 -0.21636,-1.00372 -0.0421,-0.60105 -0.048,-1.30414 0.007,-0.85949 0.30051,-3.21538 0.47479,-1.91122 0.39668,-0.88346 0.9015,-1.73095 0.63707,-0.84138 1.39434,-1.68885 0.90753,-0.87745 1.5506,-1.652787 0.63107,-0.87744 0.12623,-0.34261 0.12022,-0.61902 -0.12623,-0.22839 -0.37864,-0.41471 -0.37262,-0.13821 -0.76929,-0.0602 -0.60702,0.14429 -0.33657,0.15625 -0.69717,0.36664 -0.36661,0.25839 -0.75127,0.55899 -0.38464,0.34253 -1.56263,1.5266 -0.73923,0.937547 -1.43041,1.98336 -0.57697,1.0818 -0.66112,1.52656 -0.36059,1.13593 -0.13225,0.61298 -0.43873,2.56034 -0.0422,1.34022 0.024,2.68653 0.18631,1.26816 0.22239,1.23803 0.15025,0.58303 0.34257,1.11787 0.21636,0.50483 0.70919,1.39435 0.60102,0.95561 0.35459,0.48681 1.56864,1.95331 0.99166,0.98567 2.11556,1.97131 1.23807,0.96756 2.59034,1.91724 1.44844,0.91357 1.65879,1.11782 0.94959,0.71523 0.39066,0.34256 0.73925,0.67917 0.28848,0.32452 0.52889,0.65508 0.19232,0.31858 0.33056,0.63707 0.0901,0.3185 0.13226,0.62511 v 0.31247 l -0.06,0.63108 -0.0962,0.31852 -0.24041,0.63712 -0.18631,0.33053 -1.20802,1.46043 -1.04576,0.69116 -0.66712,0.22241 -1.44844,0.35457 -0.9015,0.0543 -0.93157,0.0421 -0.51688,-0.007 -1.0758,-0.0358 -0.58899,-0.042 -3.89454,-0.64308 -2.41605,-0.78128 -1.184,-0.58299 -1.08782,-0.54691 -0.58899,-0.31257 -0.24041,-0.14419 -0.80534,-0.52288 -0.22839,-0.25241 -0.35459,-0.52891 -0.066,-0.33655 -0.0841,-0.73927 v -0.51682 l -0.38464,-2.14562 -0.58299,-1.47854 -0.39665,-0.59493 -1.13591,-1.44242 -0.86545,-0.8655 -0.48682,-0.39066 -1.0157,-0.75127 -0.57097,-0.33054 -1.17799,-0.63703 -0.6611,-0.27652 -1.36429,-0.53488 -0.75126,-0.22839 -1.56263,-0.42671 -0.85343,-0.18025 -1.77299,-0.33662 -0.96762,-0.13224 -1.98933,-0.24644 -1.08182,-0.0961 -1.3643,-0.12023 -0.75727,-0.0841 -0.31251,-0.0358 -0.57697,-0.0841 -0.22238,-0.042 -0.41469,-0.0901 -0.15025,-0.0482 -0.47481,-0.21639 -0.066,-0.14419 -0.0421,-0.31257 0.0901,-0.2163 1.39433,-4.52563 0.4748,-3.02908 0.012,-1.50257 -0.11419,-2.99298 -0.27046,-1.46047 -0.67915,-2.89689 -0.54691,-1.38834 -1.226064,-2.74661 -0.81135,-1.292117 -1.742932,-2.5363 -1.063792,-1.17195 -2.24777,-2.265817 -1.304202,-1.02173 -2.722571,-1.94725 -1.538593,-0.8354 -2.097509,-0.949594 -1.244082,-0.366637 -0.510863,-0.0543 -0.943591,-0.007 -0.330551,0.13225 -0.56495,0.360587 -0.10818,0.324564 0.186316,0.41471 0.378634,0.39665 0.288485,0.24038 0.643085,0.49282 0.402676,0.26451 0.841414,0.54083 0.474793,0.27049 3.407706,2.25378 2.193707,1.779017 1.00368,0.96757 1.929232,1.97131 0.805359,1.009747 1.490495,2.01332 0.528894,0.96765 0.859446,1.77299 0.420704,1.12389 0.14424,0.601 0.25845,1.25007 0.0901,0.73926 0.15025,1.58064 0.048,0.99169 0.066,1.47248 0.024,0.85342 -0.005,0.37864 -0.0421,1.37031 -0.0901,0.57701 -0.23438,1.12389 -0.21035,0.58897 -0.47481,1.21404 -0.348585,0.7633 -1.111875,2.7526 -0.258433,0.78131 -0.07809,0.3065 -0.126234,0.54691 v 0.15027 l 0.144243,0.49885 0.240394,0.3125 0.192333,0.14429 0.414689,0.27645 0.270454,0.12623 0.576974,0.23435 0.34859,0.10818 1.52055,0.3666 0.955614,0.1142 2.01939,0.17429 h 1.15393 l 2.54828,0.13824 1.70085,0.22235 0.83541,0.16832 1.6588,0.37262 0.79332,0.23436 1.55661,0.50482 0.72722,0.28852 1.40637,0.61304 0.63105,0.33656 1.20804,0.69718 0.51085,0.37863 0.94961,0.7633 0.36059,0.39665 0.64909,0.81132 0.18632,0.41472 0.36059,1.28615 v 0.81738 l -0.10818,0.38471 -0.28248,0.74519 -0.2404,0.34257 -0.54091,0.65508 -0.3606,0.28253 -0.77531,0.54088 -0.46879,0.21639 -0.98566,0.40865 -0.56493,0.14424 -1.16597,0.24644 -0.64308,0.06 -1.3162,0.072 -0.70919,-0.0358 -1.76097,-0.13822 -0.80535,-0.13225 -0.26445,-0.0961 -0.44474,-0.2284 -0.12624,-0.16822 -0.19232,-0.36666 -0.048,-0.25241 -0.25843,-0.78136 -0.30653,-0.5589 -0.20434,-0.28844 -0.97363,-1.18404 -0.66711,-0.59498 -1.43642,-1.17797 -0.8354,-0.54094 -1.74894,-1.0397 -0.93757,-0.42073 -4.339298,-1.64076 -1.484492,-0.40868 -0.78732,-0.16827 -1.61071,-0.31257 -0.877477,-0.12021 -1.815042,-0.22843 -1.003688,-0.0841 -2.091514,-0.15625 -1.177975,-0.0482 -2.440095,-0.0903 -1.376312,-0.024 -2.872824,-0.0358 H 77.39048 l -2.668485,-0.012 -1.658786,-0.024 -0.775299,-0.012 -2.95096,-0.0841 -1.280144,-0.072 -2.452125,-0.16824 -1.063784,-0.12021 -2.03742,-0.27049 -0.901511,-0.18633 -1.724901,-0.39063 -0.775299,-0.25241 -1.50253,-0.53492 -0.703174,-0.33053 -1.382322,-0.7032 -0.673135,-0.41472 -1.352268,-0.87745 -0.691162,-0.5169 -1.196001,-0.67913 -0.667127,-0.15622 -0.258431,0.06 -0.462779,0.21038 -0.138232,0.24643 -0.210353,0.58294 v 0.42674 l 0.318533,1.11181 0.564947,0.72727 0.486822,0.37865 0.522877,0.39068 0.318538,0.19828 0.673124,0.40869 0.402679,0.22241 0.841415,0.44476 0.486818,0.23435 1.015711,0.48686 0.582966,0.26442 1.917227,0.7633 1.370301,0.44475 0.751257,0.19228 1.550606,0.36664 0.859446,0.15026 1.772976,0.28844 0.991667,0.1142 2.049441,0.21635 1.147931,0.0841 2.373981,0.15026 1.334246,0.0542 2.752623,0.0961 1.538585,0.024 3.185343,0.042 h 1.766974 l 3.672165,0.042 2.175652,0.0662 0.973628,0.06 1.869136,0.12623 0.841422,0.0901 1.628734,0.19832 0.739244,0.12624 1.436408,0.28246 0.667119,0.17429 1.304179,0.36661 0.619051,0.22838 2.428082,0.99167 1.238074,0.67315 2.89687,1.85709 1.49651,1.28619 0.5349,0.67911 0.93758,1.37033 0.26443,0.72723 0.39667,1.48446 v 0.78734 l -0.0721,1.29817 -0.12623,0.72121 -0.10818,0.30651 -0.24642,0.583 -0.18029,0.26444 -0.39668,0.50482 -0.25843,0.24643 -0.8895,0.7152 -0.51086,0.19837 -1.09984,0.2945 -0.7092,-0.0121 -0.74524,-0.0358 -0.42072,-0.06 -0.88948,-0.14429 -0.51086,-0.1142 -1.063794,-0.24644 -0.60702,-0.16827 -1.262117,-0.36058 -0.721214,-0.21638 -2.848774,-0.73927 -0.985656,-0.18629 -0.546926,-0.072 -1.141913,-0.14428 -0.661109,-0.06 -1.394342,-0.11419 -0.823391,-0.0482 -1.730903,-0.0901 -1.033733,-0.042 -2.17566,-0.0781 -1.286155,-0.0358 -2.71055,-0.072 -1.592679,-0.0358 -4.080843,-0.10818 -2.361976,-0.072 -1.021711,-0.042 -1.953282,-0.0842 -0.847424,-0.0482 -1.616721,-0.10217 -0.709185,-0.0602 -1.352269,-0.12022 -0.595002,-0.0722 -1.159944,-0.15017 -0.528887,-0.0903 -2.013378,-0.38465 -0.991675,-0.25844 -3.76833,-1.13588 -2.343937,-0.86546 -1.093834,-0.49281 -2.127567,-1.01568 -0.97965,-0.56497 -1.911205,-1.172 -0.877479,-0.64906 -1.706867,-1.32823 -0.769288,-0.72122 -1.496511,-1.49053 -0.673131,-0.80535 -1.298182,-1.64677 -0.570959,-0.88949 -1.093836,-1.81508 -0.474794,-0.97359 -2.253789,-4.60976 0.006,-8.41415 0.01204,-2.30787 0.02403,-1.35824 0.01805,-0.60707 0.0421,-1.15394 0.03005,-0.51686 0.06612,-0.98561 0.0421,-0.44477 0.198326,-1.64677 0.150253,-0.7032 0.324546,-1.34023 0.228386,-0.65512 1.111867,-3.011067 0.787316,-1.86913 0.426724,-0.87745 0.859442,-1.70687 0.468789,-0.811367 0.961611,-1.58065 0.522878,-0.75125 1.075806,-1.48447 0.588989,-0.70921 1.21404,-1.412421 0.661106,-0.685127 1.370304,-1.364265 0.745253,-0.67314 1.544593,-1.35226 0.841415,-0.67917 4.411406,-3.317564 2.836764,-1.881156 1.406364,-0.805344 2.83075,-1.520546 1.460458,-0.655083 2.968975,-1.24409 1.580658,-0.546928 4.146966,-1.280155 2.812719,-0.733255 1.430406,-0.306494 2.866805,-0.564925 1.454447,-0.222408 2.914889,-0.402679 1.466461,-0.138216 2.944948,-0.24042 1.478481,-0.06606 2.962973,-0.07809 m 57.967358,57.22214 -0.49884,0.30649 -0.16227,0.24645 -0.25242,0.54691 -0.018,0.33655 0.0422,0.70921 0.15026,0.39068 0.33657,0.49876 0.3005,0.13225 0.67312,0.18032 0.4087,-0.0602 0.63105,-0.16824 0.30652,-0.18633 0.10818,-0.13226 0.18632,-0.30052 0.048,-0.19833 0.072,-0.43272 v -0.27644 l -0.072,-0.70922 -0.12623,-0.36665 -0.10818,-0.13225 -0.24641,-0.24039 -0.16828,-0.0781 -0.38465,-0.13225 -0.24642,-0.0358 m 9.24353,-4.31526 -0.48681,0.0961 -0.2344,0.15027 -0.0781,0.1142 -0.19833,0.54089 0.06,0.36062 0.22838,0.75725 0.25843,0.40266 0.61303,0.79336 0.43873,0.34859 1.05177,0.70917 0.51086,0.20429 0.99768,0.3186 0.42671,0.007 0.78731,-0.0781 0.25243,-0.19235 0.22839,-0.2163 0.066,-0.14428 0.10818,-0.31854 v -0.19833 l -0.14425,-0.50483 -0.2344,-0.37863 -0.16828,-0.20441 -0.81136,-0.81733 -0.52287,-0.37859 -1.09985,-0.72131 -0.55293,-0.25241 -1.07581,-0.39661 m -17.77784,-10.20521 -0.33658,0.12624 -0.10215,0.14423 -0.16228,0.34258 -0.012,0.24038 0.036,0.52288 0.0961,0.32456 0.25242,0.67916 0.21036,0.38465 0.49282,0.80539 0.34257,0.43269 1.55662,1.84509 0.49283,0.52288 0.21034,0.20436 0.39066,0.37262 0.13225,0.10216 0.7092,0.39666 0.48682,0.13225 1.0157,0.22241 h 0.46278 l 0.78131,-0.0901 0.40267,-0.13823 0.13823,-0.10217 0.24642,-0.22838 0.0602,-0.14424 0.0901,-0.30053 -0.012,-0.17425 -0.21036,-0.73324 -0.33055,-0.40272 -0.81136,-0.8174 -0.63105,-0.39059 -1.80904,-1.30418 -1.20204,-1.02173 -0.39665,-0.42676 -1.04576,-0.94354 -0.61302,-0.40266 -0.25843,-0.0901 -0.48683,-0.12624"
       style="fill:#f48684;fill-opacity:1;stroke-width:0.480442"
       id="path361" />
  </g>
</svg>
