<svg xmlns="http://www.w3.org/2000/svg" id="electrique" viewBox="32.14 20.66 30.73 34.08">
  <defs>
    <style>
      .cls-1 {
        fill: none;
        stroke: #000091;
      }

      .cls-1, .cls-2 {
        stroke-linecap: round;
        stroke-linejoin: round;
        stroke-width: .25px;
      }

      .cls-2 {
        fill: #000091;
        stroke: #1d1e1c;
      }
    </style>
  </defs>
  <g id="electrique-2" data-name="electrique">
    <g>
      <path class="cls-1" d="m40.8,45.27c1.13-1.52,2.93-1.86,4.17-1.23s2.04,2,2.72,3.41,1.3,2.9,2.31,3.92c1.97,1.96,5.4,1.62,7.96-.79"/>
      <path class="cls-1" d="m57.63,48.16h2.53c.66,0,1.2.54,1.2,1.2v.32c0,.66-.54,1.2-1.2,1.2h-2.53v-2.73h0Z" transform="translate(136.53 57.01) rotate(145.78)"/>
      <line class="cls-1" x1="61.51" y1="48.93" x2="62.75" y2="48.01"/>
      <line class="cls-1" x1="60.92" y1="48.09" x2="62.16" y2="47.18"/>
    </g>
    <path class="cls-2" d="m43.15,21.07l-10.8,17.91c-.23.39.04.88.49.89l7.83.13c.41,0,.69.42.54.81l-5.2,12.99c-.26.65.64,1.13,1.03.55l12.23-18.09c.27-.39-.02-.92-.49-.92l-8.18.07c-.4,0-.69-.39-.57-.77l4.17-13.09c.21-.66-.7-1.08-1.06-.48Z"/>
  </g>
</svg>