<svg fill="none" xmlns="http://www.w3.org/2000/svg" viewBox="15 16 37 46"> <path d="M16 32.8333V58C16 59.6569 17.3431 61 19 61H48C49.6569 61 51 59.6569 51 58V32.8081C51 31.9556 50.6373 31.1434 50.0026 30.5744L35.7211 17.7704C34.5934 16.7593 32.889 16.7474 31.7473 17.7426L17.0288 30.5718C16.3752 31.1416 16 31.9662 16 32.8333Z" stroke="#000091" stroke-width="2"></path> <path d="M30.9899 55.9444C29.485 55.7593 25.7729 54.2778 24.9703 52.0556C23.967 49.2778 23.8487 47.3179 24.9703 44.8333C25.9734 42.6111 27.6455 40.3889 27.9798 39.8333L30.0183 36.6727C30.3303 36.189 30.5814 35.6688 30.766 35.1237L31.9929 31.5L34.5013 34L37.0096 36.5L39.7687 39.5556L42.5277 42.6111C45.0359 45.9444 44.2333 48.1667 43.0294 50.3889C41.8254 52.6111 39.5179 55.3889 38.0126 56.5" stroke="#000091" stroke-width="1.5" stroke-linejoin="round"></path> <path d="M31 52.5C30.3333 52 29 50.7 29 49.5C29 48.3 29.6667 46.6667 30 46C30.1667 46.3333 30.6 47.1 31 47.5C31.5 48 32.5 48.5 33 48C33.5 47.5 34 47 34 45.5C34 44.3 34 42 34 41C35.1667 41.6667 37.6205 43.8616 38 45C38.5 46.5 38.5 45.8787 38.5 48C38.5 49.5 37.5 52.5 36.5 52.5" stroke="#000091" stroke-width="1.5"></path> </svg>