<?xml version="1.0"?>
<svg width="487.13" height="371.2" xmlns="http://www.w3.org/2000/svg" xmlns:svg="http://www.w3.org/2000/svg" version="1.1" xml:space="preserve">
 <g class="layer">
  <title>Layer 1</title>
  <g id="svg_1">
   <g id="svg_2">
    <path d="m456.01,112.28c3.44,3.4 8.93,3.4 12.27,0l12.27,-12.13c3.44,-3.4 3.44,-8.83 0,-12.13l-27.78,-27.46c-3.44,-3.4 -8.93,-3.4 -12.27,0l-12.27,12.13c-3.44,3.4 -3.44,8.83 0,12.13l1.18,1.16l-8.64,8.54c-21.79,-17.08 -48.19,-28.43 -77.15,-31.73l0,-15.53l9.52,0c4.81,0 8.64,-3.88 8.64,-8.54l0,-25.23c0,-4.75 -3.93,-8.54 -8.64,-8.54l-55.16,0c-4.81,0 -8.64,3.88 -8.64,8.54l0,25.23c0,4.75 3.93,8.54 8.64,8.54l9.52,0l0,15.53c-28.95,3.4 -55.46,14.75 -77.15,31.73l-8.64,-8.54l1.18,-1.16c3.44,-3.4 3.44,-8.83 0,-12.13l-12.27,-12.13c-3.44,-3.4 -8.93,-3.4 -12.27,0l-27.78,27.46c-3.44,3.4 -3.44,8.83 0,12.13l12.27,12.13c3.44,3.4 8.93,3.4 12.27,0l1.18,-1.16l8.64,8.54c-20.61,25.81 -32.88,58.42 -32.88,93.74c0,83.65 68.9,151.77 153.51,151.77s153.51,-68.12 153.51,-151.77c0,-35.32 -12.37,-67.93 -32.88,-93.74l8.64,-8.54l1.18,1.16zm-130.44,217.75c-64.98,0 -117.88,-52.3 -117.88,-116.54s52.9,-116.54 117.88,-116.54s117.88,52.3 117.88,116.54s-52.9,116.54 -117.88,116.54z" fill="#2a82dd" id="svg_3" stroke="black" stroke-width="2%"/>
    <path d="m67.33,254.15c-8.44,0 -15.21,6.79 -15.21,15.04c0,8.35 6.87,15.04 15.21,15.04l82.55,0c1.67,0 3.14,-0.29 4.61,-0.78c-3.93,-9.41 -7.17,-19.21 -9.42,-29.4l-77.74,0l0,0.1z" fill="#2a82dd" id="svg_4" stroke="black" stroke-width="2%"/>
    <path d="m154.39,143.72c-1.37,-0.39 -2.94,-0.78 -4.52,-0.78l-129.66,0c-8.44,0 -15.21,6.79 -15.21,15.04c0,8.35 6.87,15.04 15.21,15.04l124.75,0c2.26,-9.9 5.4,-19.8 9.42,-29.31z" fill="#2a82dd" id="svg_5" stroke="black" stroke-width="2%"/>
    <path d="m140.45,213.49c0,-5.05 0.29,-9.99 0.69,-14.94l-99.72,0c-8.44,0 -15.21,6.79 -15.21,15.04s6.87,15.04 15.21,15.04l99.62,0c-0.29,-4.95 -0.59,-9.99 -0.59,-15.14z" fill="#2a82dd" id="svg_6" stroke="black" stroke-width="2%"/>
    <path d="m399.67,170.12c-2.55,-4.17 -7.85,-5.82 -12.27,-3.59l-53.1,25.71c-6.58,-2.62 -14.23,-2.33 -20.81,1.46c-11.09,6.5 -14.82,20.67 -8.24,31.63c6.58,10.97 20.91,14.65 32,8.15c6.58,-3.88 10.5,-10.38 11.29,-17.27l48.39,-33.67c4.12,-2.81 5.3,-8.15 2.75,-12.42zm-64.29,45.9c-1.47,5.43 -7.07,8.64 -12.47,7.28c-5.5,-1.46 -8.74,-6.99 -7.36,-12.32c1.47,-5.43 7.07,-8.64 12.47,-7.28c5.5,1.36 8.74,6.99 7.36,12.32z" id="svg_7"/>
    <path d="m358.74,155.66c4.61,2.62 10.5,0.97 13.05,-3.59c2.65,-4.56 0.98,-10.38 -3.63,-12.91c-4.61,-2.62 -10.4,-0.97 -13.05,3.59c-1.77,3.11 -1.57,6.7 0.1,9.51c0.88,1.26 2.06,2.52 3.53,3.4z" id="svg_8"/>
    <path d="m324.98,146.92c5.3,0 9.52,-4.27 9.52,-9.51c0,-5.24 -4.32,-9.41 -9.62,-9.41s-9.52,4.27 -9.52,9.51c0,1.75 0.49,3.4 1.28,4.75c1.67,2.81 4.81,4.75 8.34,4.66z" id="svg_9"/>
    <path d="m326.25,280.25l0,0c-5.3,0.1 -9.52,4.37 -9.52,9.61c0,1.75 0.49,3.3 1.28,4.66c1.67,2.81 4.81,4.75 8.34,4.66c5.3,-0.1 9.52,-4.37 9.42,-9.61c0.1,-5.05 -4.22,-9.32 -9.52,-9.32z" id="svg_10"/>
    <path d="m359.82,271.03c-4.52,2.62 -6.09,8.44 -3.34,12.91l0,0c2.65,4.56 8.54,6.02 13.15,3.3c4.52,-2.62 6.09,-8.44 3.34,-12.91c-2.75,-4.46 -8.64,-5.92 -13.15,-3.3z" id="svg_11"/>
    <path d="m397.32,242.89c-4.61,-2.52 -10.5,-0.97 -13.05,3.59c-1.77,3.11 -1.57,6.6 0.1,9.51c0.79,1.36 2.06,2.62 3.53,3.4c4.61,2.62 10.5,0.97 13.05,-3.59c2.55,-4.56 0.98,-10.38 -3.63,-12.91z" id="svg_12"/>
    <path d="m258.04,214.37c0,-5.24 -4.42,-9.41 -9.62,-9.41c-5.3,0.1 -9.52,4.37 -9.52,9.61c0,1.75 0.49,3.3 1.28,4.66c1.67,2.81 4.81,4.75 8.34,4.66c5.4,0 9.62,-4.27 9.52,-9.51z" id="svg_13"/>
    <path d="m254.41,244.25c-4.52,2.62 -6.09,8.44 -3.34,12.91l0,0c2.65,4.46 8.54,6.02 13.15,3.3c4.52,-2.62 5.99,-8.44 3.34,-13c-2.75,-4.37 -8.64,-5.92 -13.15,-3.2z" id="svg_14"/>
    <path d="m393,213.01c0,1.75 0.49,3.3 1.37,4.75c1.67,2.81 4.81,4.66 8.34,4.66c5.3,0 9.52,-4.37 9.52,-9.51c0,-5.24 -4.32,-9.41 -9.62,-9.41c-5.4,0 -9.72,4.37 -9.62,9.51z" id="svg_15"/>
    <path d="m253.72,184.57c4.61,2.62 10.5,0.97 13.05,-3.59l0,0c2.55,-4.56 0.98,-10.29 -3.73,-12.91c-4.61,-2.52 -10.4,-0.97 -13.05,3.59c-1.67,3.01 -1.57,6.6 0.1,9.51c0.88,1.36 2.06,2.52 3.63,3.4z" id="svg_16"/>
    <path d="m291.11,156.34c0,0 0.1,0 0.1,-0.1c0.1,0 0.1,0 0.1,-0.1c0,0 0,0 0.1,0c4.52,-2.62 5.99,-8.44 3.34,-12.91c-2.65,-4.56 -8.54,-6.02 -13.15,-3.4c0,0 -0.1,0 -0.1,0.1c-0.1,0 -0.1,0.1 -0.2,0.1c-4.52,2.62 -6.09,8.44 -3.34,12.91l0,0c2.75,4.56 8.64,6.02 13.15,3.4z" id="svg_17"/>
    <path d="m292.39,271.71c-4.61,-2.62 -10.5,-0.97 -13.05,3.59c-1.77,3.11 -1.57,6.7 0.1,9.51c0.79,1.36 2.06,2.62 3.53,3.49c4.61,2.52 10.5,0.87 13.05,-3.59c2.65,-4.66 0.98,-10.38 -3.63,-13z" id="svg_18"/>
   </g>
  </g>
 </g>
</svg>