<?xml version="1.0"?>
<svg width="16" height="16" xmlns="http://www.w3.org/2000/svg" xmlns:svg="http://www.w3.org/2000/svg" version="1.1">
 <g class="layer">
  <title>Layer 1</title>
  <path d="m12,7.07l0,-1.97l-1.18,-0.39c-0.1,-0.3 -0.2,-0.69 -0.39,-0.99l0.59,-1.18l-1.48,-1.28l-1.08,0.49c-0.3,-0.2 -0.59,-0.3 -0.99,-0.39l-0.39,-1.18l-1.97,0l-0.39,1.18c-0.3,0.1 -0.69,0.2 -0.99,0.39l-1.08,-0.49l-1.38,1.38l0.59,1.18c-0.2,0.3 -0.3,0.59 -0.39,0.99l-1.28,0.3l0,1.97l1.18,0.39c0.1,0.3 0.2,0.69 0.39,0.99l-0.49,1.08l1.38,1.38l1.18,-0.59c0.3,0.2 0.59,0.3 0.99,0.39l0.3,1.28l1.97,0l0.39,-1.18c0.3,-0.1 0.69,-0.2 0.99,-0.39l1.18,0.59l1.38,-1.38l-0.59,-1.18c0.2,-0.3 0.3,-0.59 0.39,-0.99l1.18,-0.39zm-8.87,-0.99c0,-1.67 1.28,-2.96 2.96,-2.96s2.96,1.28 2.96,2.96c0,1.67 -1.28,2.96 -2.96,2.96s-2.96,-1.28 -2.96,-2.96z" fill="#2a82dd" id="svg_1" stroke="black" stroke-width="2%"/>
  <path d="m7.57,6c0,0.83 -0.67,1.5 -1.5,1.5s-1.5,-0.67 -1.5,-1.5c0,-0.83 0.67,-1.5 1.5,-1.5s1.5,0.67 1.5,1.5z" fill="#2a82dd" id="svg_2" stroke="black" stroke-width="2%" transform="matrix(1 0 0 1 0 0)"/>
  <path d="m15.86,3.14l0,-1l-0.6,0c0,-0.2 -0.1,-0.4 -0.2,-0.5l0.4,-0.4l-0.7,-0.7l-0.4,0.4c-0.2,-0.1 -0.3,-0.2 -0.5,-0.2l0,-0.6l-1,0l0,0.6c-0.2,0 -0.4,0.1 -0.5,0.2l-0.4,-0.4l-0.7,0.7l0.4,0.4c-0.1,0.2 -0.2,0.3 -0.2,0.5l-0.6,0l0,1l0.6,0c0,0.2 0.1,0.4 0.2,0.5l-0.4,0.4l0.7,0.7l0.4,-0.4c0.2,0.1 0.3,0.2 0.5,0.2l0,0.6l1,0l0,-0.6c0.2,0 0.4,-0.1 0.5,-0.2l0.4,0.4l0.7,-0.7l-0.4,-0.4c0.1,-0.2 0.2,-0.3 0.2,-0.5l0.6,0zm-2.5,0.5c-0.6,0 -1,-0.4 -1,-1s0.4,-1 1,-1s1,0.4 1,1c0,0.6 -0.4,1 -1,1z" fill="#2a82dd" id="svg_3" stroke="black" stroke-width="2%"/>
  <path d="m15.22,11.62c-0.1,-0.3 -0.2,-0.6 -0.4,-0.9l0.3,-0.6l-0.7,-0.7l-0.5,0.4c-0.3,-0.2 -0.6,-0.3 -0.9,-0.4l-0.2,-0.6l-1,0l-0.2,0.6c-0.3,0.1 -0.6,0.2 -0.9,0.4l-0.6,-0.3l-0.7,0.7l0.3,0.6c-0.2,0.3 -0.3,0.6 -0.4,0.9l-0.5,0.1l0,1l0.6,0.2c0.1,0.3 0.2,0.6 0.4,0.9l-0.3,0.6l0.7,0.7l0.6,-0.3c0.3,0.2 0.6,0.3 0.9,0.4l0.1,0.5l1,0l0.2,-0.6c0.3,-0.1 0.6,-0.2 0.9,-0.4l0.6,0.3l0.7,-0.7l-0.4,-0.5c0.2,-0.3 0.3,-0.6 0.4,-0.9l0.6,-0.2l0,-1l-0.6,-0.2zm-2.9,2.2c-0.8,0 -1.5,-0.7 -1.5,-1.5s0.7,-1.5 1.5,-1.5s1.5,0.7 1.5,1.5s-0.7,1.5 -1.5,1.5z" fill="#2a82dd" id="svg_4" stroke="black" stroke-width="2%"/>
 </g>
</svg>