<?xml version="1.0"?>
<svg width="12.05" height="15" xmlns="http://www.w3.org/2000/svg" xmlns:svg="http://www.w3.org/2000/svg" version="1.1">
 <g class="layer">
  <title>Layer 1</title>
  <path d="m8.81,2.15c1.14,0.01 2.18,0.37 3.05,0.99l-0.02,-2.27c-0.9,-0.42 -1.94,-0.67 -3.05,-0.67c-3.51,0 -6.44,2.5 -7.14,5.82l-1.51,0.05l0,0.98l1.37,0c0,0.17 0,0.32 0,0.49c0,0.07 -0.01,0.16 -0.01,0.24s0.01,0.18 0.01,0.25l-1.37,-0.01l0,0.98l1.5,0c0.86,3.27 3.7,5.69 7.15,5.87c1.12,0 2.16,-0.25 3.09,-0.69l-0.04,-2.24c-0.85,0.61 -1.89,0.97 -3.03,0.98c-2.4,-0.13 -4.4,-1.7 -5.15,-3.87l6.23,-0.04l0,-0.98l-6.42,0c-0.01,-0.08 -0.01,-0.16 -0.01,-0.24s0,-0.18 0.01,-0.25c0,-0.16 0,-0.31 0,-0.48l6.42,0l0,-0.98l-6.24,0c0.66,-2.28 2.72,-3.91 5.16,-3.91z" fill="#2a82dd" id="svg_1" stroke="black" stroke-width="2%"/>
 </g>
</svg>