<svg xmlns="http://www.w3.org/2000/svg" viewBox="2.87 2.87 20.72 20.72">
  <path fill="#263d75" d="m84.55 40.332-2.862 2.936-47.28 48.459h50.143zm-3.337 8.203V88.39H42.33ZM19.354 13.415V88.263H33.77l46.436-47.33V13.415Zm3.337 3.338H76.87V39.57L32.371 84.925h-9.68z" transform="matrix(.26458 0 0 .26458 .013 -.68)"/>
  <path fill="#263d75" d="M51.282 27.429q-2.358 0-3.863 1.404-1.488 1.405-1.99 4.247h7.625v2.575h-7.875l-.034.753v.92l.034.651H52v2.559h-6.538q1.07 5.216 6.086 5.216 2.391 0 4.9-1.036v3.394q-2.191 1.02-5.1 1.02-4.03 0-6.555-2.207-2.508-2.207-3.277-6.387h-2.541v-2.559h2.274l-.034-.618v-.619l.034-1.087h-2.274V33.08h2.508q.635-4.196 3.193-6.587t6.605-2.391q3.344 0 5.985 1.471L55.863 28.7q-2.575-1.271-4.581-1.271z" transform="matrix(.26458 0 0 .26458 .013 -.68)" aria-label="€" stroke-width="1.8"/>
  <path fill="#263d75" d="M64.07 74.438q0 1.071.176 1.547.177.475.531.475.354 0 .522-.466.177-.466.177-1.556 0-1.072-.177-1.547-.168-.475-.522-.475-.363 0-.54.484-.168.485-.168 1.538zm4.22-.037q0 2.05-.922 3.177-.923 1.118-2.628 1.118-1.603 0-2.544-1.155-.931-1.165-.931-3.14 0-2.05.913-3.15.913-1.108 2.562-1.108 1.63 0 2.59 1.146t.96 3.112zm6.792-4.063L67.526 83.96h-2.767l7.556-13.622zm-.652 9.523q0 1.071.177 1.546.177.475.531.475.4 0 .55-.54.158-.55.158-1.481 0-.932-.158-1.473-.15-.55-.55-.55-.363 0-.54.485-.168.485-.168 1.538zm4.22-.038q0 2.04-.931 3.168-.922 1.118-2.618 1.118-1.603 0-2.544-1.155-.931-1.165-.931-3.13 0-2.05.913-3.15.913-1.109 2.562-1.109 1.63 0 2.59 1.146t.96 3.112z" transform="matrix(.26458 0 0 .26458 .013 -.68)" aria-label="%" stroke-width="1"/>
</svg>