<svg width="20" height="18" viewBox="0 0 20 18" fill="none" xmlns="http://www.w3.org/2000/svg">
<path d="M14.1111 6.47062C13.688 3.19619 10.8893 0.666504 7.49967 0.666504C3.81777 0.666504 0.833008 3.65127 0.833008 7.33317C0.833008 8.91017 1.38057 10.3593 2.29592 11.5008C2.96927 12.3404 3.33328 13.2708 3.33322 14.2549L3.33301 17.3332H10.833L10.8338 14.8332H12.4997C13.4202 14.8332 14.1663 14.087 14.1663 13.1665V10.7257L15.7991 10.0263C16.0851 9.90375 16.11 9.61375 15.9865 9.41959L14.1111 6.47062ZM2.49967 7.33317C2.49967 4.57175 4.73825 2.33317 7.49967 2.33317C10.0199 2.33317 12.1384 4.20935 12.4581 6.68415L12.5057 7.05202L13.7911 9.07325L12.4997 9.62642V13.1665H9.16776L9.16692 15.6665H4.99978L4.99988 14.2551C4.99997 12.8892 4.50772 11.5948 3.59616 10.4581C2.88982 9.57725 2.49967 8.48725 2.49967 7.33317ZM17.6276 14.0852L16.2408 13.1606C17.036 11.97 17.4997 10.5391 17.4997 8.99992C17.4997 7.46067 17.036 6.02975 16.2408 4.83919L17.6276 3.9146C18.5997 5.36972 19.1663 7.11862 19.1663 8.99992C19.1663 10.8812 18.5997 12.63 17.6276 14.0852Z" fill="#3A3A3A"/>
</svg>
