<svg width="20" height="20" viewBox="0 0 20 20" fill="none" xmlns="http://www.w3.org/2000/svg">
<path fill-rule="evenodd" clip-rule="evenodd" d="M11.7674 3.51843L16.4816 8.2326L15.8924 13.5359C10.7858 14.7143 7.74076 15.5984 4.99159 17.9551L3.82909 16.7918C6.93075 14.0159 10.4916 13.1851 14.3649 12.1918L14.7366 8.84343L11.1558 5.2626L7.80742 5.63427C6.81409 9.5076 5.98326 13.0676 3.20742 16.1701L2.04492 15.0084C4.40159 12.2584 5.28659 9.21426 6.46409 4.1076L11.7674 3.51843ZM10.5891 9.4101C11.2118 10.0653 11.1987 11.0973 10.5597 11.7366C9.92071 12.3758 8.88864 12.3892 8.23326 11.7668H8.23242C7.79916 11.3483 7.6254 10.7286 7.77793 10.1459C7.93045 9.5632 8.38553 9.10813 8.96824 8.9556C9.55096 8.80308 10.1706 8.97684 10.5891 9.4101ZM13.8299 0.866766L19.1191 6.1551C19.2302 6.26605 19.2695 6.43007 19.2208 6.57935C19.172 6.72863 19.0435 6.83781 18.8883 6.86177L17.6599 7.05343L12.9466 2.3401L13.1233 1.1026C13.1457 0.946528 13.2542 0.81647 13.4038 0.766557C13.5534 0.716644 13.7183 0.755428 13.8299 0.866766Z" fill="#3A3A3A"/>
</svg>
