<svg width="20" height="20" viewBox="0 0 20 20" fill="none" xmlns="http://www.w3.org/2000/svg">
<path fill-rule="evenodd" clip-rule="evenodd" d="M5 9.16667V10H10C10.4602 10 10.8333 10.3731 10.8333 10.8333V13.3333H11.6667V18.3333H8.33333V13.3333H9.16667V11.6667H4.16667C3.70643 11.6667 3.33333 11.2936 3.33333 10.8333V9.16667H5ZM16.25 9.97L17.7233 11.4433C18.5368 12.257 18.5367 13.576 17.7231 14.3895C16.9095 15.203 15.5905 15.203 14.7769 14.3895C13.9633 13.576 13.9632 12.257 14.7767 11.4433L16.25 9.97ZM16.6667 2.5C17.1269 2.5 17.5 2.8731 17.5 3.33333V7.5C17.5 7.96024 17.1269 8.33333 16.6667 8.33333H3.33333C2.8731 8.33333 2.5 7.96024 2.5 7.5V3.33333C2.5 2.8731 2.8731 2.5 3.33333 2.5H16.6667ZM15.8333 4.16667H4.16667V6.66667H15.8333V4.16667Z" fill="#3A3A3A"/>
</svg>
