<svg width="14" height="14" viewBox="0 0 14 14" fill="none" xmlns="http://www.w3.org/2000/svg">
<path d="M6.99967 6.3335V4.3335L9.66634 7.00016L6.99967 9.66683V7.66683H4.33301V6.3335H6.99967ZM6.99967 0.333496C10.6797 0.333496 13.6663 3.32016 13.6663 7.00016C13.6663 10.6802 10.6797 13.6668 6.99967 13.6668C3.31967 13.6668 0.333008 10.6802 0.333008 7.00016C0.333008 3.32016 3.31967 0.333496 6.99967 0.333496ZM6.99967 12.3335C9.94634 12.3335 12.333 9.94683 12.333 7.00016C12.333 4.0535 9.94634 1.66683 6.99967 1.66683C4.05301 1.66683 1.66634 4.0535 1.66634 7.00016C1.66634 9.94683 4.05301 12.3335 6.99967 12.3335Z" fill="#F5F5FE"/>
</svg>
