<?xml version="1.0"?>
<svg width="17" height="15" viewBox="0 0 17 15" fill="none" xmlns="http://www.w3.org/2000/svg">
  <path d="M14.5377 9.94667C14.3468 10.4134 14.1029 10.8567 13.8108 11.2678C13.0702 12.3094 12.0389 13.1095 10.8459 13.5679C9.65296 14.0264 8.35126 14.1229 7.10373 13.8453C5.85619 13.5677 4.71822 12.9284 3.83218 12.0073C2.94615 11.0862 2.35141 9.92435 2.12238 8.66699" stroke="#8484D0" stroke-linecap="round"/>
  <path d="M2.53693 4.94927C3.08366 3.66703 4.02825 2.59459 5.2312 1.89032C6.43415 1.18606 7.83168 0.887306 9.21744 1.03818C10.6032 1.18906 11.9037 1.78156 12.9269 2.7282C13.9501 3.67484 14.6418 4.92542 14.8998 6.29528" stroke="#8484D0" stroke-linecap="round"/>
  <path d="M12.357 4.83563L14.9357 6.39999L16.3784 3.96777" stroke="#8484D0" stroke-linecap="round"/>
  <path d="M4.64302 10.0427L2.06433 8.47559L0.621582 10.9106" stroke="#8484D0" stroke-linecap="round"/>
  <path d="M10.5789 5.69826C10.1275 5.00085 9.42015 4.55176 8.625 4.55176C7.2618 4.55176 6.15671 5.87168 6.15671 7.49989C6.15671 9.12811 7.2618 10.448 8.625 10.448C9.42015 10.448 10.1275 9.99896 10.5789 9.30154M5.41968 6.76286H8.73633M5.41968 8.23693H8.73633" stroke="#8484D0" stroke-linecap="round" stroke-linejoin="round"/>
</svg>
