<svg width="20" height="20" viewBox="0 0 20 20" fill="none" xmlns="http://www.w3.org/2000/svg">
<path fill-rule="evenodd" clip-rule="evenodd" d="M10.0003 1.66699C14.6028 1.66699 18.3337 5.39783 18.3337 10.0003C18.3337 14.6028 14.6028 18.3337 10.0003 18.3337C5.39783 18.3337 1.66699 14.6028 1.66699 10.0003C1.66699 5.39783 5.39783 1.66699 10.0003 1.66699ZM10.0003 3.33366C6.31843 3.33366 3.33366 6.31843 3.33366 10.0003C3.33366 13.6822 6.31843 16.667 10.0003 16.667C13.6822 16.667 16.667 13.6822 16.667 10.0003C16.667 6.31843 13.6822 3.33366 10.0003 3.33366ZM13.1795 7.04783L11.762 7.99199C11.2001 7.5168 10.4291 7.37332 9.73387 7.61454C9.03861 7.85576 8.5222 8.44588 8.37533 9.16699H12.5003V10.8337H8.37533C8.5222 11.5548 9.03861 12.1449 9.73387 12.3861C10.4291 12.6273 11.2001 12.4839 11.762 12.0087L13.1787 12.9528C12.1845 14.0351 10.6497 14.4369 9.25272 13.9806C7.85573 13.5244 6.85402 12.2941 6.69033 10.8337H5.83366V9.16699H6.68949C6.85263 7.70576 7.85466 6.47468 9.25234 6.0183C10.65 5.56192 12.1855 5.96444 13.1795 7.04783Z" fill="#3A3A3A"/>
</svg>
