<svg width="20" height="20" viewBox="0 0 20 20" fill="none" xmlns="http://www.w3.org/2000/svg">
<path fill-rule="evenodd" clip-rule="evenodd" d="M16.6667 1.66699C17.1267 1.66699 17.5 2.04033 17.5 2.50033V5.63116L15.8333 7.29783V3.33366H4.16667V16.667H15.8333V14.3687L17.5 12.702V17.5003C17.5 17.9603 17.1267 18.3337 16.6667 18.3337H3.33333C2.87333 18.3337 2.5 17.9603 2.5 17.5003V2.50033C2.5 2.04033 2.87333 1.66699 3.33333 1.66699H16.6667ZM18.1483 7.34033L19.3267 8.51866L12.845 15.0003L11.665 14.9987L11.6667 13.822L18.1483 7.34033ZM10.8333 10.0003V11.667H6.66667V10.0003H10.8333ZM13.3333 6.66699V8.33366H6.66667V6.66699H13.3333Z" fill="#3A3A3A"/>
</svg>
