<svg width="12" height="16" viewBox="0 0 12 16" fill="none" xmlns="http://www.w3.org/2000/svg">
<path fill-rule="evenodd" clip-rule="evenodd" d="M5.99965 0.668945C8.26427 0.668945 10.282 2.09911 11.032 4.23593C11.782 6.37274 11.1008 8.75022 9.33298 10.1656V14.7463C9.33301 14.8663 9.26846 14.9772 9.164 15.0363C9.05954 15.0955 8.93131 15.094 8.82831 15.0323L5.99965 13.3349L3.17098 15.0323C3.06789 15.0941 2.93952 15.0955 2.83501 15.0362C2.73051 14.9768 2.66605 14.8658 2.66632 14.7456V10.1656C0.898496 8.75022 0.217287 6.37274 0.96731 4.23593C1.71733 2.09911 3.73503 0.668945 5.99965 0.668945ZM5.99965 2.00161C3.79051 2.00161 1.99965 3.79247 1.99965 6.00161C1.99965 8.21075 3.79051 10.0016 5.99965 10.0016C8.20879 10.0016 9.99965 8.21075 9.99965 6.00161C9.99965 3.79247 8.20879 2.00161 5.99965 2.00161ZM5.99965 3.33494C7.47241 3.33494 8.66632 4.52885 8.66632 6.00161C8.66632 7.47437 7.47241 8.66828 5.99965 8.66828C4.52689 8.66828 3.33298 7.47437 3.33298 6.00161C3.33298 4.52885 4.52689 3.33494 5.99965 3.33494Z" fill="#18753C"/>
</svg>
