<svg width="20" height="20" viewBox="0 0 20 20" fill="none" xmlns="http://www.w3.org/2000/svg">
<path fill-rule="evenodd" clip-rule="evenodd" d="M8.31076 15H9.1666V10.8333H10.8333V15H11.6891C11.7991 13.9983 12.3099 13.1716 13.1391 12.2691C13.2333 12.1675 13.8324 11.5466 13.9033 11.4583C15.5396 9.41403 15.3215 6.45354 13.4034 4.67106C11.4852 2.88858 8.51667 2.88795 6.59773 4.66961C4.67879 6.45127 4.45947 9.41166 6.09493 11.4566C6.1666 11.5458 6.76743 12.1675 6.85993 12.2683C7.68993 13.1716 8.20076 13.9983 8.31076 15ZM8.33327 16.6666V17.5H11.6666V16.6666H8.33327ZM4.79493 12.5C2.61291 9.77374 2.9043 5.82569 5.46292 3.44933C8.02154 1.07297 11.9803 1.07361 14.5382 3.45078C17.096 5.82796 17.3862 9.7761 15.2033 12.5016C14.6866 13.145 13.3333 14.1666 13.3333 15.4166V17.5C13.3333 18.4205 12.5871 19.1666 11.6666 19.1666H8.33327C7.41279 19.1666 6.6666 18.4205 6.6666 17.5V15.4166C6.6666 14.1666 5.31243 13.145 4.79493 12.5Z" fill="#3A3A3A"/>
</svg>
