<?xml version="1.0"?>
<svg width="35" height="35" viewBox="0 0 35 35" fill="none" xmlns="http://www.w3.org/2000/svg">
<rect x="0.5" y="0.5" width="34" height="34" rx="3.5" fill="#FDF8DB"/>
<rect x="0.5" y="0.5" width="34" height="34" rx="3.5" stroke="#97AA7A"/>
<g clip-path="url(#clip0_145_10180)">
<path d="M23.125 9.375H14.375C13.6875 9.375 13.125 9.9375 13.125 10.625V17.25C13.875 17 14.6875 16.875 15.5625 16.875H19.375C20.375 16.875 21.25 17.6875 21.25 18.6875V18.8125C21.25 18.875 21.25 18.875 21.25 18.9375C22.0625 17.9375 23.1875 17.25 24.375 17V10.625C24.375 9.9375 23.8125 9.375 23.125 9.375ZM22.3125 13.625C22.1875 13.75 22.0625 13.8125 21.875 13.8125C21.6875 13.8125 21.5625 13.75 21.4375 13.625L21.25 13.4375V15C21.25 15.375 21 15.625 20.625 15.625C20.25 15.625 20 15.375 20 15V13.4375L19.8125 13.625C19.5625 13.875 19.1875 13.875 18.9375 13.625C18.6875 13.375 18.6875 13 18.9375 12.75L20.1875 11.4375C20.4375 11.1875 20.875 11.1875 21.125 11.4375L22.375 12.75C22.5625 13 22.5625 13.4375 22.3125 13.625Z" fill="#97AA7A"/>
<path d="M26.1875 18.4375C26.0625 18.25 25.875 18.125 25.625 18.125C24.25 18.125 22.9375 18.75 22.125 19.875L21.5625 20.625C20.875 21.4375 19.8125 21.875 18.75 21.875H16.875C16.5 21.875 16.25 21.625 16.25 21.25C16.25 20.875 16.5 20.625 16.875 20.625H18.0625C19.0625 20.625 20 19.8125 20 18.8125V18.75C20 18.4375 19.6875 18.125 19.375 18.125H15.5625C13.3125 18.125 11.5 19.125 10.5 20.75L8.8125 23.375C8.6875 23.5625 8.6875 23.8125 8.8125 24L10.6875 27.125C10.75 27.25 10.9375 27.375 11.0625 27.4375C11.125 27.4375 11.125 27.4375 11.1875 27.4375C11.3125 27.4375 11.4375 27.375 11.5625 27.3125C13.9375 25.75 16.6875 24.9375 19.5 24.9375C21.5625 24.9375 23.4375 23.8125 24.4375 22L26.125 19C26.25 18.875 26.25 18.625 26.1875 18.4375Z" fill="#97AA7A"/>
</g>
<defs>
<clipPath id="clip0_145_10180">
<rect width="20" height="20" fill="white" transform="translate(7.5 7.5)"/>
</clipPath>
</defs>
</svg>
