<svg xmlns="http://www.w3.org/2000/svg" id="iso_mur" data-name="iso mur" viewBox="12.28 15.74 61.7 52.23">  <defs>    <style>      .cls-1 {        fill: #fff;        stroke: #000;      }      .cls-1, .cls-2 {        stroke-linejoin: round;        stroke-width: .25px;      }      .cls-2 {        fill: #e8edff;        stroke: #010202;      }      .cls-3 {        fill: #000091;      }    </style>  </defs>  <g id="iso_mur-2" data-name="iso mur">    <g>      <polyline class="cls-1" points="42.68 62.94 42.72 67.85 73.74 49.75 73.86 45.03"></polyline>      <polygon class="cls-1" points="73.85 45.03 73.85 45.03 55.75 55.41 42.69 62.94 12.49 46.43 25.7 38.28 42.73 27.7 44.01 28.41 52.92 33.34 57.16 35.68 73.85 45.03"></polygon>      <polygon class="cls-1" points="12.49 46.44 42.68 62.94 42.72 67.85 12.41 51.31 12.49 46.44"></polygon>    </g>    <polygon class="cls-2" points="43.25 58.92 43.25 48.04 35.67 43.72 35.37 38.47 32.24 36.57 31.01 33.7 29.77 30.88 22.17 26.62 40.76 15.87 43.89 17.82 28.96 26.74 32.03 28.49 35.27 35.28 38.47 37.13 38.51 37.7 38.83 41.85 46.73 46.37 46.79 56.8 43.25 58.92"></polygon>    <polygon class="cls-2" points="43.25 48.04 43.25 58.92 22.04 46.45 22.17 26.62 29.77 30.88 31.01 33.7 32.24 36.57 35.37 38.47 35.67 43.72 43.25 48.04"></polygon>    <polygon class="cls-2" points="43.89 17.82 43.89 34.4 38.51 37.7 38.47 37.13 35.27 35.28 32.03 28.49 28.96 26.74 43.89 17.82"></polygon>    <polygon class="cls-3" points="42.7 17.16 26.61 26.46 31.52 29.34 34.27 35.52 37.36 37.38 37.91 42.22 45.72 46.76 45.69 57.36 44.36 58.14 44.4 47.53 36.6 43.06 36.12 38.18 33.27 36.42 30.43 30.2 23.94 26.46 41.42 16.37 42.7 17.16"></polygon>  </g></svg>