<svg width="37" height="49" viewBox="0 0 37 49" fill="none" xmlns="http://www.w3.org/2000/svg">
<path d="M0.5 17.8194V44.9997C0.5 46.6566 1.84315 47.9997 3.5 47.9997H33C34.6569 47.9997 36 46.6566 36 44.9997V17.7944C36 16.9681 35.6592 16.1784 35.058 15.6116L20.5293 1.91326C19.3854 0.834782 17.603 0.822264 16.4441 1.88457L1.47284 15.608C0.852946 16.1762 0.5 16.9785 0.5 17.8194Z" stroke="#D10101"/>
<path d="M14.9768 11.8122C14.0751 11.2941 12.7857 11.02 11.74 11.02C10.6946 11.02 9.92496 11.2941 9.02276 11.8125C7.17078 12.878 6.02002 14.8657 6.02002 17C6.02002 19.1214 7.16012 21.1028 8.9952 22.1714C9.9039 22.7005 10.9431 22.98 12 22.98C13.0548 22.98 14.092 22.7016 14.9994 22.1743C16.8378 21.1067 17.98 19.124 17.98 17C17.98 14.8657 16.8293 12.878 14.9768 11.8122ZM11.48 17C11.48 16.7132 11.7132 16.48 12 16.48C12.2868 16.48 12.52 16.7132 12.52 17C12.52 17.2868 12.2868 17.52 12 17.52C11.7132 17.52 11.48 17.2868 11.48 17ZM14.3101 12.054L12.2587 15.9964C12.1755 15.9751 12.0897 15.96 12 15.96C11.9085 15.96 11.8214 15.9756 11.7369 15.998L9.68992 12.054C10.4099 11.7181 11.199 11.54 12 11.54C12.8011 11.54 13.5904 11.7181 14.3101 12.054ZM6.54886 17.26H10.9969C11.044 17.441 11.1353 17.6045 11.2634 17.7332L8.93436 21.518C7.52022 20.5555 6.63128 18.9708 6.54886 17.26ZM15.0654 21.518L12.7324 17.7374C12.8627 17.6079 12.9555 17.4431 13.0031 17.2603H17.4512C17.3688 18.9713 16.4798 20.5555 15.0654 21.518Z" fill="#000091" fill-opacity="0.2"/>
<rect x="20.5" y="33.5" width="12" height="11" rx="1.5" stroke="#000091" stroke-opacity="0.2"/>
<path d="M24 35.0005C23.6667 35.5005 23 36.7005 23 37.5005C23 38.5005 24 38.5005 24 40.0005C24 41.2005 23.3333 42.1672 23 42.5005" stroke="#000091" stroke-opacity="0.2"/>
<path d="M27 35.0005C26.6667 35.5005 26 36.7005 26 37.5005C26 38.5005 27 38.5005 27 40.0005C27 41.2005 26.3333 42.1672 26 42.5005" stroke="#000091" stroke-opacity="0.2"/>
<path d="M30 35.0005C29.6667 35.5005 29 36.7005 29 37.5005C29 38.5005 30 38.5005 30 40.0005C30 41.2005 29.3333 42.1672 29 42.5005" stroke="#000091" stroke-opacity="0.2"/>
</svg>
