<svg width="37" height="46" viewBox="0 0 37 46" fill="none" xmlns="http://www.w3.org/2000/svg">
<path d="M1 16.8333V42C1 43.6569 2.34315 45 4 45H33C34.6569 45 36 43.6569 36 42V16.8081C36 15.9556 35.6373 15.1434 35.0026 14.5744L20.7211 1.77036C19.5934 0.759327 17.889 0.747415 16.7473 1.74258L2.02879 14.5718C1.37516 15.1416 1 15.9662 1 16.8333Z" stroke="#000091" stroke-width="2"/>
<path d="M5 19.3885V38C5 39.6569 6.34315 41 8 41H29C30.6569 41 32 39.6569 32 38V19.3633C32 18.5151 31.6409 17.7066 31.0117 17.1378L20.6737 7.79303C19.5433 6.77116 17.8263 6.75915 16.6816 7.7651L6.01962 17.1351C5.3715 17.7046 5 18.5257 5 19.3885Z" stroke="#000091" stroke-width="3" stroke-linejoin="round" stroke-dasharray="2 2"/>
</svg>
