<?xml version="1.0" standalone="no"?>
<!DOCTYPE svg PUBLIC "-//W3C//DTD SVG 20010904//EN"
 "http://www.w3.org/TR/2001/REC-SVG-20010904/DTD/svg10.dtd">
<svg version="1.0" xmlns="http://www.w3.org/2000/svg"
 width="128.000000pt" height="128.000000pt" viewBox="0 0 128.000000 128.000000"
 preserveAspectRatio="xMidYMid meet">

<g transform="translate(0.000000,128.000000) scale(0.100000,-0.100000)"
fill="#000091" stroke="none">
<path d="M578 1016 c-80 -22 -142 -81 -168 -160 -21 -65 -8 -136 43 -239 68
-135 171 -302 187 -302 16 0 119 167 187 303 35 69 48 107 51 150 12 164 -142
291 -300 248z m171 -64 c97 -59 115 -163 52 -297 -40 -87 -150 -275 -161 -275
-4 0 -35 46 -68 103 -130 218 -154 305 -112 391 52 108 184 144 289 78z"/>
<path d="M600 872 c-63 -31 -78 -99 -34 -151 32 -38 80 -49 122 -27 39 20 52
44 52 93 0 43 -25 78 -67 94 -32 12 -32 12 -73 -9z m84 -33 c57 -45 6 -147
-61 -123 -61 21 -69 103 -13 131 34 17 43 16 74 -8z"/>
<path d="M440 369 c-84 -10 -126 -24 -134 -45 -17 -44 99 -67 334 -67 234 0
351 23 334 67 -9 23 -48 34 -155 46 -66 7 -105 8 -111 2 -20 -20 4 -30 86 -37
190 -16 98 -39 -154 -39 -160 0 -268 9 -256 22 4 3 48 11 99 17 70 8 92 14 92
25 0 19 -34 21 -135 9z"/>
</g>
</svg>
