<?xml version="1.0" encoding="UTF-8" standalone="no"?>
<svg
   width="200"
   height="200"
   viewBox="0 0 200 200"
   fill="none"
   version="1.1"
   id="svg162"
   sodipodi:docname="logo-sans-nom.svg"
   inkscape:version="1.2.2 (b0a8486541, 2022-12-01)"
   xmlns:inkscape="http://www.inkscape.org/namespaces/inkscape"
   xmlns:sodipodi="http://sodipodi.sourceforge.net/DTD/sodipodi-0.dtd"
   xmlns="http://www.w3.org/2000/svg"
   xmlns:svg="http://www.w3.org/2000/svg">
  <sodipodi:namedview
     id="namedview11"
     pagecolor="#ffffff"
     bordercolor="#000000"
     borderopacity="0.25"
     inkscape:showpageshadow="2"
     inkscape:pageopacity="0.0"
     inkscape:pagecheckerboard="0"
     inkscape:deskcolor="#d1d1d1"
     showgrid="false"
     inkscape:zoom="1.532043"
     inkscape:cx="179.17251"
     inkscape:cy="176.23526"
     inkscape:window-width="1920"
     inkscape:window-height="1080"
     inkscape:window-x="0"
     inkscape:window-y="0"
     inkscape:window-maximized="1"
     inkscape:current-layer="svg162" />
  <defs
     id="defs166" />
  <path
     d="m 95.625927,83.390147 c 3.648,-1.9875 8.056003,-1.9875 11.704003,0 l 75.987,41.403003 c 8.505,4.635 8.505,16.846 0,21.48 l -75.987,41.403 c -3.648,1.988 -8.056003,1.988 -11.704003,0 l -75.9872,-41.403 c -8.5051,-4.634 -8.5051,-16.845 0,-21.48 z"
     fill="#253672"
     id="path148" />
  <path
     fill-rule="evenodd"
     clip-rule="evenodd"
     d="m 71.471027,67.537847 c 3.6199,1.9255 9.1729,-1.8085 12.7781,-3.7613 l 42.119803,-17.4862 c 8.15,-4.4142 38.824,8.667 38.824,17.935 v 64.014803 c 0,4.419 -2.383,8.494 -6.234,10.66 l -50.311,28.3 c -3.697,2.079 -8.206,2.095 -11.917003,0.042 l -48.9099,-27.056 c -3.8937,-2.154 -6.3103,-6.253 -6.3103,-10.702 V 78.938947 c 0,-9.2272 19.9208,-15.7343 28.0673,-11.4011 z"
     fill="#ffffff"
     id="path150" />
  <path
     d="m 102.04993,95.033147 49.473,-22.1323 3.906,-11.7173 -29.294,-14.3211 -24.085,13.0192 z"
     fill="#ffffff"
     id="path152" />
  <path
     fill-rule="evenodd"
     clip-rule="evenodd"
     d="m 133.83893,41.583747 c 0.01,-0.0155 0.004,-0.0362 -0.013,-0.0443 l -53.694903,-26.6106 c -5.0462,-2.5008 -11.1661,-0.7894 -14.183,3.9663 l -38.9032,61.3256 c -3.4039,5.3654 -1.5703,12.4914 4.0008,15.5474 l 41.9404,23.008003 c 5.1037,2.799 11.505,1.141 14.6078,-3.784 L 125.40993,54.964347 c 3.038,-4.8232 9.256,-6.5287 14.33,-3.9307 l 40.765,20.8726 c 1.878,0.9618 4.164,-0.0675 4.689,-2.1115 0.387,-1.5098 -0.337,-3.0844 -1.736,-3.7723 l -49.607,-24.3942 c -0.016,-0.0082 -0.022,-0.0289 -0.012,-0.0445 z"
     fill="#e00d1b"
     id="path154" />
  <path
     fill-rule="evenodd"
     clip-rule="evenodd"
     d="m 64.915327,18.240147 c 3.3521,-5.2841 10.152,-7.1857 15.7589,-4.4071 l 53.695703,26.6106 c 0.128,0.0635 0.24,0.1455 0.334,0.2411 l 49.294,24.2403 c 1.918,0.9434 2.912,3.1031 2.38,5.1739 -0.719,2.8035 -3.854,4.2153 -6.43,2.8961 l -40.766,-20.8726 c -4.51,-2.3093 -10.037,-0.7933 -12.738,3.4939 L 88.628827,115.64415 c -3.4476,5.473 -10.5602,7.315 -16.2309,4.204 l -41.9404,-23.008003 c -6.1902,-3.395 -8.2275,-11.312 -4.4454,-17.2745 z m 14.6727,-2.2153 c -4.4855,-2.223 -9.9254,-0.7017 -12.6071,3.5256 l -38.9032,61.3256 c -3.0257,4.7691 -1.3958,11.1031 3.5563,13.8201 l 41.9403,23.007003 c 4.5367,2.489 10.2267,1.015 12.9848,-3.363 L 124.37493,54.312547 c 3.376,-5.359 10.285,-7.2541 15.922,-4.3674 l 40.766,20.8726 c 1.18,0.6044 2.616,-0.0424 2.946,-1.327 0.244,-0.9488 -0.212,-1.9383 -1.091,-2.3706 l -49.606,-24.3943 c -0.131,-0.0641 -0.245,-0.1476 -0.341,-0.2451 z"
     fill="#e00d1b"
     id="path156" />
</svg>
