<?xml version="1.0" encoding="UTF-8" standalone="no"?>
<svg
   width="405"
   height="237"
   viewBox="0 0 405 237"
   fill="none"
   version="1.1"
   id="svg162"
   xmlns="http://www.w3.org/2000/svg"
   xmlns:svg="http://www.w3.org/2000/svg">
  <defs
     id="defs166" />
  <path
     d="M102.366 101.223C106.014 99.2355 110.422 99.2355 114.07 101.223L190.057 142.626C198.562 147.261 198.562 159.472 190.057 164.106L114.07 205.509C110.422 207.497 106.014 207.497 102.366 205.509L26.3788 164.106C17.8737 159.472 17.8737 147.261 26.3788 142.626L102.366 101.223Z"
     fill="#253672"
     id="path148" />
  <path
     fill-rule="evenodd"
     clip-rule="evenodd"
     d="M78.2111 85.3707C81.831 87.2962 87.384 83.5622 90.9892 81.6094L133.109 64.1232C141.259 59.709 171.933 72.7902 171.933 82.0582V146.073C171.933 150.492 169.55 154.567 165.699 156.733L115.388 185.033C111.691 187.112 107.182 187.128 103.471 185.075L54.5611 158.019C50.6674 155.865 48.2508 151.766 48.2508 147.317V96.7718C48.2508 87.5446 68.1716 81.0375 76.3181 85.3707H78.2111Z"
     fill="white"
     id="path150" />
  <path
     d="M108.79 112.866L158.263 90.7337L162.169 79.0164L132.875 64.6953L108.79 77.7145V112.866Z"
     fill="white"
     id="path152" />
  <path
     fill-rule="evenodd"
     clip-rule="evenodd"
     d="M140.579 59.4166C140.589 59.4011 140.583 59.3804 140.566 59.3723L86.8711 32.7617C81.8249 30.2609 75.705 31.9723 72.6881 36.728L33.7849 98.0536C30.381 103.419 32.2146 110.545 37.7857 113.601L79.7261 136.609C84.8298 139.408 91.2311 137.75 94.3339 132.825L132.15 72.7972C135.188 67.974 141.406 66.2685 146.48 68.8665L187.245 89.7391C189.123 90.7009 191.409 89.6716 191.934 87.6276C192.321 86.1178 191.597 84.5432 190.198 83.8553L140.591 59.4611C140.575 59.4529 140.569 59.4322 140.579 59.4166Z"
     fill="#E00D1B"
     id="path154" />
  <path
     fill-rule="evenodd"
     clip-rule="evenodd"
     d="M71.6554 36.073C75.0075 30.7889 81.8074 28.8873 87.4143 31.6659L141.11 58.2765C141.238 58.34 141.35 58.422 141.444 58.5176L190.738 82.7579C192.656 83.7013 193.65 85.861 193.118 87.9318C192.399 90.7353 189.264 92.1471 186.688 90.8279L145.922 69.9553C141.412 67.646 135.885 69.162 133.184 73.4492L95.3689 133.477C91.9213 138.95 84.8087 140.792 79.138 137.681L37.1976 114.673C31.0074 111.278 28.9701 103.361 32.7522 97.3985L71.6554 36.073ZM86.3281 33.8577C81.8426 31.6347 76.4027 33.156 73.721 37.3833L34.8178 98.7089C31.7921 103.478 33.422 109.812 38.3741 112.529L80.3144 135.536C84.8511 138.025 90.5411 136.551 93.2992 132.173L131.115 72.1454C134.491 66.7864 141.4 64.8913 147.037 67.778L187.803 88.6506C188.983 89.255 190.419 88.6082 190.749 87.3236C190.993 86.3748 190.537 85.3853 189.658 84.953L140.052 60.5587C139.921 60.4946 139.807 60.4111 139.711 60.3136L86.3281 33.8577Z"
     fill="#E00D1B"
     id="path156" />
  <path
     d="M227.489 87V42.9H238.64L249.413 61.422L260.186 42.9H271.337V87H262.391V55.374L252.563 71.88H246.263L236.435 55.374V87H227.489ZM309.17 81.834C306.209 85.803 301.295 88.26 295.31 88.26C284.033 88.26 277.67 80.385 277.67 71.124C277.67 61.737 283.592 53.988 293.987 53.988C302.807 53.988 308.603 59.973 308.603 68.289C308.603 70.053 308.351 71.691 308.099 72.762H285.86C286.616 78.684 290.27 81.078 295.247 81.078C298.712 81.078 301.736 79.566 303.437 77.298L309.17 81.834ZM293.798 60.54C289.703 60.54 286.994 62.808 286.112 66.966H300.728C300.602 63.753 298.271 60.54 293.798 60.54ZM311.014 82.401L316.306 77.613C318.259 80.07 320.59 81.834 323.614 81.834C326.197 81.834 327.52 80.322 327.52 78.432C327.52 72.888 312.337 74.967 312.337 63.816C312.337 58.209 317.062 53.988 323.677 53.988C328.528 53.988 332.938 56.319 335.206 59.406L329.914 64.068C328.276 62.052 326.197 60.414 323.74 60.414C321.22 60.414 320.023 61.8 320.023 63.438C320.023 68.856 335.206 66.966 335.206 77.928C335.08 84.606 329.725 88.26 323.74 88.26C318.07 88.26 314.038 85.992 311.014 82.401ZM221.945 145L238.64 100.9H250.358L267.053 145H257.54L253.319 133.534H235.679L231.458 145H221.945ZM238.451 125.911H250.547L244.499 109.342L238.451 125.911ZM276.526 107.704C273.691 107.704 271.297 105.31 271.297 102.475C271.297 99.64 273.691 97.246 276.526 97.246C279.361 97.246 281.692 99.64 281.692 102.475C281.692 105.31 279.361 107.704 276.526 107.704ZM272.494 145V113.248H280.495V145H272.494ZM285.617 129.124C285.617 119.863 291.728 111.988 301.745 111.988C306.029 111.988 309.116 113.311 311.573 115.768V97.75H319.637V145H311.573V142.48C309.116 144.937 306.029 146.26 301.745 146.26C291.728 146.26 285.617 138.385 285.617 129.124ZM293.996 129.124C293.996 134.668 297.461 138.7 302.879 138.7C306.47 138.7 309.431 137.188 311.573 134.29V123.958C309.431 121.06 306.47 119.548 302.879 119.548C297.461 119.548 293.996 123.58 293.996 129.124ZM356.256 139.834C353.295 143.803 348.381 146.26 342.396 146.26C331.119 146.26 324.756 138.385 324.756 129.124C324.756 119.737 330.678 111.988 341.073 111.988C349.893 111.988 355.689 117.973 355.689 126.289C355.689 128.053 355.437 129.691 355.185 130.762H332.946C333.702 136.684 337.356 139.078 342.333 139.078C345.798 139.078 348.822 137.566 350.523 135.298L356.256 139.834ZM340.884 118.54C336.789 118.54 334.08 120.808 333.198 124.966H347.814C347.688 121.753 345.357 118.54 340.884 118.54ZM358.099 140.401L363.391 135.613C365.344 138.07 367.675 139.834 370.699 139.834C373.282 139.834 374.605 138.322 374.605 136.432C374.605 130.888 359.422 132.967 359.422 121.816C359.422 116.209 364.147 111.988 370.762 111.988C375.613 111.988 380.023 114.319 382.291 117.406L376.999 122.068C375.361 120.052 373.282 118.414 370.825 118.414C368.305 118.414 367.108 119.8 367.108 121.438C367.108 126.856 382.291 124.966 382.291 135.928C382.165 142.606 376.81 146.26 370.825 146.26C365.155 146.26 361.123 143.992 358.099 140.401Z"
     fill="#253672"
     id="path158" />
  <path
     d="M227.489 203V158.9H240.971C250.673 158.9 256.658 163.877 256.658 172.067C256.658 177.422 254.075 181.391 249.539 183.47L263.336 203H252.815L241.034 185.171H236.435V203H227.489ZM241.475 166.334H236.435V177.737H241.475C245.255 177.737 247.46 175.532 247.46 171.941C247.46 168.602 245.255 166.334 241.475 166.334ZM284.063 166.208H276.377L282.929 155.75H291.623L284.063 166.208ZM294.836 197.834C291.875 201.803 286.961 204.26 280.976 204.26C269.699 204.26 263.336 196.385 263.336 187.124C263.336 177.737 269.258 169.988 279.653 169.988C288.473 169.988 294.269 175.973 294.269 184.289C294.269 186.053 294.017 187.691 293.765 188.762H271.526C272.282 194.684 275.936 197.078 280.913 197.078C284.378 197.078 287.402 195.566 289.103 193.298L294.836 197.834ZM279.464 176.54C275.369 176.54 272.66 178.808 271.778 182.966H286.394C286.268 179.753 283.937 176.54 279.464 176.54ZM299.882 203V171.248H307.883V173.768C310.088 171.626 313.049 169.988 317.27 169.988C324.137 169.988 329.618 174.713 329.618 184.1V203H321.554V184.415C321.554 180.194 319.16 177.548 315.254 177.548C311.222 177.548 309.08 180.257 307.883 182.273V203H299.882ZM351.618 169.988C361.95 169.988 369.006 177.611 369.006 187.124C369.006 196.637 361.95 204.26 351.618 204.26C341.286 204.26 334.23 196.637 334.23 187.124C334.23 177.611 341.286 169.988 351.618 169.988ZM351.744 196.7C356.847 196.7 360.69 192.605 360.69 187.124C360.69 181.58 356.847 177.548 351.744 177.548C346.452 177.548 342.546 181.58 342.546 187.124C342.546 192.668 346.452 196.7 351.744 196.7Z"
     fill="#E10C1A"
     id="path160" />
</svg>
