<?xml version="1.0" encoding="UTF-8"?>
<svg id="Calque_1" data-name="Calque 1" xmlns="http://www.w3.org/2000/svg" version="1.1" viewBox="0 0 128 54">
  <defs>
    <style>
      .cls-1 {
        fill-rule: evenodd;
      }

      .cls-1, .cls-2, .cls-3, .cls-4 {
        stroke-width: 0px;
      }

      .cls-1, .cls-3 {
        fill: #283e74;
      }

      .cls-2 {
        fill: #d83a34;
      }

      .cls-4 {
        fill: #fff;
      }
    </style>
  </defs>
  <path class="cls-4" d="M0,0h128v54H0V0Z"/>
  <path class="cls-3" d="M57.2,17.3h7.5v2.2h-4.9v3h4.1v2.2h-4.1v5.4h-2.6v-12.8h0ZM66.2,21h2.3v.9c.6-.6,1.4-1.1,2.4-1.1s.6,0,.8.1v2.4c-.3,0-.7-.1-1-.1-1.1,0-1.8.6-2.2,1.2v5.7h-2.3v-9.2h0ZM72.8,27.7c0-1.4,1.1-2.5,3.1-2.8l2.8-.5v-.3c0-.9-.8-1.6-1.8-1.6s-1.6.4-2.1,1.1l-1.7-1.3c.8-1.1,2.2-1.8,3.9-1.8,2.7,0,4,1.6,4,3.6v5.9h-2.3v-.9c-.6.8-1.6,1.2-2.7,1.2-1.9.3-3.2-.8-3.2-2.6ZM76.3,28.7c1,0,1.8-.6,2.3-1.3v-1.3l-2.1.4c-1,.2-1.4.6-1.4,1.1s.5,1.1,1.3,1.1h0ZM83.6,21h2.3v.8c.6-.6,1.5-1.1,2.7-1.1,2,0,3.6,1.4,3.6,4.1v5.5h-2.3v-5.4c0-1.2-.7-2-1.8-2s-1.8.8-2.1,1.4v6h-2.3v-9.3ZM101.3,27.3l1.8,1.4c-.9,1.1-2.2,1.9-3.9,1.9-3.2,0-5.1-2.3-5.1-5s1.9-5,5.1-5,3,.8,3.9,1.9l-1.8,1.4c-.4-.6-1.1-1.1-2.1-1.1-1.5,0-2.7,1.2-2.7,2.8s1.1,2.8,2.7,2.8,1.6-.4,2.1-1.1h0ZM109,30.6c-3.3,0-5.1-2.3-5.1-5s1.7-5,4.7-5,4.2,1.7,4.2,4.1,0,1-.1,1.3h-6.4c.1,1.5,1.2,2.4,2.8,2.4s1.8-.4,2.3-1.1l1.6,1.3c-.9,1.1-2.3,1.9-4,1.9h0ZM106.4,24.3h4.2c0-.9-.7-1.8-2-1.8s-1.9.6-2.2,1.8h0Z"/>
  <path class="cls-2" d="M57.2,34.1h3.9c2.8,0,4.5,1.5,4.5,3.8s-.8,2.7-2,3.3l4,5.7h-3.1l-3.4-5.2h-1.3v5.2h-2.6c0,0,0-12.8,0-12.8ZM59.8,36.3v3.2h1.5c1.1,0,1.7-.6,1.7-1.6s-.6-1.6-1.7-1.6h-1.5ZM73.3,47.2c-3.3,0-5.1-2.3-5.1-5s1.7-5,4.7-5,4.2,1.7,4.2,4.1,0,1-.1,1.3h-6.4c.1,1.5,1.2,2.4,2.8,2.4s1.8-.4,2.3-1.1l1.6,1.3c-.9,1.2-2.3,1.9-4,1.9ZM70.7,41h4.2c0-.9-.7-1.8-2-1.8-1.1,0-1.9.6-2.2,1.8ZM72,36.2l1.9-3h2.5l-2.2,3c0,0-2.2,0-2.2,0ZM79.5,37.7h2.3v.8c.6-.6,1.5-1.1,2.7-1.1,2,0,3.6,1.4,3.6,4.1v5.5h-2.3v-5.5c0-1.2-.7-2-1.8-2s-1.8.8-2.1,1.4v6h-2.3v-9.2h0ZM100.2,42.3c0,2.8-2,5-5.1,5s-5.1-2.2-5.1-5,2-5,5.1-5,5.1,2.2,5.1,5ZM97.7,42.3c0-1.6-1.1-2.8-2.6-2.8s-2.7,1.2-2.7,2.8,1.1,2.8,2.7,2.8c1.5,0,2.6-1.2,2.6-2.8ZM103.3,37.7l2.4,6.6,2.4-6.6h2.5l-3.3,9.2h-3l-3.4-9.2h2.5ZM111.8,39.3l1.6-5.2h2.7l-2.1,5.2h-2.1Z"/>
  <path class="cls-1" d="M42.2,24.7c-.3,0-.6,0-.9,0-.3,0-.6.1-.9.3-.3.1-.6.3-.8.5-.3.2-.4.5-.5.8h-.1c0-.4.1-.7.3-.9s.4-.5.8-.8c.6-.4,1.3-.6,2.1-.6s.8,0,1.1.1c.1,0,.3,0,.3.1-.3-.6-.5-1.1-.8-1.6-2.1-3.2-5.9-5-9.7-5.1s-7.5,1.5-10.4,3.9h.3c.2-.3.4-.4.6-.4l-.6.4c-1.5.9-2.1,2.9-2.5,4.7-.4,1.9-.8,3.9-.6,5.7.1,2,.9,3.9,2.3,5.2,1.5,1.3,3.6,1.8,5.6,1.9,2.9.2,5.9-.3,8.7-1.2,2.5-.9,4.9-2.2,6.4-4.4,1.5-2.2,1.9-5.1,1.2-7.6-.1-.1-.3-.3-.4-.3-.4-.3-.9-.7-1.5-.8ZM35.2,26.7c0-.4-.3-.6-.6-.9s-.6-.4-.9-.6-.7-.3-1-.3c-.3,0-.7,0-1,0-.7.1-1.2.5-1.8.8-.6.4-1,.9-1.5,1.5h-.1c0-.4,0-.8.2-1.2.2-.4.4-.8.7-1.1s.7-.6,1.1-.7c.4-.1.9-.2,1.3-.2.9,0,1.7.2,2.4.7.3.3.6.5.9.8s.4.7.4,1.1c0,0-.1,0-.1,0ZM29.7,7.1c-.4.3-.8.6-1.3.9l-1.2,1c-1.6,1.4-3,3-4.5,4.5-1.5,1.5-2.9,3-4.4,4.6-1.4,1.6-2.8,3.2-4.2,4.7h.1c1.5-1.3,3-2.8,4.5-4.2,1.5-1.5,3.1-2.9,4.6-4.3,1.6-1.5,3.2-2.7,4.7-4.2.8-.8,1.5-1.5,2.2-2.3.7-.8,1.4-1.6,2.1-2.4h0c-1,.4-1.9.9-2.7,1.6ZM53.1,24.2c-1.5-1.8-3-3.6-4.7-5.2-1.6-1.6-3.4-3.2-5.1-4.7l-5.1-4.7c-1.7-1.6-3.5-3.2-5.2-4.7h-.1c1.6,1.8,3.2,3.5,4.8,5.2l4.9,5.1c1.6,1.6,3.2,3.4,4.9,5,1.7,1.6,3.5,3.1,5.4,4.5l.3-.3q0,0,0,0Z"/>
</svg>