<?xml version="1.0" encoding="UTF-8"?>
<!-- Generator: Adobe Illustrator 26.3.1, SVG Export Plug-In . SVG Version: 6.00 Build 0)  -->
<svg version="1.1" id="Calque_1" xmlns="http://www.w3.org/2000/svg" xmlns:xlink="http://www.w3.org/1999/xlink" x="0px" y="0px" viewBox="0 0 200 114" style="enable-background:new 0 0 200 114;" xml:space="preserve">
<style type="text/css">
	.st0{fill:none;}
	.st1{fill:#263D75;}
	.st2{fill:#D73A34;}
	.st3{fill-rule:evenodd;clip-rule:evenodd;fill:#263D75;}
</style>
<path class="st0" d="M0,0h200v114H0V0z"/>
<path class="st1" d="M79.5,86.4H80v4.9h2.4v0.4h-2.9L79.5,86.4L79.5,86.4L79.5,86.4z M85.2,91.9c-1.3,0-2.2-0.9-2.2-2.1  c0-1.2,0.8-2.1,2-2.1c1.1,0,1.8,0.7,1.8,1.6c0,0.1,0,0.2,0,0.3h-3.3v0.1c0,1,0.7,1.7,1.7,1.7c0.6,0,1.1-0.3,1.3-0.6l0.4,0.3  C86.6,91.6,86,91.9,85.2,91.9L85.2,91.9z M83.6,89.3h2.8c0-0.7-0.5-1.2-1.3-1.2C84.3,88.1,83.7,88.6,83.6,89.3z M90.2,90.9  c0.3,0.4,0.7,0.5,1.1,0.5c0.5,0,0.8-0.3,0.8-0.7c0-1-2.1-0.6-2.1-2c0-0.6,0.5-1,1.3-1c0.6,0,1,0.3,1.3,0.6l-0.4,0.3  c-0.2-0.3-0.6-0.5-0.9-0.5c-0.5,0-0.8,0.3-0.8,0.7c0,1,2.1,0.7,2.1,2c0,0.7-0.6,1.1-1.3,1.1c-0.6,0-1.1-0.2-1.5-0.7L90.2,90.9  L90.2,90.9z M95.6,91.9c-1.3,0-2.2-0.9-2.2-2.1c0-1.2,0.8-2.1,2-2.1c1.1,0,1.8,0.7,1.8,1.6c0,0.1,0,0.2,0,0.3h-3.3v0.1  c0,1,0.7,1.7,1.7,1.7c0.6,0,1.1-0.3,1.3-0.6l0.4,0.3C96.9,91.6,96.3,91.9,95.6,91.9L95.6,91.9z M93.9,89.3h2.8  c0-0.7-0.5-1.2-1.3-1.2C94.6,88.1,94.1,88.6,93.9,89.3z M98.5,87.9h0.5v0.5c0.3-0.4,0.7-0.6,1.3-0.6c0.1,0,0.2,0,0.3,0v0.4  c-0.1,0-0.2-0.1-0.4-0.1c-0.6,0-0.9,0.3-1.2,0.7v2.8h-0.5L98.5,87.9L98.5,87.9z M101.6,87.9l1.5,3.4l1.5-3.4h0.5l-1.7,3.8h-0.6  l-1.7-3.8H101.6L101.6,87.9z M105.9,86.3c0-0.2,0.2-0.3,0.4-0.3c0.2,0,0.4,0.2,0.4,0.3c0,0.2-0.2,0.3-0.4,0.3  C106.1,86.7,105.9,86.5,105.9,86.3z M106,87.9h0.5v3.8H106V87.9z M111.3,90.8l0.4,0.3c-0.4,0.5-1,0.8-1.7,0.8  c-1.3,0-2.2-0.9-2.2-2.1c0-1.1,0.9-2.1,2.2-2.1c0.7,0,1.3,0.3,1.7,0.8l-0.4,0.3c-0.3-0.4-0.8-0.6-1.3-0.6c-1,0-1.7,0.7-1.7,1.6  s0.7,1.6,1.7,1.6C110.5,91.4,110.9,91.2,111.3,90.8z M114.4,91.9c-1.3,0-2.2-0.9-2.2-2.1c0-1.2,0.8-2.1,2-2.1c1.1,0,1.8,0.7,1.8,1.6  c0,0.1,0,0.2,0,0.3h-3.3v0.1c0,1,0.7,1.7,1.7,1.7c0.6,0,1.1-0.3,1.3-0.6l0.4,0.3C115.7,91.6,115.1,91.9,114.4,91.9L114.4,91.9z   M112.7,89.3h2.8c0-0.7-0.5-1.2-1.3-1.2C113.4,88.1,112.9,88.6,112.7,89.3z M119.4,87.9h0.5v0.5c0.4-0.4,0.9-0.7,1.6-0.7  c1.3,0,2.1,0.9,2.1,2.1c0,1.1-0.8,2.1-2.1,2.1c-0.6,0-1.2-0.3-1.6-0.7v2.4h-0.5C119.4,93.6,119.4,87.9,119.4,87.9z M119.9,88.9v1.7  c0.3,0.5,0.9,0.8,1.5,0.8c1,0,1.6-0.7,1.6-1.6s-0.7-1.6-1.6-1.6C120.8,88.1,120.2,88.4,119.9,88.9z M127.7,87.9h0.5v2.2  c0,1.1-0.7,1.8-1.7,1.8c-1.1,0-1.8-0.7-1.8-1.8v-2.2h0.5v2.2c0,0.9,0.5,1.4,1.3,1.4c0.8,0,1.3-0.5,1.3-1.4V87.9z M131.7,91.9  c-0.6,0-1.2-0.3-1.6-0.7v0.5h-0.5V86h0.5v2.4c0.4-0.4,0.9-0.7,1.6-0.7c1.3,0,2.1,1,2.1,2.1C133.9,90.9,133,91.9,131.7,91.9z   M130.2,88.9v1.7c0.3,0.5,0.9,0.8,1.5,0.8c1,0,1.6-0.7,1.6-1.6s-0.7-1.6-1.6-1.6C131.1,88.1,130.5,88.4,130.2,88.9z M135.1,86h0.5  v5.7h-0.5V86z M137,86.3c0-0.2,0.2-0.3,0.4-0.3c0.2,0,0.4,0.2,0.4,0.3c0,0.2-0.2,0.3-0.4,0.3C137.2,86.7,137,86.5,137,86.3z   M137.2,87.9h0.5v3.8h-0.5V87.9z M142.4,90.8l0.4,0.3c-0.4,0.5-1,0.8-1.7,0.8c-1.3,0-2.2-0.9-2.2-2.1c0-1.1,0.9-2.1,2.2-2.1  c0.7,0,1.3,0.3,1.7,0.8l-0.4,0.3c-0.3-0.4-0.8-0.6-1.3-0.6c-1,0-1.7,0.7-1.7,1.6s0.7,1.6,1.7,1.6C141.6,91.4,142.1,91.2,142.4,90.8z   M146,87.9h0.5v0.5c0.4-0.4,0.9-0.7,1.6-0.7c1.3,0,2.1,0.9,2.1,2.1c0,1.1-0.8,2.1-2.1,2.1c-0.6,0-1.2-0.3-1.6-0.7v2.4H146  C146,93.6,146,87.9,146,87.9z M146.5,88.9v1.7c0.3,0.5,0.9,0.8,1.5,0.8c1,0,1.6-0.7,1.6-1.6s-0.7-1.6-1.6-1.6  C147.4,88.1,146.8,88.4,146.5,88.9z M155.4,89.8c0,1.1-0.9,2.1-2.2,2.1c-1.3,0-2.2-1-2.2-2.1s0.9-2.1,2.2-2.1  C154.5,87.7,155.4,88.7,155.4,89.8z M154.9,89.8c0-0.9-0.7-1.6-1.7-1.6c-1,0-1.7,0.8-1.7,1.6s0.7,1.6,1.7,1.6  C154.2,91.4,154.9,90.7,154.9,89.8z M159.6,87.9h0.5v2.2c0,1.1-0.7,1.8-1.7,1.8c-1.1,0-1.8-0.7-1.8-1.8v-2.2h0.5v2.2  c0,0.9,0.5,1.4,1.3,1.4c0.8,0,1.3-0.5,1.3-1.4V87.9z M161.5,87.9h0.5v0.5c0.3-0.4,0.7-0.6,1.3-0.6c0.1,0,0.2,0,0.3,0v0.4  c-0.1,0-0.2-0.1-0.4-0.1c-0.6,0-0.9,0.3-1.2,0.7v2.8h-0.5V87.9L161.5,87.9z M166.9,87.9h0.5v0.5c0.3-0.4,0.8-0.7,1.4-0.7  c0.6,0,1.1,0.3,1.4,0.8c0.3-0.5,0.8-0.8,1.5-0.8c0.9,0,1.5,0.5,1.5,1.6v2.4h-0.5v-2.4c0-0.7-0.5-1.2-1.1-1.2c-0.6,0-1,0.3-1.3,0.8  c0,0.1,0,0.2,0,0.3v2.4h-0.5v-2.4c0-0.7-0.4-1.2-1.1-1.2c-0.6,0-1,0.3-1.3,0.8v2.8h-0.5L166.9,87.9L166.9,87.9z M174.5,86.3  c0-0.2,0.2-0.3,0.4-0.3c0.2,0,0.4,0.2,0.4,0.3c0,0.2-0.2,0.3-0.4,0.3C174.7,86.7,174.5,86.5,174.5,86.3z M174.7,87.9h0.5v3.8h-0.5  V87.9z M178.6,91.9c-1.3,0-2.2-0.9-2.2-2.1c0-1.2,0.8-2.1,2-2.1c1.1,0,1.8,0.7,1.8,1.6c0,0.1,0,0.2,0,0.3h-3.3v0.1  c0,1,0.7,1.7,1.7,1.7c0.6,0,1.1-0.3,1.4-0.6l0.4,0.3C179.9,91.6,179.3,91.9,178.6,91.9L178.6,91.9z M176.9,89.3h2.8  c0-0.7-0.5-1.2-1.3-1.2C177.6,88.1,177.1,88.6,176.9,89.3L176.9,89.3z M184.3,87.9h0.5v2.2c0,1.1-0.7,1.8-1.7,1.8  c-1.1,0-1.8-0.7-1.8-1.8v-2.2h0.5v2.2c0,0.9,0.5,1.4,1.3,1.4c0.8,0,1.3-0.5,1.3-1.4V87.9z M185.7,91.7l1.5-2l-1.4-1.8h0.6l1.2,1.5  l1.2-1.5h0.6l-1.4,1.8l1.6,2h-0.6l-1.3-1.7l-1.3,1.7L185.7,91.7L185.7,91.7z M79.4,97h0.5v0.5c0.3-0.4,0.7-0.6,1.3-0.6  c0.1,0,0.2,0,0.3,0v0.4c-0.1,0-0.2-0.1-0.4-0.1c-0.6,0-0.9,0.3-1.2,0.7v2.8h-0.5C79.4,100.8,79.4,97,79.4,97z M84.1,101  c-1.3,0-2.2-0.9-2.2-2.1c0-1.2,0.8-2.1,2-2.1c1.1,0,1.8,0.7,1.8,1.6c0,0.1,0,0.2,0,0.3h-3.3v0.1c0,1,0.7,1.7,1.7,1.7  c0.6,0,1.1-0.3,1.3-0.6l0.4,0.3C85.4,100.7,84.8,101,84.1,101z M82.4,98.5h2.8c0-0.7-0.5-1.2-1.3-1.2C83.1,97.3,82.6,97.7,82.4,98.5  L82.4,98.5z M83.7,96.4l0.8-1.3h0.6l-0.9,1.3H83.7L83.7,96.4z M87,97h0.5v0.5c0.4-0.4,0.8-0.7,1.5-0.7c0.9,0,1.6,0.6,1.6,1.6v2.4H90  v-2.3c0-0.8-0.5-1.2-1.2-1.2c-0.7,0-1.1,0.3-1.4,0.8v2.8H87C87,100.8,87,97,87,97z M96,98.9c0,1.1-0.9,2.1-2.2,2.1  c-1.3,0-2.2-1-2.2-2.1s0.9-2.1,2.2-2.1C95.1,96.9,96,97.8,96,98.9z M95.5,98.9c0-0.9-0.7-1.6-1.7-1.6c-1,0-1.7,0.8-1.7,1.6  s0.7,1.6,1.7,1.6C94.8,100.6,95.5,99.8,95.5,98.9C95.5,98.9,95.5,98.9,95.5,98.9z M97,97l1.5,3.4L100,97h0.5l-1.7,3.8h-0.6L96.5,97  H97L97,97z M103.2,101c-1.3,0-2.2-1-2.2-2.1c0-1.2,0.8-2.1,2-2.1c1.1,0,1.8,0.7,1.8,1.6c0,0.1,0,0.2,0,0.3h-3.3v0.1  c0,1,0.7,1.7,1.7,1.7c0.6,0,1.1-0.3,1.3-0.6l0.4,0.3C104.5,100.7,103.9,101,103.2,101z M101.5,98.5h2.8c0-0.7-0.5-1.2-1.3-1.2  C102.3,97.3,101.7,97.7,101.5,98.5z M106.1,97h0.5v0.5c0.3-0.4,0.7-0.6,1.3-0.6c0.1,0,0.2,0,0.3,0v0.4c-0.1,0-0.2-0.1-0.4-0.1  c-0.6,0-0.9,0.3-1.2,0.7v2.8h-0.5C106.1,100.8,106.1,97,106.1,97z M111.4,97h0.5v0.5c0.3-0.4,0.8-0.7,1.4-0.7c0.6,0,1.1,0.3,1.4,0.8  c0.3-0.5,0.8-0.8,1.5-0.8c0.9,0,1.5,0.5,1.5,1.6v2.4h-0.5v-2.4c0-0.7-0.5-1.2-1.1-1.2c-0.6,0-1,0.3-1.3,0.8c0,0.1,0,0.2,0,0.3v2.4  h-0.5v-2.4c0-0.7-0.4-1.2-1.1-1.2c-0.6,0-1,0.3-1.3,0.8v2.8h-0.5L111.4,97L111.4,97z M123.2,98.9c0,1.1-0.9,2.1-2.2,2.1  c-1.3,0-2.2-1-2.2-2.1s0.9-2.1,2.2-2.1C122.3,96.9,123.2,97.8,123.2,98.9z M122.7,98.9c0-0.9-0.7-1.6-1.7-1.6c-1,0-1.7,0.8-1.7,1.6  s0.7,1.6,1.7,1.6C122,100.6,122.7,99.8,122.7,98.9C122.7,98.9,122.7,98.9,122.7,98.9z M124.4,97h0.5v0.5c0.4-0.4,0.9-0.7,1.5-0.7  c0.9,0,1.6,0.6,1.6,1.6v2.4h-0.5v-2.3c0-0.8-0.5-1.2-1.2-1.2c-0.6,0-1.1,0.3-1.4,0.8v2.8h-0.5C124.4,100.8,124.4,97,124.4,97z   M131.7,95.1h0.5v2.4c0.3-0.4,0.9-0.7,1.5-0.7c0.9,0,1.6,0.6,1.6,1.6v2.4h-0.5v-2.3c0-0.8-0.5-1.2-1.2-1.2c-0.6,0-1.1,0.3-1.4,0.8  v2.8h-0.5C131.7,100.8,131.7,95.1,131.7,95.1z M136.5,99.9c0-0.6,0.5-1,1.3-1.1l1.5-0.2v-0.4c0-0.6-0.5-0.9-1.1-0.9  c-0.5,0-1,0.2-1.2,0.6l-0.4-0.3c0.3-0.4,0.9-0.7,1.6-0.7c0.9,0,1.6,0.5,1.6,1.4v2.6h-0.5v-0.6c-0.3,0.4-0.9,0.7-1.5,0.7  C137,101,136.5,100.6,136.5,99.9L136.5,99.9z M137.8,100.6c0.6,0,1.1-0.3,1.4-0.8v-0.9l-1.4,0.2c-0.6,0.1-0.9,0.4-0.9,0.8  C137,100.3,137.3,100.6,137.8,100.6z M143.3,101c-0.6,0-1.2-0.3-1.6-0.7v0.5h-0.5v-5.7h0.5v2.4c0.4-0.4,0.9-0.7,1.6-0.7  c1.3,0,2.1,0.9,2.1,2.1C145.4,100,144.6,101,143.3,101L143.3,101z M141.7,98.1v1.7c0.3,0.5,0.9,0.8,1.5,0.8c1,0,1.6-0.7,1.6-1.6  s-0.7-1.6-1.6-1.6C142.6,97.3,142.1,97.6,141.7,98.1z M146.5,95.5c0-0.2,0.2-0.3,0.4-0.3c0.2,0,0.4,0.2,0.4,0.3  c0,0.2-0.2,0.3-0.4,0.3C146.7,95.8,146.5,95.7,146.5,95.5z M146.6,97h0.5v3.8h-0.5V97z M148.9,97.4h-0.8V97h0.8v-1h0.5v1h1.5v0.4  h-1.5v2.2c0,0.7,0.4,0.9,0.9,0.9c0.3,0,0.4,0,0.6-0.1v0.4c-0.2,0.1-0.4,0.1-0.6,0.1c-0.8,0-1.4-0.3-1.4-1.3L148.9,97.4L148.9,97.4z   M151.8,99.9c0-0.6,0.5-1,1.3-1.1l1.5-0.2v-0.4c0-0.6-0.5-0.9-1.1-0.9c-0.5,0-1,0.2-1.2,0.6l-0.4-0.3c0.3-0.4,0.9-0.7,1.6-0.7  c0.9,0,1.6,0.5,1.6,1.4v2.6h-0.5v-0.6c-0.3,0.4-0.9,0.7-1.5,0.7C152.3,101,151.8,100.6,151.8,99.9z M153.2,100.6  c0.6,0,1.1-0.3,1.4-0.8v-0.9l-1.4,0.2c-0.6,0.1-0.9,0.4-0.9,0.8C152.3,100.3,152.6,100.6,153.2,100.6z M156.8,97.4H156V97h0.8v-1  h0.5v1h1.5v0.4h-1.5v2.2c0,0.7,0.4,0.9,0.9,0.9c0.3,0,0.4,0,0.6-0.1v0.4c-0.2,0.1-0.4,0.1-0.6,0.1c-0.8,0-1.4-0.3-1.4-1.3  L156.8,97.4L156.8,97.4z M79.1,31.8h11.8v3.5h-7.7V40h6.5v3.5h-6.5v8.6h-4.1V31.8L79.1,31.8z M93.4,37.5h3.7V39c1-1,2.2-1.7,3.8-1.7  c0.5,0,0.9,0.1,1.3,0.2v3.8c-0.5-0.1-1.1-0.2-1.6-0.2c-1.8,0-2.9,1-3.5,1.9v9.1h-3.7V37.5L93.4,37.5z M103.7,48.2  c0-2.2,1.7-3.9,4.9-4.5l4.4-0.8v-0.4c0-1.5-1.2-2.5-2.8-2.5c-1.4,0-2.6,0.6-3.3,1.7l-2.7-2.1c1.3-1.8,3.5-2.9,6.1-2.9  c4.2,0,6.4,2.5,6.4,5.7v9.4h-3.7v-1.4c-0.9,1.2-2.6,1.9-4.3,1.9C105.7,52.7,103.7,51,103.7,48.2z M109.3,49.7c1.6,0,2.8-0.9,3.6-2.1  v-2l-3.4,0.6c-1.6,0.3-2.2,0.9-2.2,1.8S108.1,49.7,109.3,49.7L109.3,49.7z M120.8,37.5h3.7v1.2c1-1,2.4-1.7,4.3-1.7  c3.2,0,5.7,2.2,5.7,6.5v8.7h-3.7v-8.5c0-1.9-1.1-3.2-2.9-3.2c-1.9,0-2.8,1.2-3.4,2.2v9.5h-3.7C120.8,52.1,120.8,37.5,120.8,37.5z   M148.9,47.5l2.9,2.2c-1.4,1.8-3.5,3-6.2,3c-5,0-8-3.6-8-7.9c0-4.2,3-7.9,8-7.9c2.7,0,4.8,1.2,6.2,3l-2.9,2.2  c-0.7-1-1.8-1.7-3.3-1.7c-2.4,0-4.2,1.9-4.2,4.4c0,2.6,1.8,4.4,4.2,4.4C146.9,49.2,148.2,48.6,148.9,47.5L148.9,47.5z M161,52.7  c-5.2,0-8.1-3.6-8.1-7.9c0-4.3,2.7-7.9,7.5-7.9c4.1,0,6.7,2.7,6.7,6.5c0,0.8-0.1,1.6-0.2,2.1h-10.2c0.2,2.4,1.9,3.8,4.4,3.8  c1.6,0,2.9-0.7,3.7-1.7l2.6,2.1C166,51.5,163.8,52.7,161,52.7L161,52.7z M156.9,42.8h6.6c-0.1-1.4-1.1-2.8-3.1-2.8  C158.6,40,157.4,40.9,156.9,42.8L156.9,42.8z"/>
<path class="st2" d="M79.1,58.3h6.2c4.5,0,7.2,2.3,7.2,6c0,2.4-1.2,4.3-3.2,5.2l6.4,9h-4.9l-5.4-8.2h-2.1v8.2h-4.1  C79.1,78.6,79.1,58.3,79.1,58.3z M83.2,61.8v5.1h2.3c1.7,0,2.7-0.9,2.7-2.6c0-1.5-1-2.5-2.7-2.5H83.2L83.2,61.8z M104.6,79.1  c-5.2,0-8.1-3.6-8.1-7.9c0-4.3,2.7-7.9,7.5-7.9c4.1,0,6.7,2.7,6.7,6.5c0,0.8-0.1,1.6-0.2,2.1h-10.2c0.2,2.4,1.9,3.8,4.4,3.8  c1.6,0,2.9-0.7,3.7-1.7l2.6,2.1C109.6,78,107.4,79.1,104.6,79.1z M100.5,69.2h6.6c-0.1-1.4-1.1-2.8-3.1-2.8  C102.2,66.5,101,67.3,100.5,69.2z M102.5,61.7l3-4.8h4l-3.5,4.8C106.1,61.7,102.5,61.7,102.5,61.7z M114.3,64h3.7v1.2  c1-1,2.4-1.7,4.3-1.7c3.2,0,5.7,2.2,5.7,6.5v8.7h-3.7V70c0-1.9-1.1-3.2-2.9-3.2c-1.9,0-2.8,1.2-3.4,2.2v9.5h-3.7L114.3,64  C114.3,64,114.3,64,114.3,64z M147.1,71.3c0,4.4-3.2,7.9-8,7.9c-4.7,0-8-3.5-8-7.9c0-4.4,3.2-7.9,8-7.9  C143.8,63.4,147.1,66.9,147.1,71.3z M143.2,71.3c0-2.5-1.8-4.4-4.1-4.4c-2.4,0-4.2,1.9-4.2,4.4c0,2.5,1.8,4.4,4.2,4.4  C141.5,75.7,143.2,73.8,143.2,71.3z M152.1,64l3.8,10.4l3.8-10.4h4l-5.3,14.6h-4.8L148.2,64L152.1,64L152.1,64z M165.5,66.6l2.6-8.3  h4.2l-3.4,8.3H165.5z"/>
<path class="st3" d="M55.3,43.5c-0.5-0.1-0.9,0-1.4,0c-0.5,0.1-0.9,0.2-1.4,0.4c-0.4,0.2-0.9,0.5-1.2,0.8c-0.4,0.3-0.7,0.8-0.8,1.2  l-0.2,0c0-0.6,0.2-1.1,0.5-1.5c0.3-0.4,0.7-0.8,1.2-1.2c1-0.7,2.1-1,3.3-1c0.6,0,1.2,0.1,1.8,0.2c0.2,0.1,0.4,0.1,0.5,0.2  c-0.4-0.9-0.8-1.7-1.3-2.5c-3.3-5-9.3-7.9-15.3-8c-6-0.1-11.9,2.3-16.4,6.2l0.4-0.2c0.3-0.2,0.6-0.4,0.9-0.5L25,38.3  c-2.3,1.5-3.3,4.6-3.9,7.5c-0.6,3-1.2,6.1-1,9.1c0.2,3.1,1.4,6.2,3.7,8.2c2.4,2.1,5.7,2.8,8.9,3c4.6,0.3,9.3-0.4,13.7-1.9  c3.9-1.4,7.7-3.5,10.1-6.9c2.4-3.5,3-8,1.9-12.1c-0.2-0.2-0.5-0.4-0.7-0.5C57,44.2,56.3,43.6,55.3,43.5z M44.3,46.6  c-0.1-0.6-0.5-1-0.9-1.4c-0.4-0.4-0.9-0.7-1.4-0.9c-0.5-0.2-1.1-0.4-1.6-0.4c-0.5-0.1-1.1-0.1-1.6,0c-1.1,0.2-1.9,0.8-2.8,1.3  c-0.9,0.6-1.6,1.4-2.4,2.4l-0.2,0c-0.1-0.7,0-1.3,0.3-1.9c0.3-0.6,0.6-1.2,1.1-1.7c0.5-0.5,1.1-0.9,1.8-1.1c0.7-0.2,1.4-0.3,2-0.3  c1.4,0,2.7,0.3,3.8,1.1c0.5,0.4,1,0.8,1.4,1.3c0.4,0.5,0.7,1.1,0.7,1.7C44.5,46.6,44.3,46.6,44.3,46.6z M35.6,15.5  c-0.7,0.5-1.3,1-2,1.5l-1.9,1.6c-2.6,2.2-4.8,4.7-7.1,7.1c-2.3,2.4-4.6,4.8-6.9,7.3c-2.2,2.5-4.5,5-6.6,7.5l0.2,0.2  c2.4-2.3,4.8-4.7,7.2-6.9c2.4-2.3,4.9-4.6,7.3-6.8c2.5-2.3,5.1-4.3,7.4-6.7c1.2-1.2,2.3-2.4,3.5-3.6c1.1-1.2,2.2-2.5,3.3-3.8  l-0.1-0.2C38.3,13.5,36.9,14.4,35.6,15.5z M72.6,42.7c-2.3-2.9-4.8-5.7-7.4-8.3c-2.6-2.6-5.4-5-8.1-7.5L49,19.4  c-2.7-2.5-5.5-5-8.2-7.4l-0.2,0.2c2.5,2.7,5.1,5.3,7.6,8l7.7,8c2.6,2.6,5,5.4,7.7,7.9c2.7,2.5,5.5,4.9,8.5,7.1L72.6,42.7  C72.7,42.8,72.7,42.8,72.6,42.7z"/>
</svg>