<?xml version="1.0" encoding="UTF-8" standalone="no"?>
<!-- Generator: Adobe Illustrator 26.3.1, SVG Export Plug-In . SVG Version: 6.00 Build 0)  -->

<svg
   version="1.1"
   id="Calque_1"
   x="0px"
   y="0px"
   viewBox="0 0 200 114"
   style="enable-background:new 0 0 200 114;"
   xml:space="preserve"
   sodipodi:docname="logo-france-renov-sans-texte.svg"
   inkscape:version="1.2.2 (b0a8486541, 2022-12-01)"
   xmlns:inkscape="http://www.inkscape.org/namespaces/inkscape"
   xmlns:sodipodi="http://sodipodi.sourceforge.net/DTD/sodipodi-0.dtd"
   xmlns="http://www.w3.org/2000/svg"
   xmlns:svg="http://www.w3.org/2000/svg"><defs
   id="defs15" /><sodipodi:namedview
   id="namedview13"
   pagecolor="#ffffff"
   bordercolor="#000000"
   borderopacity="0.25"
   inkscape:showpageshadow="2"
   inkscape:pageopacity="0.0"
   inkscape:pagecheckerboard="0"
   inkscape:deskcolor="#d1d1d1"
   showgrid="false"
   inkscape:zoom="5.1130053"
   inkscape:cx="91.629086"
   inkscape:cy="60.825284"
   inkscape:window-width="1920"
   inkscape:window-height="1080"
   inkscape:window-x="0"
   inkscape:window-y="0"
   inkscape:window-maximized="1"
   inkscape:current-layer="Calque_1" />
<style
   type="text/css"
   id="style2">
	.st0{fill:none;}
	.st1{fill:#263D75;}
	.st2{fill:#D73A34;}
	.st3{fill-rule:evenodd;clip-rule:evenodd;fill:#263D75;}
</style>
<path
   class="st0"
   d="M -5.7275819,0 H 226.39715 V 134.39814 H -5.7275819 Z"
   id="path4"
   style="stroke-width:1.16975" />
<path
   class="st1"
   d="m 86.077749,37.490007 h 13.69535 v 4.126258 h -8.936793 v 5.540976 h 7.544057 V 51.2835 h -7.544057 v 10.138807 h -4.758557 z m 16.596911,6.719907 h 4.2943 v 1.768397 c 1.16064,-1.178932 2.55338,-2.004183 4.41039,-2.004183 0.5803,0 1.04456,0.117893 1.50881,0.235786 v 4.479938 c -0.58031,-0.117893 -1.27669,-0.235786 -1.85701,-0.235786 -2.08912,0 -3.3658,1.178931 -4.06219,2.23997 v 10.728271 h -4.2943 z m 11.95443,12.614562 c 0,-2.593648 1.97307,-4.597831 5.68706,-5.305189 l 5.10674,-0.943145 v -0.471573 c 0,-1.768396 -1.39275,-2.947328 -3.24974,-2.947328 -1.62488,0 -3.01764,0.70736 -3.83007,2.004184 L 115.2094,46.68567 c 1.50881,-2.122077 4.06218,-3.418901 7.07981,-3.418901 4.87461,0 7.42799,2.947328 7.42799,6.719907 v 11.081952 h -4.29431 v -1.650503 c -1.04456,1.414717 -3.01762,2.239969 -4.99068,2.239969 -3.48188,0.471572 -5.80312,-1.532612 -5.80312,-4.833618 z m 6.49949,1.768397 c 1.85701,0 3.24975,-1.061037 4.17825,-2.475755 v -2.357863 l -3.94612,0.707359 c -1.857,0.35368 -2.55337,1.061038 -2.55337,2.122076 0,1.061038 0.92849,2.004183 2.32124,2.004183 z m 13.34718,-14.382959 h 4.2943 v 1.414717 c 1.16062,-1.178931 2.7855,-2.004182 4.99068,-2.004182 3.71401,0 6.61556,2.593648 6.61556,7.663051 v 10.2567 h -4.29431 V 51.519287 c 0,-2.239969 -1.27668,-3.772579 -3.3658,-3.772579 -2.20519,0 -3.24975,1.414717 -3.94613,2.593647 V 61.5402 h -4.2943 z m 32.61353,11.78931 3.36579,2.593649 c -1.62487,2.122076 -4.06218,3.536793 -7.19587,3.536793 -5.80312,0 -9.28497,-4.244151 -9.28497,-9.313555 0,-4.95151 3.48185,-9.313556 9.28497,-9.313556 3.13369,0 5.571,1.414717 7.19587,3.536794 l -3.36579,2.593648 c -0.81244,-1.178931 -2.08913,-2.004183 -3.83008,-2.004183 -2.78548,0 -4.87461,2.23997 -4.87461,5.187297 0,3.06522 2.08913,5.187296 4.87461,5.187296 1.50882,0 3.01764,-0.707358 3.83008,-2.004183 z m 14.04353,6.130442 c -6.03523,0 -9.40105,-4.244151 -9.40105,-9.313555 0,-5.069403 3.13369,-9.313556 8.70468,-9.313556 4.75856,0 7.77618,3.183115 7.77618,7.663052 0,0.943145 -0.11606,1.88629 -0.23212,2.475756 h -11.83837 c 0.23213,2.829435 2.20519,4.479938 5.10674,4.479938 1.85701,0 3.36581,-0.825252 4.29431,-2.004183 l 3.01763,2.475755 c -1.62488,2.122076 -4.17825,3.536793 -7.428,3.536793 z m -4.75855,-11.671418 h 7.66011 c -0.11606,-1.650503 -1.27669,-3.301007 -3.59793,-3.301007 -2.08912,0 -3.48188,1.061038 -4.06218,3.301007 z"
   id="path6"
   sodipodi:nodetypes="ccccccccccccccsccsccccsccssccssccccsscccsscccssccssccccccsssccssscssssccsccsccsc"
   style="stroke-width:1.16975" />
<path
   class="st2"
   d="m 86.077749,68.73168 h 7.195865 c 5.222812,0 8.356486,2.711541 8.356486,7.073587 0,2.829433 -1.39274,5.069402 -3.713986,6.13044 l 7.427976,10.61038 h -5.687053 l -6.267359,-9.667235 h -2.43731 v 9.667235 H 86.19381 C 86.077749,92.66398 86.077749,68.73168 86.077749,68.73168 Z m 4.758557,4.126258 v 6.012549 h 2.669434 c 1.97306,0 3.133684,-1.061039 3.133684,-3.06522 0,-1.768397 -1.160624,-2.947329 -3.133684,-2.947329 z m 24.837344,20.395508 c -6.03524,0 -9.40106,-4.244152 -9.40106,-9.313556 0,-5.069403 3.13369,-9.313555 8.7047,-9.313555 4.75854,0 7.77616,3.183113 7.77616,7.663051 0,0.943146 -0.11606,1.88629 -0.23212,2.475755 h -11.83836 c 0.23213,2.829435 2.20519,4.479938 5.10675,4.479938 1.85699,0 3.36579,-0.825251 4.2943,-2.004182 l 3.01763,2.475755 c -1.62487,2.239969 -4.17825,3.536794 -7.428,3.536794 z M 110.9151,81.582028 h 7.66011 c -0.11607,-1.650503 -1.27668,-3.301006 -3.59792,-3.301006 -2.08913,0.117892 -3.48188,1.061037 -4.06219,3.301006 z m 2.32124,-8.841982 3.48187,-5.65887 h 4.6425 l -4.06218,5.65887 c 0.11606,0 -4.06219,0 -4.06219,0 z m 13.69536,2.711541 h 4.29431 v 1.414718 c 1.16062,-1.178932 2.78549,-2.004184 4.99068,-2.004184 3.71399,0 6.61555,2.593649 6.61555,7.663052 v 10.2567 h -4.2943 v -10.2567 c 0,-2.239969 -1.2767,-3.772579 -3.3658,-3.772579 -2.2052,0 -3.24976,1.414717 -3.94613,2.593649 v 11.199844 h -4.29431 v -17.0945 c 0,0 0,0 0,0 z m 38.06846,8.606197 c 0,5.187295 -3.71399,9.313554 -9.28499,9.313554 -5.45494,0 -9.28499,-4.126259 -9.28499,-9.313554 0,-5.187297 3.71399,-9.313556 9.28499,-9.313556 5.45493,0 9.28499,4.126259 9.28499,9.313556 z m -4.52643,0 c 0,-2.947328 -2.08913,-5.187297 -4.75856,-5.187297 -2.7855,0 -4.87462,2.239969 -4.87462,5.187297 0,2.947327 2.08912,5.187295 4.87462,5.187295 2.78549,0 4.75856,-2.239968 4.75856,-5.187295 z m 10.32954,-8.606197 4.41038,12.260883 4.41036,-12.260883 h 4.6425 L 178.1152,92.66398 h -5.57099 l -6.26736,-17.212393 z m 15.55236,3.065221 3.01762,-9.785128 h 4.87462 l -3.94612,9.785128 z"
   id="path8"
   style="stroke-width:1.16975" />
<path
   class="st3"
   d="m 58.454906,51.2835 c -0.580312,-0.117893 -1.044562,0 -1.624874,0 -0.580312,0.117893 -1.04456,0.235787 -1.624872,0.471573 -0.46425,0.235787 -1.044562,0.589466 -1.392749,0.943144 -0.464249,0.35368 -0.812437,0.943146 -0.928499,1.414718 h -0.232125 c 0,-0.707358 0.232125,-1.296824 0.580312,-1.768396 0.348187,-0.471574 0.812436,-0.943146 1.392749,-1.414717 1.160624,-0.825253 2.437309,-1.178932 3.830058,-1.178932 0.696373,0 1.392748,0.117894 2.089122,0.235786 0.232126,0.117893 0.46425,0.117893 0.580312,0.235786 C 60.66009,49.161425 60.195842,48.218279 59.61553,47.275135 55.785472,41.380479 48.821729,37.96158 41.857988,37.843686 34.894246,37.725793 28.046566,40.555227 22.82376,45.15306 l 0.464249,-0.235788 c 0.348187,-0.235786 0.696375,-0.471572 1.044561,-0.589464 l -1.044561,0.825252 c -2.669434,1.768395 -3.830058,5.423082 -4.526432,8.841982 -0.696373,3.536794 -1.392748,7.191479 -1.160624,10.728273 0.232124,3.654686 1.624873,7.309371 4.294308,9.667234 2.785496,2.475756 6.615554,3.301007 10.32955,3.536793 5.338869,0.35368 10.793801,-0.471572 15.900544,-2.239969 4.526432,-1.650503 8.936802,-4.126258 11.722299,-8.134624 C 62.633151,63.42649 63.329525,58.121301 62.05284,53.287682 61.820714,53.051897 61.472527,52.816111 61.240402,52.698217 60.427966,52.108752 59.61553,51.401393 58.454906,51.2835 Z m -12.76686,3.654687 c -0.116063,-0.707359 -0.580312,-1.178932 -1.044562,-1.650505 -0.464248,-0.471571 -1.04456,-0.825251 -1.624872,-1.061037 -0.580312,-0.235785 -1.276687,-0.471572 -1.856998,-0.471572 -0.580312,-0.117894 -1.276687,-0.117894 -1.856999,0 -1.276686,0.235787 -2.205184,0.943144 -3.249746,1.532609 -1.044561,0.70736 -1.856998,1.650505 -2.785497,2.829436 h -0.232125 c -0.116061,-0.825252 0,-1.532612 0.348188,-2.239969 0.348187,-0.707359 0.696375,-1.414718 1.276687,-2.004184 0.580311,-0.589465 1.276685,-1.061037 2.089122,-1.296823 0.812436,-0.235787 1.624872,-0.35368 2.321247,-0.35368 1.624872,0 3.133683,0.35368 4.410369,1.296825 0.580312,0.471573 1.160624,0.943144 1.624874,1.53261 0.464249,0.589466 0.812436,1.296823 0.812436,2.004183 0,-0.117893 -0.232124,-0.117893 -0.232124,-0.117893 z M 35.59062,18.273431 c -0.812437,0.589466 -1.50881,1.178932 -2.321248,1.768396 l -2.205184,1.886291 c -3.017622,2.593648 -5.570994,5.540976 -8.240428,8.37041 -2.669434,2.829434 -5.338868,5.658869 -8.008303,8.606196 -2.553372,2.947328 -5.2228067,5.894655 -7.6601165,8.841984 l 0.2321254,0.235785 c 2.7854961,-2.711541 5.5709931,-5.540976 8.3564891,-8.134623 2.785497,-2.711542 5.687056,-5.423084 8.472553,-8.016732 2.901559,-2.711541 5.919181,-5.069404 8.588615,-7.898839 1.392748,-1.414716 2.669435,-2.829433 4.062182,-4.244151 1.276687,-1.414717 2.553373,-2.947328 3.830058,-4.479938 l -0.116061,-0.235785 c -1.856998,0.943143 -3.481871,2.004182 -4.990682,3.301006 z m 42.943074,32.066924 c -2.669434,-3.4189 -5.570992,-6.719906 -8.588614,-9.785128 -3.017622,-3.06522 -6.267368,-5.894654 -9.401052,-8.841982 l -9.401052,-8.841983 c -3.133683,-2.947328 -6.38343,-5.894655 -9.517113,-8.72409 l -0.232125,0.235786 c 2.901559,3.183114 5.91918,6.248335 8.820739,9.431449 l 8.936802,9.431449 c 3.017622,3.06522 5.803119,6.366228 8.936803,9.313555 3.133684,2.947327 6.38343,5.776762 9.8653,8.370411 l 0.580312,-0.589467 c 0.116064,0.117893 0.116064,0.117893 0,0 z"
   id="path10"
   style="stroke-width:1.16975" />
</svg>
