<?xml version="1.0" encoding="UTF-8" standalone="no"?>
<svg
   width="405"
   height="237"
   viewBox="0 0 405 237"
   fill="none"
   version="1.1"
   id="svg162"
   xmlns="http://www.w3.org/2000/svg"
   xmlns:svg="http://www.w3.org/2000/svg">
  <defs
     id="defs166" />
  <path
     d="M102.366 101.223C106.014 99.2355 110.422 99.2355 114.07 101.223L190.057 142.626C198.562 147.261 198.562 159.472 190.057 164.106L114.07 205.509C110.422 207.497 106.014 207.497 102.366 205.509L26.3788 164.106C17.8737 159.472 17.8737 147.261 26.3788 142.626L102.366 101.223Z"
     fill="#253672"
     id="path148" />
  <path
     fill-rule="evenodd"
     clip-rule="evenodd"
     d="M78.2111 85.3707C81.831 87.2962 87.384 83.5622 90.9892 81.6094L133.109 64.1232C141.259 59.709 171.933 72.7902 171.933 82.0582V146.073C171.933 150.492 169.55 154.567 165.699 156.733L115.388 185.033C111.691 187.112 107.182 187.128 103.471 185.075L54.5611 158.019C50.6674 155.865 48.2508 151.766 48.2508 147.317V96.7718C48.2508 87.5446 68.1716 81.0375 76.3181 85.3707H78.2111Z"
     fill="white"
     id="path150" />
  <path
     d="M108.79 112.866L158.263 90.7337L162.169 79.0164L132.875 64.6953L108.79 77.7145V112.866Z"
     fill="white"
     id="path152" />
  <path
     fill-rule="evenodd"
     clip-rule="evenodd"
     d="M140.579 59.4166C140.589 59.4011 140.583 59.3804 140.566 59.3723L86.8711 32.7617C81.8249 30.2609 75.705 31.9723 72.6881 36.728L33.7849 98.0536C30.381 103.419 32.2146 110.545 37.7857 113.601L79.7261 136.609C84.8298 139.408 91.2311 137.75 94.3339 132.825L132.15 72.7972C135.188 67.974 141.406 66.2685 146.48 68.8665L187.245 89.7391C189.123 90.7009 191.409 89.6716 191.934 87.6276C192.321 86.1178 191.597 84.5432 190.198 83.8553L140.591 59.4611C140.575 59.4529 140.569 59.4322 140.579 59.4166Z"
     fill="#E00D1B"
     id="path154" />
  <path
     fill-rule="evenodd"
     clip-rule="evenodd"
     d="M71.6554 36.073C75.0075 30.7889 81.8074 28.8873 87.4143 31.6659L141.11 58.2765C141.238 58.34 141.35 58.422 141.444 58.5176L190.738 82.7579C192.656 83.7013 193.65 85.861 193.118 87.9318C192.399 90.7353 189.264 92.1471 186.688 90.8279L145.922 69.9553C141.412 67.646 135.885 69.162 133.184 73.4492L95.3689 133.477C91.9213 138.95 84.8087 140.792 79.138 137.681L37.1976 114.673C31.0074 111.278 28.9701 103.361 32.7522 97.3985L71.6554 36.073ZM86.3281 33.8577C81.8426 31.6347 76.4027 33.156 73.721 37.3833L34.8178 98.7089C31.7921 103.478 33.422 109.812 38.3741 112.529L80.3144 135.536C84.8511 138.025 90.5411 136.551 93.2992 132.173L131.115 72.1454C134.491 66.7864 141.4 64.8913 147.037 67.778L187.803 88.6506C188.983 89.255 190.419 88.6082 190.749 87.3236C190.993 86.3748 190.537 85.3853 189.658 84.953L140.052 60.5587C139.921 60.4946 139.807 60.4111 139.711 60.3136L86.3281 33.8577Z"
     fill="#E00D1B"
     id="path156" />
  <g
     id="g1688">
    <text
       xml:space="preserve"
       style="font-size:64px;line-height:0.91;font-family:Marianne;-inkscape-font-specification:Marianne;letter-spacing:-3.07px;fill:#253672;fill-opacity:1"
       x="220.57443"
       y="87.038162"
       id="text427"><tspan
         id="tspan425"
         x="220.57443"
         y="87.038162"
         style="font-size:64px;fill:#253672;fill-opacity:1"
         dy="0">Mes</tspan><tspan
         x="220.57443"
         y="145.27817"
         id="tspan431"
         style="font-size:64px;fill:#253672;fill-opacity:1">Aides</tspan></text>
    <text
       xml:space="preserve"
       style="font-size:64px;font-family:Marianne;-inkscape-font-specification:Marianne;letter-spacing:-2.67px;fill:#e10c1a;fill-opacity:1"
       x="220.78102"
       y="203.24263"
       id="text1510"><tspan
         id="tspan1508"
         x="220.78102"
         y="203.24263">Réno</tspan></text>
  </g>
</svg>
