<svg width="140" height="80" viewBox="0 0 140 80" fill="none" xmlns="http://www.w3.org/2000/svg">
<rect width="140" height="80" fill="white"/>
<path d="M114.193 56.5499C117.122 56.5499 119.123 58.7113 119.123 61.4085C119.123 64.1057 117.122 66.267 114.193 66.267C111.263 66.267 109.263 64.1057 109.263 61.4085C109.263 58.7113 111.263 56.5499 114.193 56.5499ZM114.228 64.1235C115.675 64.1235 116.765 62.9625 116.765 61.4085C116.765 59.8366 115.675 58.6934 114.228 58.6934C112.728 58.6934 111.62 59.8366 111.62 61.4085C111.62 62.9804 112.728 64.1235 114.228 64.1235Z" fill="black"/>
<path d="M99.4346 65.9098V56.9072H101.703V57.6217C102.328 57.0144 103.168 56.5499 104.365 56.5499C106.312 56.5499 107.866 57.8896 107.866 60.5511V65.9098H105.579V60.6404C105.579 59.4436 104.9 58.6934 103.793 58.6934C102.65 58.6934 102.042 59.4615 101.703 60.0331V65.9098H99.4346Z" fill="black"/>
<path d="M94.8601 55.4781H92.6809L94.5386 52.513H97.0035L94.8601 55.4781ZM97.9145 64.445C97.075 65.5703 95.6817 66.2669 93.9848 66.2669C90.7875 66.2669 88.9834 64.0342 88.9834 61.4084C88.9834 58.7469 90.6624 56.5499 93.6097 56.5499C96.1104 56.5499 97.7538 58.2468 97.7538 60.6046C97.7538 61.1047 97.6823 61.5692 97.6109 61.8728H91.3055C91.5198 63.5519 92.5558 64.2306 93.967 64.2306C94.9494 64.2306 95.8068 63.8019 96.2891 63.1589L97.9145 64.445ZM93.5561 58.4076C92.3951 58.4076 91.627 59.0506 91.3769 60.2295H95.521C95.4853 59.3185 94.8243 58.4076 93.5561 58.4076Z" fill="black"/>
<path d="M78.7306 65.9098V53.4062H82.5531C85.3039 53.4062 87.0008 54.8173 87.0008 57.1394C87.0008 58.6577 86.2685 59.783 84.9824 60.3725L88.8942 65.9098H85.9112L82.571 60.8548H81.267V65.9098H78.7306ZM82.696 55.514H81.267V58.747H82.696C83.7677 58.747 84.3929 58.1219 84.3929 57.1037C84.3929 56.157 83.7677 55.514 82.696 55.514Z" fill="black"/>
<path d="M116.119 44.8432L117.62 43.4857C118.174 44.1823 118.834 44.6825 119.692 44.6825C120.424 44.6825 120.799 44.2538 120.799 43.7179C120.799 42.146 116.494 42.7355 116.494 39.5739C116.494 37.9841 117.834 36.7874 119.71 36.7874C121.085 36.7874 122.335 37.4483 122.978 38.3235L121.478 39.6453C121.014 39.0737 120.424 38.6093 119.728 38.6093C119.013 38.6093 118.674 39.0023 118.674 39.4667C118.674 41.0029 122.978 40.467 122.978 43.575C122.943 45.4684 121.424 46.5044 119.728 46.5044C118.12 46.5044 116.977 45.8614 116.119 44.8432Z" fill="black"/>
<path d="M115.507 44.6825C114.668 45.8078 113.275 46.5044 111.578 46.5044C108.38 46.5044 106.576 44.2716 106.576 41.6459C106.576 38.9844 108.255 36.7874 111.202 36.7874C113.703 36.7874 115.347 38.4843 115.347 40.8421C115.347 41.3422 115.275 41.8067 115.204 42.1103H108.898C109.113 43.7894 110.149 44.4681 111.56 44.4681C112.542 44.4681 113.4 44.0394 113.882 43.3964L115.507 44.6825ZM111.149 38.645C109.988 38.645 109.22 39.2881 108.97 40.467H113.114C113.078 39.556 112.417 38.645 111.149 38.645Z" fill="black"/>
<path d="M95.3901 41.646C95.3901 39.0202 97.1228 36.7875 99.9629 36.7875C101.177 36.7875 102.053 37.1626 102.749 37.8592V32.7506H105.036V46.1473H102.749V45.4328C102.053 46.1294 101.177 46.5045 99.9629 46.5045C97.1228 46.5045 95.3901 44.2717 95.3901 41.646ZM97.7658 41.646C97.7658 43.2179 98.7482 44.361 100.284 44.361C101.303 44.361 102.142 43.9323 102.749 43.1107V40.1813C102.142 39.3596 101.303 38.9309 100.284 38.9309C98.7482 38.9309 97.7658 40.0741 97.7658 41.646Z" fill="black"/>
<path d="M92.7232 35.5728C91.9194 35.5728 91.2406 34.894 91.2406 34.0902C91.2406 33.2864 91.9194 32.6076 92.7232 32.6076C93.527 32.6076 94.1879 33.2864 94.1879 34.0902C94.1879 34.894 93.527 35.5728 92.7232 35.5728ZM91.58 46.1472V37.1446H93.8485V46.1472H91.58Z" fill="black"/>
<path d="M77.1587 46.1472L81.8922 33.6436H85.2146L89.948 46.1472H87.2509L86.0541 42.8963H81.0527L79.8559 46.1472H77.1587ZM81.8386 40.735H85.2681L83.5534 36.0372L81.8386 40.735Z" fill="black"/>
<path d="M102.575 25.1522L103.647 24.2413C104.272 25.0272 105.022 25.4738 105.933 25.4738C106.934 25.4738 107.505 24.8665 107.505 24.0805C107.505 22.0621 103.004 22.7766 103.004 19.5971C103.004 18.186 104.201 17.0249 105.933 17.0249C107.219 17.0249 108.327 17.6322 108.952 18.5075L107.898 19.4006C107.416 18.7218 106.737 18.2932 105.951 18.2932C104.987 18.2932 104.469 18.8647 104.469 19.5614C104.469 21.5798 108.988 20.9368 108.988 24.0091C108.97 25.6881 107.63 26.742 105.951 26.742C104.522 26.742 103.397 26.1704 102.575 25.1522Z" fill="black"/>
<path d="M101.769 24.9022C100.929 26.0275 99.5893 26.742 97.9103 26.742C94.8737 26.742 92.9982 24.5092 92.9982 21.8835C92.9982 19.1505 94.7487 17.0249 97.5352 17.0249C99.9823 17.0249 101.572 18.7397 101.572 20.9546C101.572 21.3119 101.518 21.6513 101.465 21.9013H94.5522C94.6058 24.0627 95.9812 25.3666 97.9103 25.3666C99.0713 25.3666 100.054 24.8307 100.643 24.0269L101.769 24.9022ZM97.4995 18.311C96.0169 18.311 94.9809 19.1863 94.6594 20.7403H100.054C100 19.4185 99.0892 18.311 97.4995 18.311Z" fill="black"/>
<path d="M78.8734 26.3848V13.8812H81.0169L84.8394 20.1866L88.6619 13.8812H90.8054V26.3848H89.1263V16.1319L85.4824 22.0978H84.1964L80.5525 16.1319V26.3848H78.8734Z" fill="black"/>
<path d="M36.278 34.9764C37.4116 34.3588 38.7812 34.3588 39.9148 34.9764L63.5265 47.8418C66.1693 49.2818 66.1693 53.0763 63.5265 54.5163L39.9148 67.3817C38.7812 67.9993 37.4116 67.9993 36.278 67.3817L12.6663 54.5163C10.0235 53.0763 10.0235 49.2818 12.6663 47.8418L36.278 34.9764Z" fill="#0010A2"/>
<path fill-rule="evenodd" clip-rule="evenodd" d="M36.6754 36.4234C37.8002 37.0217 39.15 37.0166 40.2703 36.4098L52.2843 29.9021C54.8166 28.5305 57.8949 30.364 57.8949 33.2439V48.9134C57.8949 50.2864 57.1543 51.5527 55.9577 52.2258L40.3243 61.0196C39.1757 61.6656 37.7745 61.6706 36.6214 61.0327L21.4235 52.6254C20.2136 51.9561 19.4626 50.6825 19.4626 49.2998V33.5938C19.4626 30.7266 22.5165 28.892 25.0479 30.2385L36.6754 36.4234Z" fill="white"/>
<path d="M38.2742 38.595L53.6471 31.7176L54.8607 28.0767L45.7583 23.6266L38.2742 27.6721V38.595Z" fill="white"/>
<path fill-rule="evenodd" clip-rule="evenodd" d="M48.152 21.9862C48.1551 21.9813 48.1533 21.9749 48.1481 21.9724L31.4632 13.7036C29.8952 12.9265 27.9936 13.4583 27.0561 14.9361L14.9676 33.992C13.9099 35.6593 14.4796 37.8734 16.2108 38.823L29.243 45.9723C30.8289 46.8423 32.818 46.3271 33.7822 44.7966L45.5328 26.144C46.4769 24.6453 48.409 24.1153 49.9857 24.9226L62.6528 31.4084C63.2365 31.7073 63.9466 31.3874 64.1097 30.7523C64.2301 30.2831 64.005 29.7938 63.5703 29.5801L48.1559 22C48.1508 21.9975 48.149 21.991 48.152 21.9862Z" fill="#D10101"/>
<path fill-rule="evenodd" clip-rule="evenodd" d="M26.7353 14.7325C27.7769 13.0906 29.8899 12.4997 31.6321 13.3631L48.317 21.6319C48.3568 21.6516 48.3916 21.6771 48.421 21.7068L63.7381 29.2391C64.3343 29.5322 64.6431 30.2033 64.4779 30.8468C64.2543 31.7179 63.2802 32.1566 62.4797 31.7467L49.8126 25.2609C48.4111 24.5433 46.6937 25.0144 45.8544 26.3466L34.1039 44.9992C33.0326 46.6997 30.8225 47.2722 29.0604 46.3055L16.0281 39.1563C14.1046 38.1011 13.4716 35.641 14.6468 33.7884L26.7353 14.7325ZM31.2946 14.0441C29.9008 13.3534 28.2104 13.8261 27.3771 15.1397L15.2886 34.1956C14.3484 35.6776 14.8549 37.6457 16.3937 38.4899L29.4259 45.6391C30.8356 46.4124 32.6037 45.9545 33.4607 44.594L45.2113 25.9414C46.2603 24.2762 48.4071 23.6873 50.159 24.5843L62.8261 31.0701C63.1929 31.2579 63.6392 31.0569 63.7417 30.6578C63.8173 30.363 63.6759 30.0555 63.4027 29.9212L47.9883 22.341C47.9478 22.3211 47.9124 22.2952 47.8825 22.2649L31.2946 14.0441Z" fill="#D10101"/>
</svg>