<?xml version="1.0" encoding="UTF-8" standalone="no"?>
<svg
   width="63"
   height="63"
   viewBox="0 0 63 63"
   version="1.1"
   id="svg22"
   sodipodi:docname="maprimerenov.svg"
   inkscape:version="1.2.2 (b0a8486541, 2022-12-01)"
   xmlns:inkscape="http://www.inkscape.org/namespaces/inkscape"
   xmlns:sodipodi="http://sodipodi.sourceforge.net/DTD/sodipodi-0.dtd"
   xmlns:xlink="http://www.w3.org/1999/xlink"
   xmlns="http://www.w3.org/2000/svg"
   xmlns:svg="http://www.w3.org/2000/svg">
  <sodipodi:namedview
     id="namedview24"
     pagecolor="#ffffff"
     bordercolor="#000000"
     borderopacity="0.25"
     inkscape:showpageshadow="2"
     inkscape:pageopacity="0.0"
     inkscape:pagecheckerboard="0"
     inkscape:deskcolor="#d1d1d1"
     showgrid="false"
     inkscape:zoom="2.9547231"
     inkscape:cx="160.92879"
     inkscape:cy="29.105942"
     inkscape:window-width="1920"
     inkscape:window-height="1080"
     inkscape:window-x="0"
     inkscape:window-y="0"
     inkscape:window-maximized="1"
     inkscape:current-layer="g20" />
  <defs
     id="defs4">
    <path
       id="a"
       d="M 0.43,0.432 H 45.24 V 39.346 H 0.43 Z" />
    <path
       id="c"
       d="M 0,62.3 H 279.962 V 0 H 0 Z" />
  </defs>
  <g
     fill="none"
     fill-rule="evenodd"
     id="g20">
    <mask
       id="d"
       fill="#ffffff">
      <use
         xlink:href="#c"
         id="use15" />
    </mask>
    <path
       class="st3"
       d="m 45.541493,35.927748 c -0.5,-0.1 -0.9,0 -1.4,0 -0.5,0.1 -0.9,0.2 -1.4,0.4 -0.4,0.2 -0.9,0.5 -1.2,0.8 -0.4,0.3 -0.7,0.8 -0.8,1.2 h -0.2 c 0,-0.6 0.2,-1.1 0.5,-1.5 0.3,-0.4 0.7,-0.8 1.2,-1.2 1,-0.7 2.1,-1 3.3,-1 0.6,0 1.2,0.1 1.8,0.2 0.2,0.1 0.4,0.1 0.5,0.2 -0.4,-0.9 -0.8,-1.7 -1.3,-2.5 -3.3,-5 -9.3,-7.900002 -15.3,-8.000002 -6,-0.1 -11.9,2.300002 -16.4,6.200002 l 0.4,-0.2 c 0.3,-0.2 0.6,-0.4 0.9,-0.5 l -0.9,0.7 c -2.3,1.5 -3.3,4.6 -3.9,7.5 -0.6,3 -1.2,6.1 -1,9.1 0.2,3.1 1.4,6.2 3.7,8.2 2.4,2.1 5.7,2.8 8.9,3 4.6,0.3 9.3,-0.4 13.7,-1.9 3.9,-1.4 7.7,-3.5 10.1,-6.9 2.4,-3.5 3,-8 1.9,-12.1 -0.2,-0.2 -0.5,-0.4 -0.7,-0.5 -0.7,-0.5 -1.4,-1.1 -2.4,-1.2 z m -11,3.1 c -0.1,-0.6 -0.5,-1 -0.9,-1.4 -0.4,-0.4 -0.9,-0.7 -1.4,-0.9 -0.5,-0.2 -1.1,-0.4 -1.6,-0.4 -0.5,-0.1 -1.1,-0.1 -1.6,0 -1.1,0.2 -1.9,0.8 -2.8,1.3 -0.9,0.6 -1.6,1.4 -2.4,2.4 h -0.2 c -0.1,-0.7 0,-1.3 0.3,-1.9 0.3,-0.6 0.6,-1.2 1.1,-1.7 0.5,-0.5 1.1,-0.9 1.8,-1.1 0.7,-0.2 1.4,-0.3 2,-0.3 1.4,0 2.7,0.3 3.8,1.1 0.5,0.4 1,0.8 1.4,1.3 0.4,0.5 0.7,1.1 0.7,1.7 0,-0.1 -0.2,-0.1 -0.2,-0.1 z m -8.7,-31.1000026 c -0.7,0.5 -1.3,0.9999998 -2,1.5000002 l -1.9,1.6000004 c -2.6,2.2 -4.8,4.7 -7.1,7.1 -2.3,2.4 -4.6,4.8 -6.8999997,7.300002 -2.2,2.5 -4.5,5 -6.6,7.5 l 0.2,0.2 c 2.4,-2.3 4.8,-4.7 7.2,-6.9 2.3999997,-2.300002 4.8999997,-4.600002 7.2999997,-6.800002 2.5,-2.3 5.1,-4.3 7.4,-6.7 1.2,-1.2 2.3,-2.4 3.5,-3.6000006 1.1,-1.2 2.2,-2.5 3.3,-3.8 l -0.1,-0.2 c -1.6,0.8 -3,1.7 -4.3,2.8 z m 37,27.2000026 c -2.3,-2.9 -4.8,-5.7 -7.4,-8.3 -2.6,-2.600002 -5.4,-5.000002 -8.1,-7.500002 l -8.1,-7.5 c -2.7,-2.5000004 -5.5,-5.0000006 -8.2,-7.4000006 l -0.2,0.2 c 2.5,2.7 5.1,5.3000004 7.6,8.0000006 l 7.7,8 c 2.6,2.6 5,5.400002 7.7,7.900002 2.7,2.5 5.5,4.9 8.5,7.1 l 0.5,-0.5 c 0.1,0.1 0.1,0.1 0,0 z"
       id="path3487"
       style="clip-rule:evenodd;fill:#263d75;fill-rule:evenodd" />
  </g>
</svg>
