<svg xmlns="http://www.w3.org/2000/svg" xmlns:xlink="http://www.w3.org/1999/xlink" width="280" height="63" viewBox="0 0 280 63">
    <defs>
        <path id="a" d="M.43.432h44.81v38.914H.43z"/>
        <path id="c" d="M0 62.3h279.962V0H0z"/>
    </defs>
    <g fill="none" fill-rule="evenodd">
        <g transform="translate(10.065 22.954)">
            <mask id="b" fill="#fff">
                <use xlink:href="#a"/>
            </mask>
            <path fill="#9FE0D0" d="M42.22 9.645C38.392 3.922 31.478.582 24.577.437c-6.9-.144-13.686 2.697-18.92 7.18l.47-.247a6.134 6.134 0 0 1 1.053-.555l-1.054.555c-2.68 1.735-3.805 5.352-4.507 8.588C.87 19.41.21 22.933.498 26.451c.284 3.52 1.618 7.082 4.285 9.407 2.778 2.42 6.621 3.217 10.304 3.425 5.332.3 10.722-.46 15.761-2.22 4.509-1.576 8.874-4.074 11.591-7.99 3.924-5.657 3.608-13.706-.22-19.428" mask="url(#b)"/>
        </g>
        <path fill="#28302E" d="M45.388 39.227c-.028-.634.259-1.254.634-1.76.38-.508.842-.966 1.373-1.342a6.627 6.627 0 0 1 3.756-1.176 7.299 7.299 0 0 1 2.058.268c.67.202 1.29.556 1.8 1.018.51.462.924 1.018 1.195 1.631.277.607.425 1.269.36 1.92l-.166.048c-.807-.978-1.586-1.71-2.481-2.271-.88-.533-1.752-1.126-2.84-1.254a5.41 5.41 0 0 0-1.633.046 5.892 5.892 0 0 0-1.6.5 5.539 5.539 0 0 0-1.413.951c-.41.393-.762.863-.87 1.431l-.173-.01zM38.406 39.85c-.146-.65-.57-1.18-1.058-1.615a6.408 6.408 0 0 0-1.666-1.042 6.81 6.81 0 0 0-1.862-.513 6.214 6.214 0 0 0-1.883.01c-1.25.19-2.232.908-3.225 1.556-1.008.682-1.88 1.555-2.771 2.713l-.194-.049c-.1-.747.045-1.516.342-2.225a5.63 5.63 0 0 1 1.314-1.926 5.41 5.41 0 0 1 2.035-1.244c.77-.252 1.576-.364 2.36-.389a7.637 7.637 0 0 1 4.374 1.21 7.126 7.126 0 0 1 1.634 1.492c.453.569.807 1.272.8 2.004l-.2.019zM105.63 35.312h-3.354v-9.306l.163-5.22h-.055l-4.95 14.526h-3.058l-4.924-14.527H89.4l.188 5.221v9.306h-3.382V17.457h5.412l3.22 9.739 1.135 4.032h.054l1.164-4.005 3.193-9.766h5.247zM115.68 32.485c.659-.387.988-.915.988-1.582v-1.407l-2.894.65c-.613.144-1.069.337-1.366.581-.298.244-.447.581-.447 1.015 0 .433.136.761.406.987.27.225.65.338 1.136.338.793 0 1.52-.194 2.178-.582m6.588.474l-.27 2.245c-.506.253-1.092.38-1.76.38-1.73 0-2.768-.677-3.11-2.03-.398.668-1.01 1.173-1.84 1.515-.83.342-1.813.514-2.949.514-1.317 0-2.345-.297-3.084-.893-.74-.595-1.11-1.451-1.11-2.57 0-2.2 1.76-3.625 5.276-4.274l3.246-.622v-.65c0-.721-.203-1.294-.608-1.718-.406-.423-.97-.636-1.691-.636-.83 0-1.506.18-2.029.542-.523.36-.884.946-1.081 1.758l-2.95-1.245a4.488 4.488 0 0 1 1.948-2.76c1.01-.666 2.327-1 3.95-1 1.93 0 3.436.42 4.517 1.258 1.083.839 1.624 2.079 1.624 3.72v5.546c0 .36.081.622.244.785.16.161.413.243.757.243.378 0 .685-.036.92-.108M133.55 25.235c.54-.46.812-1.15.812-2.07 0-.92-.271-1.605-.812-2.056-.54-.45-1.39-.676-2.543-.676h-3.192v5.492h3.192c1.153 0 2.002-.23 2.543-.69m2.868-6.276c1.154 1 1.73 2.412 1.73 4.234 0 1.767-.576 3.147-1.73 4.14-1.155.99-2.77 1.486-4.844 1.486h-3.76v6.493h-3.734V17.457h7.494c2.075 0 3.689.5 4.844 1.502M149.483 21.813l-.459 3.245c-.415-.27-.983-.405-1.704-.405-.884 0-1.646.321-2.286.96-.64.641-.961 1.538-.961 2.692v7.007h-3.706V21.785h3.22l.243 2.652c.739-1.948 2.137-2.922 4.193-2.922.631 0 1.118.1 1.46.298"/>
        <mask id="d" fill="#fff">
            <use xlink:href="#c"/>
        </mask>
        <path fill="#28302E" d="M150.972 35.313h3.707V21.786h-3.707v13.527zm-.434-17.45c0-1.335.767-2.002 2.3-2.002 1.534 0 2.3.667 2.3 2.002 0 1.317-.766 1.975-2.3 1.975-1.533 0-2.3-.658-2.3-1.975zM178.174 22.786c.91.849 1.367 2.066 1.367 3.653v8.873h-3.707V27.17c0-.937-.207-1.627-.622-2.07-.415-.441-.984-.662-1.705-.662-.865 0-1.578.316-2.137.946-.56.633-.838 1.516-.838 2.652v7.277h-3.706V27.17c0-.937-.208-1.627-.623-2.07-.415-.441-.991-.662-1.732-.662-.81 0-1.51.311-2.096.933-.587.623-.88 1.547-.88 2.773v7.17h-3.705V21.784h3.327l.109 2.409c.45-.884 1.067-1.552 1.853-2.002.784-.451 1.663-.677 2.638-.677 1.009 0 1.907.235 2.69.703.786.47 1.359 1.146 1.72 2.03a4.587 4.587 0 0 1 1.892-2.03 5.412 5.412 0 0 1 2.705-.703c1.39 0 2.54.424 3.45 1.271M186.48 25.032c-.532.523-.87 1.298-1.014 2.326h6.303c-.145-1.01-.488-1.78-1.029-2.312-.54-.532-1.243-.798-2.109-.798-.902 0-1.62.262-2.151.784m8.59 4.924h-9.578c.38 1.912 1.506 2.868 3.381 2.868.776 0 1.417-.145 1.921-.433a2.309 2.309 0 0 0 1.055-1.245l3.032 1.11a4.803 4.803 0 0 1-2.18 2.475c-1.017.568-2.295.852-3.828.852-2.235 0-3.968-.617-5.194-1.853-1.225-1.236-1.838-2.963-1.838-5.18 0-2.22.594-3.946 1.785-5.182 1.19-1.235 2.867-1.852 5.032-1.852 2.091 0 3.702.603 4.828 1.811 1.127 1.21 1.692 2.931 1.692 5.168 0 .505-.037.992-.108 1.46M201.427 25.627h3.707c1.081 0 1.88-.211 2.393-.636.515-.423.772-1.078.772-1.96 0-.885-.257-1.539-.772-1.963-.514-.422-1.312-.636-2.393-.636h-3.707v5.195zm3.354 2.84h-3.354v6.845h-3.68V17.457h7.873c2.038 0 3.63.483 4.776 1.447 1.144.966 1.717 2.323 1.717 4.072 0 1.28-.316 2.354-.947 3.22-.632.865-1.532 1.487-2.705 1.866l4.707 7.25h-4.193l-4.194-6.845zM224.341 15.238l-2.706 4.6h-2.76l1.895-4.6h3.571zm-5.75 9.794c-.53.523-.87 1.298-1.014 2.327h6.304c-.144-1.01-.487-1.782-1.028-2.313-.54-.532-1.244-.798-2.11-.798-.903 0-1.619.261-2.151.784zm8.59 4.924h-9.576c.378 1.912 1.505 2.867 3.382 2.867.775 0 1.415-.143 1.921-.432a2.315 2.315 0 0 0 1.054-1.245l3.03 1.11a4.791 4.791 0 0 1-2.177 2.475c-1.02.568-2.296.852-3.828.852-2.237 0-3.969-.617-5.195-1.853-1.227-1.236-1.84-2.963-1.84-5.18 0-2.22.595-3.946 1.786-5.182 1.19-1.235 2.868-1.853 5.032-1.853 2.091 0 3.702.605 4.83 1.812 1.126 1.21 1.69 2.931 1.69 5.168 0 .505-.036.992-.109 1.46zM241.182 22.786c.893.849 1.34 2.066 1.34 3.653v8.873h-3.708v-7.791c0-2.056-.802-3.084-2.408-3.084-.866 0-1.6.307-2.204.92-.604.613-.906 1.55-.906 2.813v7.142h-3.707V21.785h3.328l.108 2.409c.45-.884 1.073-1.552 1.867-2.002.793-.451 1.713-.677 2.76-.677 1.46 0 2.636.424 3.53 1.271M249.352 25.343c-.551.712-.826 1.781-.826 3.206s.275 2.494.826 3.206c.55.713 1.347 1.069 2.393 1.069 1.046 0 1.844-.356 2.395-1.069.55-.712.825-1.78.825-3.206 0-1.425-.275-2.494-.825-3.206-.55-.712-1.349-1.068-2.395-1.068s-1.843.356-2.393 1.068m7.493-1.961c1.219 1.244 1.826 2.967 1.826 5.167 0 2.2-.607 3.923-1.826 5.167-1.217 1.244-2.917 1.867-5.1 1.867-2.182 0-3.882-.623-5.098-1.867-1.218-1.244-1.827-2.967-1.827-5.167 0-2.2.609-3.923 1.827-5.167 1.216-1.245 2.916-1.867 5.098-1.867 2.183 0 3.883.622 5.1 1.867M273.578 21.786l-5.14 13.526h-4.274l-5.14-13.526H263l3.328 10.929 3.408-10.93zM279.286 17.416c.45.587.675 1.349.675 2.287 0 1.1-.293 2.105-.878 3.016-.587.911-1.448 1.618-2.584 2.123l-1.704-1.298c.792-.288 1.465-.68 2.015-1.177.55-.496.916-1.05 1.095-1.663l-.108-.082c-.216.18-.487.271-.812.271-.522 0-.982-.18-1.379-.542-.397-.36-.595-.874-.595-1.541 0-.686.22-1.236.663-1.65.441-.415 1.004-.622 1.69-.622.83 0 1.47.292 1.922.878M93.055 50.426h-.786v-4.293l.094-1.8h-.011l-2.245 6.093h-.704l-2.244-6.093h-.01l.093 1.8v4.293h-.786v-6.827h1.272l1.5 4.147.517 1.707h.02l.528-1.696 1.49-4.158h1.272zM95.032 50.426h.827v-5.172h-.827v5.172zm-.037-6.336a.608.608 0 0 1-.17-.45c0-.186.057-.336.17-.45a.608.608 0 0 1 .45-.17c.186 0 .336.057.45.17a.606.606 0 0 1 .17.45.605.605 0 0 1-.17.45.606.606 0 0 1-.45.17.605.605 0 0 1-.45-.17zM98.698 46.278c-.28.269-.45.648-.512 1.137h3.134c-.055-.482-.214-.86-.476-1.133-.261-.271-.61-.408-1.044-.408-.455 0-.822.135-1.102.404m3.377 1.872h-3.899c.048.524.222.93.522 1.22.3.29.688.434 1.164.434.38 0 .694-.065.947-.195.251-.131.422-.322.511-.57l.694.363a2.155 2.155 0 0 1-.828.837c-.345.193-.786.29-1.324.29-.78 0-1.391-.238-1.836-.714-.445-.475-.667-1.133-.667-1.975 0-.842.211-1.5.635-1.976.425-.476 1.027-.713 1.806-.713.483 0 .9.106 1.251.32.353.214.618.503.797.87.18.364.27.774.27 1.23 0 .193-.015.386-.043.579M108.064 45.254v5.172h-.724l-.052-.786c-.345.593-.961.889-1.852.889-.558 0-1.014-.155-1.37-.465-.354-.31-.533-.787-.533-1.428v-3.382h.828v3.165c0 .504.104.86.31 1.07.207.211.511.316.91.316.477 0 .871-.145 1.185-.434.314-.29.47-.724.47-1.303v-2.814h.828zM113.081 50.426l-1.427-1.997-1.47 1.997h-.96l1.985-2.607-1.862-2.565h1.035l1.365 1.913 1.344-1.913h.973l-1.872 2.534 1.903 2.638zM122.003 45.507c.355.238.632.578.833 1.019l-.787.372c-.22-.683-.68-1.024-1.376-1.024-.517 0-.922.175-1.215.523-.293.348-.439.829-.439 1.443 0 .614.146 1.095.44 1.443.292.348.697.522 1.214.522.4 0 .723-.091.968-.274.245-.182.404-.446.48-.791l.766.27c-.18.481-.455.856-.827 1.12-.373.266-.828.399-1.366.399-.78 0-1.391-.238-1.836-.714-.445-.476-.667-1.134-.667-1.975 0-.842.222-1.5.667-1.976.445-.476 1.057-.714 1.836-.714.517 0 .953.12 1.309.357M128.204 45.657c.379.338.57.824.57 1.458v3.311h-.829v-3.02c0-.54-.115-.928-.346-1.17-.232-.24-.54-.362-.927-.362-.268 0-.526.062-.77.186a1.438 1.438 0 0 0-.6.595c-.155.273-.233.616-.233 1.03v2.741h-.827v-7.552h.827v3.155c.173-.296.405-.517.698-.661.294-.146.623-.218.989-.218.586 0 1.068.17 1.448.507M131.56 46.278c-.279.269-.45.648-.512 1.137h3.135c-.055-.482-.214-.86-.477-1.133-.262-.271-.61-.408-1.044-.408-.455 0-.822.135-1.102.404m3.378 1.872h-3.9c.048.524.222.93.522 1.22.3.29.688.434 1.164.434.38 0 .695-.065.946-.195.253-.131.423-.322.513-.57l.693.363a2.162 2.162 0 0 1-.828.837c-.345.193-.786.29-1.324.29-.78 0-1.391-.238-1.836-.714-.444-.475-.667-1.133-.667-1.975 0-.842.212-1.5.636-1.976.424-.476 1.026-.713 1.805-.713.482 0 .9.106 1.252.32.351.214.617.503.796.87.18.364.269.774.269 1.23 0 .193-.014.386-.041.579M136.076 49.795l2.71-3.176.651-.673-.921.021h-2.41v-.713h4.252v.631l-2.71 3.175-.64.673 1.002-.021h2.43v.714h-4.364zM152.27 45.362c.299.142.543.361.728.657.187.297.281.662.281 1.097v3.31h-.83v-3.228c0-.447-.11-.78-.335-.997-.224-.218-.519-.327-.885-.327-.274 0-.529.068-.76.202a1.484 1.484 0 0 0-.557.59 1.9 1.9 0 0 0-.214.925v2.835h-.827v-3.228c0-.447-.111-.78-.336-.997-.224-.218-.518-.327-.884-.327a1.48 1.48 0 0 0-1.303.786c-.152.269-.228.604-.228 1.004v2.762h-.827v-5.172h.723l.052.807a1.75 1.75 0 0 1 .709-.683c.293-.152.608-.228.946-.228.379 0 .73.086 1.051.26a1.7 1.7 0 0 1 .729.754c.152-.331.4-.583.744-.755a2.332 2.332 0 0 1 1.055-.259c.345 0 .668.072.968.212M155.999 46.392c-.297.351-.445.834-.445 1.448 0 .613.148 1.097.445 1.448.295.351.705.528 1.23.528.524 0 .935-.177 1.231-.528.297-.351.445-.835.445-1.448 0-.614-.148-1.097-.445-1.448-.296-.352-.707-.528-1.23-.528-.526 0-.936.176-1.231.528m3.067-.528c.445.476.666 1.135.666 1.976s-.221 1.5-.666 1.976c-.446.475-1.057.713-1.837.713s-1.391-.238-1.835-.713c-.445-.477-.668-1.135-.668-1.976s.223-1.5.668-1.976c.444-.476 1.056-.714 1.835-.714.78 0 1.391.238 1.837.714M161.232 50.426h.828v-5.172h-.828v5.172zm-.036-6.336a.608.608 0 0 1-.171-.45.61.61 0 0 1 .17-.45.61.61 0 0 1 .45-.17c.187 0 .337.057.451.17.114.114.17.264.17.45a.608.608 0 0 1-.17.45.61.61 0 0 1-.45.17.606.606 0 0 1-.45-.17zM164.863 49.464c.137.185.208.428.208.724 0 .364-.095.704-.281 1.013-.185.31-.469.556-.848.735l-.433-.404c.268-.09.492-.23.671-.423.18-.193.293-.405.342-.632l-.041-.02c-.063.048-.16.072-.29.072a.547.547 0 0 1-.393-.17c-.117-.114-.176-.274-.176-.482 0-.186.065-.348.196-.486a.636.636 0 0 1 .476-.207.67.67 0 0 1 .569.28M176.93 45.362c.3.142.543.361.728.657.187.297.28.662.28 1.097v3.31h-.828v-3.228c0-.447-.111-.78-.336-.997-.224-.218-.52-.327-.884-.327-.276 0-.53.068-.76.202a1.484 1.484 0 0 0-.559.59 1.91 1.91 0 0 0-.212.925v2.835h-.828v-3.228c0-.447-.112-.78-.336-.997-.224-.218-.519-.327-.885-.327a1.485 1.485 0 0 0-1.303.786c-.152.269-.228.604-.228 1.004v2.762h-.827v-5.172h.725l.05.807c.18-.303.416-.531.71-.683.292-.152.608-.228.945-.228.38 0 .73.086 1.052.26.319.171.562.423.729.754.15-.331.399-.583.744-.755a2.332 2.332 0 0 1 1.055-.259c.345 0 .668.072.967.212M179.707 50.426h.827v-5.172h-.827v5.172zm-.038-6.336a.607.607 0 0 1-.169-.45c0-.186.056-.336.17-.45a.612.612 0 0 1 .45-.17c.186 0 .336.057.45.17.114.114.17.264.17.45a.607.607 0 0 1-.17.45.608.608 0 0 1-.45.17.61.61 0 0 1-.45-.17zM183.374 46.278c-.28.269-.45.648-.513 1.137h3.135c-.055-.482-.214-.86-.477-1.133-.261-.271-.609-.408-1.044-.408-.455 0-.821.135-1.101.404m3.377 1.872h-3.9c.048.524.223.93.523 1.22.299.29.687.434 1.163.434.38 0 .695-.065.947-.195a1.02 1.02 0 0 0 .512-.57l.693.363a2.153 2.153 0 0 1-.827.837c-.345.193-.787.29-1.325.29-.779 0-1.391-.238-1.836-.714-.445-.475-.668-1.133-.668-1.975 0-.842.213-1.5.637-1.976.424-.476 1.027-.713 1.805-.713.483 0 .9.106 1.252.32.351.214.617.503.796.87.18.364.27.774.27 1.23 0 .193-.015.386-.042.579M192.74 45.254v5.172h-.725l-.05-.786c-.346.593-.962.889-1.852.889-.559 0-1.016-.155-1.37-.465-.357-.31-.534-.787-.534-1.428v-3.382h.827v3.165c0 .504.104.86.311 1.07.207.211.51.316.91.316.477 0 .87-.145 1.185-.434.314-.29.471-.724.471-1.303v-2.814h.827zM197.757 50.426l-1.429-1.997-1.467 1.997h-.963l1.987-2.607-1.862-2.565h1.034l1.366 1.913 1.345-1.913h.972l-1.873 2.534 1.904 2.638zM206.828 49.272c.29-.356.434-.832.434-1.432s-.144-1.078-.434-1.433c-.29-.355-.687-.533-1.19-.533-.497 0-.89.173-1.184.518-.294.345-.44.806-.44 1.385v.125c0 .58.146 1.042.44 1.386.294.345.687.517 1.184.517.503 0 .9-.177 1.19-.533m.625-3.403c.424.48.637 1.136.637 1.971 0 .835-.213 1.49-.637 1.97-.423.48-.997.719-1.722.719-.378 0-.718-.083-1.019-.247a1.822 1.822 0 0 1-.697-.663v2.98h-.828v-7.346h.723l.052.9c.153-.303.385-.545.699-.73.314-.181.67-.273 1.07-.273.725 0 1.299.24 1.722.72M210.551 46.392c-.296.351-.444.834-.444 1.448 0 .613.148 1.097.444 1.448.297.351.707.528 1.232.528.523 0 .933-.177 1.23-.528.297-.351.445-.835.445-1.448 0-.614-.148-1.097-.445-1.448-.297-.352-.707-.528-1.23-.528-.525 0-.935.176-1.232.528m3.068-.528c.444.476.666 1.135.666 1.976s-.222 1.5-.666 1.976c-.446.475-1.057.713-1.836.713-.78 0-1.393-.238-1.837-.713-.443-.477-.668-1.135-.668-1.976s.225-1.5.668-1.976c.444-.476 1.057-.714 1.837-.714.779 0 1.39.238 1.836.714M220.264 45.254v5.172h-.723l-.052-.786c-.345.593-.961.889-1.852.889-.558 0-1.014-.155-1.37-.465-.355-.31-.533-.787-.533-1.428v-3.382h.827v3.165c0 .504.104.86.311 1.07.207.211.51.316.91.316.477 0 .871-.145 1.184-.434.314-.29.471-.724.471-1.303v-2.814h.827zM225.095 45.254l-.165.807c-.165-.09-.383-.135-.652-.135-.22 0-.435.064-.647.192-.21.127-.382.32-.516.579-.135.258-.202.57-.202.936v2.793h-.827v-5.172h.671l.115.848c.289-.635.84-.952 1.655-.952.247 0 .436.035.568.104M230.174 49.04c0 .262.04.443.12.543.079.1.224.15.439.15.145 0 .27-.01.377-.031.108-.021.233-.059.378-.114l-.135.797a1.965 1.965 0 0 1-.765.144c-.421 0-.733-.114-.936-.34-.203-.228-.305-.577-.305-1.047v-6.268h.827v6.165zM234.999 49.495c.315-.208.471-.477.471-.807v-.714l-1.158.217c-.462.083-.807.202-1.035.358-.227.154-.34.353-.34.594 0 .215.082.377.247.49.165.114.396.172.693.172.435 0 .808-.103 1.122-.31m2.105.28l-.051.651c-.194.069-.4.103-.621.103-.27 0-.48-.059-.636-.176-.155-.116-.254-.313-.295-.59a1.55 1.55 0 0 1-.699.565 2.372 2.372 0 0 1-.966.2c-.51 0-.93-.118-1.262-.356-.331-.238-.496-.581-.496-1.03 0-.392.172-.732.516-1.018.345-.286.845-.484 1.5-.595l1.376-.227v-.29c0-.345-.108-.62-.321-.828-.213-.207-.51-.31-.89-.31-.345 0-.643.083-.894.248-.252.166-.446.41-.584.735l-.61-.445c.138-.386.395-.693.77-.92.376-.228.816-.342 1.318-.342.614 0 1.108.149 1.48.445.372.296.558.735.558 1.314v2.544c0 .125.031.218.094.28.062.062.162.092.3.092.137 0 .275-.016.413-.05M245.028 49.272c.29-.356.434-.832.434-1.432s-.144-1.078-.434-1.433c-.29-.355-.687-.533-1.19-.533-.497 0-.891.173-1.184.518-.294.345-.44.806-.44 1.385v.125c0 .58.146 1.042.44 1.386.293.345.687.517 1.184.517.503 0 .9-.177 1.19-.533m.625-3.403c.424.48.636 1.136.636 1.971 0 .835-.212 1.49-.636 1.97-.424.48-.997.719-1.722.719-.378 0-.718-.083-1.019-.247a1.831 1.831 0 0 1-.698-.663v2.98h-.827v-7.346h.723l.052.9c.152-.303.385-.545.699-.73.314-.181.67-.273 1.07-.273.725 0 1.298.24 1.722.72M248.586 49.04c0 .262.04.443.119.543.08.1.225.15.439.15.145 0 .27-.01.377-.031.108-.021.233-.059.379-.114l-.136.797a1.965 1.965 0 0 1-.765.144c-.42 0-.733-.114-.936-.34-.203-.228-.304-.577-.304-1.047v-6.268h.827v6.165zM253.41 49.495c.315-.208.471-.477.471-.807v-.714l-1.158.217c-.462.083-.807.202-1.035.358-.227.154-.34.353-.34.594 0 .215.082.377.248.49.164.114.395.172.692.172.435 0 .808-.103 1.122-.31m2.106.28l-.052.651c-.193.069-.4.103-.62.103-.27 0-.481-.059-.637-.176-.154-.116-.253-.313-.294-.59a1.55 1.55 0 0 1-.7.565 2.372 2.372 0 0 1-.966.2c-.51 0-.93-.118-1.262-.356-.33-.238-.496-.581-.496-1.03 0-.392.172-.732.517-1.018.345-.286.844-.484 1.5-.595l1.375-.227v-.29c0-.345-.107-.62-.32-.828-.214-.207-.51-.31-.89-.31-.345 0-.643.083-.894.248-.253.166-.447.41-.585.735l-.61-.445c.138-.386.395-.693.77-.92.376-.228.817-.342 1.319-.342.613 0 1.107.149 1.48.445.372.296.558.735.558 1.314v2.544c0 .125.03.218.093.28.062.062.162.092.3.092.137 0 .276-.016.414-.05M260.575 45.657c.378.338.568.824.568 1.458v3.311h-.827v-3.02c0-.54-.115-.928-.346-1.17-.232-.24-.54-.362-.927-.362-.276 0-.534.061-.775.182-.241.12-.44.316-.595.59-.155.272-.233.614-.233 1.028v2.752h-.827v-5.172h.724l.052.806c.172-.31.41-.539.714-.688a2.301 2.301 0 0 1 1.024-.222c.586 0 1.068.17 1.448.507M265.436 44.395h-.671l-1.015-1.727h.9l.786 1.727zm-1.505 1.883c-.278.27-.45.648-.512 1.138h3.135c-.055-.484-.215-.86-.477-1.133-.262-.272-.61-.41-1.043-.41-.456 0-.823.136-1.103.405zm3.378 1.872h-3.9c.048.525.222.931.522 1.22.3.29.687.435 1.164.435.38 0 .695-.065.946-.197.253-.13.423-.32.513-.57l.693.364a2.155 2.155 0 0 1-.828.837c-.345.193-.786.29-1.324.29-.78 0-1.392-.238-1.836-.713-.444-.477-.667-1.134-.667-1.976 0-.842.212-1.5.636-1.976.425-.476 1.026-.714 1.806-.714.482 0 .899.107 1.251.321.352.213.617.503.796.869.179.366.27.775.27 1.231 0 .193-.015.386-.042.58zM271.828 50.064c-.344.31-.789.465-1.334.465-.42 0-.764-.114-1.029-.34-.265-.228-.401-.577-.409-1.046v-3.176h-1.034v-.713h1.034v-1.242l.828-.227v1.469h1.914v.713h-1.914v3.031c0 .248.071.437.212.564.142.128.33.19.564.19.33 0 .624-.126.88-.382l.288.694zM273.913 46.278c-.28.269-.45.648-.513 1.137h3.135c-.054-.482-.213-.86-.476-1.133-.261-.271-.609-.408-1.045-.408-.454 0-.821.135-1.101.404m3.378 1.872h-3.9c.048.524.223.93.522 1.22.3.29.688.434 1.164.434.38 0 .694-.065.947-.195.251-.131.422-.322.511-.57l.694.363a2.153 2.153 0 0 1-.827.837c-.345.193-.787.29-1.325.29-.779 0-1.391-.238-1.836-.714-.445-.475-.668-1.133-.668-1.975 0-.842.213-1.5.636-1.976.425-.476 1.027-.713 1.805-.713.484 0 .9.106 1.252.32.352.214.618.503.797.87.18.364.27.774.27 1.23 0 .193-.015.386-.042.579M28.302 3.98c-.78.574-1.526 1.186-2.29 1.78l-2.228 1.853c-2.955 2.489-5.532 5.384-8.22 8.149a488.479 488.479 0 0 0-7.932 8.425c-2.578 2.87-5.148 5.742-7.632 8.69l.183.172c2.775-2.673 5.532-5.358 8.345-7.983a485.175 485.175 0 0 1 8.435-7.865c2.831-2.6 5.838-5.005 8.527-7.748 1.35-1.367 2.697-2.739 3.996-4.165C30.795 3.87 32.077 2.424 33.28.879L33.114.69c-1.679 1.008-3.265 2.126-4.812 3.29M71.034 35.402l.003-.003c-2.653-3.365-5.525-6.506-8.487-9.554-2.968-3.043-6.236-5.777-9.343-8.677l-9.39-8.626C40.657 5.695 37.522 2.824 34.342 0l-.174.18c2.908 3.103 5.862 6.16 8.793 9.24l8.877 9.156c2.98 3.027 5.803 6.22 8.923 9.106 3.128 2.879 6.345 5.665 9.78 8.227l.532-.47c-.013-.012-.027-.024-.039-.037" mask="url(#d)"/>
    </g>
</svg>
