<svg width="100" height="38" viewBox="0 0 100 38" fill="none" xmlns="http://www.w3.org/2000/svg">
<path d="M32.2915 32.7873C32.3036 32.7873 32.3157 32.7695 32.3157 32.7695C32.4122 32.6982 32.5088 32.6091 32.5932 32.5021C32.5812 32.5021 32.5691 32.5021 32.557 32.4843C32.4726 32.5734 32.376 32.6804 32.2915 32.7873Z" fill="#808080"/>
<path d="M45.6649 28.2816L45.4538 28.4634C45.5744 28.4331 45.6649 28.4028 45.6649 28.2816Z" fill="#808080"/>
<path fill-rule="evenodd" clip-rule="evenodd" d="M41.3412 32.8842C41.7286 32.4946 42.1159 32.0814 42.5033 31.6564H42.4915C43.2193 30.8299 43.9236 30.0389 44.7687 29.3187C45.0269 29.0826 45.2734 28.8819 45.5082 28.7166C45.5427 28.6819 45.5603 28.6303 45.5775 28.5796C45.5955 28.5269 45.6131 28.4752 45.6491 28.4451C45.4817 28.5089 45.3484 28.6098 45.2143 28.7114C45.0756 28.8164 44.936 28.9221 44.757 28.9882C44.6865 28.9882 44.6161 28.9173 44.6865 28.8465C44.933 28.6694 45.1795 28.4805 45.4143 28.2916H45.3673C45.2969 28.2916 45.2969 28.2207 45.2969 28.1499C44.4231 28.0111 43.7519 28.6087 43.1512 29.1437L43.1136 29.1771C43.0201 29.2241 42.9318 29.1774 42.8623 29.1408C42.8272 29.1222 42.7969 29.1062 42.7732 29.1062C42.2417 29.2844 41.7833 29.613 41.3218 29.9437C40.8968 30.2484 40.4692 30.5548 39.9796 30.7473V30.6056C39.8133 30.6629 39.649 30.7377 39.4843 30.8126C39.2419 30.9228 38.9987 31.0334 38.7471 31.0897C38.2877 31.1963 37.8615 31.1826 37.4486 31.1692C37.313 31.1648 37.1786 31.1605 37.0451 31.1605C36.2933 31.2351 35.5511 31.3961 34.8098 31.5569L34.5684 31.6091C34.5567 31.6151 34.5449 31.618 34.5332 31.621C34.5214 31.6239 34.5097 31.6269 34.498 31.6328C34.0519 31.7508 33.6411 31.9161 33.2303 32.1522L33.1833 32.1758C33.1672 32.1975 33.151 32.2166 33.136 32.2345C33.1183 32.2555 33.1021 32.2747 33.0894 32.2939C32.9485 32.4592 32.8194 32.6009 32.6199 32.7071C32.3252 32.8553 32.0704 33.0839 31.8198 33.3088C31.7112 33.4063 31.603 33.5034 31.493 33.5926C31.4696 33.6162 31.4226 33.628 31.3874 33.628C31.0236 33.9822 30.6596 34.3364 30.284 34.6788C30.2605 34.7024 30.1549 34.7142 30.0727 34.7024C30.0727 34.7024 30.0845 34.7024 30.0845 34.6906L30.1197 34.6198L30.2958 34.3364C30.331 34.2833 30.3633 34.2301 30.3955 34.177C30.4278 34.1239 30.4601 34.0708 30.4953 34.0176C30.5891 33.8761 30.6832 33.7342 30.7888 33.6044C30.8122 33.569 30.8122 33.5336 30.7888 33.51C30.7653 33.4863 30.7301 33.4745 30.6949 33.4745C31.0353 33.144 31.4343 32.8606 31.8452 32.6127V32.6009C31.7982 32.6127 31.7278 32.5773 31.763 32.53C31.7974 32.4867 31.8256 32.4371 31.852 32.3904L31.8804 32.3411C31.8863 32.3293 31.8892 32.3205 31.8921 32.3116C31.8951 32.3028 31.898 32.2939 31.9039 32.2821C31.898 32.2703 31.8892 32.2614 31.8804 32.2526C31.8716 32.2437 31.8628 32.2349 31.8569 32.2231L31.7857 32.27C31.7007 32.3257 31.6132 32.383 31.54 32.4474C31.4882 32.4921 31.4398 32.5532 31.3902 32.616C31.2825 32.7522 31.1688 32.896 31 32.896C30.9883 32.896 30.9296 32.896 30.8944 32.8842C30.8592 32.8842 30.8357 32.8724 30.824 32.8606C30.824 32.8547 30.824 32.8518 30.8254 32.8503C30.8269 32.8488 30.8298 32.8488 30.8357 32.8488C30.8357 32.8488 30.8474 32.837 30.8474 32.8252C30.8474 32.8252 30.8474 32.8134 30.8592 32.8134C30.8651 32.8016 30.8709 32.7927 30.8768 32.7839C30.8827 32.775 30.8885 32.7662 30.8944 32.7544C30.9003 32.7426 30.9061 32.7337 30.912 32.7248C30.9179 32.716 30.9237 32.7071 30.9296 32.6953C30.9355 32.6894 30.9384 32.6806 30.9413 32.6717C30.9443 32.6629 30.9472 32.654 30.9531 32.6481L30.9663 32.6237C30.978 32.603 30.9919 32.5784 31 32.5537C31.0059 32.5418 31.0118 32.533 31.0176 32.5241C31.0235 32.5153 31.0294 32.5064 31.0353 32.4946C31.0529 32.471 31.0675 32.4444 31.0822 32.4179C31.0969 32.3913 31.1115 32.3647 31.1292 32.3411C31.1409 32.3175 31.1526 32.2939 31.1761 32.2703C31.1878 32.2467 31.1996 32.226 31.2113 32.2054C31.2231 32.1847 31.2348 32.164 31.2465 32.1404C31.2817 32.0814 31.2465 32.0342 31.1996 32.0224C31.3287 31.8571 31.4813 31.7154 31.6691 31.6091H31.6456C31.8077 31.5277 31.9743 31.4322 32.1399 31.3374C32.2376 31.2814 32.3364 31.2248 32.4321 31.1723C32.4673 31.1369 32.5025 31.1015 32.5495 31.0779C32.1621 31.2077 31.81 31.3848 31.4696 31.621C31.4696 31.621 31.3757 31.6564 31.3522 31.68C31.3522 31.68 31.2817 31.7036 31.1878 31.621C31.1761 31.6091 31.1761 31.5973 31.1761 31.5737C31.2169 31.4916 31.3011 31.4373 31.392 31.3786C31.4581 31.3359 31.5277 31.2909 31.5869 31.2313C31.6574 31.2313 31.7161 31.2313 31.7161 31.3022C33.0679 30.2422 34.7348 29.997 36.4074 29.7509C37.4361 29.5996 38.4669 29.4479 39.4279 29.1062C39.5277 29.0354 39.6304 28.9675 39.7331 28.8996C39.8358 28.8317 39.9385 28.7638 40.0383 28.693C40.2095 28.6217 40.3629 28.4997 40.5253 28.3705C40.6859 28.2428 40.8553 28.108 41.0595 28.0082C41.5994 27.595 42.0103 27.1228 42.2216 26.4262C42.2216 26.3554 42.1511 26.2845 42.1511 26.2845C41.259 27.2408 40.2378 27.9964 39.1462 28.5513C38.1053 29.1006 36.9899 29.1819 35.8858 29.2625C35.471 29.2928 35.0577 29.3229 34.6506 29.3778C34.721 29.2361 34.8618 29.2361 34.991 29.2361C34.991 29.0684 35.0713 28.9963 35.1744 28.9038C35.2019 28.879 35.2312 28.8528 35.2609 28.8229H35.4605C35.4957 28.8229 35.5133 28.7874 35.5309 28.752C35.5485 28.7166 35.5661 28.6812 35.6013 28.6812C35.7422 28.6812 35.9417 28.6104 35.8713 28.6104C35.7636 28.472 35.6072 28.5268 35.4346 28.5872C35.2685 28.6454 35.0874 28.7088 34.9205 28.6104C34.9826 28.5423 35.0013 28.4605 35.0183 28.3861C35.0366 28.3057 35.053 28.2339 35.1201 28.1971H35.39C35.39 28.0555 35.5309 27.9256 35.5309 27.9256C36.1431 27.5575 36.7342 27.2362 37.3143 26.9208C37.7018 26.7102 38.0847 26.502 38.4654 26.2845C38.3884 26.2845 38.3201 26.3162 38.2538 26.3469C38.1484 26.3958 38.048 26.4423 37.9255 26.3554C37.9959 26.3554 37.9959 26.3052 37.9959 26.255C37.9959 26.2048 37.9959 26.1546 38.0663 26.1546C38.5067 26.037 38.8986 25.8463 39.2989 25.6516C39.5815 25.5141 39.8683 25.3746 40.1791 25.2574C40.0869 25.2574 40.0015 25.2822 39.9182 25.3064C39.7579 25.353 39.6056 25.3972 39.4279 25.2574C39.4746 25.2339 39.5122 25.204 39.5493 25.1744C39.6244 25.1148 39.6974 25.0567 39.8387 25.0567V24.856C39.8387 24.7851 39.9092 24.7851 39.9796 24.7851C39.9092 24.7851 39.8387 24.7143 39.8387 24.7143C39.876 24.6393 39.9495 24.6238 40.0313 24.6066C40.104 24.5914 40.1833 24.5747 40.2496 24.5136C40.1791 24.5136 40.05 24.5136 40.05 24.4427C40.2496 24.1712 40.59 24.1004 40.9304 24.0295C40.8952 23.9587 40.8277 23.9587 40.769 23.9587C40.7103 23.9587 40.6604 23.9587 40.6604 23.8878C40.6604 23.817 40.7308 23.817 40.8013 23.817H40.6604C40.5499 23.7614 40.5695 23.6622 40.583 23.5935C40.5867 23.5747 40.59 23.5582 40.59 23.5455C40.8657 23.2206 40.9564 22.8372 41.0465 22.4559C41.0907 22.2692 41.1347 22.083 41.2004 21.9044C41.1299 21.9044 41.0595 21.9044 41.0595 21.8335C40.3995 22.5661 39.3534 22.8436 38.3596 23.1073L38.2659 23.1322H37.9255C37.5851 23.2739 37.1038 23.2739 36.7634 23.0614C36.6015 22.9765 36.4861 22.8703 36.3614 22.7556C36.2781 22.6791 36.1907 22.5987 36.0826 22.5183C35.5309 22.1759 34.991 21.9044 34.3806 21.6919C32.6786 21.1488 30.9061 20.8654 29.1337 20.9363C29.6287 20.664 30.1542 20.5558 30.6868 20.4461C30.9626 20.3892 31.2402 20.3321 31.5165 20.2515C31.6908 20.2002 31.8635 20.1472 32.0353 20.0945C33.0089 19.7961 33.9534 19.5065 34.991 19.5667C34.8551 19.5185 34.6812 19.5359 34.5211 19.552C34.446 19.5595 34.3739 19.5667 34.3102 19.5667C33.5255 19.5083 32.733 19.683 31.906 19.8653C31.7308 19.9039 31.5541 19.9428 31.3757 19.98C31.0518 20.0474 30.7438 20.1442 30.4354 20.2411C30.0955 20.3479 29.755 20.455 29.3919 20.523C29.2345 20.5774 29.108 20.6698 28.9849 20.7599C28.7867 20.9048 28.5971 21.0435 28.3003 21.0071V20.7946C28.9811 19.9682 29.8028 19.1535 30.8944 19.0827C31.9496 18.9108 32.9446 19.0332 33.9825 19.1609C34.1568 19.1824 34.3324 19.204 34.5097 19.2244C35.3606 19.2928 36.1566 19.4826 37.0144 19.6871L37.1038 19.7084C37.2916 19.7084 37.3972 19.8737 37.4995 20.0338C37.5827 20.1639 37.6636 20.2906 37.7846 20.3223C37.9517 20.38 38.1188 20.3907 38.2859 20.4015C38.5297 20.4171 38.7734 20.4328 39.0171 20.5939C39.0171 20.5462 39.0091 20.4999 39.0012 20.454C38.9856 20.3635 38.9704 20.2747 39.0171 20.1807C39.1685 20.0283 39.3422 20.0692 39.5131 20.1094C39.6468 20.1409 39.7789 20.172 39.8974 20.1098C40.2697 19.8788 39.9205 19.5242 39.5711 19.1693C39.4026 18.9981 39.234 18.8269 39.1462 18.6695C39.1462 18.5986 39.2166 18.5278 39.2166 18.5278C39.3708 18.666 39.5144 18.809 39.6568 18.9507C40.0132 19.3056 40.3618 19.6527 40.8482 19.8973C41.1886 20.039 42.0103 20.2397 41.8694 19.8265C41.6283 19.2913 41.2164 18.8272 40.8006 18.3587C40.6294 18.1657 40.4575 17.9719 40.2965 17.7722V17.5006C40.1895 17.5006 40.1638 17.4598 40.1319 17.4091C40.1218 17.393 40.1111 17.376 40.097 17.359V17.0874C39.9249 16.9971 39.8863 16.8541 39.8476 16.7102C39.8255 16.6284 39.8034 16.5463 39.7566 16.4735C39.6389 16.2828 39.6305 16.0482 39.6217 15.8064C39.6148 15.614 39.6077 15.4169 39.5453 15.2338C39.4044 14.8206 39.3457 14.4782 39.2753 14.065C39.1989 13.6423 39.1148 13.2381 39.0325 12.8423C38.8872 12.1439 38.7474 11.4719 38.6649 10.7711C38.5563 9.76934 39.0622 8.92215 39.5794 8.05612C39.7327 7.79938 39.887 7.54096 40.0266 7.2764C40.5078 6.44996 41.0478 5.63532 41.9398 5.08043C42.1345 4.27438 42.6641 3.6031 43.191 2.93515L43.231 2.88446C43.7511 2.23625 44.6197 1.83998 45.2598 1.54794L45.3321 1.51493C46.2829 1.0899 47.1398 0.818359 47.1515 0.818359H0V37.1699H33.4533C34.348 36.5213 35.2371 36.1121 36.2956 35.625C36.7785 35.4028 37.2967 35.1643 37.8668 34.8795C37.9875 34.8188 38.1309 34.7482 38.2901 34.6699C39.2456 34.1998 40.7677 33.4509 41.3412 32.8842ZM30.7261 27.9798C30.5934 27.9932 30.4527 28.0073 30.5058 27.9007C30.5551 27.6617 30.7998 27.5901 31.0387 27.5201C31.141 27.4902 31.2423 27.4605 31.3267 27.4182L31.3653 27.3982L31.3935 27.3833C31.5258 27.313 31.6878 27.2269 31.8075 27.277C31.8882 27.3916 31.9881 27.4213 32.0852 27.45C32.1575 27.4714 32.2282 27.4924 32.2883 27.5476C32.0346 27.8022 31.7386 27.8273 31.4383 27.8528C31.239 27.8697 31.0377 27.8868 30.8459 27.9713C30.8114 27.9713 30.7691 27.9755 30.7261 27.9798ZM20.3413 26.3196C20.3413 26.3904 20.4117 26.4613 20.4117 26.4613C22.0551 24.6077 23.5458 23.0257 25.6586 21.7152C25.7152 21.6915 25.6941 21.7211 25.6662 21.7604C25.6245 21.819 25.5675 21.8992 25.7291 21.8568C26.4285 21.6974 26.7427 21.0982 27.0483 20.5152C27.1273 20.3644 27.2058 20.2148 27.2902 20.0741C27.6107 19.5528 28.066 19.2187 28.5248 18.8822C28.8556 18.6395 29.1882 18.3954 29.4735 18.0788C29.4735 18.1497 29.4735 18.2205 29.403 18.2913C29.4735 18.3622 29.5439 18.3622 29.6143 18.3622C29.7382 18.2688 29.8733 18.2301 30.0029 18.193C30.1681 18.1458 30.3242 18.1011 30.436 17.949C29.896 17.7364 29.2035 17.6656 28.6635 17.8781C27.2315 18.5629 26.0108 19.6609 24.8487 20.9005C24.1444 21.6443 23.4167 22.3409 22.5246 22.8249C21.9142 24.0528 21.2334 25.1508 20.3413 26.3196ZM26.0718 21.9287C26.035 22.0025 25.9982 22.0409 25.9631 22.0776C25.9311 22.1111 25.9004 22.1432 25.8724 22.1993C25.8021 22.3406 25.7317 22.3994 25.6027 22.47C25.5324 22.47 25.462 22.47 25.462 22.3994C25.5324 22.1287 25.7317 21.8581 26.0014 21.7875C26.0718 21.7992 26.0718 21.8698 26.0718 21.9287ZM29.0734 32.4134C29.132 32.3544 29.2024 32.2836 29.2376 32.2127C29.2962 32.071 28.9327 32.1065 28.874 32.1419C28.8208 32.1847 28.7869 32.2276 28.7461 32.2793L28.7333 32.2954C28.6844 32.3517 28.6272 32.4037 28.569 32.4566C28.5296 32.4925 28.4898 32.5287 28.4519 32.5669C28.2877 32.7322 28.1235 32.8975 27.9476 33.051C27.8303 33.1572 28.2056 33.2045 28.2877 33.1336C28.3815 33.0628 28.4636 32.9801 28.5457 32.8975C28.577 32.8975 28.6082 32.8922 28.6291 32.8887L28.6434 32.8864L28.6512 32.8857C28.8456 32.8204 28.9903 32.6851 29.131 32.5535L29.1672 32.5197C29.2141 32.4725 29.1555 32.4252 29.0734 32.4134ZM28.0121 31.6457C28.0108 31.6459 28.0099 31.6463 28.0092 31.6469C28.0078 31.6484 28.0078 31.6513 28.0078 31.6572C27.9358 31.7066 27.8647 31.7569 27.7938 31.8071C27.6103 31.9369 27.4278 32.066 27.233 32.1767C27.0469 32.2816 26.8559 32.3722 26.6633 32.4636C26.5523 32.5163 26.4408 32.5693 26.3292 32.6253C26.3292 32.6253 26.3292 32.6135 26.3175 32.6135C26.294 32.5781 26.2471 32.5663 26.2001 32.5899C25.9419 32.7316 25.7188 32.9205 25.5193 33.1212C25.4841 33.1448 25.4489 33.1802 25.4254 33.2157L25.3198 33.3219V33.3337C25.2728 33.381 25.2259 33.4282 25.1672 33.499C25.155 33.5113 25.1456 33.5236 25.1366 33.5353C25.1196 33.5576 25.1039 33.578 25.0733 33.5935C25.0263 33.6171 24.9089 33.6171 24.9207 33.5462V33.5344C24.8855 33.558 24.8385 33.5817 24.8033 33.5935C24.7857 33.6053 24.7681 33.6141 24.7505 33.623C24.7329 33.6318 24.7153 33.6407 24.6976 33.6525C24.6859 33.6407 24.6624 33.6407 24.6507 33.6407C24.639 33.6407 24.6155 33.6407 24.6037 33.6525C24.5764 33.6761 24.549 33.6984 24.5216 33.7207C24.4668 33.7653 24.412 33.8099 24.3572 33.865C24.2164 33.9949 24.0873 34.1366 23.9581 34.29C23.9581 34.29 23.9582 34.3018 23.9464 34.3018C23.9464 34.3077 23.9435 34.3107 23.9405 34.3136C23.9376 34.3166 23.9347 34.3195 23.9347 34.3255L23.9112 34.3491C23.9067 34.3536 23.9039 34.3581 23.9016 34.3619C23.8977 34.3682 23.895 34.3727 23.8877 34.3727L23.876 34.3845C23.8642 34.4081 23.8525 34.4317 23.829 34.4553C23.8173 34.4671 23.7938 34.4789 23.7703 34.4789C23.7586 34.4671 23.7469 34.4553 23.7469 34.4435C23.741 34.4376 23.7381 34.4317 23.7351 34.4258C23.7322 34.4199 23.7293 34.414 23.7234 34.4081C23.7117 34.3904 23.7028 34.3727 23.694 34.355C23.6852 34.3373 23.6764 34.3195 23.6647 34.3018V34.29C23.6647 34.2841 23.6618 34.2782 23.6588 34.2723C23.6559 34.2664 23.653 34.2605 23.653 34.2546L23.8642 34.0067L23.876 33.9949C23.8877 33.9831 23.8994 33.9683 23.9112 33.9536C23.9229 33.9388 23.9347 33.924 23.9464 33.9122C23.964 33.8886 23.9846 33.865 24.0051 33.8414C24.0256 33.8178 24.0462 33.7942 24.0638 33.7706C24.0697 33.7588 24.0755 33.7499 24.0814 33.741C24.0873 33.7322 24.0931 33.7233 24.099 33.7115C24.1694 33.6171 24.2399 33.5226 24.3103 33.4164V33.4046C24.322 33.3928 24.3338 33.381 24.3338 33.3573C24.369 33.3101 24.4042 33.2629 24.4277 33.2157L24.4981 33.074V33.0622L24.5098 33.0504C24.5098 33.0445 24.5128 33.0415 24.5157 33.0386C24.5186 33.0356 24.5216 33.0327 24.5216 33.0268C24.5333 32.9973 24.545 32.9707 24.5568 32.9442C24.5685 32.9176 24.5803 32.891 24.592 32.8615V32.8497L24.6037 32.8024C24.6096 32.7906 24.6125 32.7788 24.6155 32.767C24.6184 32.7552 24.6213 32.7434 24.6272 32.7316V32.7198C24.6331 32.7021 24.636 32.6844 24.639 32.6667C24.6419 32.649 24.6448 32.6313 24.6507 32.6135C24.6507 32.6017 24.6507 32.5781 24.639 32.5663C24.7094 32.4364 24.8033 32.3184 24.9089 32.2003C24.9031 32.2003 24.8972 32.2033 24.8913 32.2062C24.888 32.2079 24.8846 32.2096 24.8812 32.2107C24.8787 32.2116 24.8762 32.2121 24.8737 32.2121C24.8215 32.245 24.7765 32.2888 24.7307 32.3334C24.6942 32.3689 24.6571 32.405 24.6155 32.4364C24.545 32.4955 24.4042 32.401 24.4981 32.3302C24.5568 32.283 24.6037 32.2358 24.6507 32.1886C24.6507 32.1886 24.6507 32.1767 24.6624 32.1767C24.7092 32.1344 24.7541 32.0864 24.7994 32.038C24.8677 31.965 24.9369 31.8911 25.0146 31.8343C25.0967 31.7753 25.1554 31.7281 25.2259 31.669C25.2376 31.6572 25.2493 31.6454 25.2611 31.6454C25.308 31.5864 25.355 31.5274 25.4137 31.4683C25.4137 31.4683 25.4254 31.4683 25.4254 31.4565C25.8285 31.0656 26.3949 30.9277 26.9731 30.7869C27.3377 30.6982 27.707 30.6082 28.043 30.453C28.2327 30.374 28.4443 30.4051 28.6535 30.4358C28.8195 30.4602 28.9839 30.4843 29.1346 30.453C29.3341 30.453 29.5454 30.453 29.745 30.5947C29.2809 30.8418 28.8379 31.1244 28.3997 31.404C28.2728 31.485 28.146 31.5659 28.0195 31.6454C28.0162 31.6454 28.0139 31.6454 28.0121 31.6457ZM29.4789 26.8338C29.424 26.8401 29.3884 26.8442 29.4189 26.8749C29.6185 27.0756 30.0293 27.0047 30.311 26.8512C30.5105 26.7096 30.7218 26.7096 30.9918 26.7096C31.0622 26.7096 31.0622 26.5797 31.0622 26.5089C31.2618 26.5797 31.4026 26.5797 31.6022 26.5797C33.2338 26.2373 34.8067 25.8949 36.3091 25.1393C34.7889 23.9647 32.9146 23.4414 31.0789 22.9289C30.7743 22.8439 30.4708 22.7592 30.1701 22.6718C30.2362 22.6718 30.3023 22.6938 30.3688 22.716C30.5032 22.7607 30.6392 22.8061 30.7805 22.6718C30.5943 22.5232 30.3869 22.4948 30.1816 22.4667C30.0116 22.4434 29.843 22.4203 29.6889 22.3294C29.705 22.3294 29.7241 22.3331 29.7449 22.3371C29.8152 22.3507 29.9045 22.3679 29.9589 22.2586C29.6023 22.0793 29.2458 22.0184 28.8858 21.9569C28.7007 21.9253 28.5147 21.8935 28.3273 21.8454C28.6677 21.7745 28.879 21.503 28.879 21.1606C28.879 21.0898 28.7381 21.0898 28.6677 21.0898C27.8578 21.503 27.3061 22.2586 26.9657 23.1441C27.2726 23.3248 27.6033 23.3038 27.9275 23.2833C28.1117 23.2716 28.2938 23.2601 28.4681 23.2857C28.3142 23.4319 28.0918 23.4717 27.878 23.5098C27.7983 23.524 27.7198 23.5381 27.6465 23.5573C27.4352 23.6045 27.2356 23.758 27.3061 23.8997C27.353 23.9587 27.4 23.9823 27.4587 23.9941C27.3061 24.0413 27.1652 24.1122 27.0361 24.2421C27.2293 24.3942 27.4286 24.3648 27.6253 24.3358C27.7034 24.3243 27.781 24.3129 27.8578 24.3129C27.8578 24.3986 27.9141 24.4278 27.9726 24.4581C28.0027 24.4736 28.0334 24.4895 28.0573 24.5136C27.7169 24.6435 27.4469 24.9268 27.3765 25.1275C27.2924 25.332 27.137 25.4649 26.983 25.5967C26.8792 25.6855 26.7761 25.7738 26.6957 25.8831V26.0956C26.4689 26.2967 26.2359 26.4762 26.006 26.6532C25.5339 27.0169 25.0751 27.3702 24.712 27.8784C24.7824 27.8784 24.7824 27.9492 24.7824 28.0201C24.7175 28.118 24.6251 28.1859 24.5374 28.2503C24.435 28.3255 24.3391 28.396 24.3011 28.5041C24.3011 28.575 24.3012 28.6458 24.3716 28.6458C24.8023 28.5034 25.175 28.2638 25.5403 28.0288C25.8719 27.8155 26.1974 27.6062 26.5548 27.477C26.8469 27.4067 27.1012 27.2743 27.3494 27.1451C27.5599 27.0354 27.766 26.9281 27.9869 26.863C28.1571 26.8276 28.3449 26.7775 28.5327 26.7273C28.7205 26.6771 28.9083 26.6269 29.0785 26.5915C29.0785 26.6623 29.0785 26.7332 29.1489 26.7332H29.6889C29.6556 26.8135 29.5508 26.8255 29.4789 26.8338Z" fill="#000091"/>
<path d="M100 0.818359H60.8988C60.8988 0.818359 60.9697 0.830181 61.2653 0.983864C61.5844 1.14937 61.9981 1.37398 62.2463 1.50402C62.7546 1.7641 63.2392 2.09511 63.5584 2.60344C63.7002 2.80441 63.9012 3.21817 63.7711 3.49007C63.6293 3.8329 63.5584 4.38852 63.2156 4.51856C62.8019 4.73135 62.2581 4.73135 61.7735 4.66042C61.5017 4.66042 61.2298 4.58949 60.9461 4.51856C61.9745 4.93232 62.9437 5.41701 63.6293 6.37457C63.7002 6.51643 63.9721 6.57554 64.2439 6.57554C64.3149 6.57554 64.3149 6.7174 64.3149 6.77651C64.173 6.91837 64.043 6.9893 64.1139 7.19027H64.3149C64.6576 7.04841 64.5867 6.36275 65.0714 6.57554C65.4141 6.77651 65.556 7.2612 65.3432 7.60403C65.0714 7.87593 64.7995 8.08872 64.5158 8.28969C64.4449 8.43155 64.4449 8.63252 64.5158 8.77438C64.7167 9.04628 64.7877 9.31818 64.8586 9.6019C65.0714 10.0866 65.1305 10.6304 65.3432 11.1151C65.6151 12.1436 65.8869 13.1721 65.8278 14.2124C65.8278 14.7562 65.556 15.2409 65.7569 15.7965C65.8988 16.3403 66.2415 16.754 66.5134 17.2387C66.7853 17.6525 67.0571 17.9244 67.2699 18.3382C67.6836 19.0238 68.4401 19.7095 68.0973 20.537C67.8964 21.0217 67.1399 20.9508 66.6553 21.2227C66.2415 21.5655 66.5843 22.1211 66.7971 22.4639C67.1399 23.0787 66.3834 23.4924 65.8988 23.7052C66.0406 23.918 66.3125 23.8471 66.3834 23.9771C66.4543 24.32 66.7971 24.5209 66.5843 24.8756C66.3125 25.2893 65.4851 25.4903 65.8988 26.1169C66.1706 26.6015 65.9933 27.1335 65.8278 27.63C65.6269 28.2448 65.0714 28.5167 64.5867 28.6585C64.173 28.8004 63.6884 28.8004 63.2865 28.7295C63.1447 28.6585 63.0146 28.5876 62.8728 28.5876C61.7026 28.4457 60.5324 28.1147 59.374 28.1147C59.0312 28.1857 58.6884 28.2448 58.4166 28.3866C58.1093 28.6112 57.8256 28.8595 57.5892 29.1196C57.5892 29.1196 57.5892 29.1196 57.5774 29.1314C57.5301 29.1905 57.471 29.2378 57.4237 29.2969C57.4 29.3324 57.3646 29.3678 57.3409 29.4033C57.3173 29.4269 57.3055 29.4506 57.2818 29.4742C57.0809 29.7225 56.9036 29.9944 56.7381 30.2663C56.7263 30.2899 56.7145 30.3018 56.7027 30.3136C56.6908 30.349 56.6672 30.3727 56.6436 30.4081C56.419 30.8219 56.2535 31.2475 56.1235 31.6731C55.6507 33.2454 55.8634 34.593 56.1944 34.924C56.289 35.0186 58.4639 35.6925 59.9768 36.3663C60.6861 36.6855 61.1825 36.9219 61.5962 37.182H99.9882V0.818359H100Z" fill="#3375E0"/>
<path d="M63.2216 14.0752C63.4927 14.1461 63.9054 14.1461 63.9054 14.2878C63.7639 14.8308 62.9504 14.9725 62.5378 15.5274H62.3256C62.1252 15.6691 62.1841 16.0115 61.9837 16.0115C61.7833 15.9406 61.5711 16.0115 61.3706 16.0823C61.6418 16.3539 61.9837 16.5664 62.3963 16.4955C62.4671 16.4955 62.5967 16.6372 62.5967 16.7671C62.5967 16.7671 62.6675 16.7671 62.7382 16.6962C62.8089 16.6962 62.8797 16.6962 62.8797 16.7671V17.0386C62.6793 17.3102 62.3256 17.1803 62.0544 17.2393C62.6085 17.381 63.1508 17.381 63.6342 17.2393C64.0468 17.0977 63.6342 16.4129 63.9054 16.0705C63.7639 16.0705 63.9054 15.858 63.7639 15.858C63.9054 15.7163 64.035 15.5156 64.1765 15.4448C64.318 15.4448 64.5184 15.3739 64.5891 15.2323C64.5891 15.0906 64.318 15.0316 64.3769 14.8899C64.7896 14.6183 65.1314 14.2051 64.99 13.7919C64.9192 13.5794 64.3769 13.5794 64.035 13.4495C63.6931 13.3196 63.2805 13.4495 62.8679 13.5203C62.526 13.5203 62.1841 13.7329 61.8422 13.7919C61.3589 13.9336 60.9462 14.2051 60.5454 14.4767C61.0288 14.276 61.5003 14.2051 62.0544 14.0634C62.4671 14.0752 62.8089 13.9808 63.2216 14.0752Z" fill="#808080"/>
</svg>
