<?xml version="1.0" encoding="UTF-8" standalone="no"?>
<!-- Created with Inkscape (http://www.inkscape.org/) -->

<svg
   width="210mm"
   height="210mm"
   viewBox="0 0 210 210"
   version="1.1"
   id="svg1"
   xml:space="preserve"
   inkscape:version="1.2.2 (b0a8486541, 2022-12-01)"
   sodipodi:docname="pam-0-bleu.svg"
   xmlns:inkscape="http://www.inkscape.org/namespaces/inkscape"
   xmlns:sodipodi="http://sodipodi.sourceforge.net/DTD/sodipodi-0.dtd"
   xmlns:xlink="http://www.w3.org/1999/xlink"
   xmlns="http://www.w3.org/2000/svg"
   xmlns:svg="http://www.w3.org/2000/svg"><sodipodi:namedview
     id="namedview1"
     pagecolor="#ffffff"
     bordercolor="#000000"
     borderopacity="0.25"
     inkscape:showpageshadow="2"
     inkscape:pageopacity="0.0"
     inkscape:pagecheckerboard="0"
     inkscape:deskcolor="#d1d1d1"
     inkscape:document-units="mm"
     inkscape:zoom="0.48348276"
     inkscape:cx="209.9351"
     inkscape:cy="194.42265"
     inkscape:window-width="1920"
     inkscape:window-height="1055"
     inkscape:window-x="0"
     inkscape:window-y="0"
     inkscape:window-maximized="1"
     inkscape:current-layer="layer1"
     showgrid="false" /><defs
     id="defs1"><linearGradient
       id="linearGradient1"
       inkscape:collect="always"><stop
         style="stop-color:#263d75;stop-opacity:1;"
         offset="0"
         id="stop1" /><stop
         style="stop-color:#0f3ba6;stop-opacity:1;"
         offset="1"
         id="stop2" /></linearGradient><linearGradient
       inkscape:collect="always"
       xlink:href="#linearGradient1"
       id="linearGradient2"
       x1="8.3836303"
       y1="103.70173"
       x2="201.76917"
       y2="103.70173"
       gradientUnits="userSpaceOnUse"
       gradientTransform="matrix(1.1237575,0,0,1.0806148,-12.967211,-10.386538)" /></defs><g
     inkscape:label="Calque 1"
     inkscape:groupmode="layer"
     id="layer1"><path
       style="fill:url(#linearGradient2);fill-opacity:1;stroke:none;stroke-width:11.5792;stroke-linecap:round;stroke-linejoin:round;stroke-dasharray:none;stroke-opacity:1"
       d="M 2.3571599,94.211812 103.06373,3.5751011 145.55046,41.679844 V 21.098382 h 24.14421 v 38.065583 l 38.1746,36.073069 H 176.73462 V 199.77485 H 31.335848 V 95.198964 Z"
       id="path1"
       sodipodi:nodetypes="cccccccccccc" /><path
       style="font-weight:800;font-size:70.5556px;font-family:Marianne;-inkscape-font-specification:'Marianne Ultra-Bold';fill:#ffffff;stroke-width:12.4988;stroke-linecap:round;stroke-linejoin:round"
       d="m 79.400199,126.59763 c -15.807771,0 -22.962866,13.46058 -22.962866,31.32336 0,17.86278 7.155095,31.32337 22.962866,31.32337 15.890951,0 22.962841,-13.46059 22.962841,-31.32337 0,-17.86278 -7.07189,-31.32336 -22.962841,-31.32336 z m 0.08314,13.20661 c 5.740711,0 8.486273,6.6033 8.486273,18.11675 0,11.4288 -2.745562,18.11676 -8.486273,18.11676 -5.990317,0 -8.652673,-6.6033 -8.652673,-18.11676 0,-11.42879 2.662356,-18.11675 8.652673,-18.11675 z"
       id="text3-6"
       aria-label="0" /><path
       style="font-weight:800;font-size:42.3333px;font-family:Marianne;-inkscape-font-specification:'Marianne Ultra-Bold';fill:#ffffff;stroke-width:12.6666;stroke-linecap:round;stroke-linejoin:round"
       d="m 118.20247,146.35225 c -5.21069,0 -8.75194,3.65483 -8.75194,8.59656 0,4.94174 3.54125,8.59657 8.75194,8.59657 5.16011,0 8.70137,-3.65483 8.70137,-8.59657 0,-4.94173 -3.54126,-8.59656 -8.70137,-8.59656 z m -6.27307,37.1145 h 8.09429 l 26.00289,-36.0335 h -8.09428 z m 6.27307,-25.22343 c -1.66944,0 -2.93418,-1.18397 -2.93418,-3.29451 0,-2.11052 1.26474,-3.243 2.93418,-3.243 1.66944,0 2.93418,1.13248 2.93418,3.243 0,2.05906 -1.26474,3.29451 -2.93418,3.29451 z m 21.7534,9.05984 c -5.2107,0 -8.75194,3.65482 -8.75194,8.59656 0,4.94172 3.54124,8.59655 8.75194,8.59655 5.16011,0 8.70135,-3.65483 8.70135,-8.59655 0,-4.94174 -3.54124,-8.59656 -8.70135,-8.59656 z m 0,11.89105 c -1.66945,0 -2.93418,-1.18397 -2.93418,-3.29449 0,-2.11054 1.26473,-3.24302 2.93418,-3.24302 1.66944,0 2.93419,1.13248 2.93419,3.24302 0,2.05905 -1.26475,3.29449 -2.93419,3.29449 z"
       id="text3-6-7"
       aria-label="%" /><text
       xml:space="preserve"
       style="font-style:normal;font-variant:normal;font-weight:normal;font-stretch:normal;font-size:61.7812px;font-family:sans-serif;-inkscape-font-specification:sans-serif;fill:#ffffff;fill-opacity:1;stroke:#204129;stroke-width:10.5077;stroke-linecap:round;stroke-linejoin:round;stroke-dasharray:none;stroke-opacity:1"
       x="0.1923553"
       y="-104.62782"
       id="text4"
       transform="scale(0.99134567,1.0087299)"><tspan
         sodipodi:role="line"
         id="tspan4"
         style="stroke-width:10.5077;fill:#ffffff"
         x="0.1923553"
         y="-104.62782" /></text><text
       xml:space="preserve"
       style="font-weight:bold;font-size:56.4444px;font-family:Ubuntu;-inkscape-font-specification:'Ubuntu Bold';text-align:center;text-anchor:middle;fill:#2988e6;stroke:#ffffff;stroke-width:7;stroke-linecap:round;stroke-linejoin:round"
       x="103.17768"
       y="111.61758"
       id="text373"><tspan
         sodipodi:role="line"
         id="tspan371"
         style="font-size:56.4444px;fill:#ffffff;fill-opacity:1;stroke:none;stroke-width:7"
         x="103.17768"
         y="111.61758">PAM</tspan></text></g></svg>
