<?xml version="1.0" encoding="UTF-8" standalone="no"?>
<!-- Created with Inkscape (http://www.inkscape.org/) -->

<svg
   width="210mm"
   height="210mm"
   viewBox="0 0 210 210"
   version="1.1"
   id="svg1"
   xml:space="preserve"
   inkscape:version="1.2.2 (b0a8486541, 2022-12-01)"
   sodipodi:docname="ptz-bleu.svg"
   xmlns:inkscape="http://www.inkscape.org/namespaces/inkscape"
   xmlns:sodipodi="http://sodipodi.sourceforge.net/DTD/sodipodi-0.dtd"
   xmlns:xlink="http://www.w3.org/1999/xlink"
   xmlns="http://www.w3.org/2000/svg"
   xmlns:svg="http://www.w3.org/2000/svg"><sodipodi:namedview
     id="namedview1"
     pagecolor="#ffffff"
     bordercolor="#000000"
     borderopacity="0.25"
     inkscape:showpageshadow="2"
     inkscape:pageopacity="0.0"
     inkscape:pagecheckerboard="0"
     inkscape:deskcolor="#d1d1d1"
     inkscape:document-units="mm"
     inkscape:zoom="0.48348276"
     inkscape:cx="209.9351"
     inkscape:cy="195.45681"
     inkscape:window-width="1920"
     inkscape:window-height="1055"
     inkscape:window-x="0"
     inkscape:window-y="0"
     inkscape:window-maximized="1"
     inkscape:current-layer="layer1"
     showgrid="false" /><defs
     id="defs1"><linearGradient
       id="linearGradient1"
       inkscape:collect="always"><stop
         style="stop-color:#263d75;stop-opacity:1;"
         offset="0"
         id="stop1" /><stop
         style="stop-color:#0f3ba6;stop-opacity:1;"
         offset="1"
         id="stop2" /></linearGradient><linearGradient
       inkscape:collect="always"
       xlink:href="#linearGradient1"
       id="linearGradient2"
       x1="8.3836303"
       y1="103.70173"
       x2="201.76917"
       y2="103.70173"
       gradientUnits="userSpaceOnUse"
       gradientTransform="matrix(1.1237575,0,0,1.0806148,-12.967211,-10.386538)" /></defs><g
     inkscape:label="Calque 1"
     inkscape:groupmode="layer"
     id="layer1"><path
       style="fill:url(#linearGradient2);fill-opacity:1;stroke:none;stroke-width:11.5792;stroke-linecap:round;stroke-linejoin:round;stroke-dasharray:none;stroke-opacity:1"
       d="M 2.3571599,94.211812 103.06373,3.5751011 145.55046,41.679844 V 21.098382 h 24.14421 v 38.065583 l 38.1746,36.073069 H 176.73462 V 199.77485 H 31.335848 V 95.198964 Z"
       id="path1"
       sodipodi:nodetypes="cccccccccccc" /><path
       style="font-weight:800;font-size:70.5556px;font-family:Marianne;-inkscape-font-specification:'Marianne Ultra-Bold';fill:#ffffff;stroke-width:15.1889;stroke-linecap:round;stroke-linejoin:round"
       d="m 85.867399,65.632385 c -19.210059,0 -27.905136,16.357677 -27.905136,38.065055 0,21.70736 8.695077,38.06506 27.905136,38.06506 19.311141,0 27.905111,-16.3577 27.905111,-38.06506 0,-21.707378 -8.59397,-38.065055 -27.905111,-38.065055 z m 0.10104,16.049048 c 6.976277,0 10.312764,8.024525 10.312764,22.016007 0,13.8886 -3.336487,22.01601 -10.312764,22.01601 -7.279606,0 -10.514977,-8.02452 -10.514977,-22.01601 0,-13.888606 3.235371,-22.016007 10.514977,-22.016007 z"
       id="text3-6"
       aria-label="0" /><path
       style="font-weight:800;font-size:42.3333px;font-family:Marianne;-inkscape-font-specification:'Marianne Ultra-Bold';fill:#ffffff;stroke-width:15.3928;stroke-linecap:round;stroke-linejoin:round"
       d="m 122.14839,140.3612 c -6.33219,0 -10.63562,4.44146 -10.63562,10.44679 0,6.00535 4.30343,10.4468 10.63562,10.4468 6.27071,0 10.57415,-4.44145 10.57415,-10.4468 0,-6.00533 -4.30344,-10.44679 -10.57415,-10.44679 z m -7.62322,45.10261 h 9.83641 l 31.59947,-43.78894 h -9.83641 z m 7.62322,-30.65224 c -2.02876,0 -3.5657,-1.43879 -3.5657,-4.00358 0,-2.56477 1.53694,-3.94099 3.5657,-3.94099 2.02875,0 3.5657,1.37622 3.5657,3.94099 0,2.50223 -1.53695,4.00358 -3.5657,4.00358 z m 26.43535,11.00978 c -6.33219,0 -10.63561,4.44145 -10.63561,10.44679 0,6.00532 4.30342,10.44678 10.63561,10.44678 6.27072,0 10.57414,-4.44146 10.57414,-10.44678 0,-6.00534 -4.30342,-10.44679 -10.57414,-10.44679 z m 0,14.45035 c -2.02876,0 -3.5657,-1.4388 -3.5657,-4.00356 0,-2.56479 1.53694,-3.94101 3.5657,-3.94101 2.02876,0 3.56571,1.37622 3.56571,3.94101 0,2.50222 -1.53695,4.00356 -3.56571,4.00356 z"
       id="text3-6-7"
       aria-label="%" /><text
       xml:space="preserve"
       style="font-style:normal;font-variant:normal;font-weight:normal;font-stretch:normal;font-size:61.7812px;font-family:sans-serif;-inkscape-font-specification:sans-serif;fill:#ffffff;fill-opacity:1;stroke:#204129;stroke-width:10.5077;stroke-linecap:round;stroke-linejoin:round;stroke-dasharray:none;stroke-opacity:1"
       x="0.1923553"
       y="-104.62782"
       id="text4"
       transform="scale(0.99134567,1.0087299)"><tspan
         sodipodi:role="line"
         id="tspan4"
         style="stroke-width:10.5077;fill:#ffffff"
         x="0.1923553"
         y="-104.62782" /></text></g></svg>
