<?xml version="1.0" encoding="UTF-8" standalone="no"?>
<!-- Created with Inkscape (http://www.inkscape.org/) -->

<svg
   width="210mm"
   height="210mm"
   viewBox="0 0 210 210"
   version="1.1"
   id="svg1"
   xml:space="preserve"
   inkscape:version="1.3.1 (9b9bdc1480, 2023-11-25, custom)"
   sodipodi:docname="ptz.svg"
   xmlns:inkscape="http://www.inkscape.org/namespaces/inkscape"
   xmlns:sodipodi="http://sodipodi.sourceforge.net/DTD/sodipodi-0.dtd"
   xmlns:xlink="http://www.w3.org/1999/xlink"
   xmlns="http://www.w3.org/2000/svg"
   xmlns:svg="http://www.w3.org/2000/svg"><sodipodi:namedview
     id="namedview1"
     pagecolor="#ffffff"
     bordercolor="#000000"
     borderopacity="0.25"
     inkscape:showpageshadow="2"
     inkscape:pageopacity="0.0"
     inkscape:pagecheckerboard="0"
     inkscape:deskcolor="#d1d1d1"
     inkscape:document-units="mm"
     inkscape:zoom="0.48348276"
     inkscape:cx="206.83261"
     inkscape:cy="192.35433"
     inkscape:window-width="1920"
     inkscape:window-height="1055"
     inkscape:window-x="0"
     inkscape:window-y="0"
     inkscape:window-maximized="1"
     inkscape:current-layer="layer1"
     showgrid="false" /><defs
     id="defs1"><linearGradient
       id="linearGradient1"
       inkscape:collect="always"><stop
         style="stop-color:#204129;stop-opacity:1;"
         offset="0"
         id="stop1" /><stop
         style="stop-color:#1f8d49;stop-opacity:1;"
         offset="1"
         id="stop2" /></linearGradient><linearGradient
       inkscape:collect="always"
       xlink:href="#linearGradient1"
       id="linearGradient2"
       x1="8.3836303"
       y1="103.70173"
       x2="201.76917"
       y2="103.70173"
       gradientUnits="userSpaceOnUse"
       gradientTransform="matrix(1.1237575,0,0,1.0806148,-12.967211,-10.386538)" /></defs><g
     inkscape:label="Calque 1"
     inkscape:groupmode="layer"
     id="layer1"><path
       style="fill:url(#linearGradient2);fill-opacity:1;stroke:none;stroke-width:11.5792;stroke-linecap:round;stroke-linejoin:round;stroke-dasharray:none;stroke-opacity:1"
       d="M 2.3571599,94.211812 103.06373,3.5751011 145.55046,41.679844 V 21.098382 h 24.14421 v 38.065583 l 38.1746,36.073069 H 176.73462 V 199.77485 H 31.335848 V 95.198964 Z"
       id="path1"
       sodipodi:nodetypes="cccccccccccc" /><path
       style="font-weight:800;font-size:46.3359px;font-family:Marianne;-inkscape-font-specification:'Marianne Ultra-Bold';fill:#ffffff;stroke-width:10.5077;stroke-linecap:round;stroke-linejoin:round"
       d="m 59.748546,106.39287 h 8.24779 V 94.113855 h 3.336185 c 7.599087,0 12.279013,-3.753208 12.279013,-10.05489 0,-6.348019 -4.679926,-10.101227 -12.279013,-10.101227 H 59.748546 Z M 71.79588,80.769116 c 2.085115,0 3.289848,1.343741 3.289848,3.197177 0,1.992443 -1.204733,3.336185 -3.289848,3.336185 h -3.799544 v -6.533362 z m 14.364038,0.648702 h 9.452523 v 24.975052 h 8.247789 V 81.417818 h 9.45252 v -7.46008 H 86.159918 Z m 31.462062,24.975052 h 27.15283 v -7.460082 h -16.77359 l 16.31023,-17.51497 v -7.46008 h -26.22611 v 7.46008 h 15.89321 l -16.35657,17.51497 z"
       id="text3"
       transform="scale(0.99134566,1.0087299)"
       aria-label="PTZ" /><path
       style="font-weight:800;font-size:70.5556px;font-family:Marianne;-inkscape-font-specification:'Marianne Ultra-Bold';fill:#ffffff;stroke-width:10.5077;stroke-linecap:round;stroke-linejoin:round"
       d="m 79.158185,124.22878 c -13.289549,0 -19.304818,11.31627 -19.304818,26.33347 0,15.01719 6.015269,26.33347 19.304818,26.33347 13.359493,0 19.304817,-11.31628 19.304817,-26.33347 0,-15.0172 -5.945324,-26.33347 -19.304817,-26.33347 z m 0.06994,11.10276 c 4.826205,0 7.13439,5.55138 7.13439,15.23071 0,9.60815 -2.308185,15.23071 -7.13439,15.23071 -5.036039,0 -7.274278,-5.55138 -7.274278,-15.23071 0,-9.60816 2.238239,-15.23071 7.274278,-15.23071 z"
       id="text3-6"
       aria-label="0" /><path
       style="font-weight:800;font-size:42.3333px;font-family:Marianne;-inkscape-font-specification:'Marianne Ultra-Bold';fill:#ffffff;stroke-width:10.5077;stroke-linecap:round;stroke-linejoin:round"
       d="m 116.67572,140.47817 c -4.36033,0 -7.32366,3.00567 -7.32366,7.06966 0,4.064 2.96333,7.06967 7.32366,7.06967 4.318,0 7.28133,-3.00567 7.28133,-7.06967 0,-4.06399 -2.96333,-7.06966 -7.28133,-7.06966 z m -5.24933,30.52231 h 6.77333 l 21.75932,-29.63331 h -6.77333 z m 5.24933,-20.74331 c -1.39699,0 -2.45533,-0.97367 -2.45533,-2.70934 0,-1.73566 1.05834,-2.66699 2.45533,-2.66699 1.397,0 2.45534,0.93133 2.45534,2.66699 0,1.69334 -1.05834,2.70934 -2.45534,2.70934 z m 18.20332,7.45066 c -4.36033,0 -7.32366,3.00566 -7.32366,7.06966 0,4.06399 2.96333,7.06966 7.32366,7.06966 4.318,0 7.28133,-3.00567 7.28133,-7.06966 0,-4.064 -2.96333,-7.06966 -7.28133,-7.06966 z m 0,9.77899 c -1.397,0 -2.45533,-0.97367 -2.45533,-2.70933 0,-1.73567 1.05833,-2.667 2.45533,-2.667 1.397,0 2.45534,0.93133 2.45534,2.667 0,1.69333 -1.05834,2.70933 -2.45534,2.70933 z"
       id="text3-6-7"
       transform="scale(0.99134566,1.0087299)"
       aria-label="%" /><text
       xml:space="preserve"
       style="font-style:normal;font-variant:normal;font-weight:normal;font-stretch:normal;font-size:61.7812px;font-family:sans-serif;-inkscape-font-specification:sans-serif;fill:#ffffff;fill-opacity:1;stroke:#204129;stroke-width:10.5077;stroke-linecap:round;stroke-linejoin:round;stroke-dasharray:none;stroke-opacity:1"
       x="0.1923553"
       y="-104.62782"
       id="text4"
       transform="scale(0.99134567,1.0087299)"><tspan
         sodipodi:role="line"
         id="tspan4"
         style="stroke-width:10.5077;fill:#ffffff"
         x="0.1923553"
         y="-104.62782" /></text></g></svg>
