<?xml version="1.0" encoding="UTF-8" standalone="no"?>
<svg
   viewBox="0 0 24 24"
   fill="currentColor"
   version="1.1"
   id="svg1"
   sodipodi:docname="quote-remix.svg"
   inkscape:version="1.3.1 (9b9bdc1480, 2023-11-25, custom)"
   xmlns:inkscape="http://www.inkscape.org/namespaces/inkscape"
   xmlns:sodipodi="http://sodipodi.sourceforge.net/DTD/sodipodi-0.dtd"
   xmlns="http://www.w3.org/2000/svg"
   xmlns:svg="http://www.w3.org/2000/svg">
  <defs
     id="defs1" />
  <sodipodi:namedview
     id="namedview1"
     pagecolor="#ffffff"
     bordercolor="#000000"
     borderopacity="0.25"
     inkscape:showpageshadow="2"
     inkscape:pageopacity="0.0"
     inkscape:pagecheckerboard="0"
     inkscape:deskcolor="#d1d1d1"
     inkscape:zoom="36.541667"
     inkscape:cx="11.986317"
     inkscape:cy="12.013683"
     inkscape:window-width="1920"
     inkscape:window-height="1055"
     inkscape:window-x="0"
     inkscape:window-y="0"
     inkscape:window-maximized="1"
     inkscape:current-layer="svg1" />
  <path
     d="M21 3C21.5523 3 22 3.44772 22 4V18C22 18.5523 21.5523 19 21 19H6.455L2 22.5V4C2 3.44772 2.44772 3 3 3H21ZM20 5H4V18.385L5.76333 17H20V5ZM10.5153 7.4116L10.9616 8.1004C9.29402 9.0027 9.32317 10.4519 9.32317 10.7645C9.47827 10.7431 9.64107 10.7403 9.80236 10.7553C10.7045 10.8389 11.4156 11.5795 11.4156 12.5C11.4156 13.4665 10.6321 14.25 9.66558 14.25C9.12905 14.25 8.61598 14.0048 8.29171 13.6605C7.77658 13.1137 7.5 12.5 7.5 11.5052C7.5 9.75543 8.72825 8.18684 10.5153 7.4116ZM15.5153 7.4116L15.9616 8.1004C14.294 9.0027 14.3232 10.4519 14.3232 10.7645C14.4783 10.7431 14.6411 10.7403 14.8024 10.7553C15.7045 10.8389 16.4156 11.5795 16.4156 12.5C16.4156 13.4665 15.6321 14.25 14.6656 14.25C14.1291 14.25 13.616 14.0048 13.2917 13.6605C12.7766 13.1137 12.5 12.5 12.5 11.5052C12.5 9.75543 13.7283 8.18684 15.5153 7.4116Z"
     id="path1"
     style="fill:#000091;fill-opacity:1" />
</svg>
