<?xml version="1.0" encoding="UTF-8" standalone="no"?>
<svg
   viewBox="0 0 24 24"
   fill="currentColor"
   version="1.1"
   id="svg1"
   sodipodi:docname="quote-remix.svg"
   inkscape:version="1.3.1 (9b9bdc1480, 2023-11-25, custom)"
   xmlns:inkscape="http://www.inkscape.org/namespaces/inkscape"
   xmlns:sodipodi="http://sodipodi.sourceforge.net/DTD/sodipodi-0.dtd"
   xmlns="http://www.w3.org/2000/svg"
   xmlns:svg="http://www.w3.org/2000/svg">
  <defs
     id="defs1" />
  <sodipodi:namedview
     id="namedview1"
     pagecolor="#ffffff"
     bordercolor="#000000"
     borderopacity="0.25"
     inkscape:showpageshadow="2"
     inkscape:pageopacity="0.0"
     inkscape:pagecheckerboard="0"
     inkscape:deskcolor="#d1d1d1"
     inkscape:zoom="36.541667"
     inkscape:cx="11.986317"
     inkscape:cy="12.013683"
     inkscape:window-width="1920"
     inkscape:window-height="1055"
     inkscape:window-x="0"
     inkscape:window-y="0"
     inkscape:window-maximized="1"
     inkscape:current-layer="svg1" />
  <path
     d="M 3,3 C 2.4477,3 2,3.44772 2,4 v 14 c 0,0.5523 0.4477,1 1,1 H 17.545 L 22,22.5 V 4 C 22,3.44772 21.55228,3 21,3 Z M 4,5 H 20 V 18.385 L 18.23667,17 H 4 Z"
     id="path1"
     style="fill:#000091;fill-opacity:1"
     sodipodi:nodetypes="ssssccssscccccc" />
  <path
     d="m 10.195139,7.5451875 0.4463,0.6888 c -1.6675801,0.9023 -1.6384301,2.3515005 -1.6384301,2.6641005 0.1551,-0.0214 0.3179,-0.0242 0.47919,-0.0092 0.9021401,0.0836 1.6132401,0.8242 1.6132401,1.7447 0,0.9665 -0.7835,1.75 -1.7500201,1.75 -0.53653,0 -1.0496,-0.2452 -1.37387,-0.5895 -0.51513,-0.5468 -0.79171,-1.1605 -0.79171,-2.1553 0,-1.7497705 1.22825,-3.3183605 3.0153001,-4.0936005 z m 5,0 0.4463,0.6888 c -1.6676,0.9023 -1.6384,2.3515005 -1.6384,2.6641005 0.1551,-0.0214 0.3179,-0.0242 0.4792,-0.0092 0.9021,0.0836 1.6132,0.8242 1.6132,1.7447 0,0.9665 -0.7835,1.75 -1.75,1.75 -0.5365,0 -1.0496,-0.2452 -1.3739,-0.5895 -0.5151,-0.5468 -0.7917,-1.1605 -0.7917,-2.1553 0,-1.7497705 1.2283,-3.3183605 3.0153,-4.0936005 z"
     style="fill:#000091;fill-opacity:1"
     id="path1-5" />
</svg>
