<svg width="18" height="18" viewBox="0 0 18 18" fill="none" xmlns="http://www.w3.org/2000/svg">
<path d="M15 0C14.2044 0 13.4413 0.31607 12.8787 0.87868C12.3161 1.44129 12 2.20435 12 3C12.0013 3.21087 12.0249 3.42102 12.0703 3.62695L5.25879 7.03271C4.97785 6.70928 4.63091 6.44976 4.24128 6.27163C3.85166 6.09349 3.42841 6.00087 3 6C2.20435 6 1.44129 6.31607 0.87868 6.87868C0.31607 7.44129 0 8.20435 0 9C0 9.79565 0.31607 10.5587 0.87868 11.1213C1.44129 11.6839 2.20435 12 3 12C3.42854 11.9995 3.85201 11.9072 4.24189 11.7293C4.63178 11.5515 4.97902 11.2921 5.26025 10.9688L12.0674 14.373C12.023 14.5791 12.0004 14.7892 12 15C12 15.7956 12.3161 16.5587 12.8787 17.1213C13.4413 17.6839 14.2044 18 15 18C15.7956 18 16.5587 17.6839 17.1213 17.1213C17.6839 16.5587 18 15.7956 18 15C18 14.2044 17.6839 13.4413 17.1213 12.8787C16.5587 12.3161 15.7956 12 15 12C14.5715 12.0005 14.148 12.0928 13.7581 12.2707C13.3682 12.4485 13.021 12.7079 12.7397 13.0312L5.93262 9.62695C5.97704 9.42092 5.99963 9.21077 6 9C5.99856 8.78962 5.97499 8.57997 5.92969 8.37451L12.7412 4.96875C13.0223 5.29192 13.3693 5.55116 13.7589 5.72904C14.1485 5.90692 14.5717 5.99931 15 6C15.7956 6 16.5587 5.68393 17.1213 5.12132C17.6839 4.55871 18 3.79565 18 3C18 2.20435 17.6839 1.44129 17.1213 0.87868C16.5587 0.31607 15.7956 0 15 0Z" fill="#000091"/>
</svg>
