<svg xmlns="http://www.w3.org/2000/svg" fill="none" viewBox="0 6 39.2 39.36"><g><path d="M27.5494 17.7598C29.3038 17.9682 30.9714 17.1344 30.9193 15.1889C30.954 14.3204 31.1451 13.365 31.8052 12.705C32.4653 12.0796 33.6986 12.0796 34.3239 12.4792C33.5249 12.2186 32.5347 12.236 31.9615 12.8613C31.4057 13.4693 31.2493 14.3552 31.2667 15.2063C31.3014 16.0575 31.0583 17.1344 30.1897 17.6555C29.3907 18.1072 28.2269 18.1593 27.5494 17.7598Z" fill="#000091"></path><path d="M29.3907 20.1569C31.0236 20.8169 32.8475 20.4695 33.3165 18.5935C33.577 17.7598 34.0286 16.8912 34.8451 16.4396C35.6441 16.0227 36.8253 16.3354 37.329 16.8912C36.6342 16.4222 35.6615 16.179 34.9493 16.6133C34.2371 17.0476 33.8723 17.864 33.6465 18.6804C33.4554 19.5142 32.9169 20.4869 31.9616 20.7475C31.0757 20.9733 29.9466 20.7127 29.3907 20.1395V20.1569Z" fill="#000091"></path><path d="M30.6587 23.5094C31.9962 24.6558 33.8548 24.899 34.8797 23.2662C35.4008 22.5714 36.0783 21.8765 36.9989 21.7028C37.9021 21.5639 38.9096 22.2413 39.2049 22.9188C38.6838 22.2587 37.85 21.7202 37.0336 21.9113C36.2346 22.1024 35.6093 22.7624 35.1576 23.4572C34.706 24.1868 33.907 24.9337 32.8995 24.8816C31.9788 24.8121 31.0061 24.2042 30.6587 23.492V23.5094Z" fill="#000091"></path><path d="M30.7977 27.0877C31.701 28.5989 33.3859 29.4153 34.8798 28.182C35.592 27.6782 36.4605 27.244 37.3985 27.3656C38.3017 27.5045 39.0487 28.4773 39.1181 29.2242C38.8229 28.4425 38.2149 27.6609 37.3637 27.574C36.53 27.5045 35.7483 27.9388 35.0882 28.4599C34.4281 29.0158 33.4207 29.4674 32.5 29.1026C31.6489 28.7378 30.902 27.8693 30.7977 27.0877Z" fill="#000091"></path><path d="M29.8075 30.527C30.1897 32.2467 31.5272 33.5494 33.3337 32.8546C34.1675 32.5941 35.1403 32.4551 35.974 32.872C36.7731 33.2889 37.19 34.4527 37.0163 35.1649C36.9989 34.3311 36.6515 33.3931 35.8698 33.0457C35.1055 32.7157 34.2196 32.872 33.438 33.1673C32.6389 33.4973 31.5446 33.6015 30.7629 32.9588C30.0681 32.3509 29.6512 31.2739 29.7902 30.5096L29.8075 30.527Z" fill="#000091"></path><path d="M27.7753 33.4626C27.6016 35.217 28.4527 36.8672 30.3982 36.7977C31.2667 36.8151 32.2221 36.9888 32.8995 37.6488C33.5249 38.3089 33.5596 39.5248 33.1601 40.1676C33.4033 39.3685 33.3685 38.3784 32.7432 37.8052C32.1179 37.2493 31.232 37.1277 30.3982 37.1451C29.547 37.1972 28.4701 36.954 27.9316 36.1029C27.4626 35.3038 27.3931 34.1574 27.7926 33.48L27.7753 33.4626Z" fill="#000091"></path><path d="M24.9265 35.6165C24.1969 37.2146 24.4922 39.0732 26.3509 39.5943C27.1673 39.8896 28.0358 40.3586 28.4527 41.1924C28.8522 42.0088 28.4874 43.19 27.9142 43.659C28.4006 42.9642 28.6785 42.0262 28.2616 41.2793C27.8447 40.5671 27.0457 40.1502 26.2466 39.907C25.4129 39.6812 24.4749 39.1253 24.2317 38.1526C24.0406 37.2493 24.3359 36.1376 24.9265 35.6165Z" fill="#000091"></path><path d="M21.5393 36.7803C20.3407 38.0831 20.0454 39.9244 21.6435 41.0187C22.321 41.5572 22.9984 42.2694 23.1374 43.19C23.259 44.0933 22.5468 45.0834 21.852 45.3613C22.5294 44.8576 23.1026 44.0585 22.9289 43.2247C22.7552 42.4083 22.1299 41.7656 21.4351 41.2966C20.7229 40.8276 19.9933 39.9939 20.0802 38.9864C20.1844 38.0831 20.8271 37.1104 21.5393 36.7977V36.7803Z" fill="#000091"></path><path d="M17.961 36.7977C16.415 37.6488 15.5465 39.299 16.7277 40.845C17.2141 41.5746 17.6136 42.4604 17.4573 43.3811C17.2835 44.267 16.2934 44.9965 15.5465 45.0313C16.3455 44.7707 17.1446 44.1801 17.2488 43.3463C17.353 42.5299 16.9535 41.7135 16.4498 41.0361C15.9113 40.3586 15.4944 39.3338 15.8939 38.4131C16.2761 37.5794 17.1967 36.8672 17.961 36.7977Z" fill="#000091"></path><path d="M14.5564 35.686C12.8193 36.016 11.4818 37.3014 12.1071 39.1427C12.333 39.9765 12.4372 40.9492 12.0029 41.783C11.5513 42.5647 10.3875 42.9468 9.67529 42.7557C10.5091 42.7557 11.4644 42.4431 11.8292 41.6962C12.1766 40.9492 12.055 40.046 11.7945 39.2469C11.4992 38.4479 11.4297 37.3362 12.0898 36.5893C12.7151 35.9292 13.8094 35.5297 14.5737 35.7034L14.5564 35.686Z" fill="#000091"></path><path d="M11.6729 33.5494C9.93583 33.3063 8.23353 34.1053 8.2509 36.0508C8.19879 36.9193 7.99034 37.8747 7.3129 38.5174C6.63545 39.1253 5.41952 39.108 4.79419 38.6911C5.59323 38.969 6.58334 38.969 7.17393 38.361C7.74716 37.7531 7.90349 36.8672 7.92086 36.0334C7.88612 35.1823 8.18142 34.1053 9.04993 33.6016C9.84897 33.1673 11.0128 33.1326 11.6902 33.5494H11.6729Z" fill="#000091"></path><path d="M9.62315 30.6312C8.04245 29.8495 6.18382 30.0754 5.59322 31.934C5.26319 32.7504 4.77681 33.5842 3.92567 33.9837C3.09189 34.3485 1.92807 33.949 1.47644 33.3584C2.15389 33.8621 3.09189 34.1748 3.83881 33.7926C4.56837 33.4105 5.00263 32.6114 5.28056 31.8124C5.52374 30.996 6.1317 30.058 7.10445 29.8669C8.00771 29.7106 9.11941 30.0406 9.62315 30.6486V30.6312Z" fill="#000091"></path><path d="M8.58097 27.2092C7.33031 25.9759 5.48904 25.6112 4.3426 27.1745C3.78674 27.8346 3.03982 28.4773 2.11919 28.5989C1.21593 28.6857 0.243185 27.9388 0 27.2266C0.469001 27.9214 1.26804 28.512 2.10182 28.3731C2.91823 28.2341 3.5783 27.6261 4.08204 26.9487C4.56841 26.2365 5.43693 25.5591 6.42705 25.6807C7.33031 25.8196 8.28568 26.4797 8.5636 27.2092H8.58097Z" fill="#000091"></path><path d="M8.68525 23.6309C7.88621 22.0676 6.2534 21.1296 4.69006 22.2587C3.94313 22.7103 3.03987 23.0925 2.13661 22.9014C1.25072 22.6929 0.555908 21.6855 0.555908 20.9385C0.781723 21.7549 1.35495 22.554 2.18872 22.6929C3.00513 22.8145 3.82154 22.4498 4.51636 21.9634C5.21117 21.4596 6.23603 21.0775 7.15666 21.4944C7.97306 21.9113 8.65051 22.8493 8.70262 23.6309H8.68525Z" fill="#000091"></path><path d="M9.91851 20.2611C9.65795 18.5241 8.40728 17.1344 6.54865 17.6903C5.6975 17.8813 4.72476 17.9682 3.90835 17.4992C3.12668 17.0302 2.79665 15.849 3.02246 15.1368C2.98772 15.9706 3.26565 16.926 4.01257 17.3255C4.7595 17.7076 5.64539 17.6034 6.4618 17.3776C7.27821 17.1171 8.37254 17.0823 9.1021 17.7598C9.7448 18.4025 10.1096 19.5142 9.90114 20.2785L9.91851 20.2611Z" fill="#000091"></path><path d="M12.142 17.4645C12.4373 15.7274 11.6903 14.0078 9.76222 13.973C8.8937 13.8862 7.9557 13.6603 7.33036 12.9482C6.73977 12.2533 6.79188 11.0374 7.24351 10.4295C6.94822 11.2111 6.91348 12.2012 7.50407 12.8092C8.07729 13.3998 8.96318 13.5909 9.79696 13.6256C10.6481 13.6256 11.7077 13.9383 12.1941 14.8242C12.611 15.6406 12.5936 16.8044 12.1593 17.4645H12.142Z" fill="#000091"></path><path d="M15.1296 15.5016C15.9634 13.9556 15.7897 12.0796 13.9658 11.4369C13.1668 11.0895 12.3504 10.5684 11.9682 9.69989C11.6382 8.84875 12.0724 7.71967 12.6804 7.26804C12.1419 7.92811 11.8119 8.84875 12.1767 9.61304C12.5414 10.36 13.3231 10.8116 14.1048 11.1069C14.9212 11.3848 15.8244 12.0102 15.9982 13.0003C16.1197 13.9035 15.755 14.9979 15.1296 15.4842V15.5016Z" fill="#000091"></path><path d="M18.5863 14.581C19.8543 13.365 20.2886 11.5585 18.7774 10.36C18.1347 9.76938 17.5093 9.02245 17.4398 8.08445C17.3877 7.18119 18.1694 6.22582 18.8816 6C18.1694 6.45163 17.5441 7.21593 17.6483 8.06708C17.7525 8.88349 18.3431 9.5783 19.0032 10.0994C19.698 10.6205 20.3407 11.5064 20.2017 12.4965C20.0454 13.3998 19.3332 14.3204 18.6037 14.581H18.5863Z" fill="#000091"></path><path d="M22.1647 14.8068C23.7627 14.0599 24.7355 12.4618 23.6759 10.8463C23.2416 10.082 22.8942 9.17878 23.12 8.25815C23.3632 7.38963 24.3881 6.72956 25.135 6.74693C24.3186 6.95537 23.4848 7.49386 23.3285 8.31026C23.1722 9.12667 23.5196 9.96045 23.9712 10.6726C24.4576 11.3848 24.805 12.427 24.3533 13.3129C23.9191 14.112 22.9637 14.772 22.1647 14.7894V14.8068Z" fill="#000091"></path><path d="M25.4824 16.1443C27.2368 15.9359 28.6612 14.7373 28.1575 12.8613C27.9838 12.0102 27.949 11.0374 28.4528 10.2384C28.9565 9.47408 30.1377 9.17878 30.8499 9.43934C30.0161 9.36986 29.0607 9.63041 28.6265 10.36C28.2269 11.0895 28.2964 11.9928 28.4875 12.7918C28.7307 13.6082 28.7307 14.7199 28.0185 15.4321C27.3411 16.0575 26.2293 16.3701 25.4824 16.1443Z" fill="#000091"></path></g></svg>