<?xml version="1.0" encoding="iso-8859-1"?>
<!-- Uploaded to: SVG Repo, www.svgrepo.com, Generator: SVG Repo Mixer Tools -->
<svg fill="#000000" height="800px" width="800px" version="1.1" id="Layer_1" xmlns="http://www.w3.org/2000/svg" xmlns:xlink="http://www.w3.org/1999/xlink" 
	 viewBox="0 0 512.011 512.011" xml:space="preserve">
<g>
	<g>
		<g>
			<path d="M503.602,307.211h-28.6c-15-31.7-35.7-50.6-63-57.7l14.5-50.9c1-3.4-0.3-7-3.1-9.2c-2.8-2.1-6.7-2.3-9.7-0.4l-62.9,39.3
				c-41.1-33.4-106.7-40.6-155.5-40.6c-37.7,0-72.9,7.5-102.7,20.5l-15.4,7.4c-1.3,0.7-2.7,1.5-4,2.2c-1.2-9.7-5.6-19-11.9-25.9
				c-13.2-14.5-31.9-17.4-47.7-7.3c-7.4,4.7-12.3,12.4-13,20.4c-0.9,9.6,4.4,18.8,12.7,22.5c6.3,2.7,13.7,2.3,22.3-1.2
				c3.8-1.6,5.6-6,4.1-9.8c-1.6-3.8-6-5.6-9.8-4.1c-3.2,1.3-7.6,2.6-10.5,1.3c-2.4-1.1-4.1-4.3-3.8-7.4c0.3-3.4,2.7-6.9,6.1-9.1
				c14.3-9.1,25.5,1.3,28.6,4.7c6,6.6,9.6,16.3,7.8,25.3c-35.8,24.9-58,59.2-58,97.1c0,28.2,8.8,52.6,26.3,72.3l25.1,108.8
				c0.9,3.9,4.3,6.6,8.3,6.6h76.8c4.7,0,8.5-3.8,8.5-8.5v-30.7c36.5,11.6,74.6,13.5,115.8,5.9l22.4,29.9c1.6,2.2,4.1,3.4,6.8,3.4
				h59.7c4.7,0,8.5-3.8,8.5-8.5v-43.7c89.8-12.6,153.9-58.2,153.6-109.9v-34.1C512.102,311.011,508.302,307.211,503.602,307.211z
				 M272.602,246.011c-1.3,3.4-4.5,5.5-8,5.5c-1,0-2-0.2-3-0.5c-42.5-16-82.3-16-121.8-0.1c-4.4,1.8-9.3-0.3-11.1-4.7
				c-1.8-4.4,0.4-9.3,4.7-11.1c43.6-17.6,87.5-17.6,134.2-0.1C272.002,236.711,274.302,241.611,272.602,246.011z M416.502,303.811
				c-1.7,2.2-4.2,3.4-6.8,3.4c-1.8,0-3.6-0.6-5.1-1.7c-3.8-2.8-4.6-8.2-1.7-12c2.8-3.8,8.1-4.6,11.9-1.7l0.1,0.1
				C418.602,294.711,419.402,300.011,416.502,303.811z"/>
			<path d="M181.902,169.511c58.3,9.7,108.3-40.3,98.6-98.6c-5.8-35.4-34.3-63.9-69.6-69.7c-58.3-9.7-108.3,40.3-98.6,98.6
				C118.102,135.111,146.602,163.611,181.902,169.511z M145.202,76.711h5.9c2,0,3.6-1.4,4.1-3.4c5.4-22.5,25.6-39.3,49.7-39.3
				c4.7,0,8.5,3.8,8.5,8.5s-3.8,8.5-8.5,8.5c-13.6,0-25.3,8-30.7,19.6c-1.3,2.8,0.8,6,3.9,6h9.7v0.2c4.7,0,8.5,3.8,8.5,8.5
				s-3.8,8.5-8.5,8.5h-9.7c-3.1,0-5.3,3.2-3.9,6c5.5,11.5,17.1,19.6,30.7,19.6c4.7,0,8.5,3.8,8.5,8.5c0,4.7-3.8,8.5-8.5,8.5
				c-24.1,0-44.4-16.8-49.7-39.3c-0.5-1.9-2.1-3.4-4.1-3.4h-5.9c-4.7,0-8.5-3.8-8.5-8.5
				C136.702,80.511,140.502,76.711,145.202,76.711z"/>
		</g>
	</g>
</g>
</svg>