<svg width="37" height="49" viewBox="0 0 37 49" fill="none" xmlns="http://www.w3.org/2000/svg">
<path d="M0.5 17.819V44.9992C0.5 46.6561 1.84315 47.9992 3.5 47.9992H33C34.6569 47.9992 36 46.6561 36 44.9992V17.7939C36 16.9676 35.6592 16.1779 35.058 15.6111L20.5293 1.91277C19.3854 0.834294 17.603 0.821776 16.4441 1.88408L1.47284 15.6075C0.852946 16.1757 0.5 16.978 0.5 17.819Z" stroke="#000091" stroke-opacity="0.2"/>
<path d="M14.9768 11.8118C14.0751 11.2936 12.7857 11.0195 11.74 11.0195C10.6946 11.0195 9.92496 11.2936 9.02276 11.812C7.17078 12.8775 6.02002 14.8652 6.02002 16.9995C6.02002 19.1209 7.16012 21.1023 8.9952 22.1709C9.9039 22.7 10.9431 22.9795 12 22.9795C13.0548 22.9795 14.092 22.7011 14.9994 22.1738C16.8378 21.1062 17.98 19.1235 17.98 16.9995C17.98 14.8652 16.8293 12.8775 14.9768 11.8118ZM11.48 16.9995C11.48 16.7128 11.7132 16.4795 12 16.4795C12.2868 16.4795 12.52 16.7128 12.52 16.9995C12.52 17.2863 12.2868 17.5195 12 17.5195C11.7132 17.5195 11.48 17.2863 11.48 16.9995ZM14.3101 12.0536L12.2587 15.9959C12.1755 15.9746 12.0897 15.9595 12 15.9595C11.9085 15.9595 11.8214 15.9751 11.7369 15.9975L9.68992 12.0536C10.4099 11.7176 11.199 11.5395 12 11.5395C12.8011 11.5395 13.5904 11.7176 14.3101 12.0536ZM6.54886 17.2595H10.9969C11.044 17.4405 11.1353 17.604 11.2634 17.7327L8.93436 21.5176C7.52022 20.555 6.63128 18.9703 6.54886 17.2595ZM15.0654 21.5176L12.7324 17.7369C12.8627 17.6074 12.9555 17.4426 13.0031 17.2598H17.4512C17.3688 18.9709 16.4798 20.555 15.0654 21.5176Z" fill="#D10101"/>
<rect x="20.5" y="33.4995" width="12" height="11" rx="1.5" stroke="#000091" stroke-opacity="0.2"/>
<path d="M24 35C23.6667 35.5 23 36.7 23 37.5C23 38.5 24 38.5 24 40C24 41.2 23.3333 42.1667 23 42.5" stroke="#000091" stroke-opacity="0.2"/>
<path d="M27 35C26.6667 35.5 26 36.7 26 37.5C26 38.5 27 38.5 27 40C27 41.2 26.3333 42.1667 26 42.5" stroke="#000091" stroke-opacity="0.2"/>
<path d="M30 35C29.6667 35.5 29 36.7 29 37.5C29 38.5 30 38.5 30 40C30 41.2 29.3333 42.1667 29 42.5" stroke="#000091" stroke-opacity="0.2"/>
</svg>
