<svg xmlns="http://www.w3.org/2000/svg" fill="none" viewBox="31.97 42.16 59.04 57.44">
<g>
<path d="M36.9982 67.9793C37.3411 67.6428 37.3411 67.0923 36.9982 66.7559L34.5046 64.3091C33.472 63.296 33.472 61.652 34.5046 60.6389C35.5371 59.6258 37.2125 59.6258 38.245 60.6389L51.9601 74.0963C52.3029 74.4327 52.864 74.4327 53.2069 74.0963C53.5498 73.7598 53.5498 73.2093 53.2069 72.8729L39.4919 59.4155C37.7697 57.7257 34.9799 57.7257 33.2577 59.4155C31.5356 61.1053 31.5356 63.8427 33.2577 65.5325L35.7514 67.9793C36.0943 68.3157 36.6553 68.3157 36.9982 67.9793ZM49.4664 50.8517C49.8093 50.5153 49.8093 49.9648 49.4664 49.6283L47.2845 47.4874C45.3909 45.6293 42.3206 45.6293 40.427 47.4874C38.5334 49.3454 38.5334 52.358 40.427 54.2161L52.3428 65.8326C52.6857 66.169 53.2468 66.169 53.5896 65.8326C53.9325 65.4961 53.9325 64.9456 53.5896 64.6092L41.6738 52.9927C40.4698 51.8113 40.4698 49.8921 41.6738 48.7108C42.8778 47.5294 44.8337 47.5294 46.0377 48.7108L48.2196 50.8517C48.5625 51.1882 49.1235 51.1882 49.4664 50.8517Z" fill="#616161" fill-opacity="0.49"/>
</g>
<path d="M86.7695 81.1584C86.4806 81.4419 86.4806 81.9059 86.7695 82.1894L88.8709 84.2513C89.741 85.105 89.741 86.4904 88.8709 87.3441C88.0008 88.1979 86.5889 88.1979 85.7188 87.3441L77.8887 79.7317C77.5998 79.4482 77.127 79.4482 76.838 79.7317C76.5491 80.0152 76.5491 80.4791 76.838 80.7627L84.6681 88.3751C86.1194 89.7991 88.4703 89.7991 89.9216 88.3751C91.3728 86.9511 91.3728 84.6443 89.9216 83.2203L87.8202 81.1584C87.5312 80.8749 87.0584 80.8749 86.7695 81.1584ZM76.2626 95.5917C75.9736 95.8752 75.9736 96.3392 76.2626 96.6227L78.1013 98.4269C79.697 99.9926 82.2844 99.9926 83.8801 98.4268C85.4758 96.8611 85.4758 94.3224 83.8801 92.7566L70.4838 79.612C70.1948 79.3285 69.722 79.3285 69.4331 79.612C69.1442 79.8955 69.1442 80.3594 69.4331 80.643L82.8294 93.7876C83.844 94.7831 83.844 96.4004 82.8294 97.3959C81.8148 98.3914 80.1666 98.3914 79.152 97.3959L77.3133 95.5917C77.0243 95.3082 76.5515 95.3082 76.2626 95.5917Z" fill="#000091"/>
<path d="M70.3299 73.5481C72.3092 75.0284 74.3909 76.3324 76.575 77.3898C78.1619 78.1652 79.8511 78.8349 81.6257 78.8349C83.7244 78.8349 85.8914 77.8304 87.5466 76.121C89.2017 74.3939 90.362 71.9796 90.6862 69.4772C90.8568 66.9572 90.1913 64.49 88.8604 62.6749C87.5466 60.8774 85.5843 59.7672 83.5026 59.6614C81.7281 59.5557 79.9364 60.1372 78.196 60.8245C75.7048 61.8114 73.2818 63.045 70.9271 64.49C72.3775 66.1642 72.7699 68.9133 71.7291 71.3805C71.3708 72.2264 70.8759 72.9665 70.3129 73.5481H70.3299Z" fill="#E8EDFF" stroke="#010202" stroke-width="0.25" stroke-linejoin="round"/>
<path d="M65.9105 69.7063C66.593 70.3936 67.2926 71.0633 68.0263 71.6977C68.7771 72.3497 69.5279 72.9841 70.3299 73.5657" fill="#E8EDFF"/>
<path d="M65.9105 69.7063C66.593 70.3936 67.2926 71.0633 68.0263 71.6977C68.7771 72.3497 69.5279 72.9841 70.3299 73.5657" stroke="#010202" stroke-width="0.25" stroke-linejoin="round"/>
<path d="M70.9271 64.5076C70.0398 65.0539 69.1525 65.6531 68.2823 66.2523C67.7704 66.6047 67.2756 66.9748 66.7808 67.3625C66.5419 67.5387 66.303 67.715 66.0812 67.9088" fill="#E8EDFF"/>
<path d="M70.9271 64.5076C70.0398 65.0539 69.1525 65.6531 68.2823 66.2523C67.7704 66.6047 67.2756 66.9748 66.7808 67.3625C66.5419 67.5387 66.303 67.715 66.0812 67.9088" stroke="#010202" stroke-width="0.25" stroke-linejoin="round"/>
<path d="M51.1851 91.3998C52.8061 92.8272 54.939 93.4264 57.0548 93.0387C59.1536 92.6686 61.2011 91.3117 62.6515 89.338C63.88 87.6638 64.6649 85.6372 65.3304 83.593C66.2347 80.8262 66.9514 77.989 67.4803 75.1341C66.576 75.2927 65.6546 75.187 64.8014 74.764C62.9757 73.8476 61.9519 71.6977 62.0202 69.4067C59.5801 70.6227 57.2254 72.0501 54.9731 73.7243C53.3862 74.8874 51.8335 76.1738 50.6732 77.9009C49.3082 79.9451 48.5574 82.5532 48.6598 85.038C48.7622 87.5052 49.6836 89.849 51.1851 91.4174V91.3998Z" fill="#E8EDFF" stroke="#010202" stroke-width="0.25" stroke-linejoin="round"/>
<path d="M67.2585 67.2039C67.1049 67.2568 66.9513 67.3096 66.7807 67.3801C66.0641 67.6445 65.3304 67.9264 64.6137 68.226C63.7435 68.5961 62.8733 68.9838 62.0031 69.4244" fill="#E8EDFF"/>
<path d="M67.2585 67.2039C67.1049 67.2568 66.9513 67.3096 66.7807 67.3801C66.0641 67.6445 65.3304 67.9264 64.6137 68.226C63.7435 68.5961 62.8733 68.9838 62.0031 69.4244" stroke="#010202" stroke-width="0.25" stroke-linejoin="round"/>
<path d="M67.4803 75.1341C67.7022 73.9886 67.8728 72.8432 68.0264 71.6801C68.1799 70.5346 68.2994 69.4067 68.3847 68.2613" fill="#E8EDFF"/>
<path d="M67.4803 75.1341C67.7022 73.9886 67.8728 72.8432 68.0264 71.6801C68.1799 70.5346 68.2994 69.4067 68.3847 68.2613" stroke="#010202" stroke-width="0.25" stroke-linejoin="round"/>
<path d="M52.8572 56.7361C53.5739 58.5864 54.8024 60.0491 56.0822 61.3884C58.0785 63.4679 60.2456 65.3183 62.5661 66.9043C62.5661 66.8691 62.6003 66.8338 62.6003 66.7986C63.7605 64.0318 66.32 62.5339 68.6406 63.0978C68.9307 59.679 68.9307 56.2779 68.6747 52.9296C68.5211 50.8501 68.2481 48.7354 67.4291 46.9379C66.4736 44.8231 64.7843 43.2371 62.805 42.6027C60.8257 41.9683 58.5734 42.3031 56.6282 43.4838C54.7512 44.8584 53.2838 47.0436 52.5842 49.4755C51.8847 51.9075 51.987 54.5509 52.8402 56.7361H52.8572Z" fill="#E8EDFF" stroke="#010202" stroke-width="0.25" stroke-linejoin="round"/>
<path d="M66.6101 69.301C65.9446 68.9662 65.2792 68.5961 64.6308 68.2084C63.9312 67.8031 63.2487 67.3449 62.5662 66.8867" fill="#E8EDFF"/>
<path d="M66.6101 69.301C65.9446 68.9662 65.2792 68.5961 64.6308 68.2084C63.9312 67.8031 63.2487 67.3449 62.5662 66.8867" stroke="#010202" stroke-width="0.25" stroke-linejoin="round"/>
<path d="M68.6407 63.0802C68.5554 64.1376 68.4359 65.1949 68.2994 66.2523C68.197 66.9572 68.0947 67.6797 67.9752 68.3846" fill="#E8EDFF"/>
<path d="M68.6407 63.0802C68.5554 64.1376 68.4359 65.1949 68.2994 66.2523C68.197 66.9572 68.0947 67.6797 67.9752 68.3846" stroke="#010202" stroke-width="0.25" stroke-linejoin="round"/>
<path d="M64.8014 74.764C65.6545 75.2046 66.5759 75.3103 67.4803 75.1341C68.5041 74.9402 69.5108 74.3939 70.3298 73.5481C70.91 72.9665 71.3877 72.2264 71.746 71.3805C72.7869 68.9133 72.3944 66.1642 70.9441 64.49C70.5516 64.0494 70.0909 63.6794 69.562 63.3974C69.2719 63.2388 68.9648 63.1331 68.6576 63.0626C66.3371 62.4987 63.7776 64.0142 62.6173 66.7633C62.6173 66.7986 62.5832 66.8338 62.5832 66.8691C62.2419 67.6973 62.0713 68.5432 62.0372 69.3891C61.9518 71.6801 62.9756 73.83 64.8184 74.7464L64.8014 74.764Z" fill="#000091" stroke="#010202" stroke-width="0.25" stroke-linejoin="round"/>
<path d="M72.0304 70.6071C72.9881 67.3372 71.5927 64.008 68.9137 63.1711C66.2348 62.3341 63.2867 64.3064 62.329 67.5763C61.3713 70.8461 62.7667 74.1754 65.4456 75.0123C68.1246 75.8492 71.0727 73.8769 72.0304 70.6071Z" fill="#000091" stroke="#010202" stroke-width="0.25" stroke-linejoin="round"/>
</svg>