<svg xmlns="http://www.w3.org/2000/svg" width="122.0" height="58.0" viewBox="0.0 0.0 122.0 58.0" fill="none">
<g clip-path="url(#clip0_11264_103)">
<mask id="mask0_11264_103" style="mask-type:luminance" maskUnits="userSpaceOnUse" x="0" y="0" width="122" height="58">
<path d="M122 0H0V58H122V0Z" fill="white" />
</mask>
<g mask="url(#mask0_11264_103)">
<path d="M80.7937 45.2377V42.4492H93.3521V45.2377H88.6264V57.5799H85.5194V45.2377H80.7937Z" fill="#000091" />
<path d="M64.0488 57.5799V42.4492H67.9958L74.7837 53.3864V42.4492H77.8633V57.5799H73.916L67.1281 46.6427V57.5799H64.0488Z" fill="#000091" />
<path d="M46.4668 57.5799L52.0446 42.4492H55.9592L61.537 57.5799H58.3589L56.9485 53.6458H51.0553L49.6449 57.5799H46.4668ZM51.9811 51.0305H56.0223L54.0019 45.3457L51.9811 51.0305Z" fill="#000091" />
<path d="M39.1494 55.1294C40.9068 55.1294 42.2906 54.2876 43.1693 53.0578L45.6295 54.9138C44.2236 56.7915 41.939 58 39.1494 58C34.2947 58 30.9778 54.3311 30.9778 50.0143C30.9778 45.6979 34.2947 42.029 39.1494 42.029C41.939 42.029 44.2236 43.2592 45.6295 45.0938L43.1693 46.9712C42.2906 45.741 40.9068 44.8992 39.1494 44.8992C36.2497 44.8992 34.1849 47.1223 34.1849 50.0143C34.1849 52.9067 36.2497 55.1294 39.1494 55.1294Z" fill="#000091" />
<path d="M14.6516 57.5799L20.3842 42.4492H24.4079L30.1405 57.5799H26.874L25.4246 53.6458H19.3675L17.9181 57.5799H14.6516ZM20.3194 51.0305H24.4728L22.3961 45.3457L20.3194 51.0305Z" fill="#000091" />
<path d="M0 42.4492H3.26652L7.74445 54.2728L12.2224 42.4492H15.4889L9.75628 57.5799H5.73263L0 42.4492Z" fill="#000091" />
<path d="M109.678 26.3246V23.5363H121.818V26.3246H117.25V38.6665H114.247V26.3246H109.678Z" fill="#000091" />
<path d="M92.9336 38.6665V23.5363H96.8805L103.668 34.4734V23.5363H106.748V38.6665H102.801L96.0129 27.7295V38.6665H92.9336Z" fill="#000091" />
<path d="M80.3748 38.6665V23.5363H89.166V26.0868H83.4346V29.6749H88.304V32.2254H83.4346V36.1161H89.166V38.6665H80.3748Z" fill="#000091" />
<path d="M61.1187 38.6665V23.5363H64.8444L68.4444 29.891L72.0439 23.5363H75.7701V38.6665H72.7809V27.816L69.4967 33.4791H67.3916L64.1078 27.816V38.6665H61.1187Z" fill="#000091" />
<path d="M48.5598 38.6665V23.5363H57.351V26.0868H51.6193V29.6749H56.4891V32.2254H51.6193V36.1161H57.351V38.6665H48.5598Z" fill="#000091" />
<path d="M38.2875 35.7962C39.6953 35.7962 40.9107 35.2998 41.764 34.4797V31.8466H37.9677V29.2351H44.7923V35.5804C43.4062 37.4581 41.0814 38.6666 38.2875 38.6666C33.4463 38.6666 30.1406 34.9977 30.1406 30.6812C30.1406 26.3647 33.361 22.6957 38.0743 22.6957C40.783 22.6957 43.0007 23.9259 44.3659 25.7604L41.9772 27.638C41.1239 26.4078 39.7804 25.5661 38.0743 25.5661C35.2591 25.5661 33.2544 27.7891 33.2544 30.6812C33.2544 33.5732 35.3658 35.7962 38.2875 35.7962Z" fill="#000091" />
<path d="M19.6859 22.6957C24.3961 22.6957 27.6289 26.3647 27.6289 30.6812C27.6289 34.9977 24.3961 38.6666 19.6859 38.6666C14.9543 38.6666 11.7214 34.9977 11.7214 30.6812C11.7214 26.3647 14.9543 22.6957 19.6859 22.6957ZM19.6859 35.7962C22.4906 35.7962 24.5031 33.5732 24.5031 30.6812C24.5031 27.7891 22.4906 25.5661 19.6859 25.5661C16.8598 25.5661 14.8473 27.7891 14.8473 30.6812C14.8473 33.5732 16.8598 35.7962 19.6859 35.7962Z" fill="#000091" />
<path d="M2.09302 38.6665V23.5363H5.15265V35.8784H10.884V38.6665H2.09302Z" fill="#000091" />
<path d="M51.5008 3.78259C56.2159 3.78259 59.4441 7.45162 59.4441 11.7681C59.4441 16.0846 56.2159 19.7536 51.5008 19.7536C46.7649 19.7536 43.5366 16.0846 43.5366 11.7681C43.5366 7.45162 46.7649 3.78259 51.5008 3.78259ZM51.5008 16.1493C53.8584 16.1493 55.5576 14.2933 55.5576 11.7681C55.5576 9.22138 53.8584 7.38687 51.5008 7.38687C49.1224 7.38687 47.4231 9.24294 47.4231 11.7681C47.4231 14.3148 49.1224 16.1493 51.5008 16.1493Z" fill="#4B9F6C" />
<path d="M30.1406 19.3333V4.20288H35.1897C38.7132 4.20288 40.8834 5.95368 40.8834 8.91492C40.8834 10.7522 40.024 12.1355 38.5201 12.9137L43.1177 19.3333H38.649L34.8674 13.6054H33.965V19.3333H30.1406ZM35.426 7.38025H33.965V10.428H35.426C36.3929 10.428 36.9515 9.80114 36.9515 8.87169C36.9515 8.00711 36.3929 7.38025 35.426 7.38025Z" fill="#4B9F6C" />
<path d="M23.4097 2.9162H19.9561L22.3651 0H26.2024L23.4097 2.9162ZM17.1633 19.3333V4.21229H26.373V7.38771H20.9581V10.0447H25.5202V13.2201H20.9581V16.1579H26.373V19.3333H17.1633Z" fill="#4B9F6C" />
<path d="M1.25586 19.3333V15.8533L8.82103 7.68288H1.47017V4.20288H13.6001V7.68288L6.05642 15.8533H13.8144V19.3333H1.25586Z" fill="#4B9F6C" />
</g>
</g>
<defs>
<clipPath id="clip0_11264_103">
<rect width="122" height="58" fill="white" />
</clipPath>
</defs>
</svg>