<svg xmlns="http://www.w3.org/2000/svg" width="962" height="962" fill="none"><path fill="#18294F" d="M884.274 693v-52.442h16.544v4.266c3.226-3.018 7.284-5.307 12.694-5.307 1.873 0 3.538.312 4.787.729v16.336c-1.769-.416-3.746-.729-6.452-.729-6.035 0-9.989 3.538-11.029 5.307V693zm-48.715-52.442h9.78v-4.786c0-11.134 7.492-20.811 21.851-20.811 4.787 0 8.949 1.041 12.695 2.81l-6.972 13.838c-1.144-.936-3.017-1.872-5.41-1.872-3.434 0-5.515 2.289-5.515 5.514v5.307h14.359v14.775h-14.359V693h-16.649v-37.667h-9.78zm-14.519 53.795c-6.035 0-11.029-4.995-11.029-10.926 0-5.827 4.994-10.821 11.029-10.821 5.827 0 10.926 4.994 10.926 10.821 0 5.931-5.099 10.926-10.926 10.926m-66.288-53.795h17.689l11.237 32.568 11.134-32.568h17.689L794.5 693h-21.747zm-22.933 29.655v-29.655h16.648v28.718c0 15.712-9.364 25.805-25.492 25.805-16.337 0-25.389-10.093-25.389-25.805v-28.718h16.648v29.655c0 5.514 2.706 9.364 8.845 9.364 5.931 0 8.74-3.85 8.74-9.364M659.3 638.477c17.169 0 28.926 12.278 28.926 28.302s-11.757 28.302-28.926 28.302c-17.273 0-29.03-12.278-29.03-28.302s11.757-28.302 29.03-28.302m.104 41.1c6.659 0 11.758-5.098 11.758-12.798 0-7.908-5.099-12.798-11.758-12.798-6.867 0-11.966 4.994-11.966 12.798s5.099 12.798 11.966 12.798m-86.07 22.371c0-5.098 2.498-9.26 6.868-12.486-1.873-2.289-2.914-4.994-2.914-7.596 0-4.266 1.457-7.595 5.411-10.613-4.578-3.434-6.971-8.532-6.971-14.359 0-10.405 7.804-18.417 21.538-18.417 4.267 0 8.012.728 11.03 2.081h18.833v13.839h-8.22c.104.832.104 1.665.104 2.497 0 10.509-7.7 18.521-21.747 18.521-1.04 0-1.977 0-2.913-.104-.624.624-.937 1.353-.937 2.081 0 1.873 1.145 2.497 2.81 2.497h11.966c12.694 0 20.394 7.492 20.394 17.481 0 12.07-11.134 21.643-27.886 21.643-17.689 0-27.366-5.619-27.366-17.065m24.036-38.603c4.058 0 6.972-2.185 6.972-6.451s-2.914-6.347-6.972-6.347-6.867 2.185-6.867 6.347c0 4.266 2.809 6.451 6.867 6.451m-8.636 36.106c0 4.058 3.434 6.555 11.758 6.555 8.428 0 11.862-2.913 11.862-6.867 0-3.122-2.081-5.203-6.243-5.203h-14.359c-1.977 1.249-3.018 3.018-3.018 5.515m-31.583-5.098c-6.035 0-11.029-4.995-11.029-10.926 0-5.827 4.994-10.821 11.029-10.821 5.827 0 10.926 4.994 10.926 10.821 0 5.931-5.099 10.926-10.926 10.926m209.404-86.792c-10.613 0-18.001-6.139-18.001-16.336 0-8.012 6.14-14.151 17.585-16.024l14.776-2.498c-.104-3.954-3.538-6.971-8.429-6.971-4.37 0-7.595 2.081-9.989 5.515l-12.07-9.157c4.787-6.659 12.799-10.613 22.58-10.613 16.648 0 24.348 9.989 24.348 21.434V606h-16.44v-3.954c-2.914 3.226-8.845 5.515-14.36 5.515m-1.664-17.169c0 2.706 2.081 4.37 5.306 4.37 5.307 0 8.637-2.497 10.718-5.618v-5.203l-10.302 1.769c-4.266.728-5.722 2.289-5.722 4.682m-55.002-4.786v-17.273h-9.781v-14.775h9.781v-13.111h16.649v13.111h14.359v14.775h-14.359v17.273c0 4.162 2.185 6.451 6.555 6.451 3.85 0 6.347-.52 7.908-1.145v14.255c-2.81 1.249-6.035 1.873-10.926 1.873-14.255 0-20.186-8.532-20.186-21.434m-14.062 11.966c-4.994 6.555-13.215 10.509-23.308 10.509-19.249 0-29.446-13.006-29.446-28.302 0-15.192 9.468-28.302 27.261-28.302 14.88 0 24.661 9.885 24.661 24.14 0 3.538-.521 6.867-1.041 8.74h-33.921c1.561 7.076 6.139 8.949 12.382 8.949 4.995 0 9.365-1.977 11.758-4.995zm-25.909-32.777c-5.307 0-8.532 2.602-9.781 7.908h18.834c-.208-3.537-2.914-7.908-9.053-7.908m-34.569 14.984c0 15.296-9.677 28.302-26.429 28.302-6.451 0-11.029-1.769-14.567-4.994V606h-16.544v-78.039h16.544v28.51c3.538-3.225 8.116-4.994 14.567-4.994 16.752 0 26.429 13.006 26.429 28.302m-28.822-12.798c-5.307 0-9.365 2.289-12.174 6.139v13.318c3.121 3.954 7.075 6.139 12.174 6.139 7.284 0 11.758-5.098 11.758-12.798s-4.474-12.798-11.758-12.798m-49.376 40.372c-6.035 0-11.029-4.995-11.029-10.926 0-5.827 4.994-10.821 11.029-10.821 5.827 0 10.926 4.994 10.926 10.821 0 5.931-5.099 10.926-10.926 10.926"/><path fill="#00A081" d="M157.5 506.6c4.1-4.7 7.9-7.5 10.3-10.9-1.5 1.6-3.8 3.8-5.9 5.9s-4 4-4.4 5m-73 73.7c-7.9 9.1-15.3 17.3-19.9 23.4-.4.2.2-.8 1.4-2.4s3-3.7 4.9-6c1.9-2.2 3.9-4.4 5.6-6.3 1.6-1.8 2.9-3.2 3.3-3.6 1.5-1.7 3.1-3.4 4.7-5.1m71 73c-.8 2.9-1.6 5.9-2.6 9s-1.9 6.1-3 9.4c-2.3 6.5-5.1 13.7-9.6 21.2-2.2 3.8-4.8 7.6-8 11.3-.8.9-1.6 1.8-2.5 2.8l-1.4 1.4-1.4 1.3c-1.9 1.8-4 3.4-6.1 4.9-4.3 3-9.2 5.7-14.6 7.6s-11.5 3.1-17.9 3c-6.4 0-13.1-1.5-19.1-4.2s-11.2-6.4-15.4-10.7c-4.2-4.2-7.5-8.9-10.1-13.8s-4.5-10.1-5.7-15.4c-.3-1.3-.6-2.7-.8-4-.2-1.4-.4-2.7-.5-4.1l-.1-2.1c0-.7-.1-1.4-.1-2v-3.8c.2-5.1.9-9.9 2-14.5 2.2-9.1 5.7-17 9.5-23.8-.3 1.2-1.9 4.2-3.7 8.2s-3.8 9-5 13.7c-1.1 4-1.9 8.2-2.3 12.6-.2 2.2-.3 4.4-.3 6.7v1.7l.1 1.8c.1 1.2.1 2.4.3 3.6.6 4.8 1.8 9.4 3.4 13.8.8 2.2 1.8 4.4 2.8 6.5 1.1 2.1 2.3 4.2 3.7 6.2 2.7 4 6 7.9 10 11.3s8.6 6.3 13.8 8.4c1.3.5 2.6 1 4 1.4s2.7.7 4.1 1c2.8.6 5.5.9 8.3 1 5.5.2 10.8-.6 15.6-2 9.7-2.8 17.6-7.8 24.1-13.9 3.4-3.1 6.1-6.3 8.5-9.6s4.5-6.6 6.2-9.9c3.6-6.6 6-12.9 8.1-18.8 1.1-2.9 1.9-5.8 2.9-8.6 1.2-2.9 2-5.8 2.8-8.6M39.8 685.1c-1-4.7-1.8-9.7-1.9-15.9 0-5.8.6-12.6 2.7-20.4.5-1.2.5-1.3.4-.6-.1.3-.2.9-.4 1.5q-.3 1.05-.6 2.4c-.2.9-.4 1.8-.6 2.8s-.4 2-.5 3c-.3 2-.5 3.7-.5 4.8-.1 1.3-.2 2.5-.2 3.8v2.8c0 .3 0 .7.1 1 .1 1.3.2 2.6.3 3.8.2 1.2.3 2.4.5 3.5.8 4.5 1.9 8.1 2.5 10.4-.6-.5-1.3-2.1-1.8-2.9m134.8-155.6c-.2-3.7.3-10.3.3-14.7.7 3.1 0 11-.3 14.7m-52.4 183.1c.4-.7 1.4-1.7 1.5-1.8 0-.1-.8.7-4.6 3.3-.6.2 2.5-1.8 5.8-4.7.8-.7 1.7-1.5 2.5-2.3s1.7-1.7 2.4-2.5 1.4-1.5 2-2.2 1.1-1.3 1.5-1.9c-.3.6-.6 1.3-1.7 2.6.3 0 2-2.1 3.1-3.5-.8 1.4-2.9 4-5.4 6.6-2.7 2.7-5.6 5-7.1 6.4m13.6-179.9c1.1-1.6 3.8-4.3 6.7-7.3 3.6-3.2-5.7 5.8-2 2.6-.3 1.1-2.6 2.2-4.7 4.7m52.8-57.9c.3-.7 1.3-2.2 2.5-3.8s2.6-3.4 3.4-4.7c-.2.7-1.2 2.2-2.4 3.8-1.2 1.7-2.6 3.5-3.5 4.7m13.8-20.3c2.5-2.7-2.8 5.8-5 8.9.3-.6.6-1.3 1.1-2.1.4-.8.9-1.7 1.4-2.6 1-1.7 2-3.3 2.5-4.2m43.3-2.2c2.1-4.6 1 .9 1.6.7-2.8 5.2.2-2.3-1.6-.7M91 642.9c-.1.4-.4.9-.8 1.6s-.9 1.4-1.4 2.2c-1 1.6-2 3.3-2.6 4.5.7-2.6 2.4-4.9 4.8-8.3m27.4-23.5c-.1-1.2.8-4.8 1.7-9.1.5-2.1.9-4.4 1.4-6.5.4-2.2.8-4.2 1-6-.1 3.1-.5 6.3-1.3 9.7-.4 1.7-.8 3.6-1.3 5.5-.4 2-.9 4.1-1.5 6.4m6.3-36.2c-.1-.9.1-2.9.4-5.2.3-2.2.6-4.7.7-6.5.2.6.1 2.9-.2 5.4-.2 2.4-.6 5-.9 6.3m3.6-41.8c.2 1.1-.3 11.4-.9 10.8.7-3.3.4-8 .9-10.8m58.9-70.2c.6-1.5 3.5-3.8 5.2-6.3.1 1.1-3.5 4-3.4 5.1-1.8 2.1.6-2-1.8 1.2m-113.2 8c-1.1.3-2.7 1.3-4.5 2.3-1.9 1-3.8 2.1-5.5 2.9.8-.8 1.7-1.5 2.8-2.4 1-.8 2.3-1.6 3.4-2.6 2.4-1.9 5.1-3.8 7.8-5.7 2.6-2.1 5.2-4.2 7.5-6.3 1.2-1 2.1-2.1 3.1-3.1.9-1 1.7-2 2.4-2.9 3.4-2.9 6.6-6.4 10-9.9.9-.9 1.6-1.8 2.5-2.8.8-1 1.6-1.9 2.4-2.9 1.6-1.9 3.3-3.8 4.7-5.8 1.5-2 2.9-4 4.3-5.9 1.4-2 2.6-4 3.8-5.9.6-1 1.2-1.9 1.8-2.8.3-.5.6-.9.8-1.4s.5-.9.7-1.4c.9-1.8 1.8-3.6 2.7-5.2-.3-.4-1.9 3-2.7 4.3 1.2-2.1 2.5-4.3 3.7-6.5.7-1.1 1.2-2.2 1.8-3.4.6-1.1 1.2-2.3 1.7-3.4.6-1.1 1.2-2.3 1.8-3.4s1.1-2.4 1.6-3.5c1.1-2.4 2.1-4.8 3.2-7.2 3.9-9.8 7.3-20.2 9.8-31l38.6 7.5c-3.2 15.9-5.5 32.8-6.8 50-.7 8.3.1-5.4.3-5.4-.7.1-1.1 13.4-.9 10.8-.3 5.8-.9 15.2-1.3 24.2s-.8 17.6-1 21.8c.4.5.4-1.6.5-3.3-.5 21.6-1.1 49.3-2.7 76.8-.8 13.7-2 27.4-3.4 40.1s-3.1 24.4-4.7 34.2l-.4-.1c-.9 8.7-4.1 20.3-6.6 28.8 1.8-7.8 4.6-19.3 6.8-31.6 2.3-12.2 4-25.1 4.9-35.4-1.2 8.6-2.6 18.8-4.4 28.5-.4 2.4-.9 4.8-1.3 7.1-.2 1.2-.4 2.3-.7 3.4-.2 1.1-.5 2.2-.7 3.3-.5 2.2-.9 4.2-1.4 6.2-.5 1.9-1 3.8-1.4 5.4 2.5-11.6 5-24.5 7-38-.8 4.3-1.7 8.8-2.6 13.5s-1.8 9.7-2.9 14.7c-2.1 10.1-4.7 20.7-8.1 31.2.8-2 1.9-5.3 2.9-8.9.9-3.6 2-7.4 2.8-10.4-.1 2.6-.9 5.8-1.7 9.1-.4 1.6-.9 3.3-1.5 4.8-.5 1.6-1 3.1-1.4 4.5-.5 1.6-1 3.3-1.6 4.9l-1.7 4.9c-1.1 3.2-2.4 6.5-3.8 10-2.8 6.8-6.3 14-11.3 20.9-1.2 1.7-2.6 3.4-4 5.1-.8.8-1.5 1.7-2.3 2.5s-1.6 1.7-2.5 2.5c-3.4 3.2-7.2 6-11.3 8.4-4.2 2.4-8.7 4.3-13.7 5.6s-10.4 1.8-15.9 1.4-11.1-2-16.1-4.4-9.4-5.6-13-9.2-6.6-7.6-9-11.7c-2.4-4.2-4.3-8.6-5.6-13.1-1.3-4.6-2.1-9.3-2.3-14.2-.1-4.6.2-9 1-13.3 1.4-8.6 4.4-16.4 7.9-23.4 1.9-3.8 3.6-7.3 5.8-10.8 1.6-2.6 3.4-5.2 5.1-7.6 1.7-2.3 3.3-4.7 5.1-6.9q5.25-6.75 10.8-13.2c7.4-8.5 15.1-16.6 22.9-24.4 15.6-15.6 31.2-30.1 45.2-44.2-.2-.1-1.1.8-1.7 1.4 7.1-7.5 17.9-17.8 23.7-25.4-1.1.3-6 7.4-6.9 6.8 1.2-1.1 3.1-3.1 5.1-5.5 2-2.3 4.4-4.9 6.4-7.2-.4-.8-1.5 1.6-3 3.1 1.1-1.7 2.3-3.3 3.7-5s3-3.6 4.6-6c0-.5-.8.4-1.7 1.4.3-1.2 2.9-3.4 4.1-4.8-.7 1.3-1.4 2.6-2.5 4.3-.5.8-1.2 1.7-2 2.7s-1.8 2.1-2.9 3.4c1.8-1.6 3.6-3.2 5.5-5.2 1-1 2-2.1 3.2-3.4 1.1-1.3 2.3-2.8 3.6-4.4-2.9 5.3-11.3 14.2-21.2 25.2.5-.2.9-.4 1.8-1.3.1.5-2.1 1.9-3.1 3-1.6 1.7-1.2 2-.8 2.2 7.5-7.7 13.2-14.7 18.5-21.4 2.6-3.3 5-6.6 7.6-9.8 2.4-3.3 5-6.5 7.5-9.8-.6 1.2-1.3 2.4-2.3 3.8-1.1 1.4-2.4 3.2-4.2 5.6.3 0 1.3-1.4 2.1-2.4-2.2 3.2-4.8 6.5-7.5 10-1.4 1.7-2.9 3.5-4.4 5.3s-3.1 3.6-4.7 5.4c2.3-2.3 4.6-4.7 6.8-7.3 2.3-2.5 4.4-5.1 6.4-7.6s3.8-5 5.4-7.2 2.9-4.2 3.9-5.9c-.3 0-1.2 1.4-2 2.4.8-2.1 2.5-4.3 4.1-6.6 1.7-2.2 3.6-4.3 4.9-6 0 .2-.8 1.5-1.9 3s-2.4 3.3-3.3 4.8c1.5-1.5 2.8-2.8 4.4-5.8-.5 1.7 1.3-.7 3.6-4 1.2-1.6 2.2-3.6 3.3-5.3.5-.9 1-1.7 1.4-2.4s.7-1.4.9-1.9c-.2-.4-.6.3-1 1.2-.4.8-1 1.8-1.5 2.1.4.1-.1.9-1 2.4-.4.7-1 1.6-1.6 2.5s-1.3 2-2 3.1c-.6.2.5-1.4 1.3-2.8-.2-.1-.8 1-1.3 1.6.5-.7.9-1.5 1.4-2.2.4-.7.9-1.5 1.3-2.2.8-1.4 1.6-2.7 2.4-4 1.4-2.5 2.7-4.8 3.7-6.5-1.5 2.7-.8 2.5-.5 3.1 2-2.6 3.9-5.9 5.7-8.3 1.7-2.5 3.2-4.2 4.2-3.9-.7.9-1.3 1.7-1.9 2.5l-.9 1.2c-.3.4-.7.8-1 1.3-.7.9-1.4 1.9-2.1 3.2s-1.5 2.8-2.5 4.7c.1.6 1 .1 2.2-1.2.3-.3.6-.7 1-1.1.3-.4.6-.9 1-1.4.7-1 1.4-2.2 2-3.6.5-.4-2.6 5.1-.5 2 .1.1-.3 1-.9 2l-.9 1.5c-.3.5-.6.9-.7 1.2 1.5-3.5-.9.1-2.6 3.3.7-.6 1.2-1 1.9-1.7.4-.4.7-.9 1.2-1.5s.9-1.5 1.4-2.6c-1 3.1.7.6.3 2.5-2.1 3.4-2.7 2.2-4.8 5.8-.6 1.6.4.4 1.2-.8.9-1.2 1.7-2.2 1.1-.3.1-.4 3.2-4.6 2.4-4.7 0 .8.4 1 1.3.2.8-.7 1.9-2.4 3.4-5 .9-.6.7 2.8 1.5-.5.7-1.3.8-.6.4.5-.4 1.2-1.1 2.9-1.7 3.6.9-1.1 1.7-1.8 2.6-2.6s1.7-1.7 2.7-3.3c.1.2 0 .7-.2 1.4-.1.4-.3.8-.4 1.2-.2.5-.5 1-.7 1.5.6.1 1 .1 1.4-.2s.9-.9 1.6-2.1c-.7 1.6-1 2.5-1.3 3.4s-.7 1.9-1.6 3.7c1.6-1.6 2-2.3 3.7-5.6-.8 2.3-.2 1.7.5.7.7-1.1 1.7-2.6 1.7-2.1q.75-2.25 1.5-4.2c.6-1.3 1-2.7 1.7-4.1.5-.8 0 .5-.7 2.2-.2.4-.3.9-.5 1.3s-.3.8-.5 1.2c-.3.8-.5 1.4-.4 1.7.4-.5 1.1-1.8 1.6-3.1s1.1-2.6 1.5-2.9c-.1.8-.6 2.2-.9 3.4-.4 1.2-.7 2.2-.3 2.2 1-1.5 1.8-2.4 2.6-3.1s1.5-1.1 2.2-1.7 1.5-1.4 2.3-2.7c.9-1.3 1.7-3.3 2.7-6.2.4-.4.8 0 1.8-2-.7 1.4-2.1 6.3-2.3 7.9.5 0 1.2-1.4 2.1-4.3.1 1.5-1.4 4.3-1.9 5.6-1 3.9-.7 4-.5 4.9-.4 1-.7 2.1-1.1 3-.4 1-.8 1.9-1.1 2.8-.7 1.8-1.3 3.5-1.9 5q-1.8 4.5-2.1 7.2c.4.4 1.7-2.4 3.1-5.1.6-1.4.2-1.2-.4-.2.1-.4.4-1 .8-1.7s.8-1.4 1.2-2c.8-1.2 1.6-1.8 1.1-.1 1.5-4.1 2.2-4.1 3.5-7.7.4.2.1.8-.5 2-.6 1.1-1.5 2.6-2.1 4.8 2.9-6.2.2.9-.5 3.7.6-.1 2.3-4 1.5-.7 1-1.1 1.5-4.9 2.2-4.4-.7 2-1.3 3.6-2 5.2-.6 1.5-1.4 2.9-2 4.2-.7 1.3-1.3 2.6-2 4l-2.2 4.4c1.2-1.2 2.4-3.2-.2 1.2-.1.4-.2 2.3 1.4-.6-.1.8-.9 2.5-1.9 4.5.9-.9 2.8-4.6 3.1-3.9-2.2 4.7-3.8 6.6-5.3 8.7-.8 1-1.5 2.1-2.4 3.4s-2 3-3.3 5.3c-.6.1 1.7-3 1.4-3.4-1.8 3.1-3.3 5.8-4.7 8.2-1.4 2.5-2.6 4.8-3.9 7-2.6 4.6-5.4 9.2-10.1 15.2.2-1-1.7 1.2-3.3 3.6-1.7 2.3-3.2 4.7-2.1 4.2-1.4 1.6-2.6 2.9-3.6 4s-1.9 2-2.6 2.8c-1.5 1.6-2.5 2.7-3.5 3.8-2.1 2.2-4.2 4.8-10.4 11.8 1.9-1.3 4.6-3.6 8.4-7.9-1.3 3.3-8.8 10.4-14.6 16.3 2.4-3 .3-.9-2.7 2.2.2.1 1.1-.9 1.7-1.5-9.4 10-19.8 20.1-30.4 30.3-10.6 10.3-21.6 20.8-31.8 31.6-.4 0 .5-1 .3-1.2-4.6 4.5-8 8.5-8.9 9.7-.9 1.3.6-.2 6.2-6.4-.2.5-7.6 8.8-10.2 12.2 2.2-2.9-.7-.2-2.1.9-.6 1.4-1.8 3-3.4 4.9-1.5 1.9-3.4 4-5.5 6.6.5-1.7 2.4-3 3.5-5.1-.8.6-2 2.1-3.3 3.8-1.2 1.7-2.4 3.4-3 4.3.3 0 1.2-1.4 2-2.3.1.2-.5 1.1-1.3 2.1s-1.8 2.2-2.2 2.9c0-.2.4-.9.2-1-3.1 4.2-4.8 7.1-6.2 9.9-1.4 2.7-2.5 5.3-3.6 8.7-.2 1 .3-.2.6.2-.4.7-.6 1.3-.7 1.8s-.1.9-.2 1.3c-.1.8-.1 1.7-.5 3.3-.4-.9-.1-2 .6-5.2-.8 2.4-1.4 5.1-1.4 7.6-.1.7 0 1.1 0 1.6s.2.9.2 1.4c.1.5.3.9.4 1.3.2.4.4.8.5 1.1.1-.5-.2-1.3-.3-2.1-.2-.9-.3-1.7-.1-2.2.3.8.6 2.3 1 3.8.4 1.6 1.1 3.1 1.8 4.1-1-.5-.5-.1 0 .6l.9.9c.3.2.4.5.2.7.7.4-.1-.5.7-.2.9.9 1.6 1.2 2 1.2s.7.1 1.7.1c-.2.3-.5.3-.7.3h-.3c-.1 0-.2 0-.3.1.4.3.8.3 1.4 0 .7-.2 1.5-.6 3.3-1.2-1.4.1-2.5.9-2.9.4.3-.4.9-.5 1.8-.9-.1.2-.3.4-.1.7.7-.3 1.5-.6 2.2-1.1.7-.4 1.4-1 2.1-1.5s1.3-1.2 1.8-1.7c.6-.7 1.3-1.4 1.8-2.2 2.4-3.2 4.4-7.2 6.3-12 1-2.4 1.9-4.9 2.8-7.7s1.9-5.7 2.8-8.8c.4-1.5.9-3.1 1.4-4.7.2-.8.5-1.6.7-2.5.2-.8.4-1.7.7-2.6.5-1.7.9-3.5 1.4-5.4.4-1.9.9-3.8 1.4-5.8.2.1-.2 1.3-.3 2.1 2.2-6.9 3.9-14.3 5.4-21.9 1.4-7.7 2.5-15.6 3.4-23.8.8-8.2 1.5-16.5 2-24.9.5-8.5 1-17 1.5-25.4-.3.9-.5 2.7-.7 5.4-.3-6.9 1-13.7 1.2-20.8-1.2 5.3.9-5-.5-1.1.2-5.2.4-10.3.6-15.5.3.9.3 2.8.2 5.6 1-20.7 1.5-44 2.9-66.9.7-11.4 1.6-22.8 2.8-33.6s2.7-21 4.4-30.3c-.2 0-.4 1.4-.6 2.3.5-3.5 1.2-7.4 2-11.7l46.3 9c-.8 3.4-1.7 7.1-2.7 10.9-.3.9-.5 1.9-.8 2.8s-.6 1.9-.9 2.8c-.6 1.9-1.3 3.8-1.9 5.8-1.2 3.9-2.9 7.8-4.4 11.7l-1.2 2.9-.6 1.5c-.2.5-.4 1-.7 1.4l-2.7 5.7c-7.2 15.1-15.9 28.7-22.4 38.3-1 1.5-1.5 2.5-2 3.5-.5.9-1 1.8-1.9 2.8.1.3.4 0 1.1-.7-.6 1.3-1.5 2-2.6 3-.6.5-1.1 1.1-1.8 1.8-.6.7-1.2 1.7-1.9 2.8-1.2 1.1 5-7.4 6.8-10.3-1.4 1.6-2.8 3.3-4.2 5s-2.8 3.4-4.3 5.1-3 3.4-4.6 5.1c-1.5 1.7-3 3.5-4.7 5.1-6.4 6.8-13.1 13.5-20.1 19.7 2.4-2.5.8-1.4-2 .9-1.4 1.1-3 2.5-4.6 3.8s-3.2 2.4-4.3 3.3c-.7.3 1.5-1.3 3.8-3.2 2.3-2 4.9-4.2 5.4-4.9-3.4 2.3-17.2 12.9-20.5 15.4-1.2.7-.7.2-.1-.2-.1-.1-1.3.7-2.2 1.2-.4-.2 3.6-2.4 5-3.5-.1-.5-3.7 2.3-5.2 3.2 2.4-1.9 1.6-1.7-.3-.6-1 .5-2.2 1.3-3.5 2.1-.6.4-1.3.8-1.9 1.2-.7.4-1.3.8-1.9 1.1s2.1-1.4 3.9-3c1.8-1.5 3-2.7-.5-.7 2.9-2.3 5.7-4.5 6.3-5.7-1.6.1-5.9 2.6-5.3.7-1.2.6-3.1 2-5.5 3.6-2.4 1.5-5.1 3.2-7.7 4.5.8-.8 3.4-2.4 4.9-3.4-2.9.8-8.5 3.3-5.2.5-.3 0-2.1 1-2.2.8-2.8 1.4-1.8 1.5-2.8 2.2-1.2.3-.7-.3.8-1.4s4-2.7 6.8-4.2c-.6-.1-1.8.3-3.4 1.1-.8.4-1.8.9-2.8 1.5-.5.3-1 .6-1.6.9l-1.8.9c-1.7.6-.6.1 1.2-.8 1.7-.9 4-2.2 4.8-2.7-.8.2-2.3 1.1-4 2-1.6.8-3.4 1.7-4.4 2 .1-.3 1.4-.9 2.9-1.7.8-.3 1.6-.8 2.3-1.2s1.4-.8 1.9-1.1c1.4-1.1 4.5-3.7-.5-.9-.1-.4 3.2-2 2.7-2.2-4.5 2.2 2.7-2.2-3.3 1.2.2-.4 2.4-1.6 3.9-2.4.4-1-1.1-.3-3.2.7-2.1 1.1-4.6 2.6-6.4 3.2.6-.7 5.6-3.1 7.9-4.6 3.5-2.3-.6-.6 2.4-2.7-.8-.1-1.4 1.1-3 1.5.9-.8 1.3-1.4 2.5-2.3-3.3 1.2-12.8 6.7-1.3.1-1.1.4-2.8 1.2-4.7 2.2s-3.8 2.1-5.4 2.7c1.3-.8 3.6-2.1 6-3.3 2.4-1.3 5-2.5 6.8-3.6 3.5-2.7 1.7-2.2 2.7-4.1-.7.3-1.5.8-2.5 1.4l-1.5.9c-.5.3-1 .6-1.6.9-2.1 1.3-4 2.6-4.8 3.2l.5.9c-2.5 1.2-2.1.2-.6-1-.2-.1-1.3.5-2.4 1.1-.6.3-1.1.6-1.6.9-.5.2-.9.4-1.1.4 1.3-.4 2.6-1.4 3.9-2.3 1.2-1 2.3-2.1 3-3 1.4-1.9 1.5-3.4-1.2-2.6-.8.2-2.2 1.1-3.7 2s-3 1.9-3.9 2c-.7.3 5.9-3.7 7.5-4.4-.1-.7-1.3-.3-3.2.5s-4.3 2.3-6.9 3.4c-.1-.5 2.3-1.5 4.6-2.8-.7-.7-8.5 3.6-12.8 5.3 3-1.5 7.4-3.6 10.9-5.6 3.4-2.2 5.9-4 5.4-4.6-1.8.9.8-.8.9-.5 2.7-1.6 3.4-2.5 3.8-3.2s.4-1.1 1.5-2.2c-3.1.6-2.7-.7-.8-2.8.9-1 2.2-2.2 3.6-3.5.7-.6 1.4-1.3 2-2 1.5-.4 2.2-1.1 2.8-1.8m131.1-21.9c1.9-2.4 3.3-4.4 4.8-6.5 1.3-2.1 2.7-4.3 4.5-7.1-.8.5-2.7 3.1-4.4 6-.9 1.4-1.9 2.9-2.8 4.3-.9 1.3-1.6 2.5-2.1 3.3m-162.6 192c1.3-4.7 2.7-8.1 4.1-11.1 1.3-3 2.6-5.7 4-8.7-1.3 2.1-3.4 6.1-5.1 10.2-1.7 4.2-2.8 8.3-3 9.6m91.6-112.1c2.5-2.3 2.7-3 4.6-4.8 11.2-11.3 1-1.1-3.4 2.8.8-1.1 3-3.1 5.1-5.1s4.1-4.1 4.6-5.4c-8.9 9.2-12.8 12.4-16.7 17.6-2.2 1.5-6.4 5.6-8.8 8.6 7.3-6.3 14.3-14.8 14.6-13.7M46.2 693.6c-2.3-3.9-3.8-8.7-4.7-13-.9-4.2-1.1-7.9-1.6-9.6.1 1 .1 2 .3 3.2.1 1.1.3 2.3.5 3.5.4 2.4.9 4.8 1.6 7 .2.6.3 1.1.5 1.6l.6 1.5c.4 1 .7 1.9 1.1 2.7.6 1.6 1.3 2.7 1.7 3.1m127.3-200.2c-.4 4.9-.5 11.7-.4 16.8.5-4.9.5-12.3.4-16.8m-1.2 31.4c-.2 6.6-.6 9.1-.2 12.5.2-4.3.5-13.4.2-12.5m-38-123.9c.5-.7 1.4-2.7 2.5-5.2 1-2.5 2-5.7 3.1-8.8.3-.8.5-1.6.8-2.3.2-.8.4-1.6.6-2.3.4-1.5.8-2.9 1.1-4.1.7-2.5 1.2-4.3 1.4-4.9-.2.6-.5 1.5-.9 2.6-.3 1-.7 2.3-1.1 3.6s-.8 2.8-1.2 4.3c-.2.8-.4 1.5-.7 2.2-.3.8-.5 1.5-.8 2.3-.5 1.5-1 3-1.5 4.4s-.9 2.7-1.4 3.8c-.7 2.2-1.5 3.9-1.9 4.4m76.8 50.3c-.4.7-1 1.8-.9 1.9.4-.8.7-1.4 1.1-1.9.3-.5.6-.9.9-1.3.6-.7 1-1.2 1.1-2.2-.8 1.2-2.5 2.3-2.9 4.3.3-.5.6-1 .7-.8m26.7-3.7c.8-1.8 1.5-3.6 2.2-5.4-.2-.8-3.2 6-3.1 6.3.5-.8.8-1.2.9-.9m2.3-2.9c.9-2.6 1.8-5.1 1.5-5.7-1.5 3.5-1.9 5.3-1.5 5.7m2.1-4.2c.4.2-1 3.1-.2 2.5.6-1.4.7-.9 1.3-2 .9-4.5-.4-.2-1.1-.5M106.7 662.5c-.3 1.1-1.3 3.1-2.3 4.7-.9 1.7-1.8 3.2-1.9 4.1 2.6-3.3 3.8-6.1 4.2-8.8m-17.3 18.7c.6.2 1.3.1 2-.1s1.2-.5 1.8-.8l-1.2.3c-.4.1-.8.2-1.1.3-.7.1-1.2.3-1.5.3m27.8-53.5c-2.5 10.2-5.3 18.8-8.1 26.8-2.8 7.8-5.6 14.1-8.8 18.7-.5.7-1.1 1.3-1.6 1.9l-.8.8c-.2.3-.5.5-.8.7-.8.7-3.7 2.8-1.5 1.4.7-.5 1.5-1 2.1-1.7l.5-.5.5-.5.5-.6.5-.7c1.4-1.8 2.7-4 4-6.4 2.5-4.8 4.5-10.6 6.5-15-.2.7-.7 2-1.1 3s-.7 1.8-.4 1.8c1.1-2.9 2-6 2.9-8.7s1.7-5.3 2.4-7.7c.3-1.2.7-2.4 1-3.5.3-1.2.5-2.3.8-3.4.6-2.3 1.1-4.4 1.4-6.4m58.2-128.6c.5-2.3-.1-9.1.6-12.3.4-.2 0 3.9 0 5.6.8-1.8.3-8.1 1-12.2.1 7.7-.3 14.2-.3 25.7-.7-.2.2-8.3-.2-10.1-.8 4.3-.7 7.9-1.1 3.3m-36 192.9c.3-1.4 2.9-5.9 5.1-10.5s4.1-9.3 4.5-11.4c.6-.1-.6 3.5-2.7 8.2-2 4.5-5 10.2-6.9 13.7m41.5-285.9c-.6 6.6-1.6 18.6-2.2 32-.7 13.4-1.1 28.1-1.3 39.9-.6-2.1.1-10 0-14.4-1 3.6-.3 11.1-1 16.6.4-18.9.9-36.5 2.1-53.7.6-8.6 1.4-17.1 2.5-25.6.5-4.3 1.2-8.4 1.8-12.7.7-4.2 1.4-8.5 2.3-12.7.2-1.3.3-2.6.6-4.2l-41.2-8c-.7 3.2-1.5 7.1-2.5 11.3-.6 2.1-1.3 4.2-2 6.5-.3 1.1-.7 2.3-1.1 3.4s-.9 2.3-1.3 3.4c-.9 2.3-1.7 4.7-2.7 7s-2.1 4.7-3.1 7c-1 2.4-2.2 4.6-3.4 6.9-.6 1.1-1.2 2.2-1.7 3.4-.3.6-.6 1.1-.8 1.7-.3.5-.6 1.1-.9 1.6-1 1.2 5.3-9.9 5.6-11.7-2.8 5.1-5 10-7.8 14.8-2.5 4.9-5.6 9.5-9.2 14.6 1.1 0 4.3-5.6 6.2-7.9-1.4 2.5-3 4.9-4.7 7.4-1.8 2.4-3.7 4.7-5.5 7-.5.6-.9 1.1-1.4 1.7s-1 1.1-1.5 1.6c-1 1.1-1.9 2.1-2.9 3.1-.9 1-1.8 2.1-2.7 3.1-.8 1-1.8 1.9-2.6 2.9 8.3-9.8 17.9-22.6 26.3-37.8 8.3-15.2 15.1-32.9 18.9-50.9l42.7 8.3c-2.4 12.7-4.2 25.5-5.4 38-.5-.6-.2-2.4-.1-3.6m-2.7 32.3c-.7 4.8-.8 13.6-.8 18.6.5-5.4 1.1-14.6.8-18.6m222.6 21.9c.1-.1 0 .1.1.2 0 .2.1.3.1 0 0 0-.1-.3 0-.4-.1-.1 0-.1-.2.2m-4.2-33.5c-.2-6.2.7-11.8 1.1-15.6.5-.3.1 2.4-.2 5.3-.2 1.5-.4 3-.5 4.2s-.2 2.2-.2 2.5c0 1.2-.2 2.4-.2 3.6m-45.5-5.1c1.4-8.9 2.9-19.3 4.9-30.8 1-5.7 2.2-11.7 3.6-17.9s3.2-12.6 5.5-19.2l42.6 16.1c-3.4 9.6-5.9 19.2-7.5 28.1-.4-1.2.8-6 1.8-9.7 1.5-6.3 3.4-12.6 5.4-18.5L365.5 354c-2.3 6.5-4 12.8-5.4 18.9-1.4 6-2.5 11.9-3.5 17.5-2 11.1-3.6 21.7-5.5 31.3m54.4-46.7c-1.7 3-2.9 6.6-4.6 12.9-.5 1-.2 0 .1-1.4.4-1.4 1-3.2 1.2-4.1.5-1.9 1-3.7 1.5-5.3s1-2.8 1.4-3.6c.2.5.2 1.1.4 1.5m-77.9 99.5c0 .2-.1.3-.3.4-.5.2-1 .5-1.5.7-.1.1-.3.1-.4.2l-.2.1c-.1.1-.2.1-.3.2 0-.1.1-.2.1-.3l.1-.1.1-.1.2-.1c.5-.3 1.1-.6 1.6-.8l.2-.1h.2c0-.1.1-.1.2-.1m29.8-86.5c.5.7.1 2.5.9-1.3.4-.4-.9 6-1.3 8.4-.1-.3-.2-.7-.1-1.5-.2.1-.4 1.2-.6 2-.2-1.4 1.1-5.9 1.1-7.6m40.4 72.5c.1.2.3.3.5.6.1.1.1.1.1 0 .1.1.2.2.2.4-.1.5-.3-.5-.4 0-.3.1-.2 0-.2-.1h.1v-.1l-.1-.3c0-.2-.1-.3-.2-.5m8.5.2c.1-.3.7-.8 1.4-1.3s1.5-1.1 2-1.6c-.2.8-2.5 2.1-3.4 2.9m8.3-7.7c.9-.5.5.3-.3 1.3-.4.5-.9 1-1.4 1.5s-1 .9-1.3 1.3c.5-1.1 2.3-3.3 3-4.1m37.9 11.1c1.8-2.9.9.9 1.5.9-2.4 3.3.2-1.6-1.5-.9m-97.4-69.7c-.2-1.4 1.1-5.7 1.5-8.2 0 2.4-.8 4.8-1.5 8.2m36 51.7c.1.9-.7 3.5-1.6 6.6-.5 1.5-1.1 3.2-1.6 4.7-.5 1.6-1.1 3-1.4 4.3.6-4.7 2.6-9 4.6-15.6m-8.7 26.2c-.1.7-.7 2.2-1.4 3.8-.8 1.6-1.7 3.4-2.3 4.7 0-.5.7-2.3 1.5-4 .8-1.8 1.7-3.7 2.2-4.5m-17.9 29.5c.2-.5 1.8-2.4 3.2-4.2.7-.9 1.4-1.7 1.9-2.3s.9-.9.9-.7c-2 2-4 5.6-6 7.2m40.5-44.3c.3-.6 1.9-.7 3-1.6.2.8-2 1.1-1.8 1.8-1.1.5.1-1-1.2-.2m-43.8-66.9c0 .5.2.9.5 1.2l.3.6c0 .1.1.2.1.3s0 .1.1.2.1.2.2.3c-.1 0-.2-.1-.3-.1h-.2c-.1 0-.2 0-.4-.1-.2 0-.4-.1-.7-.2-.4-.2-.8-.5-1.3-.7-.9-.4-2.2-.3-2.5.8-.3.1-.6.1-.9.3-.1.1-.3.1-.5.2s-.4.2-.6.4c-.7.6-1.7 1.2-2.5 2.1-.9.7-1.8 1.7-2.7 2.6-3.7 3.9-7.1 8.5-9.4 12.3.3.3 1.4-1.7 2-2.3-.8 1-1.5 2-2.3 3.1-.4.5-.8 1.1-1.2 1.6l-.6.8-.1.2-.1.1-.2.3c-1 1.4-2.2 3.5-3.4 5.6-2.4 4.3-4.7 9.4-6.8 14.6-2.1 5.3-4 10.8-5.4 16.4-1.5 5.6-2.6 11.3-2.9 16.6-.2 2.1-.2 1.4-.2.2s.2-3 .3-3c-.3 0-.5 1.8-.6 3.3 0 1.5.1 2.8.1 2.2v3.7c.1.5.2 1.1.3 1.6.3 1.1.9 2 1.3 2.3.3-.4.1-.5 0-.6.5.3 1.1.6 1.8.6s1.3-.1 2-.3c.2-.1.3-.1.5-.2l.2-.1.4-.2.5-.2 1.1-.5.9-.4.2-.1c.1 0 .2-.1.2-.1l.1-.1.1-.1c.3-.2.5-.4.7-.7l1.4-1.4 1.4-1.6c3.7-4.3 6.8-9.8 9.2-15.6 2.4-5.7 4.1-11.6 5.2-16.7l.4.1c.5-4.6 2.5-10.8 3.5-15.6-.5 4.4-1.9 10.7-3.6 17-1.8 6.3-3.9 12.6-5.8 17.2 2-3.7 3.9-8.6 5.5-13.5s2.9-9.8 3.9-13.4c-1.2 6.3-3.1 13.2-5.5 19.7 3.9-8.1 6.2-19.7 8.8-31.7-.9 2.3-1.7 7.5-2.6 10.8-.4-3 1-7.2 1.7-10.4 2.3-10.2 4.1-20.7 6.3-31.6 1.1-5.4 2.2-10.9 3.6-16.5s3-11.3 5.1-17.2l37.6 14.2q-2.25 6.45-4.2 12.9c-1.3 4.3-2.3 8.7-3.3 13.1-.4 1.9-.5 3.7-.8 5.6-1.8 11.5-3.2 23.4-3.1 34.8 0 5.7.4 11.2 1.3 16.3.5 2.5 1 4.9 1.6 7 .2.6.4 1 .5 1.6l.3.8.1.4.1.2c0 .1 0 .1.1.2l.2.3c.2-.1.1-.2.1-.3.3.3.5.9.9 1.3.4.3 1 .3 1.5-.1 0-.3-.2-.2-.4-.1s-.4.1-.2-.4c.1.3.7 0 1.1.1 0-.8-.1-.1-.3-.2.2-.4.2-.5.3-.6s.2-.2.2-.5c-.1-.3-.1-.4-.1-.4-.1-.5.1 0 .1 0 .2.6.2 1.3-.2 1.3.1.3.3.5.6.7.1.1.3.1.4.1s.1 0 .2-.1c.2-.1.5-.2.8-.4l-.6.6c-.2.1-.1.1-.2.2 0 .1-.1.1-.1.1-.2.1-.4.2-.7.3-.5.1-1.1.1-1.9.1 0 .2 0 .4.1.4-.2.5-.2-.3-.4-.3s-.5.4-.7.9c1.3.6 2.6 0 3.4-.6.2-.2.4-.3.6-.5.3-.2.6-.3.9-.5s.6-.3.9-.6c1.3-.8 2.7-1.8 4.2-2.8-.6 1.1-1.7 1.7-3.6 3.1.2.1.7-.2 1.1-.5-.3.3-.6.5-.9.7s-.6.5-1 .7c-.6.4-1.5.8-1.6.9-.5.3-1.1.5-1.8.5.4.1.9.2 1.4.1.2 0 .5-.1.7-.2l.6-.3c.3-.1.5-.3.8-.4 2.1-1.1 4.1-2.8 5.2-4.1-.2-.1-.8.4-1.2.7.4-1 1.3-1.8 2.4-2.6s2.3-1.5 3.2-2.1c0 .1-.5.7-1.2 1.3s-1.5 1.3-2 1.9c1-.3 1.9-.7 2.8-2.1-.3.9 1 .1 2.5-1.3s3.2-3.5 3.8-4.5c-.5-.6-.9 1.4-1.8 1.4.6.3-1.3 1.8-3 3.8-.5-.1.2-.8.8-1.4-.2-.1-.5.4-.8.6 2.5-2.7 4.6-5.3 5.9-6.9-1 1.3-.4 1.4-.1 1.9 1.4-1.2 3-2.6 4.3-3.8 1.3-1.1 2.5-1.8 3.6-1.3-2.1 1.7-4 2.1-6.4 6.1.3.9 2.9-.2 4.8-3 .4-.1-1.9 2.6-.3 1.2.3.2-1.3 1.8-1.8 2.3.9-1.9-.8-.2-2 1.4 1-.4 1.9-.3 3.5-2.6-.7 1.8.7.6.5 1.8-1.5 1.7-2.2.7-3.7 2.5-.6 1.8 2.7-2.2 2 0 .1-.2 2.5-2.2 1.7-2.5.1 1.1 1.6.9 3.8-1.9.8-.1.9 2.1 1.3.1 1.2-1.4.2 1.9-.8 2.5.8-.5 1.4-.7 2.1-1.1.7-.3 1.4-.7 2.2-1.6.2.3-.2 1.2-1 2.4 1.1.4 1.3.4 2.5-.8-1.1 1.8-.7 2.2-2.1 4.2 1.3-.7 1.7-1.1 3-2.9-1.1 2.8 1.9-1.1 2-.4.4-.9.8-1.7 1.2-2.5s.9-1.6 1.4-2.4c.5-.4 0 .3-.5 1.3s-1.2 2.1-1 2.6c.8-.5 1.9-3 2.6-3.4-.1 1-1.5 3.4-.9 3.5 1.7-1.6 2.9-1.7 4.3-2.2 1.3-.5 2.7-1.4 4.4-5.2.3-.2.8.1 1.6-1.1-.3.4-.8 1.5-1.2 2.5s-.8 2.1-.8 2.6c.5.1 1.1-.7 1.9-2.6.2 1.1-1.2 2.7-1.7 3.5-.8 2.5-.5 2.7-.3 3.3-2.6 5.2-4.9 8.9-5.1 11.5.4.4 1.5-1.3 2.6-3 .5-.9.1-.9-.3-.2.2-1 3.5-4.2 2.8-2 .7-1.3 1.1-1.9 1.6-2.5.4-.6.9-1.1 1.4-2.3.8.5-1.1 1.5-2.2 4.3 2.5-3.8.3.8-.4 2.6.5.1 2.1-2.3 1.4-.1.9-.6 1.3-3.2 1.9-2.7-1.1 2.6-2.3 4.3-3.4 5.9-.6.8-1.2 1.6-1.7 2.4-.6.8-1.2 1.7-1.8 2.8 1-.6 2-1.8-.2.9-.1.3-.1 1.7 1.3-.1-.1.6-.8 1.6-1.7 2.9.8-.4 2.4-2.8 2.8-2.1-2 2.9-3.3 4.1-4.6 5.3-1.4 1.2-2.7 2.4-5.2 5.3-.5-.1 1.5-1.9 1.3-2.3-3.2 3.9-5.6 6.8-8.3 9.7s-5.8 5.9-11.5 9.1c.2-.4-.2-.3-1 0s-1.8.8-3.3 1.6c-2.7 1.3-5.5 2.6-4.2 2.8-4.4 1.3-7.5 1.7-9.8 1.9-1.2.1-2.1.2-3 .2H398c-1.7 0-3.4-.1-5.9-.3-2.5-.3-5.9-.7-10.6-2.3 1 .7 2.4 1.4 4.3 2 1 .3 2.1.7 3.3.9 1.3.2 2.7.5 4.2.6-.4.1-.9.2-1.5.2s-1.2 0-2-.1q-1.05-.15-2.4-.3c-.8-.2-1.7-.4-2.6-.6-1.8-.4-3.7-1.2-5.6-2s-3.9-1.6-5.8-2.4c-.8-.9-1.5-1.7-2.2-2.6 3 2.9.9.4-2.2-3.2-.1.2.9 1.3 1.5 2.1-1.3-1.4-2.5-2.8-3.7-4.4-.6-.8-1.2-1.5-1.8-2.3-.5-.8-1.1-1.7-1.6-2.5-.5-.9-1.1-1.7-1.5-2.6-.5-.9-.9-1.8-1.4-2.7s-.9-1.8-1.4-2.8l-.7-1.6-.6-1.4c-2.2-5.6-3.7-11.2-4.7-16.8-2-11.1-2.4-22.2-2.2-33 .3-.2.3.7.6.8.3-4.6.5-8.4.4-9.6-.1-1.1-.4.4-.7 6.4-.2-.2-.1-2.3-.1-4.8.1-2.5.2-5.3.3-6.9 0 2.6.6-.1 1.1-1.4-.3-1.1-.3-2.6 0-4.4s.6-3.9 1-6.3c.5 1.3-.5 2.8-.3 4.6.6-1.3 1-5.9 1.2-7.5-.2.1-.4 1.3-.6 2.2-.4-.2.5-3.2.6-4.5.1.2.1.8.3.8.4-2.1.7-3.8 1-5.4s.6-3 .9-4.3c.5-2.7 1.1-5.3 2-8.8.2-1.1-.3.2-.6-.1 1.4-3.3.5-3.5 2-7.3.3 1.2-.5 2.4-1.3 5.9 1.7-5.2 4.2-12.2 5.1-16.6-.8 1-1.8 5-2.5 6.3.3-2.9 2.6-8.6 4.1-12.4l41.2 15.6c-.1.2-.1.3-.2.4 0-.2 0-.4-.1-.5l-40.8-15.4c0 .4.1.3.2.1l40.5 15.3c-.2.7-.7 3.6-1.3 3.6-.3 1.3.5-.6.4.7-1.6 4.4-1.9 7.5-3.2 12.3-.2-1.5.7-2.8.7-4.3-1.3 3-.9 5.2-2.3 10.5.9-1.9 1-4.4 1.7-4.9.1.8-.1 2.2-.5 3.8-.1-.4-.2-.7-.4-.8-2.1 10-3.3 17.7-4.6 25.4-1.4 7.8-2.7 15.8-5.4 27.3-.2-.1.1-.9.2-1.5-3.4 9.8-6.4 20.9-11.4 32.7-2.5 5.9-5.5 11.9-9.4 17.9l-1.5 2.2c-.5.7-1.1 1.5-1.6 2.2l-1.7 2.2-1.8 2.1-1.8 2.1c-.6.7-1.3 1.3-2 2l-2 2c-.3.3-.7.6-1.1.9l-1.4 1.2c.3-.1.6-.4 1-.6l.9-.6c.7-.5 1.4-1.2 2.2-2-.5.6-1 1.2-1.5 1.7-.3.3-.6.5-.8.8l-.4.4-.7.6c-.9.8-1.8 1.6-2.8 2.3l-1.3 1-.3.3c-.1.1-.2.1-.4.2l-.7.3-3 1.3c-1 .4-2.1 1-2.7 1.2l-2 .8-2.4 1q1.05-.3 1.5-.3h.2c-.1.1-.9.3-1.6.5-1.5.5-3.3 1-1 .8l-2.1.8-2.3.7c-1.5.5-3 1-4.6 1.4-1.5.4-3.1.8-4.6 1s-3.1.6-4.6.7c1.1-.4 3.3-.8 6.6-1.4-1.5.3-3.1.5-4.7.8-1.6.2-3.1.3-4.7.4-3.1.1-6.3 0-9.3-.6-1.6-.2-3.1-.6-4.6-1-1.5-.5-3-.9-4.4-1.6-2.9-1.2-5.7-2.8-8.2-4.8-5.1-3.9-9.1-9.1-11.9-14.9-1.4-3-2.5-6.1-3.3-9.4-.2-.8-.4-1.6-.6-2.5-.2-.8-.4-1.7-.5-2.5-.2-1.7-.5-3.4-.6-5.1q-.3-2.55-.3-5.1v-4.1c0-2.3.1-4.4.3-6.6.3-4.2.9-8.2 1.5-11.9 1.3-7.5 3.1-14.2 5-20.2-.2 0-.4.9-.6 1.4 1.1-4.1 2.7-9 4.8-14.3s4.7-10.9 7.8-16.5c1.6-2.8 3.2-5.7 5.1-8.6 1-1.5 1.9-2.9 3.1-4.4l.8-1.1.7-.9c.4-.6.9-1.1 1.3-1.6 1.7-2.2 3.5-4.3 5.1-6.2 1.7-2 3.2-3.8 4.7-5.5 1.5-1.8 1.4-2.8 2.9-4.1-.1-.3-.4-.1-.9.3.9-1.8 3-1.3 5.1-4.6.6-.3-.5.9-1.9 2.5-1.3 1.5-2.9 3.3-3.5 4.2l3.3-3c1.1-1 2.4-2.1 3.6-3.1s2.6-2.1 3.9-3.2c.7-.5 1.4-1.1 2.2-1.6l1.1-.8c.4-.3.9-.6 1.4-1 1-.6 1.9-1.3 2.9-1.9s2.1-1.2 3.2-1.8 2.2-1.1 3.3-1.6l1.7-.7c.6-.2 1.1-.4 1.7-.6 4.6-1.6 9.4-2.5 14.1-2.5-.9.1-1.4.2-1.7.2-.3.1-.2.1 0 .2.5 0 1.9.1 3.7.3s4 .5 6 1c1 .2 2 .6 2.9.8.9.3 1.7.6 2.3.8.3.2-.1.1-1-.3-.9-.3-2.3-.7-3.8-1.1-1.5-.3-3.1-.7-4.4-.8-.7-.1-1.3-.1-1.8-.1s-.9 0-1.1.1c.5.1 1.2.2 2.1.4s1.9.3 3 .6 2.3.6 3.5 1c.6.2 1.2.4 1.9.6.6.3 1.2.5 1.9.8 5 2 9.4 5.2 11.3 6.2 1.1.9.4.6-.1.2-.1.2 1.1 1.1 1.8 1.7-.1.2-.9-.5-1.9-1.3-1-.9-2.3-1.8-3.1-2.3-.2.1.7.8 1.8 1.5 1.1.8 2.3 1.7 3 2.4-2.6-1.7-2.1-1-.5.4l.5.5.5.5 1.2 1.2c.8.8 1.6 1.6 2.3 2.2.4.3-1.4-1.1-2.9-2.1-1.6-1-2.7-1.5-.5.7-.6-.4-1.1-.8-1.7-1.2l-.9-.6c-.3-.2-.7-.4-1-.6-1.2-.7-2.3-1.2-2.9-1.2.6 1.4 4 4.5 2 4.6.4.4.8.8 1.5 1.4.6.5 1.3 1.1 2 1.8 1.5 1.3 3 2.7 4.2 4.1-.7-.3-2.1-1.7-3.1-2.4.9 1.9 3 5.1.6 3.7 0 .3.9 1.2.7 1.3 1.2 1.5 1.3.8 1.9 1.2.6 1.5-2.2-.4-4.9-3.5-.1.9 1.6 2.9 3.9 5.4 1.2 1.8-2.2-2.2-3.1-3.1.4 1 2.9 3.4 3.6 4.5-.5.1-2.4-2.6-3.5-3.6-1-.6-3.2-2-.7.7-.3.2-1.7-1.7-1.9-1.2 1.9 2.5-1.9-1.2 1.1 2-.4 0-1.3-1.2-2.1-2-1.6.1 2.3 3.6 3.5 5.5-.7-.1-2.7-2.9-4-4-2-1.7-.5.7-2.3-.7 0 .6 1 .6 1.4 1.7-.7-.3-1.2-.4-2-1 .5 1 2 2.7 2.6 3.4s.4.4-2.5-2.5c.7 1.3 3.1 3.7 4.3 5.5-1.6-1.2-4.2-4.8-6.1-6.7-2.2-1.6-1.8-.4-3.3-.4 1 1.5 4.4 4.4 5.5 5.1l.7-.7c1 1.4.2 1.5-.9.8-.2.4 2 2.2 2 2.8-.9-1.5-2.9-2.7-4.5-3s-2.8.2-2.1 1.8c.4.9 3 2.8 3.5 4 .2.4-3.2-3-3.7-3.7-1.1.6 1.1 3 3.5 5.8-.4.2-1.4-1-2.5-2.2-.7.9 3.3 4.7 5.1 7.2-1.4-1.6-3.5-4-5.3-5.7s-3.3-2.7-3.8-2.1c.7.9-.7-.3-.4-.4-2.7-2.4-2.6-.8-4.1-1.5.3 1.9-.7 2.1-2.1 1.8-.8.3-1.9.2-2.9.5m55.9 65.3c2.8-1.9 4.1-3.4 6.7-6.1-.7 0-2 1.3-3.3 2.6-1.4 1.3-2.8 2.8-3.4 3.5M399 387.4c-.5 2-1 3.5-1.3 4.9-.4 1.4-.6 2.7-.7 4.3.6-2.2 2-8 2-9.2m-3.7 72c.2.7.4 1.1.6 1.5.1.2.2.3.3.5.1.1.1.2.2.3 0 .1.1.1.1.2v.1s.1.3.2.4.1.2.1.2c.1.1 0 0 0-.1s0-.2-.1-.3c0-.1-.1-.3 0-.3v-.1c-.1-.2-.1-.4-.2-.6-.1-.4-.2-.8-.3-1.1.2.2.4.7.5 1.2 0 .1.1.2.1.4v.3c.1.3.3.6.8.4-.2-.3-.3-.6-.4-.7-.1-.2-.2-.4-.2-.5-.2-.4-.3-.8-.4-1.2l-.9-2.1c-.2-.3-.3-.6-.5-1-.2-.3-.4-.7-.6-1 .1-.6-.1-1.6-.3-2.7s-.5-2.2-1-3.1c.1 2.4.8 4.8 1.3 6.5.8 1.6 1.2 2.7.7 2.8m8.7-88.9c-.7 3.3-2.9 7-2.5 8.5.7-2.8 2.9-7.4 2.5-8.5m-81 108.4c.6.2 1.5-.2 2-.7-.6-.2-1.4.3-2 .7m5.6-2.1c.2-.1.3-.2.4-.3.1 0 0 0 .1-.1l.3-.3c.1-.1.2-.2.3-.4.2-.3.4-.6.5-.9l-1.1 1.1-.2.1-.1.1v.1c-.1.4-.3.5-.2.6m5.1-58.3c-.4.3-1 1.4-1.7 2.8s-1.5 3.2-2.2 5.1c-1.4 3.7-2.6 7.4-2.9 8.1.8-1.4 2.1-5.3 3.5-8.8 1.4-3.6 2.8-6.7 3.3-7.2m87.8 35.3c-.2.4-.7.9-.5 1 1-1.7 2.1-1.5 2.2-2.6-.6.6-2 .7-2.2 1.9.2-.2.5-.5.5-.3m23.6 4.9c.7-1.1 1.3-2.2 1.9-3.2-.2-.6-2.7 3.4-2.6 3.7.3-.5.6-.7.7-.5m2-1.5c.8-1.6 1.5-3.2 1.1-3.7-1.2 2.2-1.5 3.3-1.1 3.7m1.8-2.4c.3.2-.8 2 0 1.7.5-.9.6-.5 1.1-1.2.7-2.9-.5-.2-1.1-.5m-52.6-40.1c.1-1.9 1.7-6.6 1.2-8.2-1 3.7-1.4 6.1-1.2 8.2m5.7-30.1c-.5 1.4-.9 2.7-1.1 3.9-.2 1.1-.4 2.1-.5 3 .8-2.2 1.3-5.3 1.6-6.9m-10.2 55.6c1.7-7.3 3-13.4 4.1-19.2s2.1-11.2 2.9-17c.3-1.8.7-3.5 1-5.3.3-1.3 1.1-6 .3-2.6-2.2 8.8-3.1 19.8-5.1 26.2.1-1 .9-3.5.5-3.5-1.5 9-3 15.5-3.7 21.4m-68.1 36.3c-.1-.2-.2-.1-.4 0s-.4.1-.4-.2c.1-.5.3-.1.4-.2 0-.4-.1-.4-.2-.4s-.3 0-.2-.3c.3-.1.4-.2.6-.2.2-.1.4-.2.5-.4.1.8-.3.2-.4.7.1.7.4.4.1 1m32.1-76.6c.7 1.5-2 9.8-1.8 12.2-1.1.1 1.6-8.4 1.8-12.2m-33.3 60.2c-.2 1.8-.6 4.2-.8 7-.1 1.4-.2 2.8-.2 4.3v2.4c.2.7.6 1.4 1.2 1.4-.2.3-.4.3-.5.3-.1-.1-.2-.2-.4-.2-.3.4-.1.5.1.6.2 0 .4.1.4.4q-1.05-.15-1.5-1.2c-.2-.3-.3-.6-.3-1v-3.6c.2-4.1.8-8.7 1.7-13.3 1-4.6 2.3-9.3 3.9-14 .8-3.7 2.7-9.4 5.3-15.2 1.3-2.9 2.8-5.9 4.3-8.5.8-1.3 1.5-2.6 2.2-3.6.2-.2.3-.5.5-.7l.5-.7c.5-.7 1-1.4 1.5-2 .2-.1.1.2-.3.7-.2.3-.4.6-.7.9-.2.3-.6.8-.7 1-.7 1-1.7 2.5-1.7 3.1.7-1.1 1.4-2.1 2.1-3.1 1-1.4 2-2.8 2.9-4.2 1-1.3 1.9-2.8 3-4 .5-.7 1.1-1.3 1.6-2 .6-.6 1.1-1.3 1.7-1.9-.4-.1-1.2.5-2 1.4s-1.7 2-2.4 2.5c1.8-2.9 4.3-5.3 6.7-7.4.6-.5 1.2-.9 1.7-1.4.6-.5 1.1-.8 1.6-1.2s1-.7 1.4-1.1l.3-.3.2-.2.2-.2-.1.2-.4.4c-.3.3-.7.6-1 1-.7.8-1.5 1.5-2.4 2.4-1.7 1.7-3.6 4-5.5 6.3-1 1.3-2 2.5-3 3.8-.5.7-1 1.3-1.6 2-.5.7-1 1.4-1.6 2.1l-.8 1.1c-.3.4-.6.8-.7.9-.3.4-.7 1-1 1.6-.7 1.2-1.5 2.5-2.3 4-3.1 5.9-6 13-8.4 20.1s-4.2 14.4-5.2 21c.2-.3.4-1.2.5-1.9m-1.3 13.8c-.4.4.1 1 .4 1.1.1-.5.2-.9-.4-1.1m395.6-74.6q1.8-.9 3.6-1.5c1.1-.4 2.2-.7 3.2-1 2-.7 3.8-1.2 5.4-2.1-3.6 1.3-10.8 3.2-12.2 4.6M680.3 499c.8.4 1.6.8 2.4 1.1l.6.3.8.3c.5.2 1 .3 1.6.5 1.9.6 4.8 1 7.3 1 2.7 0 5.6-.5 8-1.3 1.2-.4 2.5-.9 3.6-1.4 1-.5 1.9-1 2.8-1.6.5-.3.9-.6 1.3-.9s.7-.5 1-.8c.7-.5 1.3-1.1 1.9-1.7l.4-.4.2-.2.2-.2.6-.7 1.2-1.5.6-.7.2-.2.3-.4.6-.9c1.6-2.4 3.1-4.5 4.4-6.9.7-1.2 1.3-2.3 1.9-3.4.3-.5.6-1.1.9-1.7s.5-1.2.8-1.7c.5-1.1 1-2.2 1.4-3.3s.8-2.2 1.1-3.2c.3-.4 0 .9-.7 3.1-.4 1-.9 2.2-1.5 3.5s-1.2 2.8-2 4c-2.9 5.5-6.6 10.2-7.2 11.3l-.4.5-.5.6c-.3.4-.7.8-1 1.2l-.5.6-.3.3-.4.4c-.5.5-1 .9-1.5 1.4-.5.4-1 .9-1.6 1.3-.6.5-1.4 1-2.1 1.4-.7.5-1.5.9-2.3 1.3s-1.8.8-2.8 1.2l-3 .9c-1.1.2-2.1.4-3.2.5-2.2.2-4.2.2-6.2-.1-.5-.1-1-.1-1.5-.2s-.8-.2-1.3-.3c-.8-.2-1.6-.5-2.5-.7-.4-.1-.8-.3-1.2-.4l-.9-.4c-.3-.9-.9-1.2-1.5-1.5m-23.9-161.4c3 1.6 7.4 2.9 12.4 4.1l.5.1v.9c0 1 0 2.5.2 4s.4 3.1.8 4.2l.1.2.1.3.2.6.4 1.2.4 1.2c.1.4.3.7.4 1.1 1.1 2.9 2.8 6.1 5.1 9.4 2.3 3.4 5.2 6.9 8.5 10.6s6.9 7.5 10.8 11.5 7.9 8.2 12.1 12.9c4.1 4.7 8.2 9.9 12 16.1 3.7 6.1 7.1 13.4 8.8 21.4-.6-1.1-1.4-4.6-2.9-8.5-1.4-3.9-3.4-8.1-5.3-11.4-3.3-5.6-6.9-10.4-10.5-14.7s-7.2-8.1-10.7-11.7l-9.9-10.2c-3.1-3.3-6-6.4-8.5-9.5s-4.7-6.1-6.5-8.9l-1.2-2.1-.3-.5-.2-.5-.5-1-.5-1-.4-1-.4-1-.2-.5-.2-.6c-.2-.7-.4-1.5-.7-2.2l-.2-.6c-.1-.2-.1-.4-.1-.5-.1-.3-.1-.5-.2-.8-.2-1.2-.5-2.7-.5-4.1-.1-1.4-.1-2.8 0-3.7v-.6l-.9-.2c-.6-.1-1.2-.3-1.8-.4l-.9-.2-.8-.2c-1.1-.3-2.1-.6-3.2-1-2-.7-4-1.6-5.3-2.2m49.8 60.9c.8 1.1 1.6 2.2 2.5 3.5s1.9 2.5 3 4c.6.8 1.1 1.5 1.8 2.4.6.8 1.3 1.8 1.9 2.8.7 1 1.4 2 2.1 3.2s1.5 2.4 2.3 3.8c.4 1 .4 1 .1.5-.1-.3-.4-.6-.6-1.1-.3-.4-.6-1-1-1.6-.7-1.1-1.5-2.6-2.3-3.7s-1.5-2.2-1.9-2.8c-4.1-5.6-8.2-9.8-9.7-12 .5.2 1.3.8 1.8 1m-82.4 4.8c-.6 1.1-1.5 2.6-2.5 4.2-1 1.5-2.2 3.1-3 4.4.3-1.1 1.3-2.8 2.5-4.4 1.1-1.6 2.3-3.2 3-4.2m52-38.6c-.8-.2-1.7-1.6.2 1.4 0 .1-.2-.1-.6-.5-.3-.4-.8-1.1-1.2-1.8-.5-.7-.9-1.5-1.3-2.3-.2-.4-.4-.7-.6-1s-.3-.6-.4-.8c.3.2.5.3.9.9.1-.2-.3-1.1-.6-1.7.2.2.5.6.7 1.1.3.5.6 1.1.9 1.7.6 1.2 1.5 2.4 2 3m14.1 51.1c1.4-1.4 4.6-3.4 8.1-5.2 2.1-.9.4 0-1.3.9-1.7 1-3.4 2-1.3 1-.5.9-2.9 1.3-5.5 3.3m63.2-27.4c1-.8 5.6-2.2 8-3.3-.9.9-5.5 2.3-8 3.3m19.2-7.6c1.5-.2.4.4-1.6 1.3-2 .8-4.6 1.9-6.1 2.5 1.8-1.2 6.1-3.1 7.7-3.8m31.3 27c3.5-1.7.2 1.3.7 1.6-4.2 1.5 1.2-1.5-.7-1.6m-118.4 41c-.3-.3-.2-.9-.3-1.6 0-.7-.2-1.6-.4-2.2.2.3.3.5.4.8.1.1.1.3.2.4.1.2 0 .3.1.5 0 .3 0 .6.1 1 0 .4-.1.8-.1 1.1m.5-109.8c.2.6.4 2 .7 3.8q.15 1.35.3 3c.1 1.1.1 2.3.1 3.5 0 2.4.1 5-.1 7.4-.1 2.4-.2 4.7-.4 6.5 0-1.7-.1-3.4-.1-5.1v-5.5c0-2 0-4-.1-6.3 0-2.3-.2-4.7-.4-7.3m-2 39.6c0 1-.5 3-1.1 5.2-.7 2.2-1.5 4.6-1.9 6.3-.1-.7.5-2.9 1.2-5.3.2-.6.4-1.2.5-1.8.2-.6.3-1.2.5-1.8.3-1 .6-2 .8-2.6m-14.9 38.2c.2-.5 1.3-3 2.5-5.2s2.2-4.3 2.4-3.9c-.5.7-.9 1.5-1.3 2.3s-.8 1.6-1.3 2.5c-.8 1.7-1.5 3.3-2.3 4.3m84.8-32.1c1.1-.8 4.3-1 6.6-2-.4.9-4.3 1.1-4.7 2.1-2.3.7 1.3-1.2-1.9-.1m-149.2-43.8c1.2-1.5 2.6-6.1 3.9-9.1-.4 7.8-6.6 22.3-6.8 30.2-4.4 14.7-9.2 34.4-11 46.7.4.2.8-3 1.1-4.2-1.5 7-3.1 14.3-4.6 21.7-.7 3.7-1.5 7.4-2.2 11.1-.2.9-.3 1.8-.5 2.7l-.1.6c-.1.4-.2.7-.3 1.1-.3 1.5-.6 3.2-.5 5 .1.4.1.9.3 1.3s.5.7.9.8c.9.1 1.7-.4 2.4-.9.6-.4.4-.1 0 .2s-.9.7-.9.6c-.1.5.4.2.9-.2s.8-.9.7-.7c.2-.1.3-.3.7-.6.8-.7 1.8-1.6 2.7-2.5 1.5-1.4 3-2.8 4.3-4 1.7-1.7 3.2-3.1 4.2-4.1 0-.6-1.1.6-2 1.5 5.5-5.7 11.6-12.5 17.4-19.8 5.8-7.4 11.3-15.4 15.7-23.6 1-2.1 2.2-4.1 3.1-6.1.5-1 1-2 1.4-3.1l1.2-3c.4-1 .8-2 1.1-3 .4-1 .7-2 1-3s.6-2 .8-2.9c.1-.5.3-1 .4-1.4.1-.5.2-1 .3-1.4 1.8-7.6 2.1-14.4 1.5-19.7h.4c-.1-.4-.1-.8-.2-1.2s-.2-.8-.3-1.3c-.2-.9-.3-1.8-.4-2.7l2.6 7.4c-1-1.5-1.9-3.1-2.3-3.6 0-.1-.1-.1-.1-.2l.4-.4c.6-.5 1.1-1 1.7-1.5l1.6-1.6c.3-.3.5-.6.8-.8l.7-.6c.9-.9 1.7-1.8 2.4-2.8l.3-.4c.1-.1.2-.2.2-.3.2-.2.3-.4.5-.5.3-.4.6-.8.8-1.2.1-.2.2-.4.4-.6l.2-.3c.1-.1.1-.1.1-.2.2-.3.4-.6.5-.9s.3-.7.3-1c.1-.2.2-.4.2-.6 0-.1 0-.2.1-.3v-.6c0 .2 0 .2-.1.7 0 .2-.1.4-.2.6 0 .1-.1.1-.1.3s-.1.3-.1.4c-.1.3-.2.6-.4.9-.1.1-.2.3-.2.4-.1.1-.2.2-.3.5-.4.8-.9 1.5-1.5 2.2l-.4.5-.5.7c-.3.5-.7.9-1.1 1.3s-.8.9-1.2 1.3l-.6.6-.7.8c-1 1.1-2 2.1-3.2 3l-.2.2.1.1c.4.3 1.5 1.8 2.6 3.6l-2.5-7.2c.7 4.1.9 8.9.6 13.7s-1.3 9.7-2.3 13.9c1.5-4.5 2.6-9.7 3-14.6s0-9.5-.4-13.1l2.4 6.9c-.4-.7-.8-1.3-1-1.8-.3-.4-.5-.8-.7-1.1l.9 1.2c.3.5.7 1 1 1.6l-2.4-6.8.6 4.2c.1 1.5.2 3 .2 4.5-.1 1.5-.1 3.1-.2 4.7-.2 1.6-.3 3.2-.6 4.9 1.3-5.6 1.5-12 .5-18.4l2.3 6.6c-.3-.6-.7-1.1-1-1.7l-.5-.7c-.2-.2-.3-.5-.5-.7l-.4-.6c-.1-.2-.2-.2-.3-.3l-.1-.1.1-.1 2.4-2.4.5-.5.5-.5c.3-.3.6-.7.9-1 .6-.7 1.2-1.4 1.7-2.2.5-.5.9-1.1 1.3-1.7.2-.3.4-.6.6-1 .2-.3.3-.5.4-.7.3-.4.5-1 .6-1.5.1-.3.2-.6.3-1v-.7.1c0 .1 0 .1.1.2s.1.2.2.2c.7.9 2.8 2.5 5.7 3.7.8.3 1.5.6 2.3.9.4.1.9.3 1.3.4.4.2.9.3 1.3.4.9.3 1.8.4 2.8.7l.7.2h.1c-.2-.1-.5-.1-.7-.2-1-.3-2-.5-3-.8-2.1-.7-4-1.2-5.9-2.2l-1.2-.6c-.2-.1-.4-.2-.6-.4-.2-.1-.4-.3-.6-.3-.3-.2-.6-.4-1-.6-.2-.1-.3-.2-.5-.4l-.3-.3-.6-.6c-.1-.1-.2-.2-.3-.4 0-.1-.1-.2-.1-.2v.8c0 .1 0 .3-.1.4-.2.3-.4 1.4-.9 2-.9 1.7-2.3 3.6-4.3 5.8l-1.5 1.5c-.6.6-1.1 1.2-1.7 1.8l-.9.9-.2.2c.1.2.2.3.3.5-.2-.1-.4-.1-.6-.2-.1-.1-.1 0-.1 0l.4-.4.8-.7 1.5-1.5c.5-.6.9-.9 1.3-1.4.4-.4.8-.9 1.2-1.3l1.2-1.5c.1-.1.2-.3.3-.4l.2-.3c.2-.2.3-.4.5-.6.3-.4.6-.8.8-1.2.1-.2.3-.4.4-.7.1-.2.2-.3.3-.5.2-.3.4-.6.5-1 .1-.2.1-.4.2-.5.1-.2.1-.2.1-.3.1-.2.1-.5.2-.7v-.8c.1.4.6 1 1.9 2 2.4 1.7 6.7 3.4 11.1 4.4.7.2 1.4.4 2.1.5l.4.1v.5l-.1.4c-.1.6-.1 1.3-.1 2 0 1.5.1 3.3.3 4.9.1.8.2 1.6.4 2.1 0 .1.1.4.1.6.1.2.1.4.2.6l.4 1.3.3 1.3c.1.4.3.8.4 1.2l.4 1.1.2.6.3.6c1.3 3.1 3.2 6.3 5.6 9.6 2.3 3.3 5.1 6.6 8.1 10s6.3 6.9 9.8 10.5c3.4 3.6 7.1 7.4 10.7 11.5s7.4 8.6 10.9 13.9c3.5 5.2 6.8 11.4 9 18.7.6 1.9 1.1 4 1.6 5.9.5 2 .8 4.1 1 6.3.6 7.3-.4 14.7-2.4 21.2-.5 1.6-1.1 3.3-1.7 4.8s-1.3 3-2 4.5-1.4 2.8-2.2 4.2c-.8 1.3-1.5 2.8-2.3 4l-2.5 3.7-1.3 1.9c-.8 1-1.5 1.9-2.4 2.8-.6.6-1.2 1.1-1.8 1.6-.3.3-.6.5-.9.8-.3.2-.7.5-1.1.8-.9.6-1.8 1.1-2.7 1.6l-.7.3-.8.4c-.6.2-1.1.5-1.7.7-2.2.8-4.9 1.2-7.5 1.3-1.2 0-2.4-.1-3.6-.2-.6-.1-1.2-.2-1.7-.3s-1-.2-1.5-.4c-.5-.1-1-.3-1.5-.5s-1-.4-1.3-.5c-.8-.3-1.5-.7-2.2-1.1-.8-.4-1.2-.7-1.8-1.1-.5-.3-1.1-.7-1.6-1.1-.4-.3-.8-.6-1.2-1-.4-.3-.8-.7-1.1-1-1.3-1.2-2.3-2.3-3.2-3.3-1.7-2-2.8-3.7-3.8-5.3l-.7-1.2-.7-1.3c-.5-1-1-1.9-1.5-2.9-1-2-1.8-4-2.6-6s-1.5-4-2.2-6c0-1.8.2-3.6.2-5.3 0-1.8.2-3.5.5-5.3.1-.9.2-1.8.4-2.6.2-.9.4-1.7.6-2.6.5-1.7.9-3.5 1.6-5.1s1.3-3.3 2.1-4.9 1.7-3.1 2.6-4.6c.5-.8 1-1.4 1.5-2.1l1.4-1.9c.5-.6.9-1.2 1.4-1.7l1.5-1.6c3.9-4.2 8.1-7.6 12-10.3l1.5-1 1.5-.9c1-.6 2-1.2 2.9-1.8 1-.5 1.9-1.1 2.9-1.6 1-.6 1.9-1.1 2.8-1.6-.1-.1-1.2.4-1.9.8 4.2-2.5 9.5-5 14.5-7.2s9.9-4.3 13.5-6.2c-.5-.1-2.4.8-4.1 1.6-1.8.9-3.5 1.6-3.8 1.2 2.7-.9 8.8-3.8 13.7-5.5 0-.8-1.8.6-3.5 1.1 2.9-1.9 6.1-2.9 10.6-5.1.2-.4-.8-.1-1.8.3.7-.8 3.6-1.3 5-1.9-2.1 1.5-4.2 2.9-9.6 4.9 4-.9 7.9-1.8 14.5-4.5-4.4 2.7-14.1 5.5-25.9 10.6.5 0 .9 0 1.9-.3-.1.5-2.4.7-3.5 1.2-1.9.8-1.7 1.2-1.4 1.6 8.7-3.5 15.6-6.5 22.2-9.3 6.5-2.8 12.6-5.4 19.3-7.6-1.9 1.3-4.1 1.9-8.8 3.8.2.2 1.5-.4 2.5-.8-5.9 2.6-13 5.3-20.6 8.2 10.4-3.2 22.3-7.9 28.1-10.7-.2-.2-1.5.4-2.5.8 2.9-2.3 8.7-3.6 12.2-4.4-.2.3-4.6 1.7-7.2 2.9 1.7-.3 3.3-.5 5.7-1.9-1.2 1 1.3.3 4.4-.8s6.9-2.7 8.6-3.6c0-.8-2.3 1.1-3.3.8.5.5-3.1 1.4-7 3.2-.5-.2 1-.8 2.2-1.3-.1-.2-1 .3-1.7.5 5.5-2.2 10.3-4.2 13.4-5.4-2.4 1-1.8 1.3-1.9 1.9 2.7-.6 5.7-1.6 8.2-2.1 2.5-.6 4.4-.7 5 .3-3.8.7-6.1.3-12.5 3.4-.2.5.7.7 2.1.6 1.5-.2 3.6-.7 5.8-1.7.5.1-4.4 1.8-1.4 1.1.1.4-3 1.2-4 1.6 2.7-1.6-.7-.5-3.5.7 1.5 0 2.4.5 6-1.2-2.3 1.5.2.9-1 2-3.1 1.1-3-.2-6.1 1-2.2 1.6 4.9-1.2 2.2.7.2-.2 4.5-1.2 3.9-1.8-.8 1.2 1 1.5 5.6-.2.9.2-.9 2.4 1.3.7 2.4-.8-1.3 1.9-2.9 2 2.4-.3 3.6.3 6.5-.5 0 .4-1.2 1.1-3 1.9.8.9 1 1 3.1.4-2.5 1.2-2.4 1.7-5.4 3 1.9-.1 2.5-.2 5.2-1.4-3.3 2.1 2.6-.1 2.3.6 1.1-.6 2.1-1.2 3.1-1.7s2.1-1 3.2-1.5c1.5-.3-4.2 1.8-4.6 2.7 1.1 0 4.2-1.8 5.1-1.7-.9.8-4.1 2.3-3.6 2.7 2.8-.6 4 0 5.6.3.8.1 1.7.2 2.9 0s2.8-.8 5-1.8c.5 0 .5.6 2.2.2-1.2.3-4.7 2.2-5.6 3 .3.4 1.5 0 3.6-1-.7 1-3.1 1.5-4.1 2-2.6 1.7-2.5 2-2.7 2.7-6.1 3.1-10.7 5.3-12.6 7.6.1.6 2.3-.4 4.4-1.4 1-.5.7-.7-.2-.4.9-.8 6-1.9 3.9-.4 3-1.6 3.4-1.2 6-2.5.3.9-2 .6-5 2.5 4.9-2-.3.8-2.1 2.1.4.3 3.4-.9 1.3.7 1.2 0 3.3-2.1 3.5-1.3-5.5 3.2-8.6 3.7-13.4 6.3 1.4 0 3-.6-.7.7-.2.2-1.1 1.5 1.2.5-.4.5-1.7 1.1-3.2 1.8 1 0 3.9-1.4 3.8-.6-3.5 1.7-5.3 2.2-7.2 2.7s-3.8 1-7.5 2.7c-.4-.3 2.4-1.2 2.3-1.6-9.9 4.6-13.6 7.9-24.3 12.3.9-1.4-8.3 2.9-6.4 3.2-6 2.1-8.1 2.7-10.2 3.5-1.1.4-2.2.8-3.8 1.5-.8.4-1.7.8-2.9 1.3q-1.65.75-3.9 1.8c1.7-.1 4.2-.8 8.1-2.4-1.8 2-9 4.2-14.3 6.6 2.3-1.5.4-.6-2.3.6.1.2 1-.3 1.5-.5-1.7.8-3.3 1.7-5 2.5-1.6.9-3.3 1.7-4.7 2.6-3 1.7-5.9 3.6-7.9 5.3-.3.2-.5.4-.7.6l-.7.6c-.3.2-.4.4-.6.6s-.3.4-.5.5c-.2.2-.3.3-.4.5l-.2.2-.1.1c-.1.1-.2.2-.2.3-.3.4-.4.9-.4 1.4.1.2.2.5.3.7l.1.2c.1.3.3.5.4.6s.1.1.1.2.1.1.1.1l-1.7 1.3c-.6.4-1.1.9-1.7 1.3-1.1 1-2.1 1.7-3 2.6-.4.3.3-.3 1-.9.8-.7 1.6-1.4 1.8-1.6l-.9.7c-.3.3-.5.4-.8.7-.5.4-1 .9-1.5 1.3-.5.5-.9.8-1.3 1.3-.4.4-.8.8-1.2 1.3-1.4 1.4-2.3 3-2.8 3.9-.3.6-.4.9-.5 1.3 0 .2-.1.2-.1.3v.2s0-.2-.1-.2v-.2c-.1-.2-.1-.3-.2-.4s-.5-.7-.8-1l-.5-.5-.6-.6c-.2-.2-.4-.4-.6-.5l-.3-.2-.2-.1c-3.5-2.6-7.1-5.2-10.6-7.8.1-.1.1-.2.2-.3l.5-1c.2-.4.1-.4-.4.2-.1.2-.3.4-.5.6 0 .1-.1.1-.1.2v.1c4.9 3.6-10.9-8 10.9 8l.1.1c.1.1.3.2.4.3.3.2.5.4.8.7.3.2.5.6.7.7l.6.6c.1.1.2.3.3.4l.2.2c.1.1.1.2.2.3 0 .1.1.2.1.2 0 .1.1.2.1.3 0 .2-.2-.5.7-2.2 0 .1-.2.4-.4.9-.1.2-.2.4-.2.7 0 .2 0 .2-.1.3v.3-.1c0-.1-.1-.2-.1-.2-.1-.2-.2-.4-.3-.5l-.2-.2c-.1-.1-.2-.3-.3-.4-.2-.3-.4-.5-.7-.7-.3-.3-.7-.7-1-.9-.2-.1-.4-.3-.6-.4l-.1-.1h-.1c10 7.3-13.6-10-11.2-8.2v-.1c1-1.7 2.4-3.7 2.7-4.7-.7 1.8.6.2 1.4-.5 0-1.8 1.6-3.9 2.1-6.4.1.2.2.4.2.6v.3c0 .1-.1.2-.1.3-.2.4-.4.9-.4 1.4.2-.2.3-.5.5-.8.1-.4.4-.8.4-1.2.1-.8.3-1.7.2-2-.1 0-.2.2-.2.4-.1.2-.1.5-.2.7-.1 0-.1-.2-.1-.3 0-.2.1-.4.1-.6 0-.4.2-.9.2-1.3.1.1.1.4.3.4.1-.5 0-.9.1-1.4v-.6c0-.2-.1-.4-.1-.6-.1-.4-.1-.7-.1-1.1-.1-.4-.2-.7-.3-1l-.1-.5-.2-.5c-.1-.4-.3-.7-.4-1.1-.2-.4-.4-.9-.6-1.3-.1-.2-.2-.5-.3-.7-.2-.3-.3-.6-.5-.8-.5-.7-.1.3-.5.3-.2-.6-.3-1.1-.6-1.4-.2-.4-.5-.7-.7-.9-.2-.3-.5-.6-.8-1s-.7-1-1.1-1.7c.5.2.8.6 1.3 1.3.4.6.9 1.5 1.7 2.7-.2-.4-.5-1-.8-1.5s-.5-1-.9-1.6c-.7-1.1-1.4-2.3-2.4-3.5-.4-.6-.8-1.2-1.3-1.7-.5-.6-1-1.1-1.4-1.7-.9-1-1.9-2-2.8-2.8.2.6 1.2 1.7 2 2.7s1.8 2.1 2.1 2.8c-.5-.5-1.3-1.2-2-2s-1.6-1.8-2.4-2.7c-.9-1-1.8-2.1-2.6-3-.9-1-1.7-2-2.5-2.8 1.7 1 .8.2-.5-.9-1.2-1.1-3-2.7-2.8-3.1-1.4-1.4.5 1-1-.2-1.2-1.3-2.3-2.6-3.4-3.7-1.1-1.2-2.2-2.2-3.2-3.3-1.1-1.1-2.1-2.3-3.3-3.5-1.1-1.2-2.3-2.6-3.6-4.1 1.9 1.3 3 3.5 4.8 4.9-2.9-4.2-5.8-5.7-11.1-13.2.8 1.4 1.9 2.9 2.8 4.1 1 1.2 1.7 2.2 1.8 2.8-1-.8-2.5-2.5-4.2-4.7.5.4.9.7 1.1.5-5.1-6.5-9.3-13.1-12.5-19.9-.4-.9-.8-1.7-1.2-2.5s-.7-1.7-1-2.6c-.6-1.7-1.4-3.5-1.8-5.1-.5-1.7-1-3.3-1.4-5-.2-.8-.4-1.8-.6-2.8-.2-.9-.4-1.9-.5-2.8-.6-3.6-.9-7-1-10.8-.1-1.8 0-3.8.1-5.9s.4-4.4.9-7.2c.2-.8.3-1.4.5-2.3l.4-1.3.2-.6c.1-.2.1-.4.2-.7.8-2 1.5-4.2 3.7-7.5l.9-1.2.4-.6.2-.3.3-.4c.9-1 1.8-1.9 2.8-2.8.3-.2.5-.4.8-.7s.7-.5 1-.8c.7-.5 1.4-1 2.2-1.4s1.5-.8 2.3-1.2c.9-.4 1.8-.7 2.8-1 1.9-.6 3.9-1 5.7-1.2s3.8-.1 5.5.1c2.8.3 6.1 1.4 7.7 2.2 1 .4 2 .9 2.8 1.4.7.4 1.3.8 1.9 1.2l1 .7c.3.2.7.5.8.6.4.4.9.7 1.3 1.1s.9.8 1.3 1.2l1 1 1 1 .5.5.4.4 1.5 1.8c.5.6.8 1.1 1.3 1.7.9 1.1 1.5 2.1 2.2 3.2-.2.1-1-1.2-1.6-2 .6 1 1.2 2 1.8 3.1.5 1 1.1 1.9 1.6 2.9l2.5 4.5.4 3.5c.8 7.7 1 15.5.4 23.4-.6 7.8-2.1 15.6-4.1 23.1s-4.7 14.7-7.9 21.6c-3.1 6.9-6.7 13.4-10.7 19.5.7-.6 1.7-1.9 3-4.1-2.7 5.8-7 10.6-10.7 15.7 3.6-3.3-3.2 3.3-.1 1.1-1.4 1.9-2.8 3.7-4.2 5.5l-4.3 5.4c.3-.8 1.2-2.2 2.8-4.1-6.5 7.9-13.7 16-21.5 23.6l-2.9 2.9-3 2.8-.8.7-.2.2-.3.3-.7.6-2.7 2.4c-1.8 1.6-3.6 3.2-5.5 4.7s-3.8 3.1-5.7 4.6c-1.9 1.4-3.8 2.8-5.7 4.3-1.9 1.3-3.8 2.5-5.7 3.8-.5.3-1 .6-1.4.9l-1.4.8c-.9.5-1.9 1.1-2.8 1.6-1.5.8-2.9 1.3-4.4 1.9l-2.2.9c-.7.3-1.4.4-2.1.6-1.4.3-2.8.8-4 .9-1.3.1-2.6.4-3.8.4l-1.8.1c-.6 0-1.2-.1-1.8-.1s-1.2-.1-1.8-.2-1.2-.1-1.8-.3c-.6-.1-1.2-.3-1.8-.4-.6-.2-1.2-.4-1.9-.6-.6-.2-1.3-.5-1.9-.7-.6-.3-1.3-.6-1.9-.9-2.5-1.3-4.7-2.8-6.5-4.4s-3.3-3.4-4.6-5.2c-1.3-1.9-2.4-3.8-3.3-5.9-.5-1.1-.9-2.1-1.3-3.3-.4-1.1-.8-2.2-1-3.4-.1.1 0 .5.1 1.1.1.5.4 1.1.5 1.6-.2-.4-.3-.8-.5-1.3-.1-.4-.3-.9-.4-1.4-.3-1-.5-1.9-.7-3-.4-2.2-.8-4.4-.9-7-.3-2.5-.2-5.3-.3-8.1.1-2.9.2-5.8.5-9 .2-3.1.6-6.3 1-9.5.2-1.6.5-3.3.7-4.9.1-.8.3-1.6.4-2.5l.2-1.2.2-1.1c.7-3.6 1.5-7.3 2.3-10.9 3.2-14.4 7.1-28.2 9.2-37.9.6-2.6 0-3.5.7-5.4-.2-.2-.4.1-.6.8-.1-2.1 2.1-2.9 2.1-6.9.7-1-1.1 6.5-1.4 8.9 4-11.9 7.8-25.7 10.9-38.9-.6 5.1 2.1-5.5 3.1-9.3.6-1-1.9 7.5-1.8 8.7 1.4-2.7 4.7-15 4.9-18 .3-1 .3-.4.2.1.2 0 .4-1 .7-1.7.4 0-.7 3-1 4.3.4.3.9-3 1.3-4.2-.6 4.4 1.5-1.9 2.4-5.7.2-1-1.5 9.3.4 3.7-.4 2.7-.7 5.2-.3 6.3 1.1-.7 2.2-4.3 3.2-2.8.8-1.8 1.6-7.1 2.8-11.1.1.9-.4 3-.6 4.4 1.3-1.9 2.9-6.1 3-2.8.3-.2.6-1.6.8-1.6.7-2.2 0-1.7.1-2.7 1-1.6.9 2.5-.6 7.1.8-.5 1.8-3.4 2.7-7.4.9-2.5-.8 3.7-1.1 5.1.7-1.1 1.5-5.2 2.1-6.6.3.5-1 4.2-1.3 6-.1 1.4-.2 4.5.9.2.3.2-.6 2.8-.1 2.7 1.3-3.6-.1 2.7 1.2-2.4.2.3-.4 2.2-.7 3.5.9 1.6 2.1-4.7 3.1-7.4.3.7-1.2 4.8-1.6 6.9-.6 3.2.8 0 .5 2.9.6-.4.1-1.4.9-2.5 0 .9.2 1.6.1 2.8 1.3-2.5 3.4-10.9.8-.7.9-1.6 1.9-5.9 2.8-8.4-.2 2.5-2.2 7.9-3.1 11.1-.5 3.4.4 2.2 1 3.9 1.1-2.1 2.2-7.8 2.3-9.5l-.9-.2c.8-2.1 1.2-1.3 1.1.3.5-.1 1-3.8 1.5-4.2-1.8 4.1-.2 11.9 2.2 7.9.7-1.2 1.2-5.4 2-6.9.3-.6-1.1 5.7-1.6 7 1 .7 2.3-3.6 3.6-8.3.4.2-.1 2.3-.7 4.5 1.1 0 2.6-7.3 3.8-11.4-1.2 5.9-4 16.2-2.5 16.4.6-1.6 0 1-.2.9-1.2 5.2.3 3.8.1 6.5 4.2-4.6 2.7 4 2.5 10.3m168.5 43.7c5.1-1.2 7.8-2.3 13.1-4-1.6-.5-10.1 2.9-13.1 4m-54.7 34.5c3.8 6.7 5.1 11.5 7.1 17.7-.4-2.5-1.6-6.8-3.2-10.3-1.5-3.7-3.3-6.5-3.9-7.4m-30.9.8q1.05-.75 1.8-1.2c.5-.3.8-.6 1.2-.9.7-.5 1.3-1 2.4-1.7 6.6-3.9 6.8-3.9 4.9-3-1 .5-2.5 1.4-4.2 2.3-1.7 1-3.4 2-4.6 2.7.5-.5 1.4-1 2.5-1.7.5-.3 1.1-.7 1.7-1s1.2-.7 1.8-1c1.2-.7 2.4-1.4 3.4-2s1.8-1.2 2.2-1.7c-1.3.7-2.5 1.3-3.7 2-1.1.7-2.2 1.3-3.2 1.8-2 1.2-3.7 2.3-5.2 3.3-1.5 1.1-2.9 2.1-4.1 3.2-1.3 1.2-2.5 2.3-3.6 3.7-.6.4-1.4 1-2.2 1.7-.4.4-.9.8-1.3 1.2-.5.4-.9.9-1.4 1.4-.9 1-1.8 2.1-2.7 3.2-.4.6-.8 1.2-1.1 1.7-.4.6-.8 1.2-1.1 1.8 1-1.2 2-2.5 2.9-3.8 1-1.1 1.9-2.2 2.9-3.2.5-.5.9-1 1.4-1.5s.9-.9 1.4-1.3c.9-.9 1.7-1.7 2.5-2.4 3.2-2.6 5.4-4.1 5.4-3.6m12.9-23.8c1 .9 1.9 1.8 2.8 2.8s1.8 2.1 2.6 3.1c1.6 2 3 3.7 3.9 4.3-1.5-1.8-3.5-4.3-5.2-6.3-1.8-2.1-3.4-3.7-4.1-3.9m-89.7 29.1c1.2-1.3 2.7-2.9 4-4.6.7-.8 1.3-1.7 1.9-2.5s1.1-1.7 1.6-2.4c-2.4 2.5-5.6 6.8-7.5 9.5m13.7-17.9c.6-1 1.2-1.8 1.6-2.5.5-.7.8-1.3 1.2-1.9.7-1.1 1.2-2 1.5-3.1-.8 1.2-2 3.2-2.9 4.9-1 1.6-1.7 2.8-1.4 2.6m-38.3 17.1c-.6 1.4-1.6 7-2.3 12.4-.1.7-.2 1.4-.3 2 0 .3-.1.7-.1 1v1.1c0 .5 0 .8-.1.9q.3-.45.3-1.2v-1.1c.2-1.3.3-2.6.5-3.9.8-5.2 1.6-10.2 2-11.2m194.2-40.5c-.6.3-1.5.7-1.5.9 2.5-1.4 3.7-.7 4.8-1.9-1.2.4-2.9 0-4.1 1.2.4-.3.9-.4.8-.2m20.4 15.2c1.4-.7 2.7-1.3 4.1-2 .2-.7-5 1.7-5.1 2 .7-.2 1-.3 1 0m2.9-.3c1.9-1 3.7-2.1 3.7-2.7-2.7 1.3-3.8 2.1-3.7 2.7m3.4-1.3c.2.4-2.1 1.3-1.3 1.5 1.1-.5.9-.1 1.8-.4 2.8-2.2-.2-.5-.5-1.1M627.1 358c.1.4.2 1 .4 1.6.1.6.3 1.2.4 1.9.3 1.3.6 2.6 1 4 .6 2.7 1.8 5.5 2.6 6.6-.5-1.6-1-3.1-1.4-4.5-.3-1.3-.7-2.5-1-3.6s-.7-2.1-1-3-.6-2.1-1-3m24.5 45.5c-2.9-3.9-5.3-6.6-7-8.8 1 1.6 2.3 3.4 3.6 4.9.6.8 1.3 1.5 1.9 2.2.5.7 1.1 1.2 1.5 1.7m25.1-80.8c-.6-.8-1.3-1.6-1.9-2.4l-.2-.3-.3-.3-.6-.7c-.4-.4-.8-.9-1.3-1.3-.5-.5-1.1-1-1.7-1.5l-.9-.7c-.2-.1-.3-.2-.5-.4l-.6-.5c-.8-.6-1.7-1.2-2.6-1.7-.2-.1-.6-.3-.9-.5l-1-.5c-.6-.3-1.3-.6-2-.9l-1-.4c-.5-.2-.9-.3-1.4-.4-.9-.3-1.9-.5-2.9-.7-.5-.1-1-.2-1.5-.2-.5-.1-1.2-.1-1.8-.1-1.2-.1-2.5 0-3.7.1s-2.5.3-3.8.7c-1.3.3-2.6.8-3.8 1.3-.6.3-1.1.5-1.6.8l-1.5.9c-1 .6-2 1.3-2.8 2-1.4 1.1-2.7 2.5-3.8 3.8-.8 1-1.6 2.1-2.3 3.3-.6.9-1 1.8-1.4 2.7l-.3.7-.2.5-.4 1.1-.4 1.1c-.1.4-.2.6-.3.9-.2.6-.4 1.2-.5 1.8s-.3 1-.4 1.6c-.1.5-.2 1.1-.3 1.5-.3 1.9-.6 3.5-.7 5.1-.3 3.1-.3 5.8-.2 8.4s.3 5.1.7 7.7l.3 1.9.4 2 .4 2.1.5 1.8c.3 1.2.7 2.4 1 3.5q.45 1.8 1.2 3.6c.5 1.2.9 2.4 1.4 3.7.5 1.2 1.1 2.3 1.6 3.5l1 2.2c.3.7.7 1.4 1.1 2.1.7 1.4 1.5 2.8 2.3 4.1.5 1 1.9 3.2 2.8 4.5.9 1.2 1.3 1.7-.3-.7-1-1.7-2-3.3-3-5.1l-1.5-2.7c-.5-.9-1-1.8-1.5-2.8l-1.4-2.9-.7-1.5-.6-1.5c-.8-2-1.6-4.1-2.2-6-.6-2-1.2-3.8-1.6-5.8-.5-2.3-.8-4.2-1.1-6.1-.5-3.8-.6-7.1-.4-10.1.1.9 0 2.5.1 3.9.1 1.3.2 2.4.4 2.3-.3-4-.4-7.6-.1-11.6.1-2 .4-4 .9-6.4.1-.6.3-1.2.4-1.8.2-.7.4-1.4.6-2l.2-.5.2-.6.4-1.2c.2-.4.3-.8.5-1.2.2-.5.5-1 .7-1.4.2-.5.5-.9.7-1.4.1-.2.3-.5.5-.8l.6-.9c.4-.6.8-1.1 1.2-1.7l.3-.4.4-.5c.3-.3.6-.7.9-1 .6-.7 1.3-1.3 2-1.9.3-.3.8-.7 1.3-1s1-.7 1.4-1c1-.6 2-1.2 3-1.7 1.2-.5 2.4-1 3.6-1.3 4.9-1.4 10-.9 13.2 0 .4.1.9.2 1.3.4l.7.2.5.2c.6.2 1.2.5 1.8.8l1.8.9.4.2.3.2.6.4c.8.5 1.5 1 2.3 1.5.4.3.6.5.9.7l.8.6c.5.4 1 .9 1.5 1.3l1.1 1.1 1.1 1.1c.4.4.6.6.9 1 .6 0 1.2.6 1.7 1.2m-65.3 98c-1.4 1-3.9 5.2-6 6.6-.4-.2 1.9-2.2 2.5-3.1-1.4.5-3.9 4.4-6.4 6.2 3.5-4.3 6.8-7.7 11.6-14.3.5.6-3.6 4.7-4.1 5.9 2.7-2 4.1-4.2 2.4-1.3m59.1-64.8c-.3-.2-.7-.7-.9-1.6-.1-.4-.3-.9-.4-1.5-.1-.3-.2-.5-.2-.8-.1-.3-.1-.6-.2-.8-.1-.8-.3-1.9-.4-2.8-.1-1-.2-1.8-.4-2.3.5-.2.6 1.7.9 3.7.1.5.1 1 .2 1.4.1.5.3 1.2.4 1.8.3 1.1.6 2.2 1 2.9m-84 89.2c.5-.1 1.2-.6 2-1.4.4-.4.7-.8 1.2-1.4l.2-.2v-.1l.1-.1.2-.2.8-.8c1.1-1.1 2.2-2.1 3.3-3.2 2.2-2.2 4.2-4.3 6.1-6.4-.3.8-1.5 2.1-2.9 3.6s-3.1 3-4.1 4.2c1.2-.6 2.7-2.1 4.2-3.7s3.1-3.4 4.6-4.6c-1 1.2-2.1 2.3-3.1 3.4s-2.1 2.2-3.2 3.3-2.1 2.2-3.2 3.2l-1.6 1.6-.4.4-.1.1-.1.1c-.4.4-.6.7-.9 1s-.6.6-1 .9c-.4.4-.9.7-1.3 1s-1 .5-1.5.3c-.5-.3-.6-.9-.6-1.5s.1-1.2.2-1.7c-.2-.2-.3-.6-.2-1.2 0-.3 0-.6.1-.9 0-.2.1-.3.1-.5v-.4c.1-.5.2-1.1.3-1.6 1.5-8.8 3.7-18.7 5.7-27.8.7-1.2-2.2 9.4-1.9 11 2.4-9.7 3.5-18.1 6.3-28.6-.9.3-1.9 5.9-2.8 8.3 1.5-9.7 5.8-20.2 7.5-28.6-3 14.6-7.7 33.7-11.6 53.8-.5 2.5-1 5-1.4 7.5-.2 1.3-.4 2.5-.6 3.8l-.3 1.9-.1.8v.1c-.1.5-.2 1.1-.2 1.6-.1.6-.1 1.1 0 1.7 0 .3.1.5.3.7s.5.3.7.2c-.5.4-.7.3-.8.4m2.5-1.4c.2.1.5-.1.7-.4s.4-.7.5-.9c-.7.3-1 .4-1.2 1.3"/><path fill="#00A081" d="M351.9 616c1.2-4.2 3.4-6.9 4-9.9-1.2 2.9-4.2 8.3-4 9.9m-10.8 70.8c.3 2.2.6 4.4 1 6.5.2 1.1.4 2.1.6 3.2l.1.8c.1.3.1.6.2.9.1.6.3 1.2.4 1.8s.3 1.2.4 1.8c.2.6.4 1.3.6 2 .4 1.3.7 2.6 1.1 3.7.9 2.3 1.7 4.5 2.7 6.3.1 1-2.7-4.2-4.3-10.5l-.3-1.2-.2-1c-.1-.7-.3-1.4-.4-2-.1-.7-.3-1.3-.4-1.9-.1-.5-.2-1-.2-1.5-.3-1.8-.5-3.2-.6-3.7l-.3-2.6c-.3-.9-.3-1.7-.4-2.6m124.2-19c-3 6.8-6.8 14.2-11.8 22-.6 1-1.2 2-1.9 2.9l-2.1 3c-.7 1-1.4 2-2.2 3s-1.7 2-2.5 3l-1.3 1.5-.6.8-.6.6c-.8.8-1.6 1.7-2.3 2.5-1.5 1.7-3.2 3.4-4.9 5.1s-3.5 3.4-5.3 5l-2.8 2.5-1.4 1.2-1.5 1.2c-1 .8-2 1.6-3.1 2.4l-3.3 2.4c-2.5 1.7-4.7 3.2-8.6 5.2-.9.5-1.8 1-2.7 1.4s-1.8.8-2.7 1.1c-.9.4-1.8.8-2.7 1.1s-1.9.6-2.8.8c-.9.3-1.8.6-2.8.8-.9.2-1.9.4-2.8.6-1.9.4-3.7.5-5.6.6-.9.1-1.8 0-2.8 0-.9 0-1.8 0-2.7-.1s-1.8-.2-2.7-.4l-1.3-.2-1.3-.3c-3.5-.7-6.8-2-9.9-3.6 1.1.2 3.8 1.5 7.4 2.6.9.3 1.8.5 2.8.7l1.5.3c.5.1 1 .1 1.5.2l1.5.2c.5.1 1 .1 1.5.1 1 0 2 .1 3 .1 1.6 0 3.3-.2 4.9-.3 1.6-.2 3.3-.6 4.9-.9 1.6-.4 3.3-1 4.9-1.5.8-.2 1.6-.6 2.4-.9l2.4-1c1.6-.6 3.1-1.5 4.7-2.3l2.3-1.2.6-.3c.2-.1.3-.2.4-.3l.8-.5 3.3-2.2 2.8-2c7.4-5.5 13.3-11.3 18.8-17.1l2-2.2 1-1.1c.3-.4.7-.7 1-1.2 1.4-1.7 2.9-3.5 4.3-5.2 1.3-1.7 2.5-3.5 3.8-5.2 1.2-1.7 2.3-3.4 3.4-5.1 4.4-6.7 8-13.4 11.1-19.8m-53.6 62.3c-1.6.7-3.3 1.4-5 2.2-1.8.7-3.6 1.3-5.7 2.2q-1.5.45-3.3.9c-.6.2-1.2.3-1.8.5s-1.2.3-1.9.4c-1.3.2-2.6.5-4.1.6-1.4.1-2.9.3-4.5.2-1-.1-1.1-.2-.5-.2h1.3c.5 0 1.2-.1 1.9-.1.7-.1 1.5-.1 2.2-.2.8-.1 1.6-.2 2.3-.3 1.5-.3 2.8-.5 3.6-.8.9-.3 1.8-.6 2.8-.9.9-.3 1.8-.5 2.7-.9 1.7-.7 3.4-1.4 4.8-2.1 1.5-.8 2.8-1.5 4-2.1 1-.5 1.9-.9 2.6-1.3-.1.3-.4.6-.6.8-.2.4-.6.8-.8 1.1m81.1-132.8c.3-2.2 1.6-6 2.2-8.6.1 1-.2 2.6-.7 4.3-.4 1.7-1.1 3.3-1.5 4.3m-47.9 103c0-.9 1.4-2.5-1.5.9-.3.1.8-1.3 2.2-3 .7-.9 1.4-1.8 2-2.7s1.2-1.7 1.6-2.2c-.1.4-.1.8-.7 1.5.3 0 1-1.1 1.6-1.8-.3.8-1.4 2.2-2.4 3.6s-2.3 2.8-2.8 3.7M348 639.1c-.1-1.3.5-3.9 1.2-6.6 1.1-3.1-1.3 5.4-.2 2.3.4.8-.8 2.1-1 4.3m19.9-51c.1-.6.7-1.7 1.5-3s1.8-2.7 2.4-3.7c-.1.6-.8 1.7-1.6 3s-1.7 2.7-2.3 3.7m10.5-15.6c1.2-.9.5.2-.6 1.8s-2.8 3.8-3.5 5c.3-.9 1.1-2.3 2-3.6.7-1.4 1.6-2.6 2.1-3.2m36.7 14.8c1.6-1.5.7 1 1.2 1.3-2 1.5.2-1.2-1.2-1.3m-27.3 104.1c.4-.3.4.3.7.3-.4.4-.5 0-.7-.3m43.1-55.2c0-1.5 3.6-8.1 5-12-.3 1.9-.9 3.6-1.8 5.5-.8 1.9-1.9 4-3.2 6.5m8.1-20.3c0-1.2 1.6-4.6 2.1-6.6.3.8-1.3 5.3-2.1 6.6m7.8-23.8c0 .7-1.6 6.6-2.2 6.1 1.1-1.8 1.4-4.6 2.2-6.1m-80.9-7c.3-1.2 2.5-3.1 3.8-5.1.2.9-2.6 3.2-2.4 4.1-1.2 1.8.2-1.6-1.4 1m170.5-171.3c1.1-1.1 2.2-4.4 3.3-6.6 0 2.9-1.3 7-2.6 11.2-1.3 4.1-2.5 8.4-2.4 11.4-3.5 11-7.3 25.9-8.8 35.3.4.2.7-2.3 1-3.2-5.2 21.5-12.7 45.7-18.8 70.9-1.3 5 .5-3.3.6-3.3-.7 0-2 8.1-1.7 6.5-.8 3.5-2.2 9.1-3.5 14.5-1.4 5.4-2.8 10.5-3.5 12.9.3.4.6-.8.9-1.9-3.1 12.8-7.6 29-12.6 44.8-1.3 3.9-2.5 7.9-3.7 11.7s-2.5 7.6-3.7 11.2c-2.5 7.3-4.9 14-6.9 19.7l-.4-.2c-1.3 5.2-4.6 11.6-7 16.5 1.8-4.5 4.6-11.1 7.4-18.1s5.4-14.4 7.2-20.3c-1.9 4.9-4.1 10.7-6.3 16.2s-4.4 10.7-6.3 14.4c2.7-6.7 5.7-14 8.6-21.7-2.2 4.8-4.4 10.2-6.8 16-1.2 2.9-2.5 5.8-3.8 8.8-1.4 3-2.8 6-4.4 9 .8-1.1 1.8-3 2.8-5s2-4.2 2.8-5.9c-.1 1.6-.9 3.5-1.8 5.4s-1.9 3.7-2.8 5.3c-4 7.4-8.2 14.8-13.4 22.1-1.4 1.8-2.7 3.6-4.1 5.4-1.5 1.8-3.1 3.6-4.6 5.4-1.4 1.5-2.9 3-4.3 4.6l-4.5 4.5c-1.6 1.5-3.1 2.9-4.7 4.4-1.7 1.4-3.3 2.9-5.1 4.3l-2.7 2.1-2.9 2.1c-.5.3-.9.7-1.5 1l-1.7 1.1-1.7 1.1-.8.5-1.1.6c-5.9 3.5-12.4 5.9-19 6.9-1.6.2-3.3.3-4.9.4l-2.5-.1c-.8 0-1.6 0-2.4-.1-3.2-.3-6.5-1.1-9.5-2.2-.8-.3-1.6-.7-2.4-1-.8-.4-1.6-.7-2.4-1.1s-1.5-.8-2.3-1.3c-.7-.5-1.5-1-2.2-1.5-4.4-3.3-8.1-7.6-11-12.6-.7-1.2-1.3-2.6-2-3.9-.3-.6-.6-1.3-.9-2l-.8-2.1c-.6-1.4-1-2.8-1.4-4.2l-.6-2.1-.4-1.9-.4-1.9-.2-.9-.1-.8-.5-3.1c-.3-2-.5-4.1-.6-6.1-.2-2-.2-4-.3-5.9 0-1.9-.1-3.9 0-5.8.2-7.6 1-14.9 2.2-21.9s2.7-13.8 4.4-20.4c-.2 0-.4.8-.6 1.4.7-3.4 2-7.6 3.3-11.6 1.3-4.1 2.7-8.1 3.5-11.3-.4.2-.9 1.8-1.3 3.4-.4 1.5-.9 3-1.4 2.8 1-2.1 2.5-7.2 4.4-11.2-.6-.5-.7 1.4-1.3 2.7.4-2.9 1.7-5.4 3.1-9.5-.2-.4-.6.4-1 1.2-.2-.9 1.5-2.9 2-4.2-.3 2.2-.8 4.4-2.8 8.8 1.9-2.9 3.7-5.7 6.4-11.3-1.2 4.3-5.6 11.8-8.9 21.6.3-.3.5-.5.9-1.3.3.4-.9 1.8-1.2 2.7-.5 1.5-.1 1.7.4 1.7 2.6-6.9 4.6-12.8 6.9-18.4s4.8-10.8 8.4-16c-.3 1-.8 1.9-1.4 3-.7 1.1-1.5 2.5-2.5 4.5.3 0 .8-1.1 1.3-1.9-2.5 5.1-5.3 10.9-8 17.1 2.1-4 4.3-8.4 6.4-12.5 2.2-4.1 4.1-7.8 5.4-10.3-.3 0-.9 1.1-1.4 1.9.3-1.6 1.4-3.5 2.8-5.1 1.3-1.7 2.8-3.2 4-4.3 0 .4-2.8 3.6-4 5.8 1.2-1.1 2.2-2 3.4-4.3-.4 1.3 1.2-.4 3.1-2.7 1-1.2 2.1-2.5 3.1-3.7s1.9-2.2 2.4-2.9c-.4-.7-1.5 1.9-2.5 2 .3.1-.2.7-1 1.7s-2.1 2.3-3.2 4c-.5 0 .4-1.1 1.1-2.1-.2-.1-.7.7-1.1 1.1 3.3-4.3 6.6-8 9-10.1-1.7 1.7-1.1 1.8-.9 2.4l3.3-2.4c1.1-.8 2.3-1.5 3.3-2.1 2.1-1.2 3.9-1.7 4.7-.9-1.6.8-3.1 1.2-4.6 2-.8.4-1.6 1-2.5 1.7s-1.8 1.7-2.9 2.9c0 .5.9.4 2.1-.2.6-.3 1.3-.7 2.1-1.3.8-.5 1.6-1.2 2.4-1.9.5-.1-3.2 2.9-.8 1.4.1.2-.4.6-1.1 1.2-.6.5-1.4 1.1-1.7 1.5 1.7-2.2-.9-.3-2.7 1.7 1.2-.6 2.2-.4 4.7-3-1.3 2 .5.7-.1 2.1-2.1 1.9-2.6.8-4.7 2.9-1.1 2.2 3.5-2.7 2.2-.1.1-.3 3.2-2.4 2.5-2.8-.2 1.3 1.4 1 4.7-1.6.9 0 .1 2.4 1.3.3.9-.6.7-.1.3.6-.5.7-1.3 1.6-1.9 1.9 1.9-.8 3-.5 5.3-1.7.1.4-.6 1.1-1.8 2.2 1 .7 1.1.7 2.7-.1-1.7 1.4-1.3 2-3.2 3.6 1.5-.4 1.9-.7 3.6-2.1-.9 1.2-.4 1.1.3.7.8-.3 1.7-.8 1.7-.5 1.2-1.4 2.5-2.4 4.1-3.4 1.2-.3-2.9 1.9-2.8 2.8.8-.2 2.8-1.9 3.6-1.9-.5.8-2.6 2.2-2.1 2.6 2.1-.7 3.1-.1 4.4.1.6.1 1.3.2 2.2.1.4-.1.9-.2 1.4-.4s1.2-.4 1.8-.8c.3.1.5.6 1.6.4-.8.2-2.9 1.5-3.4 2.2.3.4 1.1.1 2.3-.6-.1.4-.6.7-1.1.9s-1.1.4-1.3.5c-1.4 1.4-1.2 1.7-1.1 2.3-1.7 1.3-3.1 2.6-4.1 3.7-1 1.2-1.7 2.3-1.8 3.4.3.4 1.4-.6 2.4-1.6.5-.5.1-.7-.3-.3.3-.8 3.4-1.9 2.6-.5 1.4-1.5 1.9-1 3.2-2.1.3.4 0 .5-.6.7-.5.2-1.3.5-1.9 1.4 2.6-1.8.1.7-.6 1.8.4.3 1.9-.8 1.2.5.8 0 1.3-1.8 1.8-1.1-1.2 1.3-2.2 2.1-3.2 3-1 .8-1.9 1.7-2.9 2.9.9-.2 1.6-.9-.1.7 0 .2 0 1.3 1.1.3-.1.4-.5 1.1-1.1 1.9.6-.2 1.8-1.6 2.1-1-1.4 1.8-2.3 2.4-3.2 3.1s-1.9 1.5-3.2 3.6c-.5-.1.8-1.4.5-1.7-.4.7-.8 1.4-1.2 2-.3.7-.6 1.3-.9 1.9-.6 1.2-1 2.4-1.4 3.6-.9 2.4-1.7 4.9-3.3 8.2-.2-.6-.9.6-1.4 2-.5 1.3-.7 2.8 0 2.5-2 3.7-2.6 5-3.3 6.4-.6 1.4-1.2 3-2.5 7.6.4-.4.9-1.1 1.3-1.9.5-.8 1-1.9 1.4-3.3.5 2-1.9 6.6-3.2 10.6.2-2-.3-.6-.9 1.6.2 0 .4-.6.5-1.1-1.8 6.7-3.7 14-5 21.6-1.3 7.5-2.1 15.4-1.6 22.5-.3.2-.4-.5-.6-.5 0 3.1.4 5.4.7 6.1.3.6.2-.2-.2-4.1.2.1.3 1.5.6 2.9.1.8.3 1.5.5 2.2 0 .2.1.4.1.5s.1.2.1.2c.1.2.1.3.2.4-.2-.4-.4-.3-.5-.1-.1.1-.1.3-.2.4 0 .1-.1.2-.1.2l-.1.1c.5 0 .6.1.6.2 0 .2 0 .4.1.6-.6.3-.1-.3-.5-.2-.4.4.2.7.4.8.2-.2 0-.2 0-.4.4-.3.2.2.4.2-.1.1-.2.1-.3.2.3.4.6.6.9.7s.6.1 1 .1c.1-.1 0-.3.1-.6.1.3.2.2.3 0 .1-.1.1-.3.3-.1 0 .6-.2.3-.5.5.5.2 1.4.2 1.7-.6h-.5q-.15.15-.3 0c0-.3.2-.5.3-.5l.7-.4c.3-.1.5-.3.8-.4.2-.1.6-.4.9-.6l.9-.6c-.6 1.1-.1.6.6-.1s1.7-1.7 2-1.4c.9-.8-.7.1 0-.8.8-.6 1.6-1.3 2.3-1.9s1.3-1.2 2-1.9l2-2c.7-.7 1.4-1.4 2.3-2.2-.5 1.3-1.9 1.9-2.6 3.1 1.3-.8 2.1-1.8 3-2.9s2-2.5 3.9-4.2c-1.6.9-2.8 3-3.7 3 .3-.7 1.1-1.7 2.2-2.8-.1.3-.2.7 0 .8.4-.4.8-.8 1.2-1.3l.6-.6c.2-.2.4-.4.5-.6.6-.7 1.1-1.3 1.6-2 .3-.3.5-.6.8-.9.3-.4.5-.7.7-1 .5-.7 1-1.4 1.4-2 1.9-2.7 3.5-5.4 5.1-8.2 3.2-5.6 6.2-11.7 10.1-20.6.2.1-.2.7-.3 1.2 4.3-7.4 7.8-16.1 10.8-25.4.8-2.3 1.5-4.7 2.2-7.1s1.5-4.8 2.2-7.3c.7-2.4 1.5-4.8 2.2-7.2s1.5-4.8 2.2-7.2c-.4.4-.9 1.4-1.3 3 .5-4.1 2.7-7.7 3.8-11.8-1.9 2.7 1.5-2.7-.4-.8.9-2.9 1.7-5.8 2.6-8.8.1.6-.1 1.7-.5 3.2 7.2-23.3 13.9-52.8 19.7-73.3-.2 0-.3.8-.5 1.2 3.1-14 12.5-40.3 15.9-54.7.4-1.9-.1-2.7.5-4.1-.2-.2-.4.1-.6.5-.2-1.6 1.9-2.1 1.8-5.1.6-.7-.8 4.9-1 6.7 1.7-4.4 3.3-9.2 4.8-14.1s2.8-10 4-15c-.3 3.9 1.7-4.1 2.6-7 .5-.7-1.5 5.7-1.3 6.7 1.2-2 3.9-11.3 3.9-13.7.2-.7.3-.3.2.1.2 0 .4-.8.6-1.2.4 0-.6 2.3-.7 3.3.4.2.8-2.3 1.1-3.2-.4 3.4 1.3-1.4 2.1-4.3.2-.7-1.1 7.2.5 3-.3 2.1-.5 4.1 0 4.9 1-.5 2-3.2 3-1.9.7-1.3 1.2-5.4 2.3-8.5.2.7-.3 2.4-.4 3.4 1.2-1.4 2.7-4.6 2.8-2 .2-.1.5-1.2.8-1.2.7-1.7 0-1.4 0-2.1.9-1.2.9 2.1-.4 5.5.8-.3 1.7-2.5 2.5-5.6.9-1.9-.7 2.8-1 3.9.6-.8 1.3-3.9 1.9-5 .3.4-.9 3.2-1.2 4.6 0 1.1 0 3.5.9.3.3.2-.5 2.2 0 2.1 1.1-2.7 0 2.1 1.1-1.8.2.3-.3 1.7-.6 2.6.9 1.3 1.9-3.4 2.9-5.4.3.6-1 3.6-1.4 5.2-.5 2.4.8.1.5 2.3.5-.2.1-1.1.8-1.9.1.7.2 1.2.2 2.1 1.2-1.8 2.9-8.1.8-.5.8-1.1 1.7-4.4 2.5-6.2-.1 1.9-1.9 5.9-2.7 8.3-.4 2.6.5 1.8 1.1 3.1.9-1.5 1.9-5.8 1.9-7.1l-.9-.3c.7-1.5 1.2-.9 1.1.3.4 0 .9-2.8 1.3-3.1-1.7 3 .2 9.1 2.4 6.3.7-.9 1-4 1.7-5 .3-.4-.9 4.2-1.3 5.1 1.1.7 2.1-2.6 3.2-6 .4.2-.1 1.7-.6 3.3 1.1.2 2.3-5.3 3.4-8-1.2 4-3.5 11.6-1.9 11.9.5-1.2.1.8-.2.6-1 3.9.5 2.9.4 4.9 3.7-2.5 2.7 3.9 2.7 8.7M380.9 575.4c1.8-1.6 3.1-2.9 4.5-4.2.7-.7 1.4-1.3 2.2-2s1.7-1.4 2.7-2.3c-.4 0-1.1.4-1.9 1-.4.3-.9.7-1.4 1.1s-.9.9-1.4 1.3c-2 1.8-3.8 4-4.7 5.1m4.8 159.8c-1.9-.1-3.6-.1-5.1-.4-.8-.1-1.5-.2-2.2-.3-.7-.2-1.4-.3-2-.5-1.3-.3-2.5-.7-3.8-1.1s-2.4-.9-3.8-1.4c1.8 1.1 5.4 2.6 8.9 3.2.9.2 1.7.2 2.6.4.8.1 1.6.2 2.3.2 1.5 0 2.6-.1 3.1-.1m-36.4-92.8c.6-2.2.4-2.7.8-4.4 1.2-5.2 1.3-5.4.9-3.9-.2.8-.6 2-.9 3.2-.3 1.3-.7 2.6-1 3.5 0-1.9 2.3-7.5 1.8-9.5-2.1 8.4-3 11.7-2.9 16.1-.4.8-.8 2.2-1 3.7s-.4 3.1-.3 4.4q.6-2.4.9-4.8c.3-1.6.5-3.1.7-4.3.2-2.5.5-4.2 1-4m65.9 82.1c-1 .8-2.1 1.5-3.2 2.2l-.8.5c-.4.2-.7.4-1.1.6-.7.4-1.5.7-2.2 1.1-.7.3-1.4.7-2 1s-1.2.5-1.8.8c-1.1.5-1.9.9-2.4 1.3 1.2-.6 2.8-1.1 4.3-1.8 1.5-.8 3.1-1.6 4.6-2.3l.6-.3.4-.2c.3-.2.5-.3.8-.5.5-.3.9-.6 1.3-.9.8-.7 1.4-1.2 1.5-1.5m81.3-148.8c-1 2.8-2.1 6.8-2.6 9.8 1.2-2.7 2.2-7.1 2.6-9.8m-5.3 18.3c-1 3.8-1.8 5.2-1.8 7.3.7-2.4 2.2-7.8 1.8-7.3m30.5-117c-1.2 2-4 17.3-4.5 18.8 1.4-3.4 3.6-17.3 4.5-18.8m-135.2 94.9c-.4.5-1 1.2-.9 1.3 1.5-2.2 2.8-2 3.2-3.4-.9.7-2.5 1-3 2.5.3-.3.6-.6.7-.4m22.7 8.3c.7-.7 1.5-1.3 2.2-2-.1-.6-3.1 1.8-2.9 2.1.4-.2.7-.3.7-.1m2-.4c.5-.5 1-1 1.3-1.5.3-.4.5-.8.5-1.1-.8.6-1.3 1.1-1.6 1.5-.2.5-.3.8-.2 1.1m2.1-1.3c.2.3-1.1 1.2-.4 1.3.6-.5.6-.1 1.1-.4 1.3-1.9-.3-.4-.7-.9m7.1 81.7c-.3.7-1.1 1.9-1.8 3-.8 1.1-1.5 2.1-1.5 2.9 1-1.2 1.8-2.2 2.3-3.1.5-1 .8-1.9 1-2.8M405 680.1c1.1-.9 2-1.7 2.7-2.5q1.05-1.2 1.8-2.1c-.8.7-1.7 1.6-2.5 2.4-.8.9-1.5 1.7-2 2.2m24.6-39.2c-2.6 5.6-4.9 10.3-7.3 14.5-2.3 4.3-4.7 8.1-7.2 11.9-.8 1.1-1.7 2.2-2.5 3.3-.7.7-2.8 3.4-1.1 1.6.6-.6 1.2-1.2 1.7-1.9s1.1-1.5 1.7-2.2l.8-1.1c.3-.4.5-.8.8-1.2l1.5-2.4c.5-.8 1-1.6 1.4-2.4.5-.8.9-1.6 1.4-2.3.9-1.5 1.7-2.9 2.6-4-.3.8-1.7 2.5-1.3 2.6 3.6-6.7 6.1-11.7 7.5-16.4m68.1-61.3c.8-1.2 1.1-5.4 2.2-7.1.4 0-.6 2.3-.7 3.3 1-.9 1.3-4.7 2.6-7-.9 4.6-2.1 8.4-3.7 15.2-.7-.3 1.3-4.9 1.1-6.1-1.4 2.4-1.8 4.5-1.5 1.7m-45.1 109.3c.1-1.7 6.1-9.3 6.7-11.9.5.1-.5 2.2-2.1 4.6-.8 1.2-1.7 2.6-2.5 3.9-.9 1.3-1.7 2.5-2.1 3.4m60-164.7c-1.8 8.1-6.8 29.2-10.3 43.3-.3-1.4 1.3-6 1.7-8.6-1.4 1.9-1.6 6.6-3 9.7 5.6-22.4 10-42.3 16-63.2 1.3-8.3 6.2-24.8 9.8-38.7.7-.8-1.9 7.2-1.8 8.5 2.3-7.4 3.2-13.9 5.4-21.9-.9.2-1.6 4.4-2.4 6.2 1.2-7.4 4.9-15.2 6.1-21.6-2.2 11-5.8 25.5-9.8 41s-8.3 32.2-12.1 47.4c-.1-.3.3-1.3.4-2.1m-5 19.5c-1.2 2.8-2.1 8.1-2.7 11.1 1.1-3.1 2.6-8.6 2.7-11.1"/><path fill="#00A081" d="M504.8 373.5c.3-2.3 1.6-3.7 1.4-5.3-.4 1.6-2 4.4-1.4 5.3M493.6 408c-1.1 3.9-2.8 7-3.7 9.2-.5.1.2-1.5 1-3.2s1.7-3.5 1.8-3.9zm-25 42q1.05-.75 1.5-1.5c.2-.2.3-.5.4-.7l.1-.2v-.1l.1-.1.9-.9.9-1c1.3-1.4 2.5-3 3.8-4.6 1.2-1.7 2.4-3.4 3.6-5.2 2.3-3.6 4.4-7.5 6.2-11.2.3.9-1.3 3.4-2.4 5.4-1.8 3.4-3.8 6.7-5.9 9.7s-4.3 5.8-6.4 8l-.2.2-.1.1-.1.1-.1.2c-.1.1-.1.2-.2.3-.2.2-.3.4-.6.6-.4.4-.9.8-1.5.9m11.3-13.2c1.6-1.2 2.8-3 4.8-6.3 1-.9-1.1 2.1-1.6 2.9-1.1 2-2.2 3.8-3 4.4-.1-.3-.1-.7-.2-1m-12.8 8.9c-.1-.1-.2-.3-.1-.4.2-.6.4-1.4.5-2 .3.5.2 1.3-.1 2v.1s0 .1-.1.1zm3.8 2.9c.3.5.1.6.4.4.2.2-.3.6-.4.8 0-.2-.1-.4 0-.4-.1-.2-.2-.1-.2-.1-.1-.5.3-.3.2-.7m33.3-62.6c-.2-.8.2-2.1.6-3.5.8-1.6-.7 2.8.1 1.2.4.5-.6 1.2-.7 2.3m6.8-28.2c-.3-.6.4-2.7.5-3.9.3.6-.4 2.7-.5 3.9m1.4-9.3c1-1.3.3 2.6 0 4-.2-1.1-.1-3.3 0-4m38.1-4.2c.2-1.9 1.2.3 1.8.2-.6 2.1-.8-1-1.8-.2m-23.1 98.2c0 .9-1.6 3.3-2.3 4.8.3-1.6 1.2-2.9 2.3-4.8m-85.3 52.3c-.9 0-3.3-1.1-5.9-2.6s-5.6-3.3-7.6-4.3c0-.1 0-.1-.1-.1l.1.1c1.1.3 2 .8 3 1.3s2.1 1 3.1 1.7c2.2 1.1 4.4 2.6 7.4 3.9m-17.6-16.7c-.4-.5-1-1.7-1.5-3.3-.4-1.5-.9-3.3-1.3-4.5.4.3.9 1.8 1.5 3.4.4 1.8 1.1 3.5 1.3 4.4m-4.1-30c.1.4 0 2.6-.1 4.6 0 2-.1 3.8-.5 3.7.3-1.3.2-2.8.2-4.3.1-1.5.1-2.9.4-4m87.5-91.6c-.2-.6.9-1.8 1.1-3 .6.4-.8 1.9-.2 2.4-.4 1-.6-.9-.9.6m4.8 19.2c-.1 0-.2.1-.3.1-.1.1-.3.1-.4.2-.3.1-.6.3-1 .4-.2.1-.4.1-.6.2l-.3.1h-.1s-.1 0-.1.1c-.1.1-.1.2-.2.2-.1.1-.1.3-.2.4-.1-.1-.2-.1-.3-.2l-.1-.1h-.2l.3-.1c.3-.1.7-.2 1-.3.7-.2 1.3-.5 2-.8.2-.1.4-.2.5-.2l.4-.2c.3-.1.5-.2.8-.4 1.2-.7 1.8-1 2.6-1.6 1.2-.8 1.3-1.4 1.1-1 0 .1-.1.1-.1.2s0 .1-.1.2c-.1.2-.2.5-.2.7 0 .1-.1.3-.1.4 0 .2-.1.3-.1.5s0 .3-.1.4v.5c-.1.4-.1.7-.1 1.1v1.2c0 .5 0 .9.1 1.4v.8l.1.8c.1.6.1 1.1.2 1.6l.1.5v.1h-.2c-.4.1-1.4.4-2.5 1-2.2 1.1-4.6 2.9-6 4.6.3.3.9-.6 1.3-.7-1.1.8-2.2 1.7-3.4 2.6-1.2 1-2.5 1.9-3.7 3-2.5 2.1-5.2 4.2-7.7 6.6-5.2 4.7-10.3 10.1-14.5 16-1.7 2.3.9-1.7 1-1.6-.3-.2-1 .8-1.5 1.7s-1 1.7-.7 1.4c-1.1 1.7-2.9 4.4-4.5 7-.8 1.3-1.5 2.6-2.2 3.6-.6 1.1-1.1 2-1.5 2.6.3.3.6-.3.9-.8-1.4 2.8-2.9 5.9-4.1 9.2-.6 1.6-1.2 3.2-1.7 4.8l-.2.6-.1.3v.1l-.1.3c-.1.2-.1.4-.1.6-.3 1.5-.1 3.1.8 3.6.1 0 .1.1.2.1h.3c.2 0 .3 0 .5-.1l-.3.4c.5-.4.8-.4 1-.3s.4.2.6.2c-.3.3-.8.5-1.2.5-.2 0-.5 0-.7-.1s-.5-.1-.6-.3c-.3-.4-.5-.8-.8-1.1-.1.6 0 1.2.2 1.7 0 .1.1.2.1.3l.2.1c.2.1.3.2.5.3.3.1.6.3.9.4q-.6.15-1.2 0c-.2-.1-.4-.1-.6-.2-.1 0-.2-.1-.3-.1l-.1-.3c-.1-.2-.2-.3-.2-.5-.1.3-.1.5 0 .8 0 .4.3.6.6.8s.7.3 1 .3c.8.1 1.5 0 2.3 0-.2-.5-1 0-1.5-.3.9-1.2 1.1-.7 1.5-.7.9 0 1.8-.3 2.5-.8.4-.3.7-.5 1.1-.8l.2-.2.2-.2.4-.4c.6-.6 1.2-1.2 1.8-1.9 2.4-2.7 4.8-5.8 7-9.1s4.3-6.9 6.3-10.6c.5-1 .8-2.1 1.3-3.2 2.9-6.5 6-13.3 8.9-20.3s5.5-14.2 7.4-21.1c-.2 0-.3.4-.4.7.8-3.6 2.6-8.8 2.6-12.5-.7.2-.1 3.6-1.2 3.4.5-1.1.8-4 1.4-6.2-.8-.3-.3.8-.5 1.5-.4-1.6.2-3 .1-5.2-.3-.2-.4.2-.5.7-.5-.5.4-1.6.5-2.3.4 1.2.8 2.4.2 4.9.9-1.6 1.8-3.2 2.3-6.4.5 2.4-1 6.8-2 12.2.2-.1.4-.3.6-.7.4.2-.5 1-.6 1.5-.2.9.3.9.8 1 2.2-7.7 1.4-13.5 3.2-19.7.3 1.1-.1 2.1-.4 4.4.2 0 .3-.7.4-1.1-.2 2.9-.8 6.3-1.5 9.9 1.7-4.5 2.6-10.4 2.5-13.3-.2 0-.3.7-.4 1.1-.8-1.8.5-4.3 1.3-5.8.2.2-.5 2.2-.5 3.5.5-.7.9-1.4.8-2.7.7 1.5 1.8-4.5 1.8-6.2-.7-.3 0 1.2-.8 1.5.7 0-.1 1.6-.3 3.6-.4.1-.3-.6-.2-1.2-.2 0-.2.5-.3.8.4-2.7.8-5.1 1.2-6.7-.2 1.2.3 1.1.8 1.3 1.3-2.4 2.2-5.7 4.5-5.6-1.1 1.7-2.7 2.5-2.7 5.8.7.5 2.4-1.1 2.7-3.4.3-.2-.4 2.2.3.8.4.1-.3 1.5-.4 2-.1-1.5-.8.1-1 1.5.7-.6 1.5-.8 1.7-2.7.3 1.3.9.2 1.3 1-.4 1.5-1.5 1.1-1.9 2.7.4 1.3 1.1-2.2 1.7-.6-.1-.2 1-2.1.2-2 .7.7 1.8.1 2.4-2.2.6-.3 1.7 1.1 1.2-.3.4-1.2 1.1 1.1.4 1.7.8-1 1.9-1.3 2.6-2.7.3.1.4.8.2 1.7 1.2 0 1.4-.1 1.9-1.1-.2 1.3.4 1.5.1 3 .8-.8.9-1.1 1.2-2.5.3 1.9 1.2-1.1 1.6-.7-.1-1.2 0-2.2.3-3.4.5-.7-.4 2.2.2 2.6.5-.4.5-2.2 1-2.5.3.6 0 2.3.6 2.2 1.7-2.6 4.5-1.1 5.3-5.8.2-.2.8 0 1.2-.8-.3.6-.4 2.5-.2 3.1.5 0 .8-.6.9-1.7.6.6-.2 1.7-.3 2.2.2 1.5.6 1.6 1 1.9-.3 3.3-.4 5.9.7 7.3.5.1.7-1 .8-2.2 0-.6-.3-.5-.4 0-.3-.6 1.2-3 1.5-1.7 0-1.7.6-1.7.7-3.1.9.1-.5 1-.2 2.7.6-2.5.6.3.8 1.4.5-.1.8-1.6 1.2-.3.5-.5-.3-1.9.6-1.8.2 3.1-.8 4.6-.7 7.3.6-.6.8-1.4.3.5.1.2.8.9 1-.3.2.3.2 1 .2 1.9.4-.4.6-2 1.2-1.7-.2 3.9-1.6 3.6-1.8 7.7-.5.1 0-1.3-.4-1.4-.3 5.5 1.1 8.1.3 14-.8-.9-1.1 4.4.1 3.8-.8 3.3-1.3 4.3-1.5 5.5-.3 1.2-.5 2.5-1.1 6.2.7-.7 1.4-2.1 1.8-4.3.9 1.6-.7 5.4-1.5 8.7 0-1.6-.3-.5-.7 1.2.2 0 .3-.5.4-.8-2.3 10.9-6.9 22.8-11.7 34.9-.3 0-.1-.5-.4-.7-1.2 2.5-2 4.7-2.1 5.4s.4-.1 1.8-3.5c.2.3-1.7 4.9-2.3 6.7.4-1.6-.6-.2-1.3.5.3 1.6-1.2 3.4-2.5 6.2-.2-1 .8-1.6.9-2.7-.8.6-1.7 3.3-2.1 4.3.2 0 .5-.7.8-1.2.4.2-.8 1.9-1.1 2.7-.1-.2 0-.5-.1-.6-2.5 4.7-3.3 6.6-5.6 10.7-.3.7.3 0 .5.3-1.7 1.7-.8 2.2-2.6 4.2-.1-.9.7-1.5 1.8-3.6-2 2.9-5 6.9-6.3 9.6.4-.2.9-.9 1.5-1.7.5-.7 1-1.5 1.4-1.9-.6 2-3.4 5.4-5.2 7.6.3-1.2-.1-.6-.6.3s-1.3 2.1-1.6 1.9c-.7 1 .6-.3.1.8-2.8 3.2-4.3 5.5-7.5 8.6.5-1.3 1.8-1.9 2.4-3.1-1.2.9-1.9 1.8-2.8 2.9-.4.6-.9 1.2-1.6 1.8-.5.5-1.7 1.7-3.1 2.7 1.1-.6 2.3-1.6 2.9-2.2s1.2-1.1 1.6-1c-.2.3-.5.8-.9 1.2l-.7.7c-.3.3-.6.6-1.1 1 .2-.4.4-.8.2-1-4.8 4.4-9.5 7.7-13.9 10.1-4.4 2.5-8.7 4.2-12.9 5.4-4.3 1.2-8.7 1.8-13.4 1.8s-9.9-.7-15.5-2.6c.1-.2.9.2 1.5.3-2.9-1.2-5.8-2.6-8.6-4.2-1.4-.8-2.8-1.6-4.3-2.4-.7-.4-1.4-.8-2.2-1.2l-2.1-1.2c-1.5-3.5-3-7-4.6-10.6-1.5-3.6-2.6-7.4-3.3-11.5-1.5-8.1-1.3-17.3.8-26.1-.4.7-.8 2-1.1 4.1.1-1.3.2-2.6.5-4 .3-1.3.7-2.6 1.1-3.8l.6-1.9c.2-.6.4-1.3.6-1.7.3-.8.7-1.7.9-2.5-1.8 2.2 1.4-2.2-.4-.7.4-1.3.9-2.4 1.3-3.6l.7-1.8.7-1.7c.1.5-.2 1.4-.7 2.7 2-4.7 4.2-9.4 6.7-13.9 2.5-4.6 5.2-8.9 8-13.1s5.7-8.1 8.6-11.6c2.9-3.6 5.8-6.8 8.6-9.5-.1-.1-.5.3-.8.6 3.4-4.1 9.2-9.2 15.5-13.9 3.2-2.4 6.4-4.7 9.5-6.7.8-.5 1.6-1.1 2.4-1.6s1.7-1.1 2.5-1.6c1.6-1 3.1-1.9 4.5-2.8 1.5-.9 1.6-1.8 2.9-2.3 0-.3-.3-.2-.7-.1.5-.6 1.2-.5 2-.6s1.8-.2 2.9-1.2c.5 0-.6.6-1.9 1.3-.6.4-1.3.8-2 1.1-.6.4-1.1.7-1.5 1 2-.8 4.1-1.6 6.4-2.4s4.9-1.6 7.9-2.2 6.5-1.2 10.8-1c1.1.1 2.1.1 3.4.3 1.2.2 2.3.4 3.6.8s2.5.7 3.8 1.3c1.3.5 2.5 1.1 3.7 1.9-1.9-.9-2.3-.9-1.9-.6.5.4 1.9 1.2 3.6 2.5.8.6 1.7 1.4 2.5 2.2.9.8 1.6 1.6 2.3 2.5.8.9 1.3 1.7 1.8 2.4s1 1.5 1.3 2c.2.7-1-1.5-3-3.9-2-2.5-5.2-5-6.1-5.2.5.4 1.1.9 1.8 1.6s1.6 1.5 2.3 2.4c1.6 1.8 3.2 4 4.3 6.1.5 1 1.1 2.1 1.5 3s.7 1.8 1.1 2.6c.6 1.5 1 2.7 1.3 3.4.1.5.1.6 0 .5 0 0-.1-.3-.2-.5-.2.1.1 1 .1 1.5-.2.1-.3-.5-.5-1.4s-.4-1.9-.6-2.5c-.2 0 0 .7.2 1.6.1.4.3.9.4 1.3s.2.8.2 1c-.6-1.8-.8-1.3-.6.1.1.7.2 1.6.3 2.4s.2 1.7.3 2.4c0 .4-.4-1.4-.8-2.6-.5-1.4-1-2.2-.8.2-.3-1-.7-2-1.1-2.8s-.9-1.5-1.3-1.8c-.3.5-.3 1.6-.4 2.3-.2.7-.5 1.3-1.2 1 0 1.5 1.1 5 1 7.7-.4-.5-.4-1.9-.7-2.8-.6 1.5-1.1 4.3-2 2.3-.2.1-.1 1.1-.3 1.1-.1 1.4.4 1 .6 1.5-.6 1-1.4-1.3-1.3-4.2-.7.4-.7 2.3-.7 4.6-.3 1.5-.1-2.1-.2-3-.3.7-.1 3.1-.4 4-.4-.2 0-2.4-.2-3.5-.3-.8-1.1-2.5-1 0-.4 0-.2-1.6-.7-1.5-.2 2.2-.7-1.4-.5 1.5-.3-.1-.2-1.2-.3-1.9-1.3-.6-.7 2.8-1.1 4.3-.2-.2-.2-.8-.2-1.6 0-.7 0-1.6-.1-2.2-.4-1.7-.8.1-1.3-1.3-.4.3.3.7-.1 1.4-.3-.4-.6-.7-.9-1.3-.5 1.4-.2 5.8-.5.5-.4.9-.2 3.1-.5 4.4-.4-1.2.1-4-.1-5.7-.6-1.7-1.1-.9-2.2-1.4-.2 1.1.3 3.8.7 4.5h1c-.2 1.1-.8.8-1.2 0-.2.1-.2.5-.2 1s0 1-.2 1.1c.4-1-.4-2.4-1.4-3.1s-2.2-.9-2.8.1c-.4.6.4 2.3-.1 3-.1.1-.2-.5-.2-1.2-.1-.7-.1-1.5-.1-1.8-1.2-.1-1.2 1.7-1.3 3.7-.4-.1-.4-.9-.4-1.8-.6.1-.7.8-.8 1.8s-.1 2.2-.3 3c.1-1.2.2-2.9-.1-4.2-.2-1.3-.7-2.2-1.4-2.1-.1.6-.3-.3 0-.3-.4-1.7-1.4-1.1-2-1.7-1.1.8-2 .7-2.7.3-.2-.1-.4-.2-.5-.3-.2 0-.3-.1-.5-.1-.1 0-.2-.1-.2 0l-.2.1h-.1.1l.6-.2c-.3-.3.2-.6.4-.7m3.4-26.4c1.1-2.3 1.4-3.6 2.3-6.2-1.2.6-2 4.8-2.3 6.2m-29.8 82.2c1.2-2.1 2.2-3.1 2.6-5-.8 1.1-2.5 4.3-2.6 5m19.4-43.4c.5-1.1.2-1.4.5-2.4 1.5-5.6.1-.5-.8 1.4-.1-1.1 1.7-3.9.9-5.1-1.1 4.5-2 6.1-1.7 8.6-.7.7-1.4 2.7-1.3 4.2 1.5-3 1.5-7.1 2.4-6.7M481 440.2c.7-1.8 2.8-3.3 2.6-4.3-.8 1.4-2.9 3.5-2.6 4.3m-13.2-3.5c-.4.7-.8 1.5-1.1 2.3s-.5 1.7-.6 2.5c.4-.6.7-1.5 1.1-2.3.2-1 .4-1.8.6-2.5m-3.1 8.2c0 .6-.4.7.1 1 .1-.3.1-1-.1-1m37.5-52.9c-.7.1-2.5 1.8-4.3 3.6-1.7 1.8-3.3 3.7-3.7 3.9.5-.3 1.1-.9 1.8-1.6s1.6-1.6 2.4-2.5c.8-.8 1.6-1.7 2.3-2.3s1.2-1 1.5-1.1m16.4-45.6c0 .3-.1.8.1.8-.1-1.4 1-1.6.5-2.4-.2.6-1.3 1.1-.8 1.9 0-.1 0-.4.2-.3m22.8-3.5c.1-.7.1-1.5.2-2.2-.5-.3-.9 2.5-.6 2.6 0-.3.2-.5.4-.4m1.1-1.2c0-1.1-.1-2.1-.6-2.3-.2 1.5 0 2.2.6 2.3m.5-1.7c.4 0 .1 1.2.7 1 .1-.6.4-.4.5-.9-.6-1.8-.5-.1-1.2-.1m-68.3 155.3c.5-.2 1.2-.5 2-.7s1.7-.5 2.6-.8 1.7-.7 2.5-1c.7-.4 1.3-.8 1.6-1.2l-1.5.6c-.5.2-.9.3-1.3.5-.8.3-1.6.6-2.3.9-1.4.5-2.5 1.1-3.6 1.7m28.9-18.7c-2.2 1.7-3.2 3-5 4.7.3-.2.6-.4.9-.7.3-.2.6-.5.9-.7.5-.4.9-.8 1.3-1.2.8-.7 1.5-1.5 1.9-2.1M448 496.1c7.2 2 13.8 2.2 20.1 1.4 3.2-.5 6.2-1.2 9.3-2.3.8-.2 1.5-.5 2.3-.9.8-.3 1.5-.6 2.3-1 .7-.4 1.5-.8 2.3-1.2s1.5-.8 2.3-1.2l2.8-1.6 2.7-1.8c.7-.4 2.2-1.6 3.1-2.3s1.2-1-.6.2c-4.6 3.2-9.7 6.4-14.8 8.5-1.2.6-2.5 1-3.7 1.4s-2.4.7-3.5 1-2.2.4-3.2.6c-1 .1-2 .2-2.8.2 1.1-.2 3.9-.3 3.7-.7-4.8 1-8.9 1.1-12.6.9-3.6-.3-6.7-.8-9.7-1.2m21.1-57c.3-.2.5-.9.7-1.6s.5-1.4 1-1.7c.4.1-.4 1.1-.6 1.6.9-.2 1-2.2 2.2-3.1-.7 2.3-1.7 4-2.6 7.2-.7-.3.8-2.3.6-2.9-1.2.9-1.4 1.9-1.3.5m1.4 10.8c.1.5-.2.7-.4.7-.3 0-.5 0-.6.4 0-.6.2-.7.4-.7s.5 0 .6-.4m14.8-36.6c-1.4 1.9-3.8 5.3-6.2 9.1s-4.7 8-6.2 11.4c-.3-.9 1.2-2.9 1.7-4.3-1.3.6-1.6 3.2-2.9 4.4 2.4-5.4 5.4-10.6 8.8-15.4 3.4-4.9 7.3-9.4 11.7-13.7 2.6-4 10.2-10.3 16.3-14.8.4 0-.4.6-1.4 1.3-.9.7-1.9 1.5-2 1.9q1.35-.9 2.4-1.8c.4-.3.8-.6 1.1-.9l1-.9c1.2-1 2.5-2 4-2.8-.5-.6-1.9.6-2.8.8 1.2-1.2 2.8-1.9 4.1-2.2s2.3-.3 2.3-.6c-.2.4-2.3 1.4-4.7 3.1-.6.4-1.3.9-1.9 1.3-.3.2-.6.5-1 .7-.4.3-.8.6-1.1.9-.8.6-1.6 1.2-2.4 1.9-.8.6-1.7 1.3-2.5 2.1-6.7 5.7-13.6 12.6-19 19.6 0-.3.4-.7.7-1.1m-6.6 8.9c-.6.6-1.3 1.5-1.8 2.5-.6 1-1 2-1.4 2.8.5-.7 1.3-1.7 1.9-2.6.6-1 1.1-2 1.3-2.7M267.2 284.1c.5.3.2-.3.5-.2-.1 1-.4 1.7-.4 2.5 1-.8.4-2 2-2.2.1-2.1.2-3.4-1.4-5.1.6 1.5.8 3.9-.7 5m1.7-5c.3.2.8.4 1.2.6q-.45.15-1.2 0c.1-.2-.1-.3 0-.6m-3 15.2c.2.9.1 1.9 0 2.9-.2-.9-.1-1.9 0-2.9M248 341.5c-.2-.6.5-1 .7-1.4.3.5-.4.9-.7 1.4m17.8-43.8c.3.3.1.8 0 1.2-.2-.3 0-.8 0-1.2M252.5 334l.4.2c0 .2-.2.1-.4 0 0 .1.1.2 0 .3-.3-.1-.2-.3 0-.5m3-5.9c.2.4-.5.7-.6 1.3 0-.5.1-1.2.6-1.3m11.2-31.7c-.4-.4.3-.7.4-.9.5.3.2 1-.4.9m1.3-4.8c-.2-.7.4-1.7.5-2.5.2.7 0 1.5-.5 2.5m-9.7 30.4c.1-.1.3 0 .4-.1.3.2-.1.4-.1.7-.3-.2.1-.5-.3-.6m8-21.9c-.3-.3.2-.8.1-1.1.4.3-.1.8-.1 1.1m-12.6 33.6c.1-1.2 1.7-2.6 2.1-3.8.8.5-.2.8.1 1.3-.1-.1-.1-.2-.1-.2-.6.8-1.2 2-2.1 2.7m4-7.2c0 .9-1.2 2.3-1.3 3.4-.2-.2-.3-.2-.4 0 0-1 1.1-2.6 1.7-3.4m.8-1.1c-.2-.1-.3-.3-.1-.2.2-.2.3-1.1.5-.8zm-8.2 19.1c-.3-.3.3-.7.3-1 .3.3-.2.6-.3 1m3.7-.7c-.2-.5.4-.9.5-1.4.2-.5.5-.9.7-1.4 0 .9-.9 1.9-1.2 2.8m-.1.8c.3.6-.3.5-.2 1.2-.6-.4.2-.8.2-1.2m2.3-1.2-.3.6c-.1-.1-.3-.9.3-.6m1.8-2.8c-.4.4 0 1-.5 1.1.2-.1-.3-1.3.5-1.1m-1.3 2.5c.7-.6 0-1.1 0 0m2.4-1.7c0 1-.1 1-.6 2-.4-.8.1-1.1.6-2m1.2 3.7c.2.3.1.5-.1.8-.4-.4 0-.5.1-.8m3.4.2c-.2-.2.1-.8.3-.7.8.4-.2.4-.3.7m-1 2.1c.6.2-.1.6-.1.8-.5-.3.3-.4.1-.8m1-1.3c.2.5-.4.9-.6 1.2-.4-.4.5-.6.6-1.2m-1.4 3.8c.3.3-.3.6-.3.9-.2-.4-.1-.6.3-.9m27.3-71.5c.3.2-.3.6-.2 1-.3.2-.1-.9.2-1m-23 70.3c.2-.1.5 0 .6-.4.1 0 0 1-.2 1-.2-.1 0-.2 0-.3-.4 0-.1-.1-.4-.3m4.8-1.4c0 .7-.2 1.7-.6 2.7-.2-.8.2-1.4.6-2.7m-1 3.5c.5.7-.7 1-.7 1.8-.4-.3.5-1.3.7-1.8m1 .2c.3.4-.5.4-.5.9-.4-.1.3-.8.5-.9m1-1.2c-.2-.4.3-.8.4-1.2.2.3-.4.8-.4 1.2m32.6-66.7c-.5-.4.4-.7.4-1.1.2.2.1.6.2.9-.4-.1-.6-.1-.6.2m-2.9 13.7c.5.1.4.7.1.8-.3-.2 0-.5-.1-.8m-.3 4c.3.2-.1.6-.1.9-.3-.3-.2-.7.1-.9m1.7-7.4c-.2-1.3.7-2.7 1.3-3.6 0 1-1 2.3-1.3 3.6m-7.6 33.8c.3.4-.3 1-.5 1.3-.4-.5.1-1 .5-1.3M262 313.9c1.3.7 1.2-2.6 2.1-3.1-.7.2.1-.4-.1-.7.3.4.4 0 .4-.2-1.1.3.7-1.7.8-2.9-1.3 1.9-1.7 2.9-2.2 4.9-.5-.2.1-.5-.2-1-.3 0-.4.2-.6.3-.4-.7 1.1-.3 1-1-.2 0-.4.1-.4.2-.1-.1-.1-.3-.4-.3.7-1.5 1.5-3.1 2.1-4.7s1.2-3.3 1.5-5.1c.8-.8 1.1-2.3 1.6-3.7 1.7-5.1 1.8-10.3 2.5-15.5q.3.15.3.3c.7-1.1-.1-2.3-.2-3.4.5.3.4.8.6 1.2.3-.5.2-1.6.3-2.4.3.6.2 1.3.1 2.1 1.3-.3 1.2-1.5 2-2-.2.1.7.2 1 0 .5-.4-.2-.1.2 0-.1 0 .9-.3.8.1.4-.8.9-1.4 1.5-2 0 .7-1.9 2.2 0 2.9 1.2-.2 2.2-.5 2.3-1.7.3 0 .7.1.8 0 .3.1-.2.4-.1.7.1.1.4.2.3.3.5 0 .7-.2 1.1-.3.2.3-1.2.6.2.9.5.1.4-.3.4-.6.4.1.3.3.2.5.8.1 1.2-.1 1.5.3 1-.3.8-.5 1.5-.9.3.2-.2.6-.3.8l.4.4c.5-.1 0-.8.3-.8.2 0 .5.1.5 0 .3.3-.6.5-.5 1 .2 0 .4-.3.3.1.3-.1.2-.6.5-.7.1.2.2.7.1 1.1.4.1.3-.1.5-.2.1-.2-.1-.3-.4-.4.5-.3 1.1-.2 1.3-.6.5-.1.2.5.5.2.7.4-.4 1.7.1 2.1.5-.4-.1-1.2.6-1.7.5.4-.2 1-.2 1.9.5-.3 1-.5 1.6-.4.2.1.1.3.1.4 1 0 1-.8 1.1-1.5.2 0 .5.1.5 0 .1.2 0 .5 0 .9.4.1.1-.4.3-.6.4.1 0 .5 0 .7l-.5-.1-.1.8c.5.1.4-.4.4-.6 1.1.3 1.7-.2 1.5-.7.2-.1.6.1.5-.2.2.2.3.4.3 0 .2 0 .1.1.1.2.4 0 .1-.5.4-.5-.3.6-.1 1.5-.1 2.2.5-.1.1-.7.2-1 .3.1.1.4.4.4.9-.1.2-1.4.6-1.6.3-1.1 0 .3.2.6-.3.3-.3.7-.2 1 .3 0 .4-.1.4-.3.5.2-.3.7 0 .7-.2 0-.7-.1-.6.4.7-.1 1.9.6 1.9 1.3.3 0 .3-.3.4-.4.4 0 .3.3.4.4 1-.2-.1-1.6 1-1.7.6.3-.2 1.8.7 1.9.3.7-.7 1.5-.1 2.4.5-1.3.7-2.9 1.7-3.8.3.1 0 .2-.1.3 0 .1.3.1.5.2-.2.8-.2 1.2-.6 1.6.5.7.4 1.6.2 2.6-.3-.4-.2-1.6-.1-2.3-.7 1.3-.2 2.5-.8 3.9.2 0 .1-.1.2-.2.2.2.2.5.7.6.9 3.7-1 8.8-1.6 12.2-.2 0-.1-.2-.1-.2-.3.7-.1 1.9-.7 2.7-.3-.1-.3-.3-.2-.6-.4 1.7-.1 3.3-1.2 5-.8 1.3 0-.4 0-.4-.9-.1 0 2-.5 2.2-.2-.1 0-.3-.2-.4-.4.2 0 .5.1 1-.2-.1-.1-.2-.3-.3-1.3 3.7-1.7 7.8-3 11.7.4.3.5-.3.5.1.3-.1 0-.4.5-.4.3.1-.1.5.5.5-.4.2-1.1-.1-1.6 0-1.5 1.7-.5 3.9-1.4 6q.45 0 .6-.3c.6.3-1.8.8-.6 1.5-1.1.9-1.2 1.9-1.5 3.4-.3-.1-.4 0-.6-.1 0 .3.6.5.1 1-.3-.1 0-.4-.2-.5-.8.6-.5 1.8-.9 2.6-.2-.3-.3-.1-.5 0 .2.1.2.2.3.5-.2.1-.4-.1-.3-.2-.8 1.2-1.4 3.5-2 5.6.3.1.2-.4.4-.5.1.1.1.4.3.2-1.3 3.1-3.2 6.7-4.8 9-.4-.5 0-1.1.2-1.6.1-.3-.3 0-.6-.3.3-.3 0-.6.3-.7.4.1-.3.4.1.5.4 0-.1-.6.1-.9-1 .5-1.3 1.8-2.1 2.2 0 .1.2.2.4.3-.9.4-.9 2.1-1.5 3-.1-1.9 1.5-4 1.8-5.6-1.1.3-.8 1.3-1.1 1.7-.1.1-.5 0-.6.1s.3.2.3.2c-.1.1-.5 0-.6.2-.4.5.1 1.4-.8 2 .2.1.2-.1.3-.2.2.8-.6.5-.6 1.3-.3-.2.3-1.3.6-1.9-.9 0-.8 1.1-1.2 1.6.1-.2-.2.7-.2 0 0-.3.8-1.5.5-2.2.5.2.4-.8.9-1.4-.8.2.2-.9.2-1.3-.5.2-1 .1-1.2.6-.3-.3.2-.6.2-.9q-.6.3-.9 1.2c-.3-.1-.2-.2-.4-.3 0 .8-.8 1.2-.6 1.6-.7 0-1.3.3-1.5 1.1-.3.1.1-.5 0-.7-.7.3-.8.7-1 1.3-.5-.9.5-1.3 1-2.1-1-.2.5-.2-.1-.9.1.1.1.2.2.2.4-.4-.3-.6-.1-.9-.3.2-.4.5-.4.9-.3.1 0-.6-.2-.8-.4 0-.5.7-.5 1-.3-.6-.5.1-.8.4 0-.8.6-.9.5-1.7-.2-.1-.5.4-.3-.1-.7.5-.7 1.4-.9 1.8-.4-.5-.1-.7.1-1.3-.8-.2-.1.9-.9.7-.3-.2.2-.4-.1-.6-.7.2-.9 1.2-1.3 1.8-.7-.9.3-1.7.2-2.6-.3.1-.7.9-.6 1.2-.4.2-.3-.4-.1-.5-.8.2.2.7-.4.9-.4-.3 0-.6-.1-.9-.2-.1-.3.2-.1.3-.6-.2.2-1.3 0-1.9-.4-.2-.2.8-.3.2-.3.3-.4.2-.6.6.2-.7-.2-.8.3-1.4-.3 0-.3.3-.9-.1-.2.2.5.4.3.6l-.4-.2c-.4.6-.3.9-.7 1.3-.1-.9 0-1.2.5-1.7-.9 0-1.3 1.2-1 1.7-.4 0-.2-.2-.3.3-.1-.3-.2-.3-.4 0-.3-.3.2-.6.4-.8-.9-.5-.5.4-.9.4-.2-.6.5-.9.3-1.4-.1.1-.4.4-.6.8 0-.5-.5-1.3.1-1.6-.7-.2-.2.7-.8.8-.4-.7.6-.9.3-1.7-.4-.1.1.5-.4.5.4.2-.3.8-.7 1 .3-1.1.7-1.6.9-2.9-.3.6-1 .9-1.5 1.5.7-.1 0 .3-.3.3.3.2.2.5 0 .8-.1-.1-.1-.2-.1-.2-.9.8-1.2 2.1-2.2 3.3.4-2.1 2.2-3.5 2.1-5-1.5 1.7-2.1 2.7-3.5 5.1 0-1.3 1.5-2.4 1.4-3.8.2-.1.2.1.6.2-.1-.5 1-1.8 1.2-2.5-.2-.1-.2.1-.3.2-.4-.4.1-.4.2-.8-.9-.2-.5.8-1 1.3.2.1.2-.1.3-.2.5.4-.6.3-.3.5-.3.2-.4-.3-.3-.5-.3-.1-.6.1-.6-.3-.4-.1-.5.1-.8.1 0 .1.1.2 0 .3l-.4.8c-.3-.2.2-.5.2-.8-.2-1.3.2-1.7.1-3.1.8.1.1-.9.5-1.4-.1.1-1.4.5-.6 1.2-.2.1-.3-.1-.4-.2 0 .3 0 .4-.4.4 0 .2.3.1.3.2-.3.1-.6.1-1 .6.2.2.3.1.4 0-1 1.5-1.8 3.1-3 4.9-.4-.2.4-.4-.1-.6-.5.1-.5.9-.8 1.3.5.4.4-.2.6-.4.3-.1-.1.8-.4.8-.6-.6.3-1.3.5-2 .1.1.2.2.4.3l.1-.3c-.3-.2-.3-.1-.6-.5 0-.3 1.1.3.3-.3.3-.3.5.2.8-.1-.6-.6 1.5-2.4 1.3-3.7.4.3.2-.2.7.1-.2-.8 0-.8.4-1.3 0-.2-.5-.1-.6-.4-.6-.2.1.7-.5.3.1-.3-.1-.4-.1-.6.2-.1.5 0 .8.2.2-.2 0-.4-.2-.6.3.6-.3-.1-.3.4-.1-.1 0-.2-.2-.3-.4.1-.4.6-.7.8.2-.8.6-2.1.2-2.4-.3-.2.5-.3.3.1.1-.1-.1-.9.2-1.2-.2 0-.4.1-.6-.2-.3.3-.1.3-.1.7-.1-.1-.2-.2-.4-.3 0 .3.3.4-.2.4.8-2 1.9-4.9 2.6-7-.3-.3.5-.1.5-.4.1-.4-.6-.1-.3-.5 1-.3 1.6-3.2 2.1-4.6-.5 1.1-1.1 2-1.6 3 .1-2 1.4-3.5.9-5.3.2.2.4.4.4.7 1.3-2.1 1.1-3.9 2-5.6-.3-.1-.4.1-.5.3 0-.1.9-1 .5-1.2m4.3-11.5c.6-1.5-.9.8-.5.9.1-.5.4-.7.5-.9m1.2-2.7c.2-1.2-.4-.8-.2.2 0-.1 0-.2.2-.2m.8-3c.3 0 .4-.7.3-1.1-.2.3-.4 1.1-.3 1.1m-10.9 39.6c0-.2.6-.5 0-.7l-.3.6zm.7-.5c.1-.4.7-.4.2-.8 0 .2-.6.9-.2.8m2.4.4c.4-.4-.2-.8.2-1.3-.8-.1-.3 1-.2 1.3m-.5.6c0-.2.5-.5-.1-.7 0 .3-.3.5.1.7m14.2 9.3c.2.3.5-.8.7-1-.7-.3-.8.8-.7 1m20-25.9c0-.2.5-.6-.1-.7l-.2.6c.1 0 .2.1.3.1m-42.6 22.2c-.4-.4.5-1.1.8-1.5 0 .5-.6 1.1-.8 1.5m23.1-66.3c-.3-.3.1-.9.5-1 .3.2-.1.8-.5 1m-18.1 59.4c.2-.2-.1.8-.5 1-.3-.4.5-.5.5-1m-.9 4.9c-.6-.4.9-.1.1-.5.1-.1.3.1.4 0 .3.4-.5.2-.5.5m3.6-1.3c.2-.2-.2.5-.5.9-.3-.4-.1-.8-.2-1.1.5.1.6.6.7.2m-2.8 7.6c-.1 0 .2-.6.1-1 .3.1.2.2.2.3.6-.5.4-1 .7-1.7.3.2.3 0 .4-.1.2.9-.6 2-1.4 2.5m2.6 1.8c-.4 0-.1-.9.2-1 .1.1.1.2.2.2.7-1.3.2.6-.4.4-.1.2.1.3 0 .4m5.6-4 .1.1c-.3 1.2-1.4 2.1-.6.6 0-.1.5-.4.5-.7m1.6 1.9c.2-.3 1.5.2 1.1-.7.9.6-.5.9-1.1.7m24.4-67.4c.1-.1.2 0 .2 0 .6-.2-.1-.8.4-1.1.1.3 0 1.7-.6 1.1m-21 69.8c.1-.1.2 0 .1.1.2.2.5-.4.2-.4.1-.1.2.2.3.1.1.3-.1.5-.3 1.1-.2-.4.1-.7-.3-.9m2.9 2c-.6-.3-.2-.7.2-.7.2-.2-.3.4-.2.7m31-63.3c-.4-.5.3-.9.3-1.4.5.1-.4.9-.3 1.4m-14.9 52.1c-.4-.1-.2-.7.2-.8.2-.2-.4.5-.2.8m111.3 55c.2.6-.7.6-.3 1 .4-.2 1-.2 1.5-.3-.5-.4-.7-.6-1.2-.7m4.5-11.5c0 .1-.1 0-.2 0-.2.1-.2.8-.5.5.3-.1 0-.8.7-.5m-2.8 4c.4-.1.4-.5.6-.8.2 0 .1 1.1-.6.8m4.9-9.4c-.3-.3-.5-.5-.3-.7.3.3.2.5.3.7m-.9.9c-.4.1-.5.6-.8.8-.2-.4.2-.9.8-.8m-6.1 12.3c-.3-.5-.1-.8 0-1.2.5.4 0 .7 0 1.2m-.7.5c.4.3-.1.4-.1.6-.4-.2.1-.3.1-.6m3.1-9.3c-.4-.3.1-.4.1-.6.5.5-.1.3-.1.6m-3.6 6.8c-.5-1 .2-1.1.5-1.8.3.7-.5 1.1-.5 1.8m3.4-9.1c-.4-.3.1-.4.1-.6.4.3.1.4-.1.6m-1.4 2.9c.4.5-.4.8-.6.8-.4-.6.2-.7.6-.8m.7-2c-.4-.2-.2.2-.3.2-.5-.2.3-.4.3-.6.5.5-.1.9-.2 1.3-.2-.1-.2-.1-.1-.1-.4-.2.4.5-.5 0-.2.1 0 .7-.5.6.1-.2.2-.4.3-.7.4 0 .1-.3.4-.3 0 0 .2.3.1.2.6.2.2-.3.5-.6m5.4-10.8c-1-.5 0-.7-.3-1.1.8.4.4.7.3 1.1m-7.6 13.2c-.3-.2-.3-.4-.1-.6.2.2.2.4.1.6m9.6-21.7c.3.4-.2.6-.2.9-.3-.3.2-.5.2-.9m-.3-1c-.4-.3-.2-.5-.1-.7.2.3.2.5.1.7m1.9-5.2c.5 0-.3-.9 0 0m-5.3-5.7c-.7-.6.2-.6.3-1 .2.6-.1.7-.3 1m-7.2 6.7c.7.7-.3.9-.1.2 0-.1.1-.1.1-.2m1.6-7.2c-.1-.2-.3-.6-.5-.3-.6-.4.3-.4.5-.6.3-.3.5-1.1.4-.3.2.6-.1.8-.4 1.2m-1.4-1.7c-.8-.4.1-.7 0-1.2.6.5-.3.7 0 1.2m-2.9 2.9c-.4-.3.4-.2.2-.5.4 0 .1.6-.2.5m-1.5-1c.3.3-.1.7-.4.8-.2-.4.2-.7.4-.8m-9.9.8c.3.4.1.8-.1 1.1-.2-.4 0-.8.1-1.1m.4-.9c.4.2-.1.3 0 .5-.1 0-.4-.6-.3-.7.1.1.2.2.3.2m1.5-4c.2.2.2.8-.5.5.6.1.2-.5.5-.5m14 47c.3-.2.4-.6.4-.9.3.1.3 1.1-.4.9m-.1-2.8c-.3-.1.3-1.1.5-1.5.4 0 0 .3 0 .4.6.3-.1-.6.7-.2-.1.1-.1.3-.2.4.3 0 .4-.2.6-.3.1.6-.1 1.1-.3 1.6-.5-.2.3-.2-.2-.4-.8-.2.5.7-.2.5-.2-.3-.2-.5-.5-.8-.5-.1-.3.2-.4.3m-.8 4.2c.1.9-1.3 1.1-1.8 1.8 0 .1.8.4.8.5-.5.1-1.6-.4-2-.3-.4-.3-.3-.5-.5-.8.4.4.6.3.9.3.1-.1-.2-.3-.4-.5.5.4.8.2 1.1 0-.7-.6-1.1-.4-2-.7-.4-.5.5-.7-.7-1.3.4-.1.5-.5 1-.6.5.4-.2.2-.2.4 2.9.4 2.8-2 3.4-3.4.3 1 0 1.4.8 2.4-.2-.1-.1-.1-.1-.2-1.3.8-.7 2.1-1.7 3.1.8.1 1.1-.3 1.4-.7m-3.7-.5c.1-.1.9-.1.6-.3-.1 0-1-.2-.6.3m8.4-17.2c-1.3 0-1.1.9-1.6 1.4-.6.7-1.2 1.3-1.7 2.1q.45 0 .6-.3c.1.7-1.5 1.3-.9 2.3-1.3-.1-1 1.7-1.6 1.8.2.2.1.3.6.6-.5.3-.9 1.1-.6 1.7.4-.1.9-.8 1.1-1.3.6.9-.1 1.5-.2 2.5-.2-.1-.1-.2-.1-.3-.7.9-1.8 1.7-1.7 2.9.5.2-.4-.4.4 0-.3.2.1.5-.1.7-.3-.2 0-.2-.2-.4-.9 1.4-2.9 1.9-3.4 3.4-.8-.1-1 .3-1.7.3 0-.3-.5-.2.1-.2-1.4-.9-3.5-1-5.7-2.6-.5 0-.9-.3-1.7-.6.2-.4-1.7-1.1-1.9-1.5-.4-.2-.2.3-.8-.1-.1-.2-1.1-.5-1.9-1.1-.4-.1-.5-.1-.7 0-.6-.3-.4-.5-.7-.8-.6.1-1.6-.7-2.5-.7-2.7-1.7-4.7-1.9-6.8-3.9-.3-.2-.2.1-.5 0-.2-.9-2.6-2.4-4.7-3.2.6-.6-2.1-1.7-1.5-2.2 0-.2-.5-.2-.6-.2.9-.9 1.8-2.6 2.7-3.7.4.1.2.1.7.3 2.7-3.6 2.8-8.5 5.4-12.1.3-.5.8-.9 1.1-1.4 1.7-2.1 3.2-4.5 5-6.5.4-.4.9-1.2.9-1.8.1-.1.3.1.6.2-.3-.3.1-.5.2-.8.3.1-.1.6.2.9.4 0 .1-.5.4-.8.3.3.2.5.3.7 1-.3.3-1.1 1.1-1.7 0-.2.3 0 .6.2.2-.4.1-.9.4-1.2 1 1.2 0 2-.4 2.9.9-.4 1.1-1.5 1.7-2.1.3 1.1-.4 1.8-.9 2.3.5.3.4 0 .5 0 0 .4-.7 1.2-.9 1.4.4.3.6.8.6 1-.8-.2-.8.8-1.3 1.2.7.1.8-.4 1-.7.1 0 .2.3.1.3 1.3.2.9-1.9 1.9-2.2.1-.2.2-.5.4-.7.2-.4.3.1.1.3-.2.5-.5.8-.6 1.2.3-.4 1.4-.8 1.9-1.2.1 0 .3-.9.4-.4.2.6-.8.8-.5 1.5.2-.1 1.1 0 .7-.5 2-.1 1.4-2.6 2.7-3.3.1-.1.1-.6.4-.3-.6.8-1.1 1.7-1.5 2.6.5 0 .6-.3.7-.5.4.2.3.8.6.5.1.7-.3 1.6-.7 2.3 1.6-.2 2.2-2.7 3.2-2.9 0-.3.2-.5 0-.8.5 0 .3.4.2.5.7 0 .5 0 .8-.3.6.5-.6.4-.4.9-.2-.7-.5-.2.1.3.1 0 .5-.2.6-.4.4.2 0 .3 0 .4.9-.1 1-1.2 1.5-1.3 0-.2.3-.4.3-.1-.2.5-1.2 1-.6 1.6 1.3-.5 2.1-1.7 2.5-2.9 0-.4.5-.3.2 0 0 .1.3.1.3.2-.1 1.5-1.3 2.2-2.1 3.7.5.1.2-.6.7-.5.1.3-.2 1.3-.8 1.6.7 0-1 .6-.4 1.3.6-.4 1.4-1 1.2-2 1.6-.4 3.1-1.7 3.5-3.5.1.1.1.1.3.2.1-.3.7-1.2.7-.5-.1 1-2 3-2.3 4.3-.2-.1-.1-.2-.3-.3-.3.2.2.5.1.8-.3 0-.1-.3-.2-.4-.9 0-.2.8-.1 1.2.2.9-1.7 1.4-.1 2.5-1.3-.4.2.6-.4.8-.6-.2 0-.3-.4-.5-.5-.3.1.4-.2 0 .8 1.4-1.2 1.7-.9 3.1.8-.3 1.1-1.3 2-1.7.4.2-.1.3 0 .5 1 0 1-1 1.4-1.5.1-.1.1-.2.2-.3 0-.1.3 0 .2.1-.1.2-.2.4-.3.5.2.3-.3.6-.1 1 0 .2-.4-.1-.4 0 .1.3-.1.6-.2.9.6.1.6-.3.7-.6.7.3-.1.1 0 .4.6.3.4 0 .5-.1.3.5-.4.5-.2.8.9-.1.7-1.1.8-1.6-.5 0-.5.6-.6.7-.6-.7.4-1.2.5-1.8.4.3.2.4.1.6.4.2.2-.2.4-.3.6.9-.3 1.3-.4 2.1.9-.2.3-1.2 1.1-1.3 0-.2.2.5-.1.6.3.2.4.1.4.1.3.7-.7 1.4-.9 2.2 1 0 1-.9 1.4-1.4.3-.8.5-.2.1.3.8-.5 1-1.3 1.6-1.9.7.5.2.8 0 1.3.4.1.5-.1.6-.4.1 1-1.2 1.9-1.3 3 .4-.5 1.3-.7.9-1.4.8.3-.1-.4.8.2.2-1.5 0-3.8 1.7-4.4.3-.2.1.6.1.6-.4 1.4-1 3.4-2 4.8.5 0 .3-.5.6-.7.4.1-.1.5-.1.7 1.2-.3 1.5-1.3 2.3-2 .3.1.1.4.3.2.4 1.1-.3 1.4-.4 2.5.5.1.3-.5.6-.7.3-.5.2.3 0 .4-.5.7-.5 1.6-1.3 3 .4.2.2-.2.4-.3-.3.7.4 2.1-.3 2.7-.7-.4-.3-.6-.3-.8-.9.8-1.6 2.5-.1 4.1-.4.5-.4.8-.6 1.3-.1.1-.2 0-.4-.1.1 1.7-2.2 2.7-2.3 4.1.7-.3.6-.8 1.3-1.2.3.2 0 .3.4.5-1.7.1-1.3 2.2-2.9 2.3.6-.3.8-.7 1.2-1.6-.3-.2-.4-.1-.4-.1-.3-.7.7-.8.5-1.5m.6-2.2c-.1.5-.3 1 .1 1.5-.1-.6.4-.8-.1-1.5m-.3-1.9c0 .3.1.6.4.9.3-.2-.3-.9-.4-.9m-.9 3c0-.3.7-.5.1-1 .1.2-.6 1.2-.1 1m.4-1.7c0-.2.5-.4.1-.6 0 .2-.4.3-.1.6m-4.7-12c.3.1.4.3.5.3-.4-.3.3-.5-.1-.7-.3-.1-.3.2-.4.4m-.4-.6c.4.3-.2.4.3.7-.1-.2.3-.6-.3-.7m-4.2-3.3c-.1.3.3.1.3-.1.1-.4.6-.7.5-1-.2-.1-.3-.3-.4-.1-.5.3-.1.7-.4 1.2m7.1 30.8c-.8-.2.2-.6-.2-.9.7.3-.1.8.2.9m5.7-14.4c.9.5.1.8.5 1.2-.6-.1-.5.2-.8.3-.4.7-.2-.3.1-.6-.9-.1.5-.5.2-.9m.8-2.2c.1.1.3.2.5.3 0-1.3.3.8-.1 1.2-.2-.1-.1-.2-.3-.3-.3.1-.4.5-.5 1-.1-.1-.2-.3-.3-.2-.1-.2.2-.4-.3-.8.8.5.8-.2 1.1-.5 0 0 .3.3.1.2.8.2-.2-.7-.2-.9m-.7.6c-.5-.2-.5-1.3-1-1.9 1.6.8 1 1.4 1 1.9m-5 6.2c.6.3.1.2-.1.2-.2.1 0 .5-.4.3.1-.1.1-.3.2-.4.4.1-.2-.2.3-.1m-1.1-21.2c.2.1.2-.1.3-.1.4.1.1.6.2.9q-.45-.45-.6-.9c.2-.2.2 0 .1.1m-.5-.2c-.8-.4-.5-.9-.1-1.1.6.6-.2.7.1 1.1m-1.5 1.2c-.1.1-.1.2-.2.3-.5-.2 0-.4-.4-.6.2 0 .3.2.6.3m-.5-1.6c-.5-.3-.1-.7-.1-1.1.3.4 0 .7.1 1.1m-8.3-5.8c.5.3-.4-.1-.3.1-.3-.3.2-.6.2-.8.2-.5.4-.1.1.2 0 .3.3.6-.2.5zm-28 26.6c-.1-.4.7-.3.5-.6.5.3.8 1.3-.5.6m260.6-72.5c.3.7-.8.8-.3 1.2.4-.3 1.2-.3 1.7-.6-.6-.2-.8-.4-1.4-.6m4.9-14.2c0 .1-.1 0-.2 0-.2.2-.2 1-.5.7.3-.2-.1-1.1.7-.7m-3.1 5c.5-.1.5-.7.7-1.1.2.1.1 1.4-.7 1.1m5.3-11.8c-.3-.3-.6-.6-.3-.9.4.3.3.6.3.9m-1 1.2c-.5.2-.5.7-.9 1-.2-.4.3-1.1.9-1m-6.6 15.4c-.4-.5-.1-1-.1-1.5.7.5 0 1 .1 1.5m-.8.8c.4.3-.1.5-.1.8-.4-.4.1-.6.1-.8m3.3-11.6c-.4-.3.1-.5.1-.8.7.5-.1.4-.1.8m-3.9 8.5c-.6-1.1.2-1.3.5-2.2.4.8-.6 1.4-.5 2.2m3.7-11.3c-.4-.3.1-.5.1-.8.5.4.1.5-.1.8m-1.6 3.6c.4.6-.5 1-.7 1.1-.4-.8.2-.8.7-1.1m.8-2.4c-.4-.2-.2.2-.3.3-.6-.2.3-.5.3-.8.6.6-.1 1.1-.2 1.6-.2-.1-.2-.1-.2-.2-.5-.3.4.6-.5.1-.2.2 0 .8-.6.7.1-.3.2-.5.4-.8.5-.1.1-.3.4-.5.1 0 .3.3.1.3.7.2.3-.4.6-.7m6-13.7c-1.1-.5 0-.8-.4-1.3.8.5.4.9.4 1.3m-8.5 16.8c-.3-.3-.3-.5-.2-.7.3.3.3.5.2.7m10.6-27.1c.4.4-.2.7-.2 1.1-.4-.4.2-.8.2-1.1m-.4-1.3c-.5-.3-.2-.5-.1-.8.2.3.2.6.1.8m2-6.4c.7-.1-.3-1.1 0 0m-6-6.3c-.9-.7.2-.7.3-1.2.2.6-.1.8-.3 1.2m-8.1 8.8c.8.8-.4 1.2-.1.2 0-.1 0-.1.1-.2m1.7-8.9c-.1-.3-.4-.7-.6-.3-.7-.4.3-.5.6-.8.3-.4.6-1.4.4-.4.2.7-.1 1-.4 1.5m-1.6-1.8c-.9-.4.1-.9-.1-1.5.7.5-.3.8.1 1.5m-3.3 3.7c-.5-.3.4-.2.3-.6.4-.1.1.6-.3.6m-1.7-1c.3.3-.1.9-.4 1-.3-.5.1-.9.4-1m-11.3 1.9c.4.5.1.9-.1 1.3-.2-.4.1-.8.1-1.3m.5-1.1c.4.2-.1.4 0 .6-.1 0-.4-.6-.3-.9.1.2.2.4.3.3m1.7-4.9c.2.2.2 1-.5.7.6 0 .1-.8.5-.7m16.7 55.2c.4-.3.4-.8.5-1.1.3 0 .3 1.3-.5 1.1m-.2-3.4c-.3-.1.4-1.3.6-1.9.4-.1 0 .4 0 .5.7.2-.1-.8.8-.3-.1.2-.2.4-.2.5.4 0 .4-.3.7-.4.1.7-.1 1.3-.4 2-.6-.2.3-.3-.3-.4-.9-.1.6.7-.3.6-.3-.3-.2-.6-.6-.9-.4-.2-.1.2-.3.3m-.8 5.2c.1 1.1-1.5 1.5-2 2.3 0 .2.9.4.9.6-.5.2-1.8-.3-2.3-.1-.5-.3-.3-.6-.6-.9.4.4.7.3 1.1.3.1-.2-.2-.3-.5-.5.5.4.9.2 1.2-.1-.8-.6-1.2-.3-2.3-.7-.5-.5.6-.9-.8-1.5.4-.2.6-.7 1.1-.8.5.4-.3.3-.2.5 3.3.2 3.1-2.7 3.8-4.5.3 1.2 0 1.7.9 2.8-.2-.1-.1-.2-.1-.2-1.4 1.1-.8 2.6-1.9 3.9 1 0 1.4-.6 1.7-1.1m-4.2-.3c.1-.2 1-.2.7-.4-.2.1-1.2-.1-.7.4m9.1-21.6c-1.5.1-1.3 1.2-1.7 1.8-.7.9-1.3 1.6-1.9 2.7.4 0 .6-.2.7-.4.1.9-1.7 1.7-1 2.9-1.4 0-1.1 2.1-1.7 2.3.3.2.1.4.7.6-.6.4-1 1.4-.7 2.1.5-.2 1-1 1.2-1.7.6 1-.1 1.9-.1 3-.3-.1-.1-.2-.1-.4-.8 1.1-2 2.3-1.8 3.7.5.3-.4-.5.5 0-.3.3.1.6-.2.9-.4-.2 0-.3-.3-.4-1 1.8-3.2 2.5-3.8 4.4-.9-.1-1.1.5-1.9.5-.1-.3-.6-.2.1-.3-1.6-1-4-.9-6.5-2.6-.6 0-1-.3-1.9-.5.2-.5-2-1.1-2.2-1.6-.5-.1-.2.4-.9 0-.1-.2-1.2-.6-2.1-1.1-.4-.1-.6 0-.7.1-.7-.3-.5-.6-.8-.9-.7.2-1.8-.7-2.8-.6-3.1-1.8-5.3-1.9-7.8-4-.4-.1-.2.2-.5.1-.3-1.1-3-2.6-5.4-3.4.6-.8-2.5-1.8-1.8-2.5 0-.2-.6-.2-.7-.1 1-1.1 2-3.3 3-4.7.4.1.3.1.8.3 3-4.7 3-10.5 5.8-15.2.4-.6.8-1.2 1.3-1.8 1.9-2.7 3.5-5.7 5.5-8.3.4-.5 1-1.6 1-2.3.1-.1.4.1.6.2-.3-.4.1-.6.2-1 .3.1-.1.7.2 1.1.5 0 .1-.6.4-1 .3.3.3.5.4.8 1.2-.4.4-1.3 1.2-2.2 0-.2.3 0 .7.1.2-.5.1-1 .4-1.5 1.2 1.3 0 2.4-.4 3.6 1-.6 1.2-1.9 1.9-2.7.3 1.3-.4 2.3-1 2.9.6.3.4 0 .5-.1 0 .5-.7 1.6-1 1.8.4.4.7.9.7 1.1-.9-.1-.9 1.1-1.4 1.6.8.1.8-.5 1.1-.9.1 0 .2.3.1.3 1.4.1 1-2.4 2.2-2.8.1-.3.3-.6.4-.9.2-.5.4.1.1.3-.2.6-.6 1-.7 1.5.3-.5 1.6-1.1 2.1-1.6.1-.1.3-1.1.5-.5.2.7-.9 1-.6 1.9.2-.2 1.3-.1.8-.6 2.2-.3 1.6-3.2 3-4.3.1-.1.2-.7.4-.4-.7 1-1.2 2.1-1.7 3.3.5 0 .6-.4.8-.7.5.2.3 1 .7.6.2.8-.3 2-.8 2.9 1.8-.5 2.5-3.5 3.6-3.8 0-.3.2-.6 0-1 .6 0 .3.4.2.6.8-.1.5-.1.9-.4.7.5-.6.5-.5 1.1-.2-.9-.6-.1.1.4.1 0 .5-.2.7-.5.4.2 0 .3 0 .5 1-.2 1.1-1.5 1.7-1.7-.1-.2.4-.5.3-.1-.2.6-1.4 1.3-.6 1.9 1.5-.8 2.4-2.3 2.8-3.7 0-.4.5-.4.2 0 0 .1.4.1.4.2-.1 1.8-1.5 2.8-2.3 4.7.6.1.2-.8.8-.7.1.3-.2 1.6-.9 2.1.8 0-1.1.9-.5 1.6.6-.5 1.6-1.3 1.3-2.5 1.9-.7 3.5-2.4 3.9-4.6.2.1.2.2.4.2.1-.4.8-1.5.8-.6 0 1.3-2.2 3.9-2.6 5.4-.2-.1-.1-.2-.3-.3-.4.3.2.6.1.9-.3.1-.1-.4-.3-.5-1 .1-.2 1-.1 1.4.2 1-1.9 1.8-.1 3-1.5-.3.2.7-.4 1-.6-.2 0-.4-.5-.6-.6-.3.1.5-.3 0 .9 1.7-1.3 2.1-1 3.9.9-.4 1.2-1.7 2.2-2.3.4.2-.1.4 0 .6 1.1-.1 1.1-1.3 1.6-2 .1-.1.1-.3.2-.4 0-.2.3 0 .2.1-.1.2-.2.5-.3.7.2.3-.3.7 0 1.2 0 .2-.4-.1-.5 0 .1.4 0 .8-.2 1.1.6.1.6-.4.8-.8.8.3-.1.1.1.4.6.4.4-.1.5-.2.4.5-.4.6-.2 1 1.1-.2.8-1.4.9-2.1-.6.1-.6.8-.6.9-.7-.8.5-1.5.5-2.2.4.3.3.5.2.7.5.2.2-.3.4-.4.7 1-.3 1.6-.4 2.6 1-.4.3-1.4 1.2-1.7 0-.3.2.6-.1.8.3.2.4.1.5 0 .3.9-.8 1.8-1 2.8 1.1 0 1.1-1.2 1.5-1.9.3-.9.5-.3.1.3.9-.7 1.1-1.6 1.8-2.4.8.6.2.9 0 1.6.5.1.6-.2.7-.5.2 1.2-1.3 2.4-1.4 3.8.4-.7 1.4-1 1-1.8.9.3-.1-.5.9.1.2-1.8-.1-4.6 1.9-5.4.3-.3.2.7.2.7-.5 1.7-1.1 4.2-2.1 6.1.6 0 .4-.7.6-.9.4.1-.1.6-.2.9 1.4-.5 1.6-1.7 2.6-2.7.3.1.1.5.4.2.5 1.3-.3 1.7-.4 3 .5 0 .4-.6.6-.9.4-.6.2.3 0 .5-.5.9-.6 1.9-1.4 3.7.5.2.2-.3.4-.4-.3.9.5 2.4-.2 3.3-.9-.4-.4-.6-.3-.9-1.1 1.1-1.8 3.1 0 5-.4.6-.4 1-.7 1.6-.1.2-.2 0-.4-.1.1 2-2.4 3.5-2.5 5.2.8-.5.7-1.1 1.4-1.6.3.2 0 .4.5.6-1.9.3-1.4 2.7-3.2 3.1.7-.5.8-.9 1.3-2-.3-.2-.4-.1-.5 0-.4-1.2.8-1.4.5-2.3m.7-2.7c-.1.6-.3 1.3.2 1.8-.2-.7.4-1-.2-1.8m-.4-2.3c0 .3.2.7.5 1 .3-.2-.3-.9-.5-1m-.9 3.8c0-.4.8-.7 0-1.2.2.2-.5 1.4 0 1.2m.4-2.1c0-.3.5-.5.1-.8.1.3-.5.5-.1.8m-5.5-14.1c.4.1.5.3.6.3-.5-.3.4-.7-.1-.9-.5 0-.4.4-.5.6m-.5-.6c.4.3-.3.5.4.8-.2-.2.3-.7-.4-.8m-4.8-3.6c-.1.4.3.1.3-.1.1-.5.7-1 .6-1.3-.2-.1-.4-.3-.4-.1-.7.5-.2.9-.5 1.5m8.6 36.5c-.9-.1.2-.7-.3-1 .9.2 0 .9.3 1m6.2-18c1.1.5.2.9.6 1.4-.7-.1-.5.3-.9.4-.5.9-.2-.4.1-.7-1 0 .5-.7.2-1.1m.9-2.7q.15.15.6.3c0-1.6.3.9-.1 1.4-.2-.1-.1-.2-.3-.3-.3.2-.5.7-.5 1.2-.2-.1-.2-.3-.4-.2-.1-.2.2-.5-.3-.9.9.5.9-.3 1.2-.7 0 0 .3.3.1.3.8 0-.3-.8-.3-1.1m-.8.8c-.5-.2-.6-1.5-1.2-2.2 1.8.8 1.1 1.5 1.2 2.2m-5.6 8c.6.4.1.2-.1.3s.1.6-.4.4c.1-.2.2-.4.2-.5.5.1-.2-.3.3-.2m-1.6-25.5c.3.1.2-.1.3-.2.4.1.1.7.3 1-.4-.4-.6-.7-.7-1 .2-.1.2.1.1.2m-.6-.2c-.9-.4-.5-1.1-.2-1.3.8.6-.2.8.2 1.3m-1.7 1.7c-.1.1-.1.3-.2.4-.5-.3 0-.4-.4-.7.1 0 .3.2.6.3m-.6-2c-.5-.3-.1-.8-.2-1.3.5.5.1.9.2 1.3m-9.4-6.1c.6.3-.5-.1-.3.2-.4-.4.2-.7.2-1 .2-.7.5-.1.1.2 0 .3.4.7-.3.6.2.1.2 0 .3 0m-31.4 35.1c-.2-.5.8-.5.6-.7.6.1 1 1.3-.6.7m-373.2 37.6c.4.6-.7.9-.2 1.3.4-.4 1.1-.5 1.6-.7-.5-.4-.8-.5-1.4-.6m3.4-14.7c0 .1-.1 0-.2 0-.1.2-.1 1-.5.7.3-.2-.2-1 .7-.7m-2.5 5.3c.5-.2.4-.8.6-1.1.2 0 .2 1.3-.6 1.1m4-12.3c-.4-.3-.6-.5-.4-.8.4.3.3.6.4.8m-.9 1.3c-.4.2-.4.8-.8 1.1-.2-.4.2-1.1.8-1.1m-4.9 16c-.4-.5-.2-1-.2-1.5.7.5.1 1 .2 1.5m-.8.9c.4.2-.1.5 0 .8-.4-.3.1-.5 0-.8m2.1-11.8c-.4-.2.1-.5 0-.8.7.4 0 .4 0 .8m-3 8.9c-.7-1 .1-1.3.2-2.3.6.7-.3 1.4-.2 2.3m2.5-11.7c-.4-.2.1-.5 0-.8.6.3.2.5 0 .8m-1.1 3.7c.5.6-.4 1.1-.6 1.1-.5-.6.1-.8.6-1.1m.5-2.5c-.4-.2-.2.2-.3.3-.6-.1.3-.5.2-.8.7.5 0 1.1 0 1.6-.2 0-.2-.1-.2-.1-.5-.2.5.5-.5.2-.2.2 0 .8-.5.8l.3-.9c.5-.1 0-.3.4-.5.1 0 .3.3.1.3.7.1.2-.5.5-.9m4.4-14.2c-1.2-.4-.1-.8-.5-1.3.9.5.5.9.5 1.3m-6.6 17.6c-.3-.2-.4-.5-.2-.7.3.2.3.5.2.7m7.6-28.1c.4.4-.2.8-.1 1.1-.4-.3.1-.7.1-1.1m-.5-1.2c-.5-.2-.3-.5-.2-.8.2.3.3.5.2.8m1.3-6.6c.7-.2-.4-1.1 0 0m-6.6-5.7c-.9-.6.1-.7.1-1.2.3.7 0 .8-.1 1.2m-7.2 9.7c.9.7-.2 1.2-.1.2.1-.1.1-.1.1-.2m.8-9.1c-.1-.3-.4-.6-.6-.2-.7-.4.3-.6.5-.9.3-.4.4-1.4.4-.4.2.7 0 1-.3 1.5m-1.8-1.6c-.9-.3 0-.9-.2-1.5.7.5-.2.9.2 1.5m-2.8 4c-.5-.3.4-.3.2-.6.4-.1.1.7-.2.6m-1.8-.8c.3.3 0 .9-.3 1-.4-.3 0-.8.3-1m-11.1 3.2c.4.4.2.9 0 1.3-.2-.4.1-.9 0-1.3m.4-1.2c.5.2 0 .4 0 .6-.1 0-.5-.6-.4-.8.2.1.3.3.4.2m1.1-5.1c.2.2.3 1-.5.7.7 0 .2-.7.5-.7m22.5 53.2c.3-.3.3-.8.4-1.1.3-.1.5 1.2-.4 1.1m-.5-3.4c-.3-.1.2-1.4.4-1.9.4-.1.1.4.1.5.7.2-.2-.8.8-.4-.1.2-.1.4-.2.6.4 0 .4-.4.6-.5.2.7 0 1.3-.2 2-.6-.1.3-.3-.3-.4-.9 0 .6.7-.2.6-.3-.3-.3-.6-.7-.8s-.1.2-.3.3m-.3 5.2c.2 1-1.3 1.6-1.7 2.5 0 .2.9.3 1 .5-.5.2-1.9-.1-2.3.1-.5-.3-.4-.6-.7-.8.5.3.8.2 1.1.2.1-.2-.3-.3-.5-.5.6.4.9.1 1.2-.2-.9-.5-1.3-.2-2.4-.4-.6-.5.5-1-.9-1.4.4-.2.5-.8 1-.9.6.3-.2.3-.2.6 3.3-.2 2.8-3 3.3-4.9.4 1.2.2 1.7 1.2 2.7-.2-.1-.1-.1-.2-.2-1.3 1.2-.5 2.7-1.5 4.1 1.1-.2 1.4-.8 1.6-1.4m-4.1.2c.1-.2.9-.3.6-.5-.2.1-1.2.1-.6.5m6.7-22.4c-1.5.3-1.1 1.3-1.5 2-.6.9-1.1 1.8-1.6 2.9.4 0 .6-.2.6-.5.2.9-1.5 1.9-.7 3-1.4.2-.9 2.2-1.5 2.5.3.2.2.4.7.5-.5.5-.9 1.5-.5 2.2.5-.3.9-1.1 1-1.9.7 1 .1 1.9.2 3-.3-.1-.1-.2-.1-.3-.7 1.2-1.8 2.5-1.4 3.8.6.2-.5-.4.5-.1-.3.3.1.6-.1.9-.4-.1-.1-.3-.3-.4-.8 1.9-2.9 2.9-3.3 4.8-.9 0-1 .6-1.8.7-.1-.3-.6-.2.1-.3-1.7-.8-4-.5-6.7-1.9-.6.1-1-.2-2-.3.2-.5-2.1-.9-2.3-1.3-.5-.1-.2.4-.9.1-.1-.2-1.3-.4-2.2-.9-.4-.1-.6 0-.7.2-.7-.3-.6-.5-.9-.8-.7.2-1.9-.5-2.9-.3-3.3-1.4-5.5-1.3-8.2-3.2-.4-.1-.2.2-.5.2-.4-1-3.3-2.2-5.8-2.8.5-.8-2.6-1.5-2-2.3 0-.2-.6-.1-.7-.1.9-1.2 1.6-3.5 2.5-5 .5 0 .3.1.8.3 2.5-5 1.9-10.8 4.2-15.7.3-.7.7-1.3 1.1-1.9 1.6-2.9 2.9-6.1 4.6-8.9.4-.6.8-1.7.8-2.4.1-.1.4.1.6.1-.4-.3.1-.7.1-1 .3.1 0 .8.4 1 .5-.1 0-.6.3-1.1.3.2.3.5.4.8 1.1-.5.2-1.4.9-2.3 0-.2.3 0 .7.1.1-.5-.1-1 .3-1.6 1.3 1.2.3 2.4 0 3.6 1-.7 1-2 1.6-2.9.5 1.3-.1 2.3-.7 3 .6.3.4 0 .5-.2.1.5-.6 1.6-.8 1.9.5.3.8.8.8 1-.9 0-.8 1.1-1.2 1.7.8 0 .8-.6 1-1 .1 0 .3.3.1.3 1.4-.1.7-2.5 1.8-3l.3-.9c.1-.5.4 0 .1.3-.1.6-.5 1-.5 1.6.3-.5 1.5-1.3 1.9-1.8.1-.1.2-1.2.4-.6.3.7-.7 1.1-.4 1.9.2-.2 1.2-.3.7-.7 2.2-.6 1.2-3.4 2.6-4.6.1-.1.1-.7.4-.4-.6 1.1-1 2.3-1.3 3.5.5-.1.6-.4.7-.8.5.2.4 1 .8.5.3.8-.1 2-.5 3 1.8-.7 2.1-3.8 3.1-4.2 0-.3.1-.7-.2-1 .6-.1.4.4.3.6.8-.1.5-.2.8-.5.8.4-.6.6-.4 1.1-.3-.8-.6-.1.1.3.1-.1.5-.3.6-.6.5.2 0 .3.1.5 1-.3.9-1.6 1.5-1.9-.1-.2.3-.5.3-.1-.1.6-1.2 1.5-.4 2 1.4-.9 2.1-2.5 2.4-4 0-.4.5-.5.2 0 0 .1.4.1.4.2.1 1.8-1.2 2.9-1.8 4.9.6 0 .1-.8.7-.8.1.3-.1 1.6-.7 2.1.8-.1-1 1-.3 1.6.6-.6 1.5-1.5 1-2.6 1.8-.9 3.3-2.7 3.4-5l.4.2c.1-.4.6-1.6.7-.7.1 1.3-1.8 4.1-2 5.6-.2-.1-.1-.2-.4-.3-.3.3.3.6.2.9-.3.1-.2-.4-.3-.5-1 .2-.1 1 0 1.4.3 1-1.7 2 .2 3-1.5-.2.3.6-.3 1-.7-.2-.1-.4-.5-.5-.6-.2.2.5-.3.1 1.1 1.6-1.1 2.3-.5 4 .9-.5 1-1.8 1.9-2.5.5.2 0 .4.1.6 1.1-.2 1-1.4 1.4-2.2 0-.1.1-.3.1-.4 0-.2.3 0 .2.1-.1.2-.1.5-.2.7.2.3-.2.7.1 1.2.1.2-.4 0-.5.1.1.4 0 .8-.1 1.1.7 0 .6-.5.7-.9.9.2-.1.1.1.4.7.3.4-.1.5-.2.5.5-.3.6-.1 1.1 1-.3.6-1.4.7-2.1-.5.2-.5.9-.5.9-.8-.7.3-1.5.2-2.3.5.2.3.5.2.7.5.1.2-.3.4-.4.8.9-.1 1.6-.1 2.6 1-.5.2-1.5 1-1.8 0-.3.3.6 0 .8.3.1.4.1.5 0 .4.8-.6 1.8-.7 2.8 1.1-.2 1-1.3 1.3-2 .2-1 .5-.3.1.3.9-.7 1-1.7 1.5-2.6.9.5.3.9.2 1.5.5 0 .6-.3.6-.6.3 1.2-1 2.6-1 3.9.3-.7 1.3-1.2.8-1.9.9.2-.2-.5.9 0 0-1.9-.5-4.6 1.3-5.6.3-.3.2.7.2.7-.3 1.7-.7 4.3-1.5 6.2.5-.1.3-.7.5-1 .5 0-.1.7-.1.9 1.3-.6 1.5-1.8 2.3-3 .3.1.2.5.4.2.7 1.2-.1 1.8 0 3 .5 0 .3-.7.5-.9.3-.6.3.3.1.5-.4 1-.4 2-1 3.8.5.1.2-.3.4-.4-.2.9.8 2.4.1 3.3-.9-.3-.4-.6-.4-.9-.9 1.2-1.5 3.3.5 5-.3.6-.3 1-.5 1.7 0 .2-.2 0-.4-.1.4 2-2 3.8-1.9 5.5.7-.5.6-1.1 1.2-1.7.3.2 0 .4.5.5-1.9.5-1.1 2.9-2.9 3.4.7-.6.7-1 1.1-2.1-.3-.1-.4-.1-.5 0 .3-.7 1.4-1.1 1-1.9m.4-2.8c0 .6-.2 1.3.4 1.8-.3-.7.3-1.1-.4-1.8m-.6-2.2c.1.3.2.7.6 1 .3-.4-.5-1-.6-1m-.5 3.8c-.1-.4.7-.8-.1-1.2.1.2-.5 1.5.1 1.2m.2-2.1c-.1-.3.5-.5 0-.8 0 .2-.5.5 0 .8m-7.1-13.4c.4.1.5.3.6.2-.5-.3.3-.7-.2-.8-.4 0-.2.4-.4.6m-.5-.5c.5.2-.2.5.5.8-.2-.3.2-.9-.5-.8m-5.2-3.1c0 .4.4 0 .3-.1 0-.5.5-1 .4-1.4-.3-.1-.4-.2-.4-.1-.6.5 0 .9-.3 1.6m12.5 35.4c-.9 0 .1-.7-.4-1 .9.1.1.8.4 1m4.2-18.6c1.1.4.3.9.7 1.3-.7 0-.5.4-.8.5-.4.9-.2-.4 0-.7-1 .1.5-.7.1-1.1m.6-2.8c.2.1.3.2.6.3-.1-1.6.4.9 0 1.4-.2-.1-.1-.2-.4-.3-.3.2-.4.8-.4 1.3-.2-.1-.3-.3-.4-.2-.1-.2.1-.5-.4-.9.9.4.8-.4 1.2-.8 0 0 .3.3.1.3 1-.1-.3-.8-.3-1.1m-.7.9c-.6-.1-.7-1.5-1.4-2.1 1.9.6 1.3 1.4 1.4 2.1m-4.7 8.5c.7.3.1.2-.1.3s.1.5-.4.4c.1-.2.1-.4.2-.6.5.2-.2-.1.3-.1m-4.3-25.2c.3.1.2-.1.3-.2.4 0 .2.7.4 1-.4-.3-.6-.6-.8-1 .2-.1.2.1.1.2m-.6-.1c-.9-.3-.6-1-.3-1.3.8.6-.1.9.3 1.3m-1.5 1.9c0 .1-.1.3-.1.4-.5-.2-.1-.4-.5-.6.1-.1.2.1.6.2m-.8-1.9c-.6-.2-.2-.8-.3-1.3.5.4.1.9.3 1.3m-10.1-5.1c.6.3-.5 0-.3.2-.4-.3.1-.7.1-1.1.1-.7.5-.2.2.2 0 .3.5.7-.2.6.2.2.2.1.2.1M160 312.9c-.2-.5.7-.6.5-.8.6.1 1.1 1.3-.5.8m29.7 77.1c.5.6-.6 1 0 1.3.3-.4 1.1-.6 1.6-1-.6-.2-.9-.3-1.6-.3m1-15c0 .1-.1.1-.2 0-.1.2.1 1-.4.8.3-.2-.4-.9.6-.8m-1.8 5.6c.4-.3.3-.8.4-1.2.3 0 .6 1.3-.4 1.2m2.2-12.7c-.4-.2-.7-.5-.6-.8.5.2.4.5.6.8m-.7 1.4c-.4.3-.3.9-.6 1.2-.4-.4-.2-1.1.6-1.2m-2.5 16.5c-.5-.4-.4-.9-.5-1.4.9.4.3 1 .5 1.4m-.6 1c.5.2 0 .5.1.8-.5-.2 0-.5-.1-.8m.1-12c-.5-.2 0-.5-.1-.8.8.3 0 .4.1.8m-1.6 9.2c-.9-.9-.2-1.3-.1-2.3.7.7-.2 1.5.1 2.3m.6-11.9c-.5-.2 0-.5-.1-.8.6.3.3.5.1.8m-.6 3.9c.6.5-.2 1.1-.4 1.2-.6-.6 0-.8.4-1.2m.2-2.6c-.5-.1-.1.2-.3.3-.6 0 .2-.5.1-.8.8.4.2 1.1.2 1.6-.2 0-.2-.1-.2-.1-.6-.1.6.5-.5.2-.2.3.2.8-.4.9 0-.3.1-.6.1-.9.5-.2 0-.4.3-.6 0 0 .4.2.2.3.8 0 .2-.4.5-.9m2.1-14.7c-1.3-.2-.2-.8-.8-1.2 1.1.3.8.8.8 1.2m-3.9 18.4c-.4-.2-.5-.4-.4-.7.5.2.5.4.4.7m3.1-29c.5.3 0 .8.1 1.1-.5-.2 0-.7-.1-1.1m-.8-1.1c-.6-.2-.4-.5-.4-.7.4.2.5.5.4.7m.3-6.7c.6-.3-.6-1 0 0m-8.1-4.7c-1.1-.5 0-.7-.1-1.2.5.6.2.8.1 1.2m-5.8 10.6c1 .5 0 1.2 0 .2zm-.8-9c-.2-.2-.6-.5-.7-.1-.8-.3.2-.6.4-.9.2-.5.2-1.5.3-.5.4.5.2.9 0 1.5m-2.2-1.4c-1-.1-.2-.9-.5-1.4.9.3 0 .8.5 1.4m-2.3 4.4c-.6-.2.4-.3.1-.7.4-.1.3.7-.1.7m-2-.6c.4.3.2.9-.2 1-.4-.2-.1-.8.2-1m-11.1 4.7c.5.4.4.9.3 1.3-.4-.3-.2-.8-.3-1.3m.1-1.1c.5.1 0 .4.1.6-.1 0-.6-.5-.6-.8.3.1.4.3.5.2m.3-5.3c.3.1.5.9-.4.8.7-.1.1-.7.4-.8m33.3 49.5c.3-.4.2-.9.2-1.2.3-.1.7 1.2-.2 1.2m-1.2-3.3c-.3 0 0-1.4 0-1.9.4-.2.2.3.2.5.7.1-.3-.7.8-.5 0 .2-.1.4-.1.6.4-.1.3-.4.6-.6.3.6.2 1.3.2 2-.6 0 .2-.3-.4-.4-.9.1.8.6-.1.7-.4-.2-.4-.5-.8-.7-.6-.1-.2.2-.4.3m.7 5.2c.4 1-1.1 1.8-1.4 2.7 0 .2 1 .2 1.1.3-.5.3-2 .1-2.4.5-.6-.2-.5-.5-.8-.7.5.3.8.1 1.2 0 .1-.2-.3-.3-.7-.4.7.3 1-.1 1.2-.4-1-.4-1.4 0-2.6-.1-.7-.4.3-1-1.2-1.2.4-.3.4-.8.9-1.1.7.2-.2.4-.1.6 3.5-.7 2.4-3.4 2.7-5.3.7 1.1.5 1.6 1.8 2.5-.2 0-.2-.1-.2-.2-1.2 1.4-.1 2.7-.9 4.2.9-.1 1.2-.7 1.4-1.4m-4.4.8c.1-.2 1-.4.6-.6-.2.2-1.4.3-.6.6m3.2-23.2c-1.5.5-1 1.5-1.3 2.2-.4 1-.9 1.9-1.2 3.1.4-.1.5-.3.6-.6.3.8-1.2 2.1-.2 3.1-1.5.4-.6 2.3-1.1 2.7.3.1.2.3.9.4-.5.6-.7 1.6-.1 2.2.4-.3.7-1.2.8-2 1 .9.4 1.8.7 3-.3-.1-.2-.2-.2-.3-.5 1.3-1.4 2.7-.8 4 .6.1-.6-.4.5-.2-.2.4.2.6.1.9-.4-.1-.1-.3-.4-.4-.5 2-2.6 3.3-2.7 5.3-1 .1-1 .7-1.8.9-.1-.3-.7-.1 0-.3-1.9-.6-4.4.1-7.5-.9-.6.2-1.1-.1-2.1 0 .1-.5-2.4-.6-2.7-1-.5 0-.1.4-1 .2-.2-.2-1.4-.2-2.5-.5-.5 0-.6.1-.7.3-.8-.2-.7-.5-1.1-.7-.7.3-2.1-.2-3.1.1-3.7-.9-6.1-.5-9.2-2-.4-.1-.2.2-.5.2-.6-1-3.9-1.7-6.6-1.9.4-.9-3.1-1.1-2.5-2 0-.2-.6 0-.7 0 .7-1.3 1.1-3.7 1.7-5.3.5-.1.3.1.9.1 1.7-5.3.1-11 1.7-16.2.2-.7.5-1.4.8-2.1 1.2-3.1 2-6.4 3.3-9.5.3-.6.5-1.8.4-2.5 0-.1.4 0 .7 0-.4-.3 0-.7-.1-1 .4 0 .1.7.6 1 .5-.1-.1-.6.2-1.1.4.2.4.5.6.7 1.1-.7 0-1.4.6-2.4-.1-.2.4-.1.7 0 0-.5-.2-1 0-1.6 1.6 1 .7 2.3.7 3.6.9-.8.7-2.1 1.2-3.1.7 1.2.3 2.3-.2 3.1.7.2.4-.1.5-.2.2.5-.3 1.7-.5 2 .6.2 1 .7 1.1.9-1 .1-.6 1.2-1 1.9.8-.1.7-.7.9-1.1.2 0 .3.2.2.3 1.5-.3.3-2.6 1.4-3.3 0-.3.1-.6.1-1 .1-.6.4 0 .2.3 0 .7-.3 1.1-.2 1.6.2-.6 1.3-1.5 1.7-2.1 0-.1 0-1.2.3-.6.4.7-.6 1.2-.1 1.9.2-.2 1.3-.4.6-.8 2.2-.9.7-3.5 1.9-4.9.1-.1 0-.8.3-.5-.4 1.1-.6 2.4-.8 3.6.5-.1.6-.5.6-.9.6.1.6.9.9.4.4.7.2 2 0 3 1.7-.9 1.5-4 2.6-4.6 0-.3 0-.7-.3-1 .6-.2.4.4.4.5.8-.3.5-.2.8-.6.9.3-.5.6-.2 1.2-.5-.8-.7 0 .2.3.1-.1.5-.4.6-.7.5.1.1.3.2.5 1-.4.7-1.7 1.3-2.1-.1-.2.2-.6.3-.2 0 .6-1 1.6-.1 2 1.3-1.1 1.8-2.8 1.8-4.3-.1-.4.4-.5.2 0 .1.1.4 0 .5.1.4 1.8-.7 3-1 5.1.7-.1 0-.8.6-.9.2.3.2 1.6-.3 2.2.8-.2-.9 1.1 0 1.7.5-.7 1.3-1.7.6-2.8 1.7-1.1 3-3.2 2.7-5.5.2 0 .2.1.5.1 0-.4.4-1.7.6-.8.3 1.2-1.1 4.3-1.1 5.9-.3-.1-.1-.2-.4-.2-.3.4.4.6.3.9-.3.2-.3-.3-.4-.4-1 .3 0 1 .3 1.4.5.9-1.4 2.2.7 3-1.6.1.4.6-.2 1-.7-.1-.1-.4-.6-.5-.6-.1.3.4-.3.1 1.4 1.4-.8 2.4.1 4 .8-.7.8-1.9 1.6-2.8.5.1 0 .4.2.6 1.1-.4.8-1.5 1.1-2.3 0-.1 0-.3.1-.4 0-.2.3-.1.2 0 0 .2-.1.5-.1.7.3.3-.1.8.3 1.2.1.2-.5 0-.5.2.2.3.2.7.1 1.1.7-.1.5-.6.6-1 1 .1-.1.1.2.4.8.2.4-.2.5-.3.6.4-.2.7.1 1.1 1.1-.5.4-1.5.3-2.2-.5.2-.4.9-.4 1-1-.6.1-1.5-.1-2.3.5.2.4.4.4.7.5 0 .1-.3.3-.5 1.1.8.1 1.6.3 2.6.9-.6-.1-1.5.8-1.9 0-.3.4.5.1.8.4.1.4 0 .5-.1.6.8-.3 1.9-.2 2.9 1.2-.3.8-1.4 1-2.2 0-1 .5-.4.2.3.8-.9.7-1.9 1.1-2.8 1 .4.5.8.5 1.5.5-.1.6-.4.6-.7.5 1.1-.6 2.7-.4 4 .2-.8 1.2-1.3.5-2 1 .1-.3-.5 1-.1-.3-1.8-1.4-4.4.4-5.7.3-.4.4.6.4.7 0 1.8.1 4.4-.5 6.4.6-.1.2-.7.4-1.1.5-.1 0 .7.1.9 1.3-.8 1.2-2 1.9-3.3.3 0 .3.5.5.1.9 1.1.2 1.8.5 3 .6-.1.2-.7.4-1 .2-.7.3.2.2.5-.3 1 0 2-.3 3.9.5 0 .1-.3.3-.5-.1 1 1.2 2.2.7 3.3-1-.1-.6-.5-.6-.8-.8 1.3-1 3.5 1.4 4.9-.2.7-.1 1-.3 1.8 0 .2-.2.1-.5 0 .7 1.9-1.5 4-1.1 5.7.6-.6.4-1.2 1-1.9.4.1.1.4.6.5-1.9.7-.7 3-2.5 3.8.6-.6.6-1.1.8-2.3-.4-.1-.4 0-.5.1-.7-.6.4-1.1-.1-1.9m-.1-2.8c.1.6 0 1.3.7 1.7-.4-.7.1-1.1-.7-1.7m-1.1-2.1c.1.3.4.6.8.9.3-.4-.6-.9-.8-.9m.1 3.8c-.1-.4.6-.9-.3-1.2.2.3-.2 1.6.3 1.2m-.1-2.1c-.1-.2.4-.6-.1-.8.1.3-.4.6.1.8m-9.8-12.2c.4 0 .6.2.7.1-.6-.2.2-.7-.4-.8-.4.1-.2.5-.3.7m-.7-.5c.5.2-.1.5.6.7-.2-.2.1-.8-.6-.7m-6-2.3c0 .4.4 0 .3-.2-.1-.5.4-1.1.2-1.4-.3-.1-.5-.2-.5 0-.5.6.2.9 0 1.6m19.5 33.3c-.9.1 0-.7-.6-.9.9-.1.2.8.6.9m1.1-19c1.3.2.4.8 1 1.2-.8.1-.5.5-.8.6-.3 1-.3-.3-.1-.7-1 .2.4-.8-.1-1.1m.2-2.9c.2.1.4.1.7.2-.4-1.6.6.8.3 1.4-.2-.1-.1-.2-.4-.2-.3.3-.3.8-.2 1.3-.2-.1-.3-.3-.5-.1-.2-.2.1-.6-.6-.8 1.1.2.8-.5 1.1-1 0 0 .4.2.2.3.9-.3-.6-.8-.6-1.1m-.6 1c-.6-.1-1-1.4-1.9-1.9 2.1.3 1.6 1.3 1.9 1.9m-3.5 9.1c.8.2.2.2 0 .3s.2.5-.3.5c0-.2.1-.4.1-.6.5 0-.3-.2.2-.2m-9-24.3c.3 0 .2-.2.3-.3.5 0 .3.7.6.9-.5-.3-.8-.5-1.1-.8.2-.1.3.1.2.2m-.7-.1c-1-.1-.9-.9-.5-1.2.9.4 0 .9.5 1.2m-1.2 2.1c0 .1 0 .3-.1.4-.6-.1-.2-.4-.6-.5.1-.1.3.1.7.1m-1.2-1.8c-.6-.2-.3-.8-.5-1.2.5.4.2.9.5 1.2m-11.6-3.5c.7.2-.6 0-.3.3-.5-.3 0-.7-.1-1.1 0-.7.5-.3.2.2.1.3.6.6-.1.7zm-22.2 41.8c-.3-.4.7-.7.4-.8.6 0 1.3 1-.4.8"/></svg>