<svg width="700" height="116.72" inkscape:version="1.2 (dc2aeda, 2022-05-15)" sodipodi:docname="Logo Le Progrès - 2022.svg" version="1.1" viewBox="0 0 700 116.72" xml:space="preserve" xmlns="http://www.w3.org/2000/svg" xmlns:inkscape="http://www.inkscape.org/namespaces/inkscape" xmlns:sodipodi="http://sodipodi.sourceforge.net/DTD/sodipodi-0.dtd"><sodipodi:namedview bordercolor="#666666" borderopacity="1.0" inkscape:current-layer="Calque_1" inkscape:cx="221.76531" inkscape:cy="35.221549" inkscape:deskcolor="#d1d1d1" inkscape:pagecheckerboard="0" inkscape:pageopacity="0.0" inkscape:showpageshadow="2" inkscape:window-height="1080" inkscape:window-maximized="0" inkscape:window-width="1920" inkscape:window-x="0" inkscape:window-y="0" inkscape:zoom="0.76657616" pagecolor="#ffffff" showgrid="false"/>
<style type="text/css">
	.st0{fill:#FFFFFF;}
</style>
<rect width="700" height="116.72" fill="#0068bb" stroke-width="9.8113"/><g transform="matrix(1.5292 0 0 1.5292 12.051 12.716)"><path class="st0" d="m81.1 4v12h-24.6v8.7h23.1v12h-23.1v9.6h26.2l-1.2 12h-39.2v-54.3z"/><path class="st0" d="m187.4 30.3c-1.3 2.6-3.3 4.7-6.1 6.3l11.1 21.7h-15.4l-8.9-18.7h-7.9v18.7h-13.9v-54.3h21.4c4.2 0 7.7 0.5 10.5 1.4 2.8 1 5 2.2 6.7 3.8s2.8 3.4 3.5 5.5 1 4.2 1 6.4c0 3.5-0.7 6.6-2 9.2zm-20.1-2c2.9 0 5-0.6 6.2-1.7s1.8-2.8 1.8-4.9c0-2-0.6-3.6-1.9-4.7s-3.4-1.7-6.5-1.7h-6.7v13z"/><path class="st0" d="m230.6 4.6c3.3 1.3 6.1 3.2 8.3 5.6s4 5.4 5.1 8.9c1.2 3.5 1.7 7.4 1.7 11.8s-0.6 8.4-1.8 11.9-2.9 6.6-5.2 9c-2.3 2.5-5.1 4.4-8.4 5.7s-7.2 2-11.5 2-8-0.7-11.3-2-6.1-3.2-8.3-5.6-4-5.4-5.1-8.9c-1.2-3.5-1.7-7.4-1.7-11.8s0.6-8.4 1.8-11.9 2.9-6.6 5.2-9 5.1-4.4 8.4-5.7 7.2-2 11.5-2c4.2 0 8 0.7 11.3 2zm-20.2 38.4c1.9 2.7 4.8 4.1 8.7 4.1s6.8-1.4 8.7-4.1 2.8-6.7 2.8-11.9-1-9.2-2.8-11.9c-1.9-2.7-4.8-4.1-8.7-4.1s-6.8 1.4-8.7 4.1-2.9 6.7-2.9 11.9 0.9 9.2 2.9 11.9z"/><path class="st0" d="m299.4 27.3v24.7c-2.7 2.2-6 4-10 5.5s-8.4 2.2-13.2 2.2c-4.5 0-8.4-0.7-11.7-2s-6.1-3.2-8.3-5.7-3.8-5.4-4.9-8.9-1.6-7.3-1.6-11.6c0-4.5 0.6-8.5 1.8-12.1s2.9-6.6 5.1-9c2.2-2.5 5-4.3 8.2-5.7 3.3-1.3 7-2 11.2-2 3.6 0 6.8 0.5 9.5 1.4 2.7 1 5 2.3 6.8 3.9s3.3 3.5 4.4 5.6c1 2.1 1.8 4.4 2.2 6.7l-14.6 1.4c-0.6-2.3-1.5-4-2.8-5.1s-3.2-1.6-5.6-1.6c-3.8 0-6.6 1.3-8.4 4s-2.7 6.7-2.7 12.1 1 9.5 2.9 12.2 5.2 4.1 9.8 4.1c3.2 0 6.1-0.7 8.5-2v-6.4h-8.7v-11.7z"/><path class="st0" d="m346.3 30.3c-1.3 2.6-3.3 4.7-6.1 6.3l11.1 21.7h-15.4l-8.9-18.7h-7.9v18.7h-13.9v-54.3h21.4c4.2 0 7.7 0.5 10.5 1.4 2.8 1 5 2.2 6.7 3.8s2.8 3.4 3.5 5.5 1 4.2 1 6.4c0 3.5-0.7 6.6-2 9.2zm-20-2c2.9 0 5-0.6 6.2-1.7s1.8-2.8 1.8-4.9c0-2-0.6-3.6-1.9-4.7s-3.4-1.7-6.5-1.7h-6.7v13z"/><rect class="st0" y="4" width="14.6" height="33.6"/><polygon class="st0" points="0 58.3 37.3 58.3 38.6 45.9 0 45.9"/><path class="st0" d="m140.9 15.1c-0.7-2.2-1.8-4.1-3.5-5.7s-3.9-3-6.7-3.9c-2.8-1-6.3-1.4-10.6-1.4h-20.2v11.6h20.3c3 0 5.2 0.5 6.4 1.6s1.8 2.7 1.8 5-0.6 4-1.8 5.1-3.3 1.7-6.3 1.7h-6.3v-5.2h-14.1v34.4h14.1v-17.7h6.3c4.2 0 7.6-0.5 10.4-1.4 2.8-1 5-2.3 6.7-4s2.8-3.7 3.5-5.9c0.7-2.3 1-4.6 1-7.2 0-2.5-0.3-4.8-1-7z"/><polygon class="st0" points="353.9 4 353.9 58.3 393.1 58.3 394.4 46.3 368.1 46.3 368.1 36.7 391.2 36.7 391.2 24.7 368.1 24.7 368.1 16 392.8 16 392.8 4 382.6 4 380.7 0 363.7 0 365.6 4"/><path class="st0" d="m437.8 31.2c-2.7-2.8-7.2-4.9-13.6-6.1l-7.4-1.4c-2.1-0.4-3.7-1-4.6-1.7-1-0.8-1.4-1.8-1.4-3 0-1.4 0.6-2.5 1.8-3.4 1.2-0.8 3-1.3 5.5-1.3 2.7 0 4.8 0.5 6 1.6 1.3 1.1 2.2 2.7 2.6 4.9l14.1-1.4c-0.3-2.2-0.8-4.3-1.7-6.3s-2.3-3.8-4-5.3c-1.8-1.5-4.1-2.7-6.8-3.6-2.8-0.9-6.2-1.4-10.1-1.4-6.8 0-12.1 1.4-16 4.3s-5.8 7.1-5.8 12.7c0 4.7 1.4 8.3 4.3 10.9s7.3 4.5 13.4 5.6l7.2 1.4c2.3 0.5 3.9 1.1 4.7 1.9s1.3 1.9 1.3 3.2c0 1.7-0.6 3-1.9 3.9s-3.2 1.4-5.8 1.4c-3 0-5.3-0.6-6.9-1.9s-2.5-3.1-2.8-5.7h-14.5c0.8 12.7 8.7 19.1 23.7 19.2 3.9 0 7.3-0.4 10.2-1.3s5.3-2.1 7.1-3.6 3.3-3.4 4.2-5.6 1.4-4.6 1.4-7.3c-0.1-4.4-1.5-7.9-4.2-10.7z"/></g>
</svg>
