<?xml version="1.0" encoding="UTF-8" standalone="no"?>
<!-- Created with Inkscape (http://www.inkscape.org/) -->

<svg
   width="210mm"
   height="210mm"
   viewBox="0 0 210 210"
   version="1.1"
   id="svg1"
   inkscape:version="1.3.1 (9b9bdc1480, 2023-11-25, custom)"
   sodipodi:docname="illustration.svg"
   xmlns:inkscape="http://www.inkscape.org/namespaces/inkscape"
   xmlns:sodipodi="http://sodipodi.sourceforge.net/DTD/sodipodi-0.dtd"
   xmlns:xlink="http://www.w3.org/1999/xlink"
   xmlns="http://www.w3.org/2000/svg"
   xmlns:svg="http://www.w3.org/2000/svg">
  <sodipodi:namedview
     id="namedview1"
     pagecolor="#ffffff"
     bordercolor="#666666"
     borderopacity="1.0"
     inkscape:showpageshadow="2"
     inkscape:pageopacity="0.0"
     inkscape:pagecheckerboard="0"
     inkscape:deskcolor="#d1d1d1"
     inkscape:document-units="mm"
     inkscape:zoom="0.78940662"
     inkscape:cx="500.37584"
     inkscape:cy="254.62163"
     inkscape:window-width="1920"
     inkscape:window-height="1055"
     inkscape:window-x="0"
     inkscape:window-y="0"
     inkscape:window-maximized="1"
     inkscape:current-layer="layer1" />
  <defs
     id="defs1">
    <linearGradient
       id="linearGradient1"
       inkscape:collect="always">
      <stop
         style="stop-color:#e94f12;stop-opacity:0.75557137;"
         offset="0"
         id="stop1" />
      <stop
         style="stop-color:#017714;stop-opacity:0.74883616;"
         offset="1"
         id="stop2" />
    </linearGradient>
    <linearGradient
       inkscape:collect="always"
       xlink:href="#linearGradient1"
       id="linearGradient2"
       x1="100.79167"
       y1="148.58763"
       x2="100.70672"
       y2="29.176775"
       gradientUnits="userSpaceOnUse"
       gradientTransform="translate(172.23529,-80.02189)" />
  </defs>
  <g
     inkscape:label="Layer 1"
     inkscape:groupmode="layer"
     id="layer1">
    <path
       id="path1"
       style="fill:url(#linearGradient2);fill-rule:evenodd;stroke-width:0.264583"
       d="m 305.24013,71.65684 c 0,18.04257 -14.62639,32.66896 -32.66896,32.66896 -18.04257,0 -32.66897,-14.62639 -32.66897,-32.66896 0,-12.25466 6.74749,-22.93335 16.72994,-28.52354 4.71475,-2.64026 0.51197,-93.662806 6.15656,-94.942873 12.01322,-2.724327 6.39221,-3.544786 21.54987,0.0034 6.71709,1.57238 0.2904,92.915135 3.19427,94.413795 10.51685,5.42762 17.70729,16.3987 17.70729,29.0492 z"
       sodipodi:nodetypes="ssssssss" />
    <rect
       style="fill:#f0b50f;fill-opacity:1;fill-rule:evenodd;stroke-width:0.387342"
       id="rect2"
       width="123.59901"
       height="112.55824"
       x="34.314377"
       y="75.655815"
       ry="0.20728706" />
    <path
       id="rect3"
       style="fill:#009c6d;fill-opacity:0.638494;fill-rule:evenodd;stroke-width:0.405895"
       d="m 154.39467,39.178175 c 0,-3.490303 24.00136,37.035583 22.31401,37.035749 l -142.14622,0.01396 c -0.126103,1.2e-5 -0.296499,-0.122007 -0.227621,-0.22762 L 58.388236,39.115799 c 28.240856,-0.03285 96.006434,0.532094 96.006434,0.06238 z"
       sodipodi:nodetypes="sssscss" />
    <rect
       style="fill:#009c6d;fill-opacity:0.622926;fill-rule:evenodd;stroke-width:0.430967"
       id="rect4"
       width="39.042"
       height="112.47669"
       x="137.80824"
       y="75.660446"
       ry="0.20848969" />
    <rect
       style="fill:#009b6c;fill-opacity:0.639216;fill-rule:evenodd;stroke-width:0.498003"
       id="rect5"
       width="28.034212"
       height="27.420956"
       x="60.364704"
       y="100.10012"
       ry="0.27927223" />
  </g>
</svg>
