<svg width="56" height="56" viewBox="0 0 56 56" fill="none" xmlns="http://www.w3.org/2000/svg">
<path d="M26.278 22.9764C27.4116 22.3588 28.7812 22.3588 29.9148 22.9764L53.5265 35.8418C56.1693 37.2818 56.1693 41.0763 53.5265 42.5163L29.9148 55.3817C28.7812 55.9993 27.4116 55.9993 26.278 55.3817L2.66631 42.5163C0.0235027 41.0763 0.0234998 37.2818 2.66631 35.8418L26.278 22.9764Z" fill="#0010A2"/>
<path fill-rule="evenodd" clip-rule="evenodd" d="M26.6754 24.4234C27.8002 25.0217 29.15 25.0166 30.2703 24.4098L42.2843 17.9021C44.8166 16.5305 47.8949 18.364 47.8949 21.2439V36.9134C47.8949 38.2864 47.1543 39.5527 45.9577 40.2258L30.3243 49.0196C29.1757 49.6656 27.7745 49.6706 26.6214 49.0327L11.4235 40.6254C10.2136 39.9561 9.46265 38.6825 9.46265 37.2998V21.5938C9.46265 18.7266 12.5165 16.892 15.0479 18.2385L26.6754 24.4234Z" fill="white"/>
<path d="M28.2742 26.595L43.6471 19.7176L44.8607 16.0767L35.7583 11.6266L28.2742 15.6721V26.595Z" fill="white"/>
<path fill-rule="evenodd" clip-rule="evenodd" d="M38.152 9.98619C38.1551 9.98135 38.1533 9.97494 38.1481 9.9724L21.4632 1.7036C19.8952 0.926514 17.9936 1.45832 17.0561 2.93607L4.96759 21.992C3.90988 23.6593 4.47963 25.8734 6.21078 26.823L19.243 33.9723C20.8289 34.8423 22.818 34.3271 23.7822 32.7966L35.5328 14.144C36.4769 12.6453 38.409 12.1153 39.9857 12.9226L52.6528 19.4084C53.2365 19.7073 53.9466 19.3874 54.1097 18.7523C54.2301 18.2831 54.005 17.7938 53.5703 17.5801L38.1559 9.99999C38.1508 9.99746 38.149 9.99103 38.152 9.98619Z" fill="#D10101"/>
<path fill-rule="evenodd" clip-rule="evenodd" d="M16.7353 2.7325C17.7769 1.09055 19.8899 0.499657 21.6321 1.36309L38.317 9.63189C38.3568 9.6516 38.3916 9.67708 38.421 9.70679L53.7381 17.2391C54.3343 17.5322 54.6431 18.2033 54.4779 18.8468C54.2543 19.7179 53.2802 20.1566 52.4797 19.7467L39.8126 13.2609C38.4111 12.5433 36.6937 13.0144 35.8544 14.3466L24.1039 32.9992C23.0326 34.6997 20.8225 35.2722 19.0604 34.3055L6.0281 27.1563C4.10461 26.1011 3.47155 23.641 4.64678 21.7884L16.7353 2.7325ZM21.2946 2.04413C19.9008 1.35339 18.2104 1.82611 17.3771 3.13966L5.28862 22.1956C4.34844 23.6776 4.85488 25.6457 6.39368 26.4899L19.4259 33.6391C20.8356 34.4124 22.6037 33.9545 23.4607 32.594L35.2113 13.9414C36.2603 12.2762 38.4071 11.6873 40.159 12.5843L52.8261 19.0701C53.1929 19.2579 53.6392 19.0569 53.7417 18.6578C53.8173 18.363 53.6759 18.0555 53.4027 17.9212L37.9883 10.341C37.9478 10.3211 37.9124 10.2952 37.8825 10.2649L21.2946 2.04413Z" fill="#D10101"/>
</svg>