<?xml version="1.0" encoding="UTF-8" standalone="no"?>
<!-- Created with Inkscape (http://www.inkscape.org/) -->

<svg
   width="210mm"
   height="210mm"
   viewBox="0 0 210 210"
   version="1.1"
   id="svg1370"
   inkscape:version="1.2.2 (b0a8486541, 2022-12-01)"
   sodipodi:docname="01.svg"
   xmlns:inkscape="http://www.inkscape.org/namespaces/inkscape"
   xmlns:sodipodi="http://sodipodi.sourceforge.net/DTD/sodipodi-0.dtd"
   xmlns="http://www.w3.org/2000/svg"
   xmlns:svg="http://www.w3.org/2000/svg">
  <sodipodi:namedview
     id="namedview1372"
     pagecolor="#ffffff"
     bordercolor="#000000"
     borderopacity="0.25"
     inkscape:showpageshadow="2"
     inkscape:pageopacity="0.0"
     inkscape:pagecheckerboard="0"
     inkscape:deskcolor="#d1d1d1"
     inkscape:document-units="mm"
     showgrid="false"
     inkscape:zoom="0.37592154"
     inkscape:cx="969.61723"
     inkscape:cy="615.82"
     inkscape:window-width="949"
     inkscape:window-height="1041"
     inkscape:window-x="962"
     inkscape:window-y="5"
     inkscape:window-maximized="0"
     inkscape:current-layer="layer1" />
  <defs
     id="defs1367" />
  <g
     inkscape:label="Calque 1"
     inkscape:groupmode="layer"
     id="layer1">
    <path
       class="p"
       d="m 160.81148,91.944818 -2.87972,-2.15498 -4.66674,-0.71673 -5.98342,-2.75334 -1.19668,-2.15338 -1.79502,-4.42677 -4.90512,-3.23008 -6.22179,-2.27498 h -4.89872 l -8.37518,-2.27338 -5.1451,-6.34018 -1.31667,-4.30838 2.15499,-6.820124 -3.23168,-9.571862 -5.98182,-4.068405 -1.19668,-1.919812 -2.27338,-0.479923 -2.51335,-2.513351 -3.111691,4.308379 -3.58846,1.919812 -1.07669,1.919812 -2.63334,1.675031 -3.350074,3.231688 -0.239992,2.879718 2.154986,8.016814 3.11009,2.511753 0.95991,0.11997 2.39977,1.67504 0.23999,4.90512 0.35838,0.9599 -2.15339,0.71833 -1.19668,1.67504 -1.91981,-0.35996 -2.75333,2.63334 -0.238359,3.94841 -1.675037,2.63174 v 1.55505 l -1.196681,2.15499 -2.035001,0.23836 -2.631745,-0.59832 -1.675031,0.71833 -1.439859,2.51336 -1.795027,0.11839 -0.836718,-1.55505 -1.675037,1.0767 -3.111692,-1.79502 2.153388,-1.31508 2.035001,-3.94841 -4.308379,0.83672 -3.588446,-1.80783 -1.196687,-2.03339 h -4.066796 l -5.863427,-3.59005 -2.631745,-0.35839 -3.830021,-3.59005 c 0,0 -2.153395,-1.43986 -2.511756,-1.19668 l -2.15499,1.19668 -2.399765,0.23999 -2.871718,1.67504 -1.675038,1.91981 -0.838314,2.75333 -2.033404,1.67504 0.358385,1.91981 -0.959906,1.91981 v 3.70844 l -1.078293,1.91981 0.359957,1.31667 0.836717,4.30678 3.111692,4.30838 0.71833,2.879722 -0.71833,2.75173 0.836724,2.63174 -0.479923,1.43986 1.675031,1.91981 0.119966,5.1451 1.316671,2.9901 -0.83832,2.63335 0.119965,5.38347 1.439859,0.83831 -0.479923,5.98342 1.196687,2.9901 2.751729,2.63335 0.598316,4.54675 4.786729,5.98181 h 1.675038 l 1.196681,3.1117 0.598376,3.70844 2.751729,1.19668 4.546755,-1.91981 1.076692,-1.67503 1.55665,0.23835 2.033398,-1.19668 3.590048,0.23999 1.675038,-1.19668 1.555048,-3.59005 9.213495,-7.29849 2.633347,-5.98341 -0.598316,-2.63174 0.118393,-6.10181 -0.716734,-3.11169 -1.31667,-1.31667 0.239991,-1.79503 1.196681,-1.67504 -2.633341,-2.15338 v -2.39977 l -1.555048,-1.31507 -0.358385,-2.27337 1.315075,-1.79503 -2.273378,-1.79502 -0.358385,-1.91982 1.315074,-2.15338 -0.716734,-2.631752 0.479923,-1.79502 0.239991,-1.67504 1.315069,-0.23999 3.350075,0.71833 0.838313,-0.23999 1.555048,1.55505 2.156593,-2.89412 2.879721,4.30838 0.71833,0.59831 2.27338,0.23999 1.67503,1.919822 6.341781,1.31667 4.54676,-0.47993 2.15498,-1.67503 3.70844,-0.24 2.035,-0.479922 3.23008,-2.035 2.51176,-0.23836 2.39976,-2.15339 8.73515,-2.27337 2.15338,0.47992 12.3188,-3.1117 5.98181,0.35996 5.38507,0.71673 z"
       id="path452"
       style="fill:#efdcba;stroke:#000000;stroke-width:1.59984" />
    <polygon
       class="p"
       points="819.374,273.285 820.645,273.285 821.243,275.005 818.252,276.576 815.484,278.595 812.493,279.044 809.95,280.39 808.604,280.39 809.127,278.745 809.8,277.922 811.52,277.922 811.969,276.651 812.941,277.099 815.036,275.454 815.933,275.454 "
       id="polygon454"
       style="fill:#efdcba;stroke:#000000"
       transform="matrix(1.5998433,0,0,1.5998433,-1117.5129,-367.16541)" />
    <polygon
       class="p"
       points="792.374,335.736 790.803,336.708 789.607,336.708 787.886,337.456 783.773,336.484 780.332,334.39 778.762,327.135 781.23,326.013 781.679,322.647 782.651,322.348 784.596,319.506 786.54,318.833 792,321.376 793.271,324.218 796.712,326.761 797.011,328.78 796.263,332.37 794.318,333.642 "
       id="polygon456"
       style="fill:#efdcba;stroke:#000000"
       transform="matrix(1.5998433,0,0,1.5998433,-1117.5129,-367.16541)" />
    <polygon
       class="p"
       points="740.244,337.456 741.89,337.83 742.488,338.578 742.937,339.326 741.89,341.57 740.469,341.196 738.898,340.298 739.272,338.578 "
       id="polygon458"
       style="fill:#efdcba;stroke:#000000"
       transform="matrix(1.5998433,0,0,1.5998433,-1117.5129,-367.16541)" />
    <path
       class="p"
       d="m 74.301554,173.908 1.555048,-1.43986 h 2.631739 l -0.479923,-2.63174 1.555048,-0.71833 1.076697,-1.19668 1.795021,0.35838 -0.598316,2.15499 0.598316,1.19669 -2.153388,1.67503 0.239992,1.91981 -2.035001,-0.47992 c 0,0 -1.196687,1.43986 -1.439859,1.19669 a 8.3911784,8.3911784 0 0 0 -2.273378,-0.71833 z"
       id="path460"
       style="fill:#efdcba;stroke:#000000;stroke-width:1.59984" />
    <polygon
       class="p"
       points="745.704,272.762 746.901,272.762 747.948,273.285 747.798,274.557 746.452,274.557 745.704,274.781 744.956,273.734 "
       id="polygon462"
       style="fill:#efdcba;stroke:#000000"
       transform="matrix(1.5998433,0,0,1.5998433,-1117.5129,-367.16541)" />
    <path
       class="p"
       d="m 169.42664,107.73848 a 32.36163,32.36163 0 0 1 3.94841,-0.47992 l 2.0334,0.9599 -0.59831,0.95991 -1.43986,0.47992 h -2.035 l -1.31508,-0.23999 -1.19668,-0.83672 z"
       id="path464"
       style="fill:#efdcba;stroke:#000000;stroke-width:1.59984" />
  </g>
</svg>
