<?xml version="1.0" encoding="UTF-8" standalone="no"?>
<!-- Created with Inkscape (http://www.inkscape.org/) -->

<svg
   width="210mm"
   height="210mm"
   viewBox="0 0 210 210"
   version="1.1"
   id="svg1370"
   inkscape:version="1.2.2 (b0a8486541, 2022-12-01)"
   sodipodi:docname="02.svg"
   xmlns:inkscape="http://www.inkscape.org/namespaces/inkscape"
   xmlns:sodipodi="http://sodipodi.sourceforge.net/DTD/sodipodi-0.dtd"
   xmlns="http://www.w3.org/2000/svg"
   xmlns:svg="http://www.w3.org/2000/svg">
  <sodipodi:namedview
     id="namedview1372"
     pagecolor="#ffffff"
     bordercolor="#000000"
     borderopacity="0.25"
     inkscape:showpageshadow="2"
     inkscape:pageopacity="0.0"
     inkscape:pagecheckerboard="0"
     inkscape:deskcolor="#d1d1d1"
     inkscape:document-units="mm"
     showgrid="false"
     inkscape:zoom="0.37592154"
     inkscape:cx="974.93748"
     inkscape:cy="618.48012"
     inkscape:window-width="1920"
     inkscape:window-height="1055"
     inkscape:window-x="0"
     inkscape:window-y="0"
     inkscape:window-maximized="1"
     inkscape:current-layer="layer1" />
  <defs
     id="defs1367" />
  <g
     inkscape:label="Calque 1"
     inkscape:groupmode="layer"
     id="layer1">
    <polygon
       class="p"
       points="766.814,432.931 764.624,432.658 762.64,435.258 760.656,434.915 757.508,438.61 757.372,440.389 759.287,441.347 759.082,443.058 760.245,444.358 760.04,446.821 762.093,447.642 762.982,449.284 764.419,449.558 765.924,448.6 766.129,447.026 769.824,445.316 774.614,447.163 776.393,445.042 777.624,447.163 779.608,446.41 780.84,447.642 784.124,448.121 786.656,446.889 787.956,446.821 788.024,448.189 789.872,450.105 793.908,446.616 795.003,446.616 795.619,447.642 795.345,448.942 794.387,449.215 794.182,450.584 792.745,450.173 793.224,452.021 791.035,455.237 794.114,459 796.44,459 797.466,458.042 798.493,456.605 799.587,456.263 799.04,455.373 798.493,454.758 799.108,454.142 800.545,454.142 802.393,451.131 802.598,449.489 803.693,447.984 802.393,446.273 803.829,445.863 804.445,444.973 803.487,442.715 802.119,442.237 802.119,439.431 800.477,439.431 800.545,438.268 801.845,437.379 801.845,436.147 800.956,436.147 800.956,434.984 800.477,432.794 800.956,430.4 799.04,430.947 797.877,429.51 797.877,428.142 797.877,426.91 796.919,425.747 795.072,426.431 794.25,425.542 794.25,424.037 793.772,422.942 793.772,421.642 790.282,420.889 790.487,418.084 789.256,416.715 790.624,416.442 791.856,415.621 792.198,414.663 791.582,413.773 790.282,414.663 787.614,414.047 785.014,416.168 782.687,413.294 783.44,411.652 784.603,411.31 785.629,410.147 788.024,409.531 788.982,408.163 787.408,407.547 786.861,405.905 784.466,406.794 784.261,404.879 783.029,405.152 782.14,403.921 782.824,402.552 782.208,401.594 783.372,399.884 785.219,399.816 786.724,400.568 788.229,402.005 790.214,402.005 790.214,400.431 790.829,398.789 790.351,397.421 791.514,397.215 793.772,397.968 793.772,395.437 791.24,394.684 786.177,398.105 784.193,397.831 781.25,399.61 779.882,402.005 778.377,398.789 777.214,397.626 775.845,394.547 773.245,392.768 772.082,389.894 769.551,390.168 769.619,388.526 768.045,387.021 765.651,385.105 763.187,385.994 761.614,384.079 760.177,384.079 758.808,382.437 757.508,382.437 756.756,380.658 748.819,378.4 742.866,379.426 738.624,381.821 735.203,388.526 735.887,391.537 737.598,395.437 739.651,395.437 740.54,397.626 743.619,400.363 744.166,402.005 742.866,407.684 748.203,416.989 750.051,417.537 750.803,420.068 755.798,421.437 758.056,425.542 764.145,425.542 766.608,425.542 766.608,424.379 769.414,423.147 769.824,427.252 771.193,428.758 771.329,431.084 773.793,431.837 775.298,433.616 773.929,433.547 772.493,435.531 768.661,435.531 766.882,434.642 "
       id="polygon580"
       style="fill:#efdcba;stroke:#000000"
       transform="matrix(2.1062515,0,0,2.1062515,-1519.6972,-775.3309)" />
  </g>
</svg>
