<?xml version="1.0" encoding="UTF-8" standalone="no"?>
<!-- Created with Inkscape (http://www.inkscape.org/) -->

<svg
   width="210mm"
   height="210mm"
   viewBox="0 0 210 210"
   version="1.1"
   id="svg1370"
   inkscape:version="1.2.2 (b0a8486541, 2022-12-01)"
   sodipodi:docname="03.svg"
   xmlns:inkscape="http://www.inkscape.org/namespaces/inkscape"
   xmlns:sodipodi="http://sodipodi.sourceforge.net/DTD/sodipodi-0.dtd"
   xmlns="http://www.w3.org/2000/svg"
   xmlns:svg="http://www.w3.org/2000/svg">
  <sodipodi:namedview
     id="namedview1372"
     pagecolor="#ffffff"
     bordercolor="#000000"
     borderopacity="0.25"
     inkscape:showpageshadow="2"
     inkscape:pageopacity="0.0"
     inkscape:pagecheckerboard="0"
     inkscape:deskcolor="#d1d1d1"
     inkscape:document-units="mm"
     showgrid="false"
     inkscape:zoom="0.37592154"
     inkscape:cx="969.61723"
     inkscape:cy="615.82"
     inkscape:window-width="949"
     inkscape:window-height="1041"
     inkscape:window-x="962"
     inkscape:window-y="5"
     inkscape:window-maximized="0"
     inkscape:current-layer="layer1" />
  <defs
     id="defs1367" />
  <g
     inkscape:label="Calque 1"
     inkscape:groupmode="layer"
     id="layer1">
    <path
       class="p"
       d="m 77.717826,22.318153 h 4.627682 l 15.279262,7.534258 10.2775,1.290828 10.60064,4.251854 h 3.2824 l 11.56834,10.814901 4.84369,4.566211 3.28241,2.314729 7.63963,6.940635 3.22972,-1.290821 2.69056,3.712684 a 37.595754,37.595754 0 0 0 5.00351,4.304528 c 0.59188,0 8.12435,5.003518 8.12435,5.003518 h 2.85213 l 4.03934,2.153155 1.56129,5.971203 v 2.151384 l 0.9677,2.314718 h 1.99157 v 2.690559 l 3.71268,6.134535 -0.96944,6.995088 -5.59538,3.92694 -0.96944,3.71269 -4.56621,4.52055 -1.45241,0.96768 -0.16156,2.36741 h -1.99509 l -1.45242,5.32843 -10.92378,16.94946 h -2.04427 l -1.07657,1.12922 -0.16157,2.04602 -1.55953,0.96772 -0.64631,1.56126 a 21.457697,21.457697 0 0 0 1.07657,2.20585 67.73102,67.73102 0 0 0 -2.85213,6.24167 v 1.45241 l -1.72111,1.131 -2.20584,3.60376 -0.43204,2.85218 -3.44223,5.00525 0.91324,1.82824 -0.15983,1.61397 -0.75343,1.22938 -3.87426,4.52056 -0.96944,2.79769 -8.39481,4.03932 -2.85037,4.25008 -2.04601,0.48456 -1.45242,1.07658 -3.44398,-1.29085 -1.93185,-1.83003 -8.55463,1.55954 1.55953,-2.85031 -2.63435,-2.31478 -1.83,-2.04423 -2.3674,2.313 -3.60555,2.63431 -7.532503,-1.23813 -5.005278,-1.7229 -0.482962,-2.79768 h -2.098702 l -1.991576,1.56134 -0.107134,1.29084 -2.690556,0.43012 v 1.6684 h -2.367352 v 1.99159 l -4.039346,1.82823 -2.312963,-0.43012 -1.131018,4.52057 -3.712683,-1.61403 -0.646317,-1.99153 -1.828241,0.96945 -5.488239,-0.1613 -1.229363,-2.26022 -4.520557,-0.1613 -2.69055,-3.3895 -2.474538,-2.95923 2.797684,0.1613 2.367404,-4.74188 1.991575,0.32326 3.443981,-3.87432 2.528981,-6.13447 1.721108,-2.04429 -0.43026,-1.45241 3.120836,-2.36742 0.161562,-2.20585 0.915,-1.29257 -0.107133,-2.85211 0.751671,-2.63438 -0.751671,-3.6582 0.430258,-3.39129 -1.561297,-1.29084 0.753431,-2.63439 3.874252,-4.03933 1.829999,-0.16129 0.915001,-4.41166 1.721113,-1.45418 0.484756,-6.6737 1.076568,-1.29084 -1.076568,-2.31471 -1.722867,0.48474 -2.151393,-2.15138 0.591821,-1.5613 -2.205836,-3.49842 -3.821567,-0.91324 0.430258,-2.04601 -2.528981,-0.64453 -0.107134,-2.04602 -1.613981,-1.22937 -0.484754,-2.85212 -2.634354,-2.52899 0.484754,-2.528968 1.559538,-1.931865 -4.197405,-2.044262 1.023886,-3.336844 -0.646317,-2.205836 0.484754,-2.367411 -1.454164,-0.323125 -1.074817,-0.914992 0.482963,-3.712685 -1.183702,-2.690559 1.991575,-1.991569 v -2.205825 l -1.452411,-1.668434 0.75343,-1.452407 -0.432051,-1.721114 -1.613981,-0.862311 v -2.312959 l 0.323125,-4.197406 -0.914999,-1.559541 1.722873,-1.561288 0.161562,-3.712684 1.22937,-1.229368 0.430259,-1.989822 1.668424,-1.076566 4.574993,-7.211113 4.518796,-2.205826 1.668424,-2.63436 2.312968,-3.120829 4.197404,-4.358979 -0.107133,-4.197404 -0.161563,-2.151393 2.205829,-3.767126 z"
       id="path448"
       style="fill:#efdcba;stroke:#000000;stroke-width:1.75624" />
  </g>
</svg>
