<?xml version="1.0" encoding="UTF-8" standalone="no"?>
<!-- Created with Inkscape (http://www.inkscape.org/) -->

<svg
   width="210mm"
   height="210mm"
   viewBox="0 0 210 210"
   version="1.1"
   id="svg1370"
   inkscape:version="1.2.2 (b0a8486541, 2022-12-01)"
   sodipodi:docname="06.svg"
   xmlns:inkscape="http://www.inkscape.org/namespaces/inkscape"
   xmlns:sodipodi="http://sodipodi.sourceforge.net/DTD/sodipodi-0.dtd"
   xmlns="http://www.w3.org/2000/svg"
   xmlns:svg="http://www.w3.org/2000/svg">
  <sodipodi:namedview
     id="namedview1372"
     pagecolor="#ffffff"
     bordercolor="#000000"
     borderopacity="0.25"
     inkscape:showpageshadow="2"
     inkscape:pageopacity="0.0"
     inkscape:pagecheckerboard="0"
     inkscape:deskcolor="#d1d1d1"
     inkscape:document-units="mm"
     showgrid="false"
     inkscape:zoom="0.37592154"
     inkscape:cx="969.61723"
     inkscape:cy="615.82"
     inkscape:window-width="949"
     inkscape:window-height="1041"
     inkscape:window-x="962"
     inkscape:window-y="5"
     inkscape:window-maximized="0"
     inkscape:current-layer="layer1" />
  <defs
     id="defs1367" />
  <g
     inkscape:label="Calque 1"
     inkscape:groupmode="layer"
     id="layer1">
    <polygon
       class="p"
       points="37.048,303.417 39.884,304.807 41.831,303.695 43.499,305.363 45.224,305.363 47.281,302.027 50.006,303.973 56.18,304.084 58.349,305.363 59.294,305.363 59.294,307.199 62.131,307.199 65.078,309.701 65.078,312.482 64.022,312.983 63.076,314.985 64.077,315.652 65.078,316.653 62.131,318.489 59.628,321.548 57.403,323.16 57.07,325.774 54.567,327.109 54.345,329.501 52.342,330.891 54.845,331.725 54.845,333.505 56.847,336.008 58.349,336.008 59.294,338.288 61.241,337.899 59.85,342.125 55.846,344.183 54.734,346.018 55.29,348.243 56.402,349.3 52.565,349.3 50.173,352.136 50.563,353.526 50.062,355.028 48.727,355.417 48.116,356.474 50.73,361.146 55.679,363.204 55.457,364.316 54.011,365.373 51.397,365.373 49.728,366.763 49.005,364.483 46.614,362.87 44.667,364.316 44.834,366.763 42.943,368.71 40.886,368.71 39.217,366.819 37.104,367.875 36.325,364.483 34.879,364.483 32.265,366.374 32.933,360.701 32.321,358.977 28.761,361.146 25.647,360.033 29.039,357.864 30.43,355.974 31.042,353.137 30.374,351.469 27.371,351.524 22.977,344.85 30.374,345.017 31.82,350.579 36.158,351.969 36.992,353.248 39.662,353.971 42.165,353.36 44.389,350.134 40.441,342.96 38.661,342.626 37.549,341.124 36.158,340.346 32.821,336.453 30.041,334.673 29.095,333.171 30.93,331.781 35.046,330.78 31.431,329.389 30.708,328.277 31.82,324.551 29.929,322.715 30.597,320.435 32.877,319.712 29.929,318.989 29.484,317.376 30.875,315.708 30.93,313.873 29.929,312.872 28.316,313.539 25.925,312.593 24.257,313.038 19.974,309.646 17.972,310.146 15.914,308.422 16.304,307.199 19.529,303.862 18.695,302.583 16.304,302.471 18.306,296.854 20.642,297.355 22.977,295.464 23.033,292.683 24.535,293.239 26.036,292.127 26.203,289.457 28.261,288.011 28.761,287.066 30.986,286.399 30.986,288.345 28.15,290.18 33.099,293.517 34.1,296.131 37.104,297.355 36.714,298.634 37.604,301.248 "
       id="polygon440"
       style="fill:#efdcba;stroke:#000000"
       transform="matrix(2.0111671,0,0,2.0111671,17.772938,-548.79261)" />
    <polygon
       class="p"
       points="11.354,284.563 12.744,285.787 15.247,284.396 11.743,281.06 9.352,283.451 "
       id="polygon442"
       style="fill:#efdcba;stroke:#000000"
       transform="matrix(2.0111671,0,0,2.0111671,17.772938,-548.79261)" />
    <path
       class="p"
       d="m 161.85496,89.726808 4.02233,1.67933 9.05026,-12.97606 4.02233,2.79754 3.24401,6.70925 -0.89497,3.46927 0.89497,3.13138 -6.0335,5.480422 c 0,0 -0.55908,5.36781 -1.45407,4.47485 -0.89497,-0.89296 -7.03909,-10.514372 -7.03909,-10.514372 z"
       id="path444"
       style="fill:#efdcba;stroke:#000000;stroke-width:2.01116" />
  </g>
</svg>
