<?xml version="1.0" encoding="UTF-8" standalone="no"?>
<!-- Created with Inkscape (http://www.inkscape.org/) -->

<svg
   width="210mm"
   height="210mm"
   viewBox="0 0 210 210"
   version="1.1"
   id="svg1370"
   inkscape:version="1.2.2 (b0a8486541, 2022-12-01)"
   sodipodi:docname="988.svg"
   xmlns:inkscape="http://www.inkscape.org/namespaces/inkscape"
   xmlns:sodipodi="http://sodipodi.sourceforge.net/DTD/sodipodi-0.dtd"
   xmlns="http://www.w3.org/2000/svg"
   xmlns:svg="http://www.w3.org/2000/svg">
  <sodipodi:namedview
     id="namedview1372"
     pagecolor="#ffffff"
     bordercolor="#000000"
     borderopacity="0.25"
     inkscape:showpageshadow="2"
     inkscape:pageopacity="0.0"
     inkscape:pagecheckerboard="0"
     inkscape:deskcolor="#d1d1d1"
     inkscape:document-units="mm"
     showgrid="false"
     inkscape:zoom="0.37592154"
     inkscape:cx="969.61723"
     inkscape:cy="615.82"
     inkscape:window-width="949"
     inkscape:window-height="1041"
     inkscape:window-x="962"
     inkscape:window-y="5"
     inkscape:window-maximized="0"
     inkscape:current-layer="layer1" />
  <defs
     id="defs1367" />
  <g
     inkscape:label="Calque 1"
     inkscape:groupmode="layer"
     id="layer1">
    <polygon
       class="p"
       points="22.41,510.846 22.922,510.782 22.858,510.046 22.218,509.438 22.25,508.83 22.026,508.222 21.834,508.062 21.61,507.262 20.938,506.814 21.514,507.934 21.322,508.19 21.098,508.734 21.93,510.494 "
       id="polygon232"
       style="fill:#efdcba;stroke:#000000"
       transform="matrix(1.4923987,0,0,1.4923987,-9.7633804,-711.93923)" />
    <polygon
       class="p"
       points="19.915,505.15 19.851,505.758 20.235,506.142 20.522,505.758 19.947,504.574 19.595,504.574 19.595,504.83 "
       id="polygon234"
       style="fill:#efdcba;stroke:#000000"
       transform="matrix(1.4923987,0,0,1.4923987,-9.7633804,-711.93923)" />
    <polygon
       class="p"
       points="26.186,518.3 25.994,518.684 26.122,519.292 25.258,518.332 25.866,517.98 "
       id="polygon236"
       style="fill:#efdcba;stroke:#000000"
       transform="matrix(1.4923987,0,0,1.4923987,-9.7633804,-711.93923)" />
    <polygon
       class="p"
       points="30.153,517.533 30.153,518.3 30.473,518.62 29.801,519.164 29.481,518.684 29.385,518.012 29.801,517.98 29.513,517.437 29.737,517.149 "
       id="polygon238"
       style="fill:#efdcba;stroke:#000000"
       transform="matrix(1.4923987,0,0,1.4923987,-9.7633804,-711.93923)" />
    <path
       class="p"
       d="m 42.40043,62.096335 1.044677,1.623731 0.907381,0.716352 c 0,0 0.762615,1.384944 0.714856,1.384944 -0.04794,0 -0.810368,-0.286541 -0.810368,-0.286541 l -0.573081,-0.09549 -0.429811,-0.716351 c 0,0 -0.334316,-0.09549 -0.382035,-0.238765 -0.04794,-0.09549 -0.573082,-1.384943 -0.573082,-1.384943 z"
       id="path240"
       style="fill:#efdcba;stroke:#000000;stroke-width:1.49241" />
    <polygon
       class="p"
       points="28.425,521.148 28.617,520.828 29.193,521.628 "
       id="polygon242"
       style="fill:#efdcba;stroke:#000000"
       transform="matrix(1.4923987,0,0,1.4923987,-9.7633804,-711.93923)" />
    <path
       class="p"
       d="m 37.147188,63.146985 0.620835,0.382035 0.382035,1.193921 0.382035,-0.716351 3.581757,4.535396 h 0.477586 v 0.525305 l 1.343158,0.716351 0.762617,1.384945 1.719242,0.716351 1.002893,-0.573082 1.193915,1.719244 0.382035,-0.955133 -0.716351,-0.334317 -0.286541,-1.289432 -0.382035,-1.432703 2.387842,0.668593 0.716351,0.668598 h 0.668593 l 1.193921,0.668593 0.525305,-0.04794 0.907381,0.620841 1.383455,0.42981 1.098403,1.432702 2.238598,1.384944 -0.238765,0.668599 0.620834,0.525306 0.668593,0.859621 1.671491,0.714853 0.573081,0.716363 1.623725,1.002887 1.526725,0.38204 2.626625,3.390723 1.57597,2.196817 1.91027,1.002886 0.525307,0.525308 0.6686,0.667097 0.09546,1.098415 1.002887,-0.620836 2.195327,1.193907 0.716351,0.764115 0.429803,-0.191043 0.859631,0.620834 0.90737,0.382041 0.429804,0.573083 0.6686,-0.382041 h 1.343159 l 0.525307,0.573084 0.716351,-0.191043 0.716351,0.238759 h 0.525308 l 0.286536,0.525308 0.907382,-0.04791 0.09546,0.668587 -0.238761,0.955135 0.523841,0.716351 -0.28508,1.19393 0.571592,0.238761 0.334323,0.668586 2.196805,2.004295 0.907383,-0.286535 1.38495,0.23876 0.668587,0.573083 -0.334311,2.578868 -2.196817,0.23876 2.05355,0.38204 v 0.90737 l 1.289423,1.62374 0.429812,0.57308 1.193917,0.62083 0.620843,0.95514 1.95654,0.19104 -0.238772,0.57159 0.668594,0.0479 1.384956,1.09841 0.859619,1.24168 -0.955139,-0.28655 -1.241676,-1.00289 -0.238764,0.62084 2.005789,1.57597 0.7641,1.52822 0.6686,0.19104 0.859615,0.62085 2.34008,0.66859 h 1.24168 l 0.62083,0.23877 0.61936,0.90737 v 0.33432 l 0.38203,0.0479 0.62084,0.66861 0.28654,-0.0479 0.42982,0.5253 -0.0955,0.71635 0.76411,1.3357 -0.19104,-1.76552 1.38495,1.00142 0.28653,-1.67001 1.09841,2.62512 0.85962,0.57309 0.6686,1.0984 v 0.90739 l 0.33431,0.28655 0.5253,0.66858 -0.19104,0.76411 0.62083,-0.90738 0.0479,-1.19391 -0.71635,-0.42982 a 10.05429,10.05429 0 0 0 -0.0954,-1.19392 8.8141064,8.8141064 0 0 1 -0.19105,-1.0984 l 2.23859,2.34008 1.28795,0.28654 -0.61936,0.85962 0.71487,0.23877 v 1.5282 l 1.0984,0.0955 0.42981,-1.24167 0.95514,0.85962 1.28943,1.19393 1.86252,1.24166 1.95802,1.86252 1.38495,0.57159 0.5253,0.38203 0.90589,0.52531 0.57308,1.28942 1.91027,0.19106 1.67148,1.57597 1.04468,0.62083 0.23877,1.19392 1.00289,1.38494 1.767,1.38496 1.04467,2.09981 1.62225,0.5253 0.28653,0.62084 0.71636,0.19104 v 0.6686 l 1.19391,0.42982 0.38205,-1.09842 0.33431,0.6686 1.09839,0.90738 -0.62083,0.38203 -0.23875,0.28655 -0.90738,-0.0479 -0.19106,0.38205 0.71636,0.0954 0.5253,0.23877 1.00291,-0.28655 0.7641,0.28655 h 0.71635 l -0.19104,0.90739 2.1013,0.33431 0.71635,0.5253 h 0.85813 l 0.90738,0.62084 1.38494,0.90737 0.33432,0.57309 0.66858,0.33431 0.66861,1.04468 -0.23878,0.33431 -0.33431,0.19105 v 0.95515 l 0.62084,0.28653 0.38204,0.0954 0.7641,1.28944 0.57309,1.19392 1.19391,1.24168 -0.95513,0.0955 0.33432,0.62083 -0.42981,2.53709 -0.66861,0.7641 -0.38202,-0.33432 -0.23877,0.6671 -0.66859,-0.38056 0.23876,0.90588 -0.90737,0.71635 -0.42981,0.52531 -1.52822,-0.0479 1.4327,-0.57309 -0.23877,-0.62084 -1.09841,0.23877 0.19106,-0.42981 -0.71637,-0.85812 v -0.90739 l -0.66858,0.0955 0.0479,0.90738 -0.33431,0.28654 -0.23878,-1.00289 0.23878,-0.71635 -1.19393,0.71635 0.0479,0.57308 -0.57309,0.0955 -0.19104,0.5253 1.00289,0.52385 0.33432,0.95513 -1.19392,-0.66859 -0.66859,0.71634 -0.76411,0.23877 -0.33433,-0.5253 -1.52821,-0.5253 1.0029,-1.2402 -1.62374,-0.23876 -0.38203,-1.0984 -0.5253,0.5253 -0.0955,-0.71635 -1.00289,-0.23876 -0.85961,-0.85963 -0.71636,-0.0479 v 0.95513 l -2.33859,-1.62373 0.23877,-0.6686 -0.42981,-0.19104 -1.09841,-0.0955 -0.38204,-0.28654 -0.71634,-0.33432 -0.19105,1.19392 0.23876,0.5253 h -0.76411 l -0.0479,1.04468 -0.66858,-0.0954 a 14.834444,14.834444 0 0 0 -0.19106,1.52821 c 0.19106,-0.23875 -1.19391,-1.62373 -1.19391,-1.62373 l -1.91028,-1.1939 0.71636,0.0479 1.62372,0.71635 0.76411,-0.95514 c 0,0 -1.67147,-0.66858 -1.62372,-0.62083 a 9.5185194,9.5185194 0 0 0 1.62372,-0.23877 l -0.19104,-0.95514 -1.09841,-0.38202 0.28653,-0.71636 -2.37588,-0.18806 0.19104,1.09841 -0.52531,0.0954 -0.66858,1.0984 -0.19106,-0.33431 0.23877,-1.0984 -0.66709,-0.0954 -0.19104,-0.90738 -0.42982,-0.0479 0.90588,-0.76412 v -0.33431 l -1.19392,0.52531 -0.42982,-0.52531 -0.33431,1.09841 -2.23859,-1.43271 -0.71635,-1.04468 -1.28944,-0.71485 -0.0479,-0.62084 -0.76412,-0.19104 -0.33431,0.4298 -0.33432,-0.4298 0.19106,-0.33432 -0.23878,-0.71636 0.71635,0.42981 0.6686,-0.0479 0.19104,-1.00289 -0.90736,-0.33431 0.85961,-0.28654 0.0955,-0.71635 -0.66859,-0.0955 0.76411,-0.57308 -1.24167,-0.28654 0.28653,-1.24168 -1.52822,-1.00289 -0.38202,0.28654 -0.71635,-0.0479 0.23876,-0.95515 -0.4298,-0.90736 -0.95365,0.23875 -0.6686,0.42982 0.52531,1.38495 -1.00289,-0.6686 -0.19105,0.95513 -1.38494,-1.00289 -1.57597,-0.4298 -0.23877,-1.24167 -1.95803,-1.52673 -0.85963,0.4298 h -1.19392 l -0.4298,-0.66859 0.66859,-0.57308 -0.90738,-0.95514 h -0.57158 l -0.33431,-0.7641 -0.23878,1.00288 -0.23876,-1.00288 -0.0479,-1.38495 -1.19391,-1.19392 -0.0955,-0.85962 -1.24167,1.38494 h -1.01185 l 0.28653,-1.0984 -1.19391,-0.52531 -0.191035,0.90738 -0.71636,-0.33432 -0.33431,-0.52531 -4.201114,-1.34316 -0.668584,-0.90737 -1.098416,-0.42982 0.716345,-1.24018 -0.764095,0.19104 0.716344,-1.19389 H 92.3406 l -1.343157,0.90736 -2.10129,-0.95513 -3.008672,-1.34316 -0.955147,-1.09841 -0.189518,-0.95513 -1.098402,-0.33431 -0.382039,-0.42981 h -0.286512 l -0.286547,-0.38216 -2.960921,-2.1968 -0.191043,-1.04468 -0.238772,-0.66711 0.286547,-0.62083 -1.044677,-0.71635 -0.716351,1.04468 -0.382039,-0.6686 -1.002887,0.71635 -0.09546,-0.95513 0.620847,0.19104 -0.04791,-0.66859 -0.859631,-0.71636 -0.573083,-0.0955 0.09546,-0.42981 -0.429815,-0.7641 -0.714861,0.57308 -0.573083,-0.23877 -0.716351,1.57597 -0.716351,-1.24167 0.38204,-1.0029 -0.332797,-0.56711 -1.193919,-0.33431 -1.719238,-2.57887 -0.09546,-0.62084 -1.241682,-0.7641 0.429815,-0.62085 -0.668599,-0.71484 0.334323,-0.6686 -0.286547,-1.52822 -0.7641,0.28655 -0.382035,-1.91029 -0.668593,0.0955 -0.238765,0.71636 -2.577376,-0.62085 c 0,0 -1.193915,-2.38784 -1.193915,-2.53708 0,-0.14925 -0.716351,-0.85962 -0.716351,-0.85962 l -0.286541,-1.862516 -1.002892,-0.238759 -0.57308,-0.523842 -0.716351,0.23876 -0.668599,-0.429803 -0.238765,-0.764115 -1.623731,-0.286535 -0.716353,-1.289435 -1.526719,-0.668599 -2.101302,-2.817652 -1.343158,-0.716351 1.343158,-0.23876 0.382036,-1.193919 -1.193921,-1.38495 -0.286541,0.620848 -2.435594,-3.007194 -1.002892,-2.292321 -0.90738,-0.09546 -1.528214,-1.002898 -0.238765,-0.573084 -1.956537,-1.767001 -0.525305,-2.005785 -1.044683,-0.95363 -0.573081,-1.575974 1.432702,0.334316 0.859622,-0.859621 -0.28654,-1.289432 -1.193916,-1.528214 c 0,0 -1.241679,-0.382037 -1.343159,-0.429812 a 3.0444933,3.0444933 0 0 0 -0.668597,0.382036 c 0,0 -0.286542,1.289432 -0.286542,1.193921 a 9.2185466,9.2185466 0 0 1 0,-1.623732 l 0.09549,-0.668593 -0.429811,-0.668593 -0.429811,1.193915 -1.098409,0.62084 -0.04794,-1.002891 -1.623732,-1.289433 1.671485,-0.573081 0.668598,0.238765 0.525305,-0.238765 0.191046,-0.76411 -0.955138,-0.859622 0.716351,-0.332793 -0.191046,-1.193922 -1.19392,-1.289431 -0.191047,-0.620835 -0.525304,0.238765 -0.191047,-0.382034 0.525306,-0.286541 z"
       id="path244"
       style="fill:#efdcba;stroke:#000000;stroke-width:1.49241" />
    <polygon
       class="p"
       points="56.261,554.455 56.613,554.999 56.997,554.711 56.549,554.455 "
       id="polygon246"
       style="fill:#efdcba;stroke:#000000"
       transform="matrix(1.4923987,0,0,1.4923987,-9.7633804,-711.93923)" />
    <path
       class="p"
       d="m 101.3233,133.6255 a 1.4341951,1.4341951 0 0 1 0.28655,-0.52529 l -0.19104,-0.38204 -0.57308,0.42982 z"
       id="path248"
       style="fill:#efdcba;stroke:#000000;stroke-width:1.49241" />
    <polygon
       class="p"
       points="81.697,572.18 81.314,571.669 81.665,571.733 "
       id="polygon250"
       style="fill:#efdcba;stroke:#000000"
       transform="matrix(1.4923987,0,0,1.4923987,-9.7633804,-711.93923)" />
    <polygon
       class="p"
       points="82.817,571.957 81.985,571.701 82.369,572.404 "
       id="polygon252"
       style="fill:#efdcba;stroke:#000000"
       transform="matrix(1.4923987,0,0,1.4923987,-9.7633804,-711.93923)" />
    <polygon
       class="p"
       points="85.121,571.829 84.865,571.509 84.513,572.148 84.769,572.148 "
       id="polygon254"
       style="fill:#efdcba;stroke:#000000"
       transform="matrix(1.4923987,0,0,1.4923987,-9.7633804,-711.93923)" />
    <polygon
       class="p"
       points="83.937,572.596 84.193,572.468 84.321,572.788 83.489,573.268 83.233,572.276 "
       id="polygon256"
       style="fill:#efdcba;stroke:#000000"
       transform="matrix(1.4923987,0,0,1.4923987,-9.7633804,-711.93923)" />
    <polygon
       class="p"
       points="83.713,573.556 83.937,574.132 84.065,574.74 83.361,574.452 83.361,573.812 "
       id="polygon258"
       style="fill:#efdcba;stroke:#000000"
       transform="matrix(1.4923987,0,0,1.4923987,-9.7633804,-711.93923)" />
    <path
       class="p"
       d="m 145.00881,159.02763 0.95364,0.42981 0.23876,0.90738 -0.95364,0.62085 -0.71635,-0.0955 0.19105,0.57308 0.90588,0.0479 -0.85813,0.66858 -0.95513,-0.42981 v -1.62372 a 3.3161098,3.3161098 0 0 1 0.23877,-0.62084 l 0.76411,0.23876 z"
       id="path260"
       style="fill:#efdcba;stroke:#000000;stroke-width:1.49241" />
    <polygon
       class="p"
       points="119.292,590.482 119.612,589.81 119.452,589.362 119.452,587.986 120.22,587.346 121.5,588.402 121.756,588.338 122.011,589.042 122.843,589.65 122.779,590.578 122.331,589.874 121.884,590.194 122.011,590.77 121.532,591.506 120.604,591.442 "
       id="polygon262"
       style="fill:#efdcba;stroke:#000000"
       transform="matrix(1.4923987,0,0,1.4923987,-9.7633804,-711.93923)" />
    <polygon
       class="p"
       points="122.683,591.634 122.619,591.218 122.075,591.378 122.427,590.802 123.003,591.122 122.683,592.146 122.011,592.05 "
       id="polygon264"
       style="fill:#efdcba;stroke:#000000"
       transform="matrix(1.4923987,0,0,1.4923987,-9.7633804,-711.93923)" />
    <path
       class="p"
       d="m 184.74243,116.14953 a 14.365829,14.365829 0 0 1 2.00429,1.28942 l 1.57597,-1.19391 1.76701,-0.76412 -0.57309,1.62374 0.42981,1.19392 1.19392,1.00289 0.62084,0.62084 1.19391,-0.23877 1.34317,0.0955 1.90878,-1.28942 -0.38058,1.8625 0.23877,1.19392 -0.33432,0.85962 -0.23876,3.39073 0.38203,1.04468 -2.10129,0.66859 -1.0029,0.66712 -1.52821,-0.23731 -1.04468,0.23731 -0.76411,-1.19394 0.0479,-1.09839 -1.57597,-0.28655 -2.52963,0.33431 1.19393,-1.71923 a 18.520667,18.520667 0 0 1 -1.43122,-2.29232 c -0.0479,-0.33431 -0.0479,-3.15195 -0.0479,-3.15195 l -1.8625,-2.19531 z"
       id="path266"
       style="fill:#efdcba;stroke:#000000;stroke-width:1.49241" />
    <polygon
       class="p"
       points="127.707,554.711 127.387,553.911 127.803,553.943 "
       id="polygon268"
       style="fill:#efdcba;stroke:#000000"
       transform="matrix(1.4923987,0,0,1.4923987,-9.7633804,-711.93923)" />
    <polygon
       class="p"
       points="129.242,547.864 129.626,548.344 130.234,548.536 129.69,547.928 129.338,547.544 "
       id="polygon270"
       style="fill:#efdcba;stroke:#000000"
       transform="matrix(1.4923987,0,0,1.4923987,-9.7633804,-711.93923)" />
    <polygon
       class="p"
       points="120.476,546.616 120.06,546.744 119.356,547.64 119.228,549.208 118.492,549.88 118.268,549.432 117.564,549.848 116.54,548.984 116.38,548.216 115.548,548.088 115.58,547.128 114.557,547 112.029,546.744 110.781,545.752 110.653,544.793 110.173,544.601 110.013,543.033 109.213,542.713 108.829,542.169 109.469,542.137 110.173,542.521 111.389,542.169 112.989,539.801 113.245,539.641 113.149,538.873 111.901,538.329 111.709,538.617 111.197,537.946 109.565,538.457 109.341,537.882 109.565,537.082 110.045,536.666 111.645,536.442 112.125,536.89 112.413,536.922 112.797,536.634 112.797,536.09 113.949,535.546 114.941,535.994 115.324,536.122 115.708,536.666 116.54,537.114 116.444,537.562 116.028,537.85 115.708,539.193 115.804,540.281 116.156,541.241 115.324,541.689 115.292,542.009 116.028,542.457 116.284,542.265 116.732,542.745 117.5,543.129 118.076,543.129 118.46,543.801 118.492,544.697 119.228,545.496 120.348,545.912 "
       id="polygon272"
       style="fill:#efdcba;stroke:#000000"
       transform="matrix(1.4923987,0,0,1.4923987,-9.7633804,-711.93923)" />
    <path
       class="p"
       d="m 136.56182,84.730052 1.04468,-0.286536 -1.24167,2.817642 v 0.667108 l -1.04468,0.286535 c 0,0 -1.67149,0.859631 -1.767,0.859631 -0.0954,0 -1.34315,-0.286547 -1.34315,-0.286547 l 1.28942,-0.859619 0.33431,-0.953644 h 0.52532 l 1.24018,-2.292321 v -1.629707 l 0.66859,-2.722137 0.7641,-1.343159 -0.23875,-1.34316 -1.09841,-0.714851 0.62084,-0.716351 -0.95365,0.191045 1.52672,-0.716351 1.24169,1.098409 0.71634,1.335701 0.52532,0.525297 -2.19683,1.193929 -0.4298,1.044677 -0.42981,1.193919 0.0479,1.34316 v 1.193918 z"
       id="path274"
       style="fill:#efdcba;stroke:#000000;stroke-width:1.49241" />
    <polygon
       class="p"
       points="94.304,537.242 93.152,537.466 92.928,536.89 93.6,536.954 94.56,536.858 "
       id="polygon276"
       style="fill:#efdcba;stroke:#000000"
       transform="matrix(1.4923987,0,0,1.4923987,-9.7633804,-711.93923)" />
    <polygon
       class="p"
       points="96.735,527.771 96.159,528.379 96.831,528.379 "
       id="polygon278"
       style="fill:#efdcba;stroke:#000000"
       transform="matrix(1.4923987,0,0,1.4923987,-9.7633804,-711.93923)" />
  </g>
</svg>
